<?xml version="1.0" encoding="utf-8"?>
<!-- Generator: Adobe Illustrator 23.0.0, SVG Export Plug-In . SVG Version: 6.00 Build 0)  -->
<svg version="1.1" id="Layer_1" xmlns="http://www.w3.org/2000/svg" xmlns:xlink="http://www.w3.org/1999/xlink" x="0px" y="0px"
	 viewBox="0 0 600 533" style="enable-background:new 0 0 600 533;" xml:space="preserve">
<style type="text/css">
	.st0{clip-path:url(#SVGID_2_);}
	.st1{fill:url(#SVGID_3_);}
	.st2{fill-rule:evenodd;clip-rule:evenodd;fill:#FFC107;}
	.st3{fill-rule:evenodd;clip-rule:evenodd;fill:url(#SVGID_4_);}
	.st4{fill-rule:evenodd;clip-rule:evenodd;fill-opacity:0.15;}
	.st5{fill:#0D0015;}
	.st6{fill:#FEFEFE;}
	.st7{fill:#E7C21E;}
	.st8{fill:#347F3D;}
	.st9{fill:#FDFDFD;}
	.st10{fill:#FEF24F;}
	.st11{fill:#EB1C24;}
	.st12{fill:#FDF14F;}
	.st13{fill:#FCFCFC;}
	.st14{fill:#347E3D;}
	.st15{fill:#FBFBFB;}
	.st16{fill:#FCF14F;}
	.st17{fill:#FAFAFA;}
	.st18{fill:#FDFCFD;}
	.st19{fill:#FBFAFB;}
	.st20{fill:#F8F8F8;}
	.st21{fill:#F8F8F9;}
	.st22{fill:#F9F9F9;}
	.st23{fill:#F7F7F7;}
	.st24{fill:#F8F7F8;}
	.st25{fill:#F5F5F5;}
	.st26{fill:#F9F8F9;}
	.st27{fill:#EFEFF0;}
	.st28{fill:#34783C;}
	.st29{fill:#0E0117;}
	.st30{fill:#1A0E23;}
	.st31{fill:#1B0F23;}
	.st32{fill:#12051B;}
	.st33{fill:#F6F6F6;}
	.st34{fill:#11041A;}
	.st35{fill:#1D1125;}
	.st36{fill:#11051A;}
	.st37{fill:#FDFDFC;}
	.st38{fill:#22162A;}
	.st39{fill:#170B20;}
	.st40{fill:#100419;}
	.st41{fill:#15081D;}
	.st42{fill:#160A1F;}
	.st43{fill:#1E1226;}
	.st44{fill:#0D0016;}
	.st45{fill:#CAC8CC;}
	.st46{fill:#D5D3D7;}
	.st47{fill:#C6C5CA;}
	.st48{fill:#E8E7E9;}
	.st49{fill:#211629;}
	.st50{fill:#817F84;}
	.st51{fill:#C8C5CA;}
	.st52{fill:#BAB6BC;}
	.st53{fill:#0D0116;}
	.st54{fill:#0D0115;}
	.st55{fill:#0E0116;}
	.st56{fill:#34803D;}
	.st57{fill:#EA1E25;}
	.st58{fill:#F7F9F7;}
	.st59{fill:#1F1427;}
	.st60{fill:#100318;}
	.st61{fill:#12061B;}
	.st62{fill:#0F0218;}
	.st63{fill:#0F0318;}
	.st64{fill:#221629;}
	.st65{fill:#1C1124;}
	.st66{fill:#1D1126;}
	.st67{fill:#D8D6DA;}
	.st68{fill:#413747;}
	.st69{fill:#514858;}
	.st70{fill:#FCF050;}
	.st71{fill:#F7F8F5;}
	.st72{fill:#F9FAF8;}
</style>
<title>Bootstrap</title>
<g>
	<g>
		<defs>
			<rect id="SVGID_1_" x="0.2" y="0" width="599.6" height="533"/>
		</defs>
		<clipPath id="SVGID_2_">
			<use xlink:href="#SVGID_1_"  style="overflow:visible;"/>
		</clipPath>
		<g class="st0">
			
				<radialGradient id="SVGID_3_" cx="-588.8443" cy="-2.2139" r="1" gradientTransform="matrix(1.631842e-14 266.5 -266.5 1.631842e-14 -290.0025 157193.5)" gradientUnits="userSpaceOnUse">
				<stop  offset="0" style="stop-color:#CED4DA"/>
				<stop  offset="1" style="stop-color:#CED4DA;stop-opacity:0"/>
			</radialGradient>
			<circle class="st1" cx="300" cy="266.5" r="266.5"/>
			<path class="st2" d="M92.1,359.1h65.3v30.6H92.1V359.1z M158.8,357.8v33.3h-68v-33.3H158.8z"/>
			
				<linearGradient id="SVGID_4_" gradientUnits="userSpaceOnUse" x1="490.7329" y1="751.0459" x2="1048.3868" y2="994.5179" gradientTransform="matrix(0.6662 0 0 0.6662 -196.7398 -307.9656)">
				<stop  offset="0" style="stop-color:#47A928"/>
				<stop  offset="0.995" style="stop-color:#0D3F1B"/>
			</linearGradient>
			<path class="st3" d="M135.2,200.3c-5.7-18.8,4.4-40.2,24.3-45.6l206.3-55.3c20-5.4,39.4,8.2,43.8,27.3
				c4.2,18.4,11.4,41.7,22.5,59.4s24.5,27.2,41.3,24.4l4.7,17.7c-16,6-22.8,20.9-23.6,41.8c-0.8,20.8,4.7,44.6,10.2,62.7
				c5.7,18.8-4.4,40.2-24.3,45.6l-206.3,55.3c-20,5.4-39.4-8.2-43.8-27.3c-4.2-18.4-11.4-41.7-22.5-59.4
				c-11.1-17.7-24.5-27.2-41.3-24.4l-4.7-17.7c16-6,22.8-20.9,23.6-41.8C146.2,242.1,140.7,218.3,135.2,200.3L135.2,200.3z"/>
			<path class="st4" d="M159.7,155.4c-19.6,5.2-29.5,26.3-23.9,44.7c5.5,18.1,11,42,10.3,62.9c-0.8,20.8-7.5,35.9-23.5,42.2
				l4.4,16.6c17-2.6,30.4,7.2,41.4,24.8c11.2,17.7,18.3,41.2,22.6,59.6c4.3,18.8,23.5,32.1,43,26.8l206.3-55.3
				c19.6-5.2,29.5-26.3,23.9-44.7c-5.5-18.1-11-42-10.3-62.9c0.8-20.8,7.5-35.9,23.5-42.2l-4.4-16.6c-17,2.6-30.4-7.2-41.4-24.8
				c-11.2-17.7-18.3-41.2-22.6-59.6c-4.3-18.8-23.5-32.1-43-26.8L159.7,155.4z M473.5,210.5c-16.9,2.8-30.2-6.7-41.3-24.4
				c-11.1-17.6-18.2-41-22.5-59.4c-4.4-19.1-23.9-32.7-43.8-27.3l-206.3,55.3c-20,5.4-30.1,26.8-24.3,45.6c5.5,18,11,41.8,10.2,62.7
				c-0.8,20.9-7.6,35.8-23.6,41.8l4.7,17.7c16.9-2.8,30.2,6.7,41.3,24.4c11.1,17.6,18.2,41,22.5,59.4c4.4,19.1,23.9,32.7,43.8,27.3
				l206.3-55.3c20-5.4,30.1-26.8,24.3-45.6c-5.5-18-11-41.8-10.2-62.7s7.6-35.8,23.6-41.8L473.5,210.5L473.5,210.5z"/>
		</g>
	</g>
</g>
<g>
	<path class="st5" d="M196.9,256.5c1.4-3.8,1.2-7.8,2-11.7c3.1-16.4,9.9-31.2,20.1-44.3c10.2-12.9,22.7-23.2,37.7-30.2
		c9.3-4.4,19.1-7.2,29.3-8.7c2.5-0.4,5.3,0.3,7.7-1.2c5.5,0,11,0,16.5,0c4,0.7,8,1.3,12,2.1c16.7,3.2,31.6,10.1,44.8,20.8
		c12.5,10.1,22.4,22.2,29.3,36.8c4.3,9.2,7.3,18.8,8.8,29c1,7.1,1.7,14.2,1.2,21.3c-1.4,20.5-7.7,39.4-20.1,56
		c-14.9,19.9-34.3,33.4-58.7,39.5c-10.5,2.6-21.2,3.9-31.9,3.1c-21.2-1.6-40.7-8.1-57.6-21.3c-19.6-15.4-32.8-35-38.3-59.4
		c-1.1-4.7-2.2-9.4-2.1-14.3c0-0.5-0.1-0.9-0.7-1C196.9,267.5,196.9,262,196.9,256.5z"/>
	<path class="st6" d="M302.1,162.5c54-1.1,105.3,45.5,102.3,108.1c-2.4,48.9-44.7,99.2-108.1,96.5c-49.7-2.1-100.7-44.7-97.2-109
		C201.7,208.5,243.8,161.9,302.1,162.5z"/>
	<path class="st5" d="M232.6,318.2c-7.7,2-14.4-0.9-17.4-6.7c-4.8-9.2-3.3-15.8,4.2-22.5c-7.5-1.2-13-4.9-14.9-12.3
		c-1.1-4.3-1.1-9.4,1.9-12.7c2.6-2.8,4.6-7.4,10.2-6.7c-1.1-1.9-2.4-2.2-3.5-2.9c-1.3-0.8-2.9-1.5-2.5-3.6c0.1-0.3,0-0.9-0.2-1
		c-4.2-1.9-2.9-5.9-3.3-9.2c-0.4-3.4,4.7-12.1,7.8-13.4c0.8-0.4,1.8-0.4,2.6,0.1c0.9,0.6,1.5,0.3,2-0.5c1.5-2.4,3.7-2.1,6-1.1
		c-0.1-1.6-1-2.3-1.8-3.2c-1.1-1.2-2.6-8.8-2.3-10.4c1.7-9.2,9-14.1,15.1-19.8c3.9-3.7,8.6-6.5,13.7-8.5c0.2-0.1,0.5,0,0.6-0.2
		c3.6-6.5,10.4-7.4,16.6-9.4c5.2-1.6,10.6-2.1,16-0.8c1.3,0.3,1.8-0.7,2.5-1.4c4.2-4.4,9.1-5.9,15-4.2c2.2,0.6,4.2-0.7,6.3-0.7
		c3.6,0,6.7,1,9.2,3.4c1.9,1.9,3.5,2.7,6.6,2.4c9.1-1,18.1,0.9,25.3,6.3c8.6,6.5,18.7,11.1,25.6,19.7c2.5,3.2,5.2,6.3,6.9,9.9
		c2.9,6.1,8.8,10.3,10.7,17.2c1.3,5,3.3,9.9,3.9,15.1c0.3,2.5,2.3,4.5,2.7,7.1c1.2,7.4-0.4,14.8,0.2,22c1,11.7-3.6,21.3-7.9,31.5
		c-2.5,6-4.3,12.4-8.2,17.8c-6.8,9.5-14.4,18-25.3,23c-0.7,0.3-1.5,0.9-2.2,0.9c-1.8-0.1-2.8,0.4-2.4,2.4c0,0.2-0.1,0.5-0.3,0.6
		c-4.4,2.9-7,8.5-13.2,8.9c-2.4,0.2-4.6,0.6-6.7,2.7c-2.1,2.1-5.8,2.2-8.8,2.6c-4.4,0.6-8.9,1.7-13.4,0.2c-1.5-0.5-2.8,0.4-4.1,1.1
		c-2.6,1.6-5.2,1.6-7.7,0c-2-1.2-3.8-1-6-0.8c-7,0.8-14.3,0.1-20.4-3c-3.5-1.7-7.1-2.4-10.5-3.8c-2-0.8-5.3-0.6-4.9-4.4
		c-2.9-1-4.6-3.7-7.3-4.9c-3.6-1.6-7.3-3-10.5-5.4c-1.5-1.1-3.9-1.9-2.7-4.6c0.1-0.2-0.2-0.6-0.5-0.8c-2.8-2-3.2-4.8-3.6-7.9
		C231.4,323.8,231.3,321.3,232.6,318.2z"/>
	<path class="st7" d="M261.4,264.6c-0.3-23.3,18.5-39.9,40.5-39.9c23.1-0.1,40.3,17.8,40.3,40.2c0,22.6-17.7,40.3-40.4,40.1
		C279.3,304.7,260.8,287.5,261.4,264.6z"/>
	<path class="st6" d="M312.5,200.3c3.9,3.8,8.6,4.5,13.3,4.7c5.4,0.2,10.7,0.1,16.1,0.1c1.6,0,2.5,0.4,3.6,1.8
		c3.1,3.6,5.8,7.7,9.9,10.3c2.4,1.5,2.5,3.9,3,6.4c1.6,6.8,4.8,12.9,8.5,18.8c0.7,1,1.3,1.8,1,3.3c-1.9,8.3,0,16.4,1.6,24.4
		c0.2,1.1,0.5,2.1-0.1,3.2c-4,7-4.7,14.9-5.7,22.7c-0.2,1.4-0.3,2.3-1.6,3.3c-5.3,4.2-8.9,9.8-12.5,15.7c-1.2-5-5.1-1.5-7.7-3.2
		c2.2-2,4.5-4.2,6.6-6.6c8.2-9.5,13-20.4,14.5-33c2.1-18-2.9-33.8-14.5-47.5c-8.3-9.8-18.9-16.4-31.5-19.4
		C314.6,204.5,312.5,203.8,312.5,200.3z"/>
	<path class="st6" d="M255.8,306.6c-5.2,0.1-5.2,0.1-4.8,8.8c-1.4-0.7-2.9-1.2-4.2-2c-1.3-0.9-2.8-1.2-4.3-1.9
		c3.8-5.6,4-11.7,0.9-17.1c-1.5-2.6-4.2-5.5-7.3-6.9c-1.7-0.8-3.8-1.5-6.3-1.8c6.1-3.9,7.3-9.5,7.1-15.9c-0.1-2.4-1.4-3-3.1-4.1
		c-0.9-0.6,0.7-3.7-1.3-4.8c-1.7-1-3.5-1.9-4.7-3.5c11.4-3.8,15.8-15.2,8.2-27.3c4.3,1.9,7.4-1.1,10.5-2.3c2.5-1,6.1-3.9,6.1-8.1
		c0-0.3-0.1-0.9,0-1c3.6-2.6,1.1-6.1,1.2-9.1c0-2,0.4-2.7,2.1-3.3c2.1-0.8,4.2-1.3,6.5-1.3c6.8-0.1,13.7,0.5,20.5-0.6
		c3.2-0.5,5.7-2,8.4-3.7c0.4,2.8-1.2,3.7-3.3,4.1c-13.4,2.7-24.4,9.5-33.4,19.8c-7,8-11.7,17.3-13.7,27.7
		c-3.3,17.3-0.2,33.3,10.1,47.8C252.5,302.3,254.1,304.3,255.8,306.6z"/>
	<path class="st6" d="M285.5,351.4c-1-0.4-0.7-1.3-0.7-2.1c0-8.3,0-16.6,0-25.3c11.5,3.2,22.8,3.3,34.4,0
		c-0.3,9.3,0.4,18.4-0.3,27.4c-4.3,1.6-8.7,0.5-13,0.8c-0.6,0-1.1,0-1.7-0.2c-0.8-0.2-1.7-0.4-1.6-1.4c0-1.2,1.1-1,1.8-1
		c1.6,0,3.1-0.5,4.4-1.4c0.6-0.4,0.5-0.9-0.1-1.3c-0.8-0.5-1.8-0.6-2-1.7c0.6-1.2,2-1.4,3-2.5c-1-0.7-2.4-0.6-3.3-1.4
		c-0.3-0.2-0.4-0.5-0.4-0.8c0.7-1.5,2.6-1.3,3.4-2.7c-1.8-1.8-4.2,0.3-6-0.9c-0.6-1.4,0.8-2.5,0.7-3.9c-0.1-1.4-0.2-3-1.9-3.1
		c-1.7-0.1-1.8,1.7-2,3c-0.2,1.5,0.9,2.5,1.4,3.7c-0.3,1.7-1.4,1.1-2.4,0.9c-1.3-0.3-2.6-0.9-4.1,0.1c0.5,1.5,2.2,1.5,2.9,2.6
		c0.1,0.3,0,0.6-0.2,0.9c-0.9,0.8-2.2,0.9-3.3,1.4c0.3,1.1,1.6,1.3,1.7,2.4c0,1.1-1.1,1.3-1.6,2c0.8,2.4,3,2.3,4.9,2.6
		c0.7,0.1,1.8-0.3,1.9,0.8c0.2,1.2-0.9,1.4-1.8,1.6c-0.9,0.3-1.8,0.4-2.7,0.2C293.2,351.8,289.2,353.1,285.5,351.4z"/>
	<path class="st7" d="M292,205.8c1.2-3.8,1.9-6.7,3.1-9.4c0.9-1.9,0.2-2.9-1.2-3.9c-2.5-1.8-4.9-3.5-7.3-6c3.1,0,6.2-0.2,9.2,0.1
		c2,0.2,2.8-0.7,3.3-2.4c0.8-2.7,1.7-5.4,2.8-9c1.3,3.8,2.4,6.5,3.1,9.4c0.4,1.8,1.3,2.1,2.8,2c3.1-0.1,6.2,0,9.8,0
		c-2,2.6-4.6,3.9-6.9,5.5c-1.9,1.3-2.7,2.5-1.7,4.9c1.1,2.4,1.7,5.1,2.6,8.1c-3.1-1.2-5.2-3.3-7.4-5c-1.7-1.3-3-1.2-4.5,0
		C297.5,201.8,295.2,203.5,292,205.8z"/>
	<path class="st8" d="M235.2,196.7c14.2-15.3,37.2-20.5,54.1-4.6c-9.4-1.3-18.5-1.8-27.6-0.8C252.7,192.2,243.9,193.9,235.2,196.7z"
		/>
	<path class="st8" d="M368.7,197c-18-5.8-35.6-8.1-54-4.8C330.4,176.4,353.6,181,368.7,197z"/>
	<path class="st8" d="M383.7,302.2c0.8,0.1,0.5,0.8,0.8,1c4,2.9,1.8,6.1,0.1,9c-6.8,11.8-15.1,22.2-27.7,28.4
		c-0.8,0.4-1.5,1.1-2.5,0.7c0-5.6,4.5-8.5,7.7-11.9c7.4-8.1,13.8-16.9,20.2-25.7C382.8,303.2,383.3,302.7,383.7,302.2z"/>
	<path class="st8" d="M292.7,359.4c-6.5,0.4-12.5-0.2-18.5-1.9c-1.1-0.3-2-0.2-1.1-1.9c0.7-1.4-0.8-0.8-1.3-0.9
		c-3.4-0.7-6.9-1.2-10.3-2.1c-0.8-0.2-3.5,0.4-2-2.5c0.4-0.8-2-1.4-3.2-2.1c-1.9-1.1-1.8-1-2.1-3.4c-0.1-0.7-1-1.2-1.5-1.8
		c-1.5-1.5-2.6-3.2-1.9-5.9c4.5,3,9.3,5.4,13.9,7.7c-0.1,1.4-1.7,1.2-2.3,2.8c5.1-2,9.4-0.1,13.7,1.3c-0.2,1.4-1.9,1.1-2.5,2.3
		c2.2,0.7,4.2-0.4,6.1-0.8c1-0.2,2.5-0.8,2.8,0.1C284.4,355,289.4,356.1,292.7,359.4z"/>
	<path class="st8" d="M293.6,195.1c-3,5.2-7.6,7.5-13.2,7.8c-4,0.3-8,0-12,0.1c-4.4,0-8.9-0.4-13.5,1.8
		C262.5,192.5,276,190.5,293.6,195.1z"/>
	<path class="st8" d="M338.4,344.8c5.3-2.5,10.3-5.3,15.3-8.9c-0.2,2.6-1.4,4.3-2.2,6.1c-0.5,1.1-4,1.4-1.1,3.6
		c-0.6,0.5-1.2,1-1.7,1.6c-1.4,1.6-5.5,0.5-4.5,4.6c0,0.1-1.3,0.7-2.1,0.9c-3.9,1.2-8,1.7-12.2,2.3c1.4,1.8,0.8,2.2-1.2,2.7
		c-5.5,1.6-11.1,2.2-17.3,1.7c2.6-1.8,5.6-3.1,7.2-5.3c2.6-3.5,5.3-4.9,9.4-2.9c0.5,0.2,1.1,0,1.7,0c0.1-0.8-0.6-0.9-1-1.2
		c-0.4-0.3-0.9-0.6-1.9-1.1c4.8-1.4,9-3.6,13.7-1.5C340.4,345.8,338.8,346.1,338.4,344.8z"/>
	<path class="st8" d="M348.4,204.4c-7.8-2.4-15.5-1.2-23.2-1.4c-6.3-0.1-11.1-2.5-14.6-7.8C326.5,190.5,340.8,192.4,348.4,204.4z"/>
	<path class="st8" d="M345.2,334.8c8.4-12.8,22.4-21.1,28.2-36c0.8,2.7,0.2,5.2,2.8,6.7c1,0.6,0.1,1.5-0.2,2.1
		c-5.9,10-13.3,18.7-23.4,24.8C350.4,333.6,347.7,334,345.2,334.8z"/>
	<path class="st8" d="M258.7,179.8c12.3-7.2,31.7-7.6,37.4,5.4c-5.7-0.5-11.1,0.8-16.7-1.8C273.2,180.5,266.4,179.1,258.7,179.8z"/>
	<path class="st8" d="M307.8,185c6.2-12.5,23.2-12.6,36.7-5.5c-4.9,0.2-9.2,0.4-13.3,1.5c-1.6,0.4-3.3,0.9-4.9,1.4
		C317.8,185.5,317.3,185.6,307.8,185z"/>
	<path class="st9" d="M253.3,267.6c0.8,1.9,1.9,3.9-0.1,5.8c-0.2,0.2-1,0.8-0.2,0.9c1.2,0.2,2.2,0.6,2.1,1.7c-0.2,1.5-1.9,1.7-3,2.5
		c-0.2,0.2-0.5,0.3-0.9,0.5c4.1,0.5,6,2.8,7.6,6.8c1.3,3.2,0.6,4.7-2.3,5.8c-1.1,0.4-1.7,1.4-1.1,2.4c0.5,0.8,1.8,0.7,2.5,0.1
		c3.3-3.1,5.3-1.6,7.4,1.6c1.3,2.1,3.4,3.7,5.1,5.5c0.3,0.6-0.1,0.8-0.5,1.1c-1.9-0.9-1.9,0.7-2.3,1.7c-0.1,0-0.2,0-0.3,0
		c-1.3,0.4-1.7-2.5-3.1-0.9c-1.2,1.4,1.1,1.7,1.3,2.7c0,0.2,0,0.4-0.1,0.6c-4.3-1.3-4.7-2.8-1.7-5.8c0.4-0.4,0.8-0.9,1.2-1.2
		c0.8-0.6,0.4-1.1,0-1.7c-0.6-1-1.2-0.3-1.7,0c-1.1,0.9-2.2,2-3.3,2.9c-0.6,0.6-1.2,0.5-1.7-0.2c-0.5-0.7,0.1-0.9,0.5-1.3
		c1-0.9,2-1.9,3-2.8c0.4-0.4,1.3-0.6,0.5-1.5c-0.6-0.6-1.1-0.7-1.7-0.1c-0.2,0.2-0.7,0.2-0.9,0.4c-2.1,1.9-4.1,1.8-5.7-0.5
		c-1.3-1.8-0.5-3.4,2.6-5.5c-1.3-0.3-2.6-0.6-3-1.7c-0.5-1.5-1.3-0.8-2.2-0.6c-1.5,0.3-2.4,0.1-1.1-1.6c0.1-0.3,0.6-0.5,0.2-0.8
		c-0.2-0.2-0.7-0.1-0.9,0.2c-1-0.7-2.3-1.2,0-2.1c0.9-0.4,2.2-0.1,2.7-1.3c-0.2,0.4,0-0.6,0.2-0.2s0.7,0.1,0.2-0.1
		c-0.8-0.3-1.7,0.1-2.5-0.3c-0.9-0.2-2.3,0.4-2.5-0.4c-0.6-1.8,2-1.4,2.4-2.7c-1-1.3-3.1,1-3.6-0.9c-0.5-1.8,2.4,0.2,2-2
		c-1.5-0.2-2.5-1.4-3-3.2c-0.6-2.2,1.3-3.1,2.1-4.7c0.1-0.1,0.3-0.2,0.4-0.3c1.5-0.6,3-0.4,4.5,0.3
		C252.9,267,253.2,267.2,253.3,267.6z"/>
	<path class="st8" d="M265.4,341c-1.3,0.4,1.2,2.7-1.5,1.6c-4.2-1.7-7.9-4.2-11.5-7.1c1.9,0.3,3.7,0.9,5.6,1
		c1.1,0.1,3.1,2.7,3.6-0.8c0-0.2,1.6-0.3,2.3-0.1c2.8,0.8,5.8,1,8.4,2.5c0.5,0.3,2.2,2.2,2-0.7c0-0.8,0.6-0.3,1-0.3
		c0.6,0.1,1.1,0.3,1.6,0.4c7,1.6,7,1.6,6.5,8.9c0,0.6,0.2,1.4-0.5,1.8c-0.9,0.5-1.5-0.1-2.1-0.7c-1.9-1.8-4-3.3-7-5
		c1.1,1.9,1.8,3,2.6,4.5C271.7,346.4,268,344.6,265.4,341z"/>
	<path class="st8" d="M338.2,341c-2.9,3.1-6.3,5.5-11.2,6c0.8-1.3,1.4-2.5,2.2-3.9c-2.6,0.5-3.9,2.4-5.5,3.9c-0.6,0.5-1,1.5-1.9,1.2
		c-1-0.3-0.5-1.4-0.6-2.1c-0.1-0.6,0-1.1,0-1.7c0-5.6,1.7-8.4,6.8-7c4.6,1.3,7.2-2.3,10.9-1.8c1.1,0.1,3-1.5,3.2,1.3
		c0.1,1,1.3,0.3,2,0c2.5-0.8,4.9-1.5,7.5-2c-3.7,3.4-7.9,5.8-12.4,7.8C336.9,343.8,339.1,341.6,338.2,341z"/>
	<path class="st8" d="M347,315.4c-0.4,2.6-0.5,5.1-2.1,7.2c-0.5,0.7-1.8,1.8,0.1,2.7c0.8,0.4,0.1,0.9-0.3,1.2
		c-1.2,0.9-2.5,1.6-3.6,2.5c-0.7,0.5-3.2,0.4-0.9,2.3c0.1,0-0.2,0.6-0.4,0.8c-2.6,1.6-5.6,3.9-8.3,3.5c-2.8-0.5-5,0.4-7.4,0.7
		c-0.8,0.1-1.8,1.2-2.5,0.2c-0.7-1.1-0.5-2.5-0.1-3.6c0.4-1,1.4-1.5,2.6-1.1c2,0.7,4.1,0.1,6.7,0.5c-1.4-1.3-2.7-1.4-4.2-1.8
		c3.9-3.5,8.5-4.9,13.4-5.4c0.1-1.3-0.6-1.1-1.1-1.2c-0.4-0.1-0.9-0.1-1.7-0.2C340.4,320.7,343.9,318.4,347,315.4z"/>
	<path class="st10" d="M373.1,220.3c-4.5-2.3-8.3-5.4-11.1-9.4c-2.8-3.9-5.3-8.1-8.3-11.9c-0.9-1.2-1.5-2.5-0.8-3.7
		c0.8-1.4,2,0.1,3,0.2c3.7,0.4,5.3,3.5,7.4,6c3.8,4.7,7.2,9.8,9.5,15.5C373.3,218.3,373.3,218.3,373.1,220.3z"/>
	<path class="st11" d="M304.9,351.4c4.7,0,9.3,0,14,0c-4.4,3.9-9.4,6.8-14.7,9.4c-1,0.5-2,1.1-3.2,0.5c-5.6-2.6-11-5.5-15.5-9.9
		c4.1,0.1,8.3-0.7,12.4,0.4c-0.5,0.8-1.3,0.8-1.5,0.8c4,0.7,8.6,0.3,12.9-0.1C308,352.2,305.9,353.8,304.9,351.4z"/>
	<path class="st10" d="M369.4,246.7c2.2,0.9,3.9,3.5,6.3,0.6c1.9,9,1.2,17.5-0.6,25.9c-0.1,0.6,0,1.9-1,1.9c-1.1,0-1.2-1.1-1.5-1.9
		C369.6,264.6,368.8,256,369.4,246.7z"/>
	<path class="st10" d="M391.2,274.7c1.5,2.3,2.9,4.4,5.3,1c0.5,7-5.3,22.9-9.7,27.3C384.6,298.5,387,282.2,391.2,274.7z"/>
	<path class="st10" d="M394.2,275.5c-3.9-9.4-5.7-18.9-4.5-29.3c3.8,3,4.4,3.1,6.3,0.3C397.1,256.5,397.5,266.1,394.2,275.5z"/>
	<path class="st10" d="M363.4,300.4c0.8,2.3,0.8,4.8,4.1,5.1c-5.4,8-11.4,14.8-19.7,19.5C350.5,315.3,356.1,307.5,363.4,300.4z"/>
	<path class="st10" d="M384.2,276.5c-4.5-10.2-5.2-19.9-4.6-30.1c1.9,0.7,3.4,4.3,5.7,0.9c0.3,0.4,0.8,0.7,0.9,1.2
		C387.6,257.7,387.1,266.7,384.2,276.5z"/>
	<path class="st10" d="M376.4,276.4c-1,10.1-4.4,18.8-10,26.6c-1.3-9.9,0.4-19.2,4.3-28.8C372.1,276.5,373.4,278.2,376.4,276.4z"/>
	<path class="st10" d="M365.5,219.1c4.8,8.7,8.1,17.7,8,28.6c-6.6-7.7-10.6-15.6-13.2-24.3c-0.3-1-0.2-2.4,1.5-1.7
		C364.9,223.1,365.2,221.3,365.5,219.1z"/>
	<path class="st10" d="M376.6,302.9c-1.1-9.9,0.2-19.3,4.3-28.6c1.5,1.9,2.6,4.5,5.7,1.5C385.6,286.1,382.3,295,376.6,302.9z"/>
	<path class="st10" d="M379.9,220.8c2.9,1.3,5.2,2.9,6.2-1.7c4.7,9,7.5,17.9,7.6,27.6C386.5,239.6,382.7,230.8,379.9,220.8z"/>
	<path class="st10" d="M383.4,247.3c-6.8-8.1-11-16.7-13.5-26.4c4.7,1.9,5,1.8,5.9-1.5C380.3,225.6,384.1,239.2,383.4,247.3z"/>
	<path class="st8" d="M242.5,315.3c2.9,3.1,5.7,6,8.4,9c-0.4,0.1-1.2,0.3-2.4,0.5c0.8,0.4,1.3,0.9,1.7,0.8c5.1-0.5,7.2,2.8,8.7,6.8
		c0.2,0.6,1,1,0.4,1.8c-0.5,0.6-1.2,0.4-1.9,0.3c-3.1-0.4-6.1-1.9-9.6-0.5c1.6-1.6,2-2.6-0.5-3.4c-2.4-0.8-5.3-3.3-4.8-5.2
		C243.7,321.9,241.2,318.9,242.5,315.3z"/>
	<path class="st10" d="M362.7,197.2c6.3,1.9,11.6,3.6,14.6,9.3c1.7,3.4,3.8,6.6,5.6,9.9c0.5,1,1.7,2.5,0.6,3.4
		c-0.9,0.8-2.1-0.6-3.1-1.3c-4.1-3.1-7.7-6.5-10.4-11C367.9,204.2,365.4,201.1,362.7,197.2z"/>
	<path class="st8" d="M283.4,335.6c-3,0.1-4.9-1.4-6.8-3.2c-0.9-0.9-1-0.9-1.8,0.5c-0.4,0.7-0.7,0.2-1,0.1
		c-4.5-2.2-9.1-4.3-13.8-7.9c2.5,0.2,4.2,0.1,6,0.4c1.3,0.2,3.3,2.6,4.6-0.8c0.6-1.5,11.6,0.8,12.4,2.5
		C284.1,329.8,283.2,332.6,283.4,335.6z"/>
	<path class="st8" d="M237.2,336.6c1.2-0.3,1.8-0.5,2.8-0.7c-6.2-3.4-6.2-9.1-6.9-15.8c3.9,3.7,6.2,7.6,10.1,10
		c-0.5,1.3-2,0.2-2.8,1.4c7.7,0.4,7.5,7.1,9.9,12.5C245.7,341.7,241.4,340.1,237.2,336.6z"/>
	<path class="st12" d="M342.6,195.2c2.1-1.7,3.9-0.5,5.2,0.7c7.5,6.5,12.5,14.7,15.7,24.1c-6.1-2.8-10.7-7.4-14.9-12.5
		c0.4-0.2,0.6-0.3,0.8-0.3c1.4,0.1,2.2,3,3.6,1.3c1-1.2-0.8-2.7-1.6-3.9C349.1,201,345.7,198.4,342.6,195.2z"/>
	<path class="st8" d="M345,314.4c-1.7,2.7-4.3,4-6.2,5.9c-1.5,1.4-2.6,1.4-2.8-2.3c-1.9,5.4-4.5,8.5-8.9,9.8
		c-0.6-1.4,1.2-2.2,0.7-3.6c-2.7,1.4-3.3,4.9-6.6,6.5c0-2.2,0-4.1,0-6c0-0.9,0.4-1.5,1.3-1.8c6.5-1.8,11.7-6.5,18.3-8.3
		C342.1,314.3,343.4,314.1,345,314.4z"/>
	<path class="st9" d="M240.9,197.2c8-2.7,16.1-3.5,24.3-4.3c-5.5,2.8-9.8,7-13.2,11.9c-0.4,0.6-0.8,1.1-1.6,0.9
		c-0.6-0.1-0.6-0.7-0.5-1.1c0.4-2.6-1.5-3.4-3.4-4.4C244.7,199.3,243,198.3,240.9,197.2z"/>
	<path class="st9" d="M252.6,242.1c1.3,0.5,2.7,1,4,1.6c0.6,0.3,2,0.3,1.2,1.8c-0.5,1.1-1.1,1.7-2.3,1.3c-1.1-0.4-2.1-0.8-3.4-0.4
		c0.8,0.7,1.5,1.7,2.4,2c3.2,1.2,0.4,3.3,0.5,4.8c0.1,1.1-1.9,0.5-2.9,0.4c-1.6-0.2-3.8-1.6-4.2,0.7c-0.3,1.8,2.2,2.1,3.9,2.1
		c1,0,1.7,0.5,2.6,1.1c-2.4,2.1-4.6,0.3-6.7-0.2c-1.5-0.4-1.6-2.1-1.4-3.5c0.5-2.4,2.3-3,4.7-3c-1.3-0.9-4-0.5-3.1-2.4
		c0.7-1.6,2.8,1.2,4.4,0.2c-0.8-1.4-3.8-1.7-3-3.5c0.5-1.3,3.1,0,4.9-0.6c-1.1-0.5-2.2-0.8-3-1.4c-0.4-0.3-1.6,0.1-1.1-1
		c0.3-0.7,0.9-0.9,1.7-0.7C252.2,241.5,252.3,241.9,252.6,242.1z"/>
	<path class="st8" d="M259.6,320.2c3,1.6,7-1.2,8.9,3.4c-3.8,0.2-7.9,0.5-11.3-1.5c-4.4-2.6-3.7-7.7-4.6-12.1
		c3.7,2.6,6.4,6.1,9.9,8.6C262,320,260.7,319.4,259.6,320.2z"/>
	<path class="st8" d="M283.4,324.8c-6.4-2.9-14.4-0.1-18.4-7.8c-0.4-0.9-1.3-2.4-2.8-0.9c-0.1,0.1-1-0.4-1.4-0.8
		c-2.3-2.2-4.6-4.4-7.1-6.9c4.1-0.5,5.9,2,8.3,3.8c5.7,4.4,11.5,8.5,18.6,10.3c0.8,0.2,1.5,0.6,2.2,0.9
		C283,323.5,283.1,323.8,283.4,324.8z"/>
	<path class="st9" d="M330.8,308.8c-0.1,5-1.9,6.3-6.3,4.9c-2,5.6-4.1-0.7-6,0.3c-0.8,1.2,2.2,3-0.4,4.3c-1-2.2-1.9-4.4-2.4-6.7
		c-0.4-0.4-0.3-0.9,0-1.3c2.4-0.6,3.6,1.5,5.2,2.5c0.8-0.9-0.6-1.4-0.4-2.1c0.2-0.7-1.2-1.5,0.1-2.2c1.4-0.7,1,0.4,1.3,1
		c0.4,0.8,0.5,0,0.6-0.3c1-3.1,3.4-3.5,6.2-3.2C330.1,306.4,331.2,307.1,330.8,308.8z"/>
	<path class="st9" d="M346.5,294.7c1.2,2.8-0.1,5.5-3.1,5.7c-1.9,0.1-2.2,0.6-2.2,2.5c-0.1,2.8-2,4.1-4.9,3.7
		c-0.3-0.2-0.5-0.4-0.7-0.6c-1.8-1.1-3.2-2.6-2.5-4.8c0.8-2.5,2.9-3.2,5.6-2.6c-1.1-3.4,0.8-5.3,3-7c0.3,0.2,0.4,0.5,0.5,0.8
		c0.2,1-0.4,1.7-0.7,2.6c-0.4,1.3-0.2,2.4,1.6,2.9c-1.5-2-1.5-3.6,1.1-4.4C345.2,293.5,346.3,293.4,346.5,294.7z"/>
	<path class="st13" d="M352.8,272.3c1,1.5,0.3,4.2,3.2,4.4c0.1,0,0.3,0.8,0.2,1.2c-0.2,0.8-0.7,0.6-1.3,0.3c-1-0.7-2.1-0.2-3.6-0.4
		c0.5,0.4,0.7,0.6,0.9,0.7c1.1,0.6,3.3,0.1,3.3,1.9c-0.1,2.2-2.2,1.3-3.5,1.6c-0.7,0.2-1.4,0.6-2.2,0.9c1.3,1.1,4.4,0.6,4,2.2
		c-0.5,2.2-2.9-0.6-4.3,0.3c-1.7,0.7-2.1-0.9-2.9-1.7c-1.2-1.3-0.3-2.1,0.8-2.4c1.5-0.4,2.9-1.1,4.8-0.7c-1.4-1.4-4.8-0.9-4.3-2.5
		c0.6-2.2-0.4-5.2,2.3-6.6c1-0.7,0.2,3,1.9,0.8C352.2,272.1,352.5,272.2,352.8,272.3z"/>
	<path class="st9" d="M248.4,217.4c-0.3,0-0.7,0.1-1,0c-1.4-0.7-3.6,0.2-4.4-1.6c-0.9-2.1,1.1-3.2,2.3-4.5c0.2-0.2,0.3-0.3,0.5-0.4
		c1.5-1.2,2.4-3.9,4.9-2.9c2.2,0.9,0.9,3.2,1.2,4.9C252.5,217.2,252.2,217.4,248.4,217.4z"/>
	<path class="st9" d="M227.8,289.9c0.8-1,0.8-3.3,3.2-1.9c0.7,0.4,1.7,0.5,2.5,0.8c4.4,1.4,4.9,2.6,2.3,6.4
		c-0.9,1.2-1.3,3.7-3.1,3.3c-1.7-0.4-2.8-2.1-3.1-4.3C229.5,292.9,228.5,291.5,227.8,289.9z"/>
	<path class="st9" d="M237.4,303.9c-1-0.4-2.7,0.7-3.2-0.6c-0.6-1.3-0.1-2.7,1.1-3.9c1.1-1.1,2-2.5,2.5-3.9c0.5-1.4,1.4-1.1,2.4-1.2
		c1.2-0.1,1.8,0.6,1.9,1.5c0.2,1.6,0.8,3,1.4,4.4c0.7,1.7-0.2,2.6-2,3.2C240.1,303.9,238.9,303.8,237.4,303.9z"/>
	<path class="st9" d="M225.1,258.4c2.4,1.7,4.6,3.1,6.6,4.6c0.4,0.3,0.3,1.1,0,1.6c-0.5,0.8-1,1.7-1.7,2.4c-1.3,1.4-2.9,3.4-4.8,2.8
		c-2.3-0.7-1.4-3.3-1.5-5.1c0-1.1-0.2-2.2-0.5-3.3C222.6,259.6,224.4,259.4,225.1,258.4z"/>
	<path class="st9" d="M231.5,242.1c-3.3,0.3-3.3-1.6-2.7-3.3c0.7-2.1,1.7-4.1,2.9-6c1-1.6,2.4-1.5,3.6-0.1c0.5,0.6,0.6,1.4,0.9,2.1
		c2.5,5.3,2.5,5.3-3.3,6.8C232.2,241.8,231.6,242,231.5,242.1z"/>
	<path class="st9" d="M243,211.3c-4.2-2.4-2.6-6.7-4-9.8c-0.3-0.7,1-2,1.6-1.9c2.5,0.4,4.9,1.8,6.7,3.4c1.5,1.4,0,3.3-1.2,4.7
		C245,209,244,210.2,243,211.3z"/>
	<path class="st9" d="M229.9,230.9c0,0.4,0.1,0.8,0,1.1c-0.9,1.9-0.9,4.7-3.2,5.1c-2.2,0.4-3.2-2-3.8-3.9c-0.2-0.5-0.7-0.9-0.9-1.4
		c-0.5-1.2-2.1-2.2-0.9-3.7c1.1-1.5,2.5-1.1,3.9-0.4c0.6,0.3,1.3,0.2,2,0.1C229.5,227.4,230.2,228.7,229.9,230.9z"/>
	<path class="st6" d="M225.2,275.6c0.2-4.6,4.9-5.1,7.2-7.8c0.4-0.5,2.1,0.2,2.3,1.5c0.1,0.8,0,1.6,0,2.4c0,6.1-0.8,6.7-6.6,4.8
		C227.1,276.2,226.1,275.9,225.2,275.6z"/>
	<path class="st6" d="M221.7,264.6c-0.4,0.8,0.8,2.3-0.7,2.8c-1.2,0.4-2-0.5-3-1.1c-1.8-1.2-3.1-2.9-5.2-3.6
		c-0.7-0.2-1.3-0.7-1.2-1.4c0.1-0.6,0.5-1.2,1.3-1.4c0.6-0.1,1.2-0.4,1.9-0.7C220.4,257.4,221.7,258.4,221.7,264.6z"/>
	<path class="st9" d="M229.3,225.6c-0.9,0.1-1.2-0.3-1.6-1c-0.4-0.9-1.1-1.7-1.7-2.5c-2.5-3-2.2-4.4,1.4-6.1
		c0.6-0.3,1.3-0.5,1.9-0.7c1.1-0.3,2.3-1.6,3.3-0.2c0.8,1.1,0.5,2.4-0.3,3.7c-0.9,1.6-1.7,3.4-1.7,5.3
		C230.6,225.1,230.3,225.8,229.3,225.6z"/>
	<path class="st13" d="M222.6,285.8c-0.3,0.8-0.1,1.9-1.4,1.6c-2.1-0.4-4.2-0.7-6.2-1.3c-1.9-0.6-1.6-1.9-1.1-3.5
		c0.7-2.2,1.3-5.2,3.2-5.5c2.4-0.4,2.4,2.9,3.3,4.7C221.2,283.2,221.9,284.5,222.6,285.8z"/>
	<path class="st9" d="M236.8,228.4c-1.4-0.3-3.6,0.9-4.3-1.8c-0.7-2.8,0.5-5.3,1.9-7.5c0.7-1.1,2.4-0.1,3.1,1.2
		c0.9,1.7,1.8,3.3,2.8,5c0.4,0.7,1.7,1.1,1.1,2.2c-0.6,1.1-1.7,0.8-2.7,0.8C238.1,228.4,237.5,228.4,236.8,228.4z"/>
	<path class="st9" d="M218.3,240.3c0,0.9-0.1,1.6-1.1,2.2c-1.9,1.2-3.8,2.4-5.2,4.2c-1.3,1.6-2.3,0.9-2.6-0.7c-0.4-2,0.1-4-0.6-6
		c-0.4-1.1,1.2-1.6,2-1.9c2.4-0.8,4.6,0.2,6.9,0.8C218.1,239.2,218.8,239.6,218.3,240.3z"/>
	<path class="st9" d="M221.7,250.2c0.2-1-0.6-2.6,0.9-3.2c1.6-0.6,2.7,0.3,3.8,1.5c1.2,1.2,2.2,2.6,3.8,3.3c0.7,0.3,1.3,0.9,1.1,1.9
		c-0.2,1.1-1.2,0.9-1.8,1.3c-0.5,0.3-1.3,0.1-2,0.3C222.6,256.5,221.6,255.7,221.7,250.2z"/>
	<path class="st9" d="M234,210.1c-2.3,3.7-6.7,3.3-9.9,5.1c-1,0.6-1.1-1.2-1-2c0.3-1.9,0.8-3.7,1.4-5.5c0.5-1.6,1.8-1.6,3-1.2
		C229.9,207.3,231.9,208.6,234,210.1z"/>
	<path class="st9" d="M211.5,283.4c-1.4-0.2-1.9-0.7-2.2-1.5c-0.3-0.8-0.8-1.5-1.3-2.3c-2.4-4-1.6-5.8,3.2-6.5
		c1.3-0.2,2.9-1.9,4-0.2c1,1.5-0.3,2.9-1.1,4.3c-0.9,1.5-1.9,3-2.1,4.8C212,282.8,211.9,283.4,211.5,283.4z"/>
	<path class="st9" d="M225,306.6c-0.9,2.6-1.3,5.2-1.4,7.9c-0.1,1.5-1.2,1.3-2.2,0.4c-1.4-1.3-2.6-2.8-4.4-3.7
		c-0.9-0.5-0.8-1.3-0.3-2.3c1.3-2.7,4-3.5,6.3-4.6C223.8,303.9,225,305.5,225,306.6z"/>
	<path class="st6" d="M238.2,206.7c-0.2,2.4-1.6,2.5-3.1,1.7c-2.2-1.1-4-2.7-6.4-3.5c-1.4-0.4-1.3-1.9,0.1-2.6
		c1.7-0.9,3.5-1.4,5-2.6c1-0.8,1.9,0.3,2.5,1.1C237.5,202.6,237.8,204.7,238.2,206.7z"/>
	<path class="st9" d="M223.5,288.7c2.7,1.3,3.5,3.7,4.3,6.1c0.7,2.1-0.5,3.4-2.5,2.7c-2.2-0.8-4.3-1.7-6.6-2.3
		c-2.1-0.6-2.3-1.9-0.4-2.8C220.4,291.5,221.4,289.4,223.5,288.7z"/>
	<path class="st9" d="M219.3,237.4c-2.3-0.5-4.4-1-6.4-1.4c-0.7-0.2-1.7,0.4-2.1-0.5c-0.5-1,0.3-1.7,1-2.3c0.6-0.5,1.1-1.2,1.7-1.7
		c1.2-0.9,1.8-3.5,4-2.1c2.5,1.5,3.5,4.3,4.6,6.8C222.1,236.3,220.5,238.1,219.3,237.4z"/>
	<path class="st9" d="M225.8,313c-0.1-2.3-0.2-4.8,1.4-5.5c1.9-0.7,3,1.8,4.2,3.1c0.3,0.3,0.7,0.7,0.7,1.1c0.2,1.8,4.4,1.8,2.5,3.6
		c-1.7,1.6-5,1.9-7.6,1.3C225.1,316.4,226,314.1,225.8,313z"/>
	<path class="st9" d="M238.1,244.4c-1.2,1.9-1.7,4.3-2.9,6.2c-0.8,1.2-2.7,0.5-3.9-0.4c-1.8-1.2-4.3-2.6-4.3-4.5
		c0.1-2.3,3.2-1.1,4.8-1.9c1.3-0.7,2.9-0.2,4.2-1C236.9,242.4,238,242.9,238.1,244.4z"/>
	<path class="st9" d="M223.8,277c2.7,1,5.3,1.9,8,2.4c1.3,0.2,0.9,1.6,0,2.3c-1.4,1.2-3,2.4-4.3,3.7c-1,1-1.6,0.4-2.3-0.2
		c-2.1-1.7-3.1-4-3.6-6.5C221.3,277,223,277.5,223.8,277z"/>
	<path class="st9" d="M209.9,264.1c3-0.3,4.6,2.2,6.6,3.7c0.9,0.6-0.3,2-1.4,2.4c-2.5,0.9-5.3,1-7.8,2.1c-1.2,0.5-1.7-0.5-1.4-1.5
		c0.6-2,1.4-4,2-6C208.3,263.7,209.3,264.3,209.9,264.1z"/>
	<path class="st9" d="M218.3,244.1c1.3,0.9,2.5,1.8,1.9,3.5c-0.6,2-0.9,3.9,0,5.9c0.3,0.7,0.1,1.5-0.7,2.1c-1,0.7-1.4-0.3-1.9-0.7
		c-0.7-0.5-1.5-1-2.2-1.5c-3.5-2.2-3.7-4.1-0.4-6.9C216,245.6,217.1,244.9,218.3,244.1z"/>
	<path class="st9" d="M217.5,297c2.2,0.3,4.4,0.8,6.2,2.2c1.4,1.1,0.1,2.4-0.9,3c-2.2,1.2-4.3,2.3-6.4,3.8c-1.3,1-2.4-0.5-2.1-1.3
		c0.7-2,0.2-4.1,0.5-6C215,297.2,216.3,297.2,217.5,297z"/>
	<path class="st9" d="M231.4,307.6c0.9-1.5,2.1-1.9,3.9-1.7c1.8,0.2,3.6,0.5,5.3-0.3c0.9-0.5,1.5-0.2,2,0.6c0.5,0.8,0.3,1.5-0.3,2.1
		c-0.5,0.6-1.1,1.2-1.5,1.8c-2.4,4-4.5,4.1-7.5,0.2C232.8,309.4,232.1,308.5,231.4,307.6z"/>
	<path class="st9" d="M239.3,219.4c0.5-1,1.7-1.5,2.7-1.3c2.5,0.4,5,1.4,7.6,1.3c1.1,0,1.2,1,0.8,1.4c-1.5,1.9-3.1,3.7-4.8,5.4
		c-0.3,0.3-1.2,0.2-1.6-0.1C241.7,224.6,240.3,222.3,239.3,219.4z"/>
	<path class="st13" d="M310.1,319.2c-4,2.4-5.4,1.6-6.1-3.2c-0.1-0.9,0.6-2.4-1-2.4c-2,0-0.7,1.7-1,2.6c-0.5,1.3,0.9,3.9-1,4
		c-2.2,0.1-1-2.5-1-3.8c0-1.8-0.4-3-2.3-3.7c4.1-0.9,8.1-0.1,11.9-1.1c0.5,0.5,0.6,1.1,0.3,1.8c0.2,0.7-1.8,0.3-0.7,1.4
		c0.2,0.3,0.5,0.6,0.4,0.9C309,317.4,309.1,318.2,310.1,319.2z"/>
	<path class="st9" d="M300.8,169.7c-4.2,1.5-7,3.9-7.1,8.7c-2.1-1.9-4.4-2.9-6.6-4.2C290.5,169.5,294,168.3,300.8,169.7z"/>
	<path class="st9" d="M303.6,169.7c5.8-2.2,9.8,0.2,13.6,4.2c-2.3,1.4-4.5,2.7-6.9,4.1C310.6,173.1,307.1,171.4,303.6,169.7z"/>
	<path class="st9" d="M350.2,258.5c-1.9-1.2-2.5-2.3,0.1-3.4c1-0.4,1.9-1.1,3.5-2c-2,0-3.3-0.1-4.6,0c-1.4,0.1-1.2-1.1-1.5-1.8
		c-0.8-1.4,0.9-1.2,1.2-1.3c1.6-0.7,3.4-1.1,5.1-1.6c0.6-0.2,1.4-0.4,1.6,0.7c0.1,0.8-0.1,1.4-1.1,1.3c-1.4-0.1-2.4,1.2-3.8,1.2
		c0.9,0,1.9,0,2.7,0.2c1,0.2,2.5-0.8,2.8,0.9c0.3,1.6-1.3,1.6-2.1,2.2c-0.3,0.3-0.7,0.4-1.2,0.7c3.9,0.4,3.9,0.4,4.5,1.5
		c-2.4,0.5-4.9,0.5-7.2,1.5L350.2,258.5z"/>
	<path class="st14" d="M258.9,326.2c4.4,3.1,8.5,5.5,12.8,7.5c0.5,0.2,1.5,0.3,1.2,1.3c-0.3,1.1-1.2,0.7-2,0.5
		c-2.2-0.6-4.4-1.1-6.6-1.6C260.9,333.2,259.5,330.4,258.9,326.2z"/>
	<path class="st15" d="M282.1,313.6c-0.8,0.4-1.5,1.1-2.4,1.2c-2.3,0.4-4.5-0.1-6.2-1.9c-0.4-0.4,2.8-6.6,3.5-6.9
		c2.1-0.9,5.9,2.3,5.7,4.8C282.6,311.8,282.2,312.7,282.1,313.6C282,313.7,282.1,313.6,282.1,313.6z"/>
	<path class="st13" d="M277.2,216.1c0.3-0.8-0.6-2,1-2.1c1-0.1,1.9-0.9,2.8,0.5c0.9,1.4,2.4,2.4,3.5,3.7c0.4,0.5,1.6,1,0.6,1.9
		c-0.4,0.3-1.1,0.5-1.8-0.2c-1.5-1.3-2.5-0.9-2.6,1.2c-0.1,1.3-0.8,1.9-2,1.8c-1.4-0.1-0.6-1.4-0.8-2.2
		C277.7,219.2,277.5,217.6,277.2,216.1z"/>
	<path class="st15" d="M294.1,316.7c0.4-1.8,0.1-3.5,1.4-4.9c1.1,1.4,0.9,6.8-0.4,7.8c-0.9,0.7-1.7,0.5-2.1-0.8
		c-0.5-1.7-1.1-3.3-1.7-4.9c-0.7,1.8,0.2,4.6-2,4.9c-0.8,0.1-0.1-3.2,0.4-4.9c0.3-1-0.9-2.8,1.1-3c2.2-0.3,1.7,2,2.3,3.1
		C293.4,314.8,294.2,315.5,294.1,316.7z"/>
	<path class="st16" d="M240.9,213.8c0,2.5-1.2,3.6-3.4,3.6c-2.3,0-3.3-1.8-3.3-3.5c0.1-1.7,1.2-3.5,3.5-3.3
		C240.1,210.7,241.1,211.9,240.9,213.8z"/>
	<path class="st13" d="M253.3,267.6c-0.3,0-0.6-0.1-0.9-0.1c-1.4-1.9-3-1.7-4.7-0.6c0,0,0.1-0.1,0.1-0.1c-0.7,0.1-1.9,0.4-1.9,0.2
		c-0.8-2.3,1.6-2.4,2.5-3.4c-0.1-1-0.7-0.9-1.2-0.9c-0.9,0-1.6,0-1.5-1.2c0.1-1,0.9-0.8,1.5-0.8c1.6,0,3.2-0.1,4.8,0
		c0.8,0,2-0.6,2,1c0,1.6-1.3,0.8-2,1c-0.3,0.1-0.7,0-1,0.1C251.3,264.6,255.5,264.5,253.3,267.6z"/>
	<path class="st17" d="M269.6,301.9c0.3-0.3,0.5-0.5,0.8-0.8c1.3,0.7,2.5,1.4,3.5,2.6c1,1.3,1,3-0.5,3.3c-1.9,0.4-1.4,2-2.2,2.9
		c-0.4,0.4,0.4,1.7-0.9,1.2c-0.6-0.2-1.5-0.5-0.9-1.7c0.3-0.6,1.3-1.6,0.3-2.3c-1.4-1.1-1.3,0.6-1.8,1.1c-0.6,0.7-1.1,0.5-1.7,0.1
		c-1.1-0.8,0.1-1,0.4-1.5c0.6-1,1.2-1.9,1.8-2.8C268.4,303,268.7,302.3,269.6,301.9z"/>
	<path class="st12" d="M224.4,244.9c-2.9-0.1-4-0.9-4.1-3.1c-0.1-2.2,1.3-3.6,3.1-3.7c2.1-0.1,3.7,1.5,3.7,3.6
		C227,243.7,225.8,245,224.4,244.9z"/>
	<path class="st18" d="M352.8,272.3c-0.2,0-0.5,0-0.7,0c-1.3,0.5-1.4-0.8-2.1-1.3c-1.4-3.6-0.7-5.7,1.8-6.2c3.4-0.7,5.4,0.4,5.7,2.9
		C358,270.9,356.7,272.2,352.8,272.3z"/>
	<path class="st12" d="M219.9,275.8c-1.8,0.3-2.9-1.3-2.9-3.2c-0.1-1.9,1.4-3.6,3.3-3.6c2,0,3.6,1.3,3.5,3.7
		C223.6,274.9,222.4,275.8,219.9,275.8z"/>
	<path class="st10" d="M228.9,299.1c2.3,0,3.5,1.6,3.6,3.4c0.1,1.8-1.3,3.5-3.4,3.5c-1.9,0-3.4-0.9-3.3-3.4
		C225.8,300.3,226.7,299.1,228.9,299.1z"/>
	<path class="st13" d="M350.1,258.6c2-0.1,4.1,1,6-0.6c0.3-0.3,1.2-0.3,1.4,0.5c0.1,0.6,0.3,1.5-0.8,1.5c-1.1,0.1-1.8,0.7-2.5,1.6
		c0.5,0.8,1.2,0.5,1.8,0.5c0.9,0,1.6,0,1.5,1.2c-0.1,1.1-0.9,0.8-1.5,0.9c-0.9,0.1-1.8,0.1-2.7,0.1c-4.4,0.1-5.2-1.4-3.1-5.7
		C350.2,258.5,350.1,258.6,350.1,258.6z"/>
	<path class="st15" d="M295.8,208.6c2.4,1.7,2,3.5,2,5.1c0,1.1,0.2,2.3,1.4,2.2c1.2,0,1.4-1.2,1.3-2.3c0-1.2,0-2.5,0-3.7
		c0-0.7,0.4-1.1,1-1.1c0.7,0,1,0.5,1,1.1c0,1.5,0.2,3,0,4.4c-0.2,2-1.4,3.1-3.6,3.1c-2.2,0-3-1.4-3.2-3.1
		C295.6,212.7,295.8,211,295.8,208.6z"/>
	<path class="st19" d="M288.6,213.8c0.3-0.7,0.4-1.4,0.7-1.9c0.5-0.8,0.2-2.5,1.7-2c1.6,0.5,0.4,1.6,0,2.4c-0.5,1-0.4,1.7,0.5,2.5
		c0.9,0.8,2.1,1.4,2.3,2.9c-2.5,1.2-3-1.9-4.8-2.2c0,0.6-0.1,1.2,0.2,1.7c0.4,0.8,0.8,1.2-0.5,1.7c-1.6,0.7-1-0.6-1.1-1.1
		c-0.5-1.5-1-3-1.3-4.5c-0.1-0.8-0.6-2.1,0.6-2.3c1-0.2,1.1,1,1.4,1.7C288.4,213.1,288.4,213.4,288.6,213.8z"/>
	<path class="st20" d="M352.1,240.8c0.9,0.7,1.6,1.3,0.3,2.5c-1.8,1.7-0.7,2.5,1.1,2.9c0.6,0.1,1.4-0.5,1.3,0.7
		c0,0.8-0.7,0.7-1.2,0.8c-1.9,0.6-3.8,0.7-5.7,0.7c-0.9,0-1.6-0.4-1.9-1.1c-0.4-1,0.2-1.7,0.9-2.3
		C348.7,243.5,350.4,242.1,352.1,240.8L352.1,240.8z"/>
	<path class="st13" d="M309.5,313.6c0-0.7,0-1.3,0-2c2.1-0.5,1.5,1.8,2.6,2.5c0.6-1.9,1.1-3.8,3.6-3.9c0,0.4,0,0.9,0,1.3
		c-1.9,1.3-2.6,2.6-0.6,4.5c0.6,0.6,2.5,1.3,1.4,2.3c-1.7,1.7-2-0.7-2.8-1.5c-0.3-0.3-0.4-0.8-0.6-1.3c-1.6,1.6,0.3,3.3-1,4.1
		c-1.2,0.8-1-1.2-1.8-1.4c-1.2-0.8,0-2.3-0.9-3.2C309.1,314.5,309.1,314,309.5,313.6z"/>
	<path class="st15" d="M323,222.9c-0.6-3.1-1-5.8-4.3-2.8c-0.3,0.3-0.8-0.1-1.1-0.5c-0.4-0.5,0-0.9,0.2-1.2c1.4-1.6,2.7-3.3,4.2-4.8
		c1-1,2.5-0.7,2.5,0.6C324.6,216.8,325.4,219.7,323,222.9z"/>
	<path class="st15" d="M297.7,183.1c-3.6-5.1-2.7-8.7,2.9-11.1C300.5,176,298.3,179.2,297.7,183.1z"/>
	<path class="st9" d="M303.2,171.8c5.9,2.8,6.9,6.1,3.5,10.9C305.3,179.1,304,175.8,303.2,171.8z"/>
	<path class="st21" d="M282,313.7c1.6-0.7,1.8-2.5,3.1-3.6c0.7-0.6,1.2-0.9,2.1-0.4c0.8,0.5,1.1,0.9,0.9,1.9
		c-0.3,1.7-0.3,3.4-0.5,5.1c-0.1,0.7,0.2,1.7-1.1,1.6c-1.1-0.1-0.8-0.8-0.7-1.5c0.1-2-1.4-1.4-2.3-1.2c-0.7,0.2-0.8,1.9-2,0.9
		c-1.5-1.2,0.7-1.5,0.6-2.4C282,314,282.1,313.8,282,313.7C282.1,313.6,282,313.7,282,313.7z"/>
	<path class="st22" d="M347.3,236c3.3-0.1,4.1,2.3,4.8,4.8c0,0,0.1-0.1,0.1-0.1c-0.7-0.1-1.8,0.5-2.1-0.5c-0.3-1-0.3-2.3-1.6-2
		c-1,0.2-0.5,1.6-0.5,2.4c0.2,1.6-0.7,2.5-1.9,2.8c-1.1,0.3-2.2-0.6-2.8-1.5c-0.4-0.7-0.6-1.6-0.8-2.5c0.1-0.1,0.2-0.2,0.4-0.3
		c3.1,1.1,2.2-2.3,3.5-3.2C346.7,235.7,347,235.7,347.3,236z"/>
	<path class="st15" d="M326,222.6c0.8-0.7,1.3-0.2,1.6,0.2c0.6,0.7,1.4,1.1,2.1,0.6c1.1-0.8-0.2-1.3-0.5-1.9c-0.6-1.3-1-2.7,0.2-3.7
		c1.1-1,2.3-0.4,3.4,0.2c0.8,0.4,1.9,0.9,1.1,2c-0.9,1.4-1.2-0.7-2-0.6c-0.3,0.1-0.6-0.6-1.3-0.2c-0.1,2.1,3.6,4.9-0.6,6.2
		C328.3,226,326.6,224.6,326,222.6z"/>
	<path class="st22" d="M273.9,217.8c-0.5,0.4-0.9,0.7-1.4,1c-0.6,0.4-1.6,0.5-0.9,1.5c0.6,0.9,1.3,0.5,1.9-0.1
		c0.5-0.4,1.8-0.2,1.5,0c-1.9,1.7-0.7,3.6-1,5.4c-0.1,0.9-1,0.3-1.4-0.2c-1-1.4-2-2.7-2.7-4.2c-0.3-0.7-1.5-1.5-0.6-2.3
		c1-0.9,2.2-1.5,3.4-2.1C272.9,216.8,273.4,217.4,273.9,217.8z"/>
	<path class="st23" d="M252.6,242.1c-0.3-0.2-0.5-0.5-0.8-0.7c-1.5-2.3,1-3.4,1.4-5.3c1.8,0.3,3,1.9,4.8,1.9
		c1.2-0.3,2.2-0.2,2.1,1.4c0.4,1.3,0.5,2.4-1.4,1.6c-0.7-0.3-1.4-0.7-2.1-1.1C253.6,238.2,253.2,238.4,252.6,242.1z"/>
	<path class="st14" d="M244.9,314.6c3.5,1.7,6.5,2.7,7.8,6c0.3,0.7,1.1,1.1,1.5,1.8c0.5,0.8,2.9,0.7,1.7,2.2c-0.8,0.9-2-0.7-2.7-1.3
		C250.6,320.7,248.1,317.9,244.9,314.6z"/>
	<path class="st20" d="M335.6,306c0.2,0.2,0.4,0.4,0.7,0.6c1.8,2.5-1.1,2.6-1.9,3.5c-1.9,2.1-2.2-1.2-3.5-1.3
		c-0.7-1-1.4-1.9-2.1-2.9c0.4-0.7-1.2-1.2-0.1-2c1.1-0.7,1.5,0.1,2,0.8c0.5,0.7,1,1.5,1.5,2.2C334,309.2,335.1,308.6,335.6,306z"/>
	<path class="st13" d="M311.5,209.9c3,0.2,5.1,0.6,7.8,2.2c-3.8,0.2-3.9,2.6-4.2,4.8c-0.2,1-0.4,2.1-1.5,1.8
		c-1.1-0.3-0.8-1.6-0.4-2.3C314.2,214.1,314.4,212,311.5,209.9z"/>
	<path class="st9" d="M311,216c-1.4,2.6-3.4,1.2-4.9,1.2c-1.3,0-0.6-1.7-0.6-2.6c-0.1-1.5,0.9-2.8,0.7-4.3c-0.1-0.8,0.2-1.3,1.1-1.2
		c1,0.1,0.9,0.8,0.9,1.5c0,0.4-0.1,0.9-0.3,1.3C306.9,214.6,306.8,216.7,311,216z"/>
	<path class="st24" d="M346.5,294.7c-0.6-0.4-1.3-0.7-1.9-1.1c-0.9-0.5-2-0.5-2.7-1.3c0-0.3,0-0.6-0.1-0.8c0.2-1.5,0.5-2.5,2.2-1
		c1.1,0.9,2.4,1.6,3.6,2.4c0.7,0.5,2.3,0.4,1.4,2C348,296.5,347.3,294.2,346.5,294.7z"/>
	<path class="st25" d="M260.1,239.4c-0.7-0.5-1.4-1-2.1-1.4c-0.3-1.4-2-1.3-2.6-2.3c-0.3-0.5-1.6-0.1-0.9-1.2
		c0.4-0.7,1.1-0.9,1.7-0.5c1.8,1.1,3.8,2.1,5.2,3.6C262.7,238.7,261.3,239.3,260.1,239.4z"/>
	<path class="st26" d="M346.5,283.8c0.9,0.7,1.8,1.4,2.9,1.7c0.1,0.2,0.1,0.4,0.3,0.5c1,0.7,3.7,0.3,2.7,2.3
		c-0.8,1.7-2.4-0.3-3.6-0.8c-0.9-0.3-1.7-0.9-2.6-1.3C343.7,285,344.9,284.3,346.5,283.8z"/>
	<path class="st20" d="M347.3,236c-0.3,0.1-0.6,0.1-0.9,0.2c-0.7,1.8-2.5,2.4-3.9,3.3c0,0,0.1-0.1,0.1-0.1c-1.5-1-1.7-1.9,0-3
		c1.1-0.7,2.3-1.4,3.4-2.1c0.7-0.4,1.2-1.6,2.2-0.6C349.5,235,347.1,235,347.3,236z"/>
	<path class="st15" d="M378.5,274.7c-1.9-3.3-0.1-6.7,0-10.1C378.3,268,381.8,271.4,378.5,274.7z"/>
	<path class="st17" d="M388.8,274.2c-2-2.9-0.7-5.7,0.1-8.5C388.7,268.6,391.9,271.3,388.8,274.2z"/>
	<path class="st13" d="M240.5,314.9c-0.6,1.6-0.1,3.1-0.4,4.7c-1.2-1.1-3.6-0.6-3.7-2.5C236.4,314.6,239.3,316.2,240.5,314.9z"/>
	<path class="st27" d="M347.8,327.5c-1.8,2-3.5,4.1-5.6,6.4C342.3,329.9,344.7,328.4,347.8,327.5z"/>
	<path class="st28" d="M236,320.1c1.9,1,5.5,0.6,3.9,4.8C238,323.7,237.2,321.7,236,320.1z"/>
	<path class="st29" d="M268.3,227.1c0.9,1.1,0.7,2.2,0,3.4c-0.8,0.6-1.6,0.6-2.3-0.1c-0.7-0.9-0.8-1.9-0.3-2.9
		C266.4,226.4,267.2,225.4,268.3,227.1z"/>
	<path class="st27" d="M381.7,301.2c-0.4-2.4,0.9-4,1.9-5.8C384.7,298.3,384.6,298.6,381.7,301.2z"/>
	<path class="st30" d="M309.5,314.9c1.2,0.9,0.6,2.2,0.8,3.3c0,0.3-0.1,0.7-0.1,1c-0.1-0.1-0.2-0.1-0.3-0.2
		c-1.7-0.8-1.9-1.7-0.7-3.3c0.1-0.1-0.2-0.6-0.4-0.9C309,314.7,309.2,314.7,309.5,314.9z"/>
	<path class="st31" d="M268.3,227.1c-0.9-0.6-1.7-0.5-2.1,0.7c-0.8,0.2-1.3-0.2-1.7-0.9c-0.3-0.7-0.2-1.4,0.4-2
		C267,224.2,268.3,224.6,268.3,227.1z"/>
	<path class="st32" d="M264.9,225c0,0.7,0,1.4,0,2.1c-0.2,0.2-0.5,0.4-0.8,0.5c-0.3,0-0.6,0-1-0.1c-1-0.5-2-1-1.7-2.5
		C262.6,222.9,263.8,224,264.9,225z"/>
	<path class="st33" d="M375.5,239.7c1.3,2.5,3.3,3.9,2.3,6.8C376.6,244.4,375.2,242.7,375.5,239.7z"/>
	<path class="st34" d="M266.2,229.6c0.5,0.9,1.3,0.9,2.2,0.9c-0.9,1-1.3,3-3.4,2.1c-0.8-0.6-1.2-1.3-1-2.3
		C264.4,229.1,265.3,229.2,266.2,229.6z"/>
	<path class="st35" d="M260.2,231.2c0-0.9,0-1.9,0-2.8c0.7-0.8,1.5-1.5,2.7-1c0.4,0.3,0.6,0.8,0.7,1.3c0,0.3,0,0.7-0.1,1
		c-0.2,0.5-0.5,0.9-0.9,1.2C261.8,231.4,261,231.7,260.2,231.2z"/>
	<path class="st29" d="M336.3,231.8c-1.1-0.9-1.6-2-1.4-3.4c0.6-0.4,1.4,0.2,2-0.4c1.1,0.2,1.3,0.9,1.4,1.8
		C338.1,231,337.8,232.1,336.3,231.8z"/>
	<path class="st36" d="M269.6,301.9c-0.3,0.8-0.4,1.6-1.2,2c-0.3,0-0.5,0-0.8,0c0-0.2,0-0.4,0-0.7c0.1-1.1-2.6-1.6-0.8-2.9
		C268.1,299.6,268.5,301.7,269.6,301.9z"/>
	<path class="st37" d="M385.2,241c1.6,1.3,4.2,2.3,2.5,5.5C386.7,244.4,386,242.7,385.2,241z"/>
	<path class="st38" d="M336.3,228.5c-0.5,0.9-0.9-0.1-1.4,0c0.1-1.1,0.5-2,1.4-2.7c1.8-0.8,2.3,0.1,2.3,1.8
		C338.1,228.5,336.9,227.7,336.3,228.5z"/>
	<path class="st39" d="M336.3,231.8c0.9-0.4,1.4-1.1,1.4-2.1c0.5-0.3,1-0.5,1.5-0.4c0.4,0.1,0.7,0.3,0.9,0.7c0.3,0.7,0.3,1.5,0,2.2
		c-0.9,1-2,0.8-3.1,0.4C336.8,232.3,336.5,232,336.3,231.8z"/>
	<path class="st40" d="M262.1,230.5c0.3-0.3,0.6-0.6,0.9-0.9c0.7-0.2,1,0.2,1.3,0.8c0.2,0.7,0.5,1.4,0.7,2.1c-0.9,0.3-1.8,1.3-2.8,0
		C261.6,231.9,261.7,231.2,262.1,230.5z"/>
	<path class="st22" d="M299.7,202.7c2.2-1.9,2.2-1.9,5.2,0C302.9,202.7,301.4,202.7,299.7,202.7z"/>
	<path class="st32" d="M338.4,227.7c0-1.3-0.8-1.9-2.1-2c0.5-1.3,1.6-1.5,2.8-1.4c1.1,0.6,1.4,1.5,1,2.6c-0.3,0.5-0.7,0.8-1.2,0.9
		C338.7,227.8,338.5,227.7,338.4,227.7z"/>
	<path class="st41" d="M262.8,227.7c-0.9,0.2-1.8,0.5-2.6,0.7c-0.1-1.4,0.2-2.6,1.3-3.5c0.5,1,1.2,1.7,2.2,2.2
		C263.6,227.6,263.4,228.1,262.8,227.7z"/>
	<path class="st42" d="M350,271c0.7,0.4,1.4,0.9,2.1,1.3c0,0.6,0,1.1,0,1.7c0,0.8-0.1,1.3-1.1,1.2c-0.9-0.1-1-0.7-1-1.5
		c0-0.8,0-1.5,0-2.3C350,271.3,350,271.2,350,271z"/>
	<path class="st43" d="M339.8,231.9c0-0.8-0.1-1.7-0.1-2.5c0.3-0.6,0.7-0.5,1.2-0.3c0.3,0.1,0.6,0.3,0.8,0.5
		c0.9,0.7,1.3,1.4,0.1,2.2c0,0.9-0.4,1.4-1.4,1.4C339.9,232.9,340.1,232.3,339.8,231.9z"/>
	<path class="st34" d="M343.8,227.5c0.1,0.8,0.2,1.7-0.6,2.3c-0.7,0.5-1.4,0.5-2.1,0l0,0c-0.3-0.4-0.5-0.8-0.5-1.3
		c0-0.3,0.1-0.6,0.3-0.9C341.9,226.9,342.8,226.3,343.8,227.5z"/>
	<path class="st44" d="M341.1,227.6c0,0.2,0,0.5,0,0.7c-1.2,0.2-1.1-0.6-1.1-1.4c0.2-0.9-0.3-1.9,0.4-2.7c0.6,0,1.1,0.2,1.4,0.8
		C343.5,226.4,342,227,341.1,227.6z"/>
	<path class="st45" d="M341.1,227.6c0.2-0.9,1.9-1.3,0.7-2.6c2.1-0.3,1.3,1.6,1.9,2.5C342.9,226.8,342,228,341.1,227.6z"/>
	<path class="st46" d="M341.1,229.7c0.7,0,1.4,0,2.1,0c-0.1,0.9,0.6,2.3-1.3,2C343.3,230.5,340.8,230.6,341.1,229.7z"/>
	<path class="st47" d="M339.1,192.8c1.2-0.1,2.3,0,2,1c-0.2,1-1,0.3-1.5,0C339.4,193.6,339.3,193.2,339.1,192.8z"/>
	<path class="st48" d="M339.8,231.9c0.9,0.1,0.8,0.6,0.7,1.3c-1.1-0.2-2.5,0.6-3.4-0.7C337.9,232.2,339.1,233.1,339.8,231.9z"/>
	<path class="st49" d="M249.8,284.7c0.6-1.1,1.8-0.5,2.8-1.4c-0.2,1.9-1.5,1.5-2.1,2C250.2,285.1,250,284.9,249.8,284.7z"/>
	<path class="st50" d="M250.4,280.7c1.2,0,2.4,0,3.6,0c-0.4,0.8-1.2,0.2-1.6,0.6C251.7,281.4,251,281.2,250.4,280.7z"/>
	<path class="st51" d="M262.1,230.5c0,0.7,0.1,1.3,0.1,2c-0.7-0.4-1.3-0.8-2-1.3C261,231.5,261.5,230.8,262.1,230.5z"/>
	<path class="st52" d="M340.4,224.3c0,0.9-0.1,1.8-0.1,2.6c-0.1,0.3-0.2,0.4-0.4,0.1c-0.3-0.9-0.5-1.8-0.8-2.7
		C339.5,224.3,340,224.3,340.4,224.3z"/>
	<path class="st53" d="M314.1,264c1.3,3.8-1.3,6.4-3,8.7c-1.9,2.7-5.6,4.3-8.9,4.2c-7.1-0.2-13.2-7.2-12.6-13.6
		c0.4-4.3,8.1-11.9,11.5-10.8c3.1,0.9,7.1,0.2,9,3.3C311.7,258.5,314.2,260.8,314.1,264z"/>
	<path class="st5" d="M277.7,285.4c-3.8,0.5-6.2-1.8-7.7-5c-1.5-3.3-2.4-6.9-3.5-10.4c-0.2-0.7-1.1-2.1,0.7-2.4
		c1.3-0.2,2.1,0.3,2.5,1.6c0.9,3.2,1.8,6.5,2.8,9.6c0.7,2,1.9,3.6,4.2,4c3.2,0.5,4.7-1,3.7-4c-1-3.1-2.3-6.1-3.4-9.2
		c-0.3-0.8-1.1-1.9,0.5-2c1.1,0,2.6-0.9,3.1,1c1.1,3.9,2.4,7.7,3.3,11.6C284.7,283.6,282.6,285.4,277.7,285.4z"/>
	<path class="st54" d="M326,285.4c-5.2,0-6.7-1.9-5.5-6.3c0.9-3.4,2-6.7,2.7-10c0.4-1.8,1.4-1.6,2.5-1.4c2,0.3,0.7,1.4,0.5,2.2
		c-0.8,2.8-1.4,5.6-2.4,8.4c-0.6,1.6-1.1,3.3,0.6,4.2c1.9,1,3.7,0.3,5.1-1.4c2-2.5,1.9-5.7,3.3-8.4c1-1.8-0.2-6,3.4-4.9
		c2.4,0.8-0.2,3.6-0.6,5.4c-0.7,3.4-1.4,6.8-3.9,9.5C330.1,284.6,328.1,285.9,326,285.4z"/>
	<path class="st54" d="M301.2,247c-0.8-0.1-1.6-0.1-2.2-0.4c-1-0.5-3.3-0.1-2.4-2.3c0.6-1.6,1.9-0.5,3.1-0.3
		c1.8,0.4,3.8,0.5,4.5-1.8c0.7-2.2-1.2-2.9-2.7-3.4c-1.6-0.6-3.3-1.1-4.2-2.6c-1.4-2.2-1.1-4.3,0.8-6.1c1.9-1.7,6.8-2.2,8.3-0.9
		c0.5,0.5,0.5,1,0.3,1.5c-0.3,0.8-0.9,1.4-1.9,0.8c-0.9-0.5-1.8-0.5-2.7-0.4c-1,0.2-2,0.7-2.2,1.8c-0.2,1.2,0.4,1.9,1.5,2.4
		c0.7,0.3,1.4,0.8,2.1,1c3.3,1,4.5,3.4,3.8,6.5C306.7,246.3,303.7,246.5,301.2,247z"/>
	<path class="st55" d="M291.7,238.5c-0.1,1.1-1,1.3-1.8,1.8c-8,4.6-14.1,10.6-15.6,20.3c-0.1,0.9-0.1,2.8-1.6,2.5
		c-1.6-0.3-0.5-1.8-0.4-2.8c1.3-10.9,8.3-17.2,17.2-22.1C291.2,237.1,291.8,237.3,291.7,238.5z"/>
	<path class="st55" d="M330.4,263.2c-0.6-0.4-0.9-0.9-1-1.6c-1.6-9.9-6.7-17.3-15.9-21.7c-0.9-0.4-1.7-1.1-1-2.1
		c0.7-1.1,1.5,0.1,2,0.3c9.5,4.6,14.9,12.3,17,22.6C331.6,261.7,331.6,262.7,330.4,263.2z"/>
	<path class="st55" d="M301.9,294.3c-4.5,0.1-8.7-1.2-12.7-3c-0.7-0.3-2.1-0.4-1.5-1.8c0.5-1.4,1.4-0.6,2.2-0.2
		c8.1,4,16.3,3.8,24.4,0.1c0.8-0.4,1.8-1.2,2.4,0c0.7,1.4-1,1.5-1.7,1.8C310.8,293.3,306.5,294.5,301.9,294.3z"/>
	<path class="st56" d="M304.9,351.4c1.9,1.2,4,0.1,6.7,0.9c-6.5,2.2-12.3,2.1-18.2-0.2c0.7-0.1,1.4-0.2,2-0.2
		c0.8-0.1,1.6-0.1,2.4-0.1c1.1-0.3,2.3-0.6,3.4-0.9c-2.9,0.2-5.3-1.2-7.6-2.6c-1.4-0.9-1-1.4,0.1-2c1.9-0.5,3.7-0.6,5.6-0.1
		c-1.2-0.4-2.6-0.1-3.6-1.2c-1-0.8-2-1.6-3.3-2.6c1.8-1.1,3.6-1.2,5.3-1.4c0.4,0.3,0.8,0.3,1.3,0.3c0.2,0,0.5,0.1,0.7,0.1
		c-0.2-0.1-0.5-0.1-0.7-0.1c-0.5,0-0.9,0-1.3-0.2c-0.1-1.4-1.5-0.6-2.1-1.2c-0.8-0.9-3.1-1.1-2.5-2.6c0.4-0.9,2.4-1.2,3.9-1.1
		c1.5,0.1,2.5,1.9,4.2,1c0.5-1,1.3-0.3,2-0.3c2.6-0.2,5.3-1.4,7.8,0.6c-0.9,2.2-3.7,2.1-5.1,3.7c-0.5,0.3-1,0.2-1.6,0.3
		c0.5,0,1.1,0.1,1.5-0.3c1.7,0.3,3.4,0.7,5.7,1.1c-1.8,1.6-3.2,2.7-5,3.2c-0.7,0.9-1.7,0.8-3.4,1.2c2.3-0.4,3.9-0.6,5.4-0.2
		c0.9,0.2,2.1-0.1,2.6,1.3c-2.7,1.5-5.1,3.9-8.8,2.6C303,351.9,304.2,351,304.9,351.4z"/>
	<path class="st57" d="M303.4,336.8c-0.6,0.8-1.3,0.4-2,0.3c-2.6-1.6-2.7-4-1.7-6.5c0.4-0.9,1-2.1,2.4-2.1c1.5,0,1.8,1.2,2.3,2.1
		C305.6,333,304.9,335,303.4,336.8z"/>
	<path class="st9" d="M295.8,345c1.6-0.1,3,1.2,4.9,0.6c1-0.3,0.5,1.2,0.4,2.2c-2.2-2.1-4.9-1.1-7.3-1.5
		C294.4,345.9,295.1,345.5,295.8,345z"/>
	<path class="st58" d="M308.8,346.3c-2,0.2-4.1-0.3-5.8,1.5c-0.6-1.8-0.7-2.8,1.6-2.2c0.7,0.2,1.5-0.3,2.3-0.4
		C307.5,345.7,308.2,346,308.8,346.3z"/>
	<path class="st55" d="M250,268.9c1.2-0.1,2.4,0,2.5,1.6c0.2,1.9-1.6,2.3-2.7,2.4c-1,0.1-2.8-0.6-2.6-2
		C247.4,269.7,248.5,268.7,250,268.9z"/>
	<path class="st34" d="M247.7,266.9c2.4-2.5,3.4-2.4,4.7,0.6C250.9,266.3,249.3,267.1,247.7,266.9z"/>
	<path class="st59" d="M257.3,286c-0.2,0.9-1,0.9-1.6,0.9c-0.5,0-1.2-0.2-1.1-1c0.1-0.7,0.6-1.2,1.3-1.2
		C256.7,284.7,257.1,285.3,257.3,286z"/>
	<path class="st60" d="M328.8,310.6c0.2,1.2-0.5,2.3-1.5,2c-1.5-0.4-2.7-1.6-2.6-3.4c0-1.2,0.7-2.1,1.9-1.8
		C328.1,307.7,328.9,308.9,328.8,310.6z"/>
	<path class="st61" d="M341.8,292.3c1.2-0.2,2.3-0.1,2.7,1.3c-2.2,1.9-2.2,1.9-0.1,2.6c0.9,0.3,0.9,0.9,0.3,1.5
		c-0.8,0.8-1.5,1.3-2.9,0.7c-1.5-0.7-1.5-1.7-1.5-3C340.3,294.2,342.2,293.8,341.8,292.3z"/>
	<path class="st62" d="M336.8,299.8c1.4,0.7,2.8,1.6,2.9,3.3c0.1,1.2-0.9,1.7-2.1,1.5c-1.7-0.2-2.6-1.2-2.6-2.9
		C334.9,300.6,335.4,299.9,336.8,299.8z"/>
	<path class="st63" d="M309.5,314.9c-0.2,0-0.5,0-0.7,0c-0.8-0.3-2.6,0.5-2.5-0.5c0.2-1.9,2.1-0.5,3.2-0.8
		C309.5,314,309.5,314.5,309.5,314.9z"/>
	<path class="st62" d="M277.2,313.2c-0.3-0.1-1.7-0.3-1.2-1.2c0.7-1.5,0.7-3.8,3-4c1.3-0.1,1.6,0.8,1.7,2
		C281,312.4,279.6,313,277.2,313.2z"/>
	<path class="st42" d="M271.4,303.3c0.6,0.5,1.1,0.9,1.1,1.7c0,0.7-0.3,1-1,0.9c-0.9-0.1-1.2-0.7-1-1.4
		C270.6,304.1,271.1,303.7,271.4,303.3z"/>
	<path class="st62" d="M353.8,270.3c-1.6,0-3,0.1-3.1-1.6c-0.1-1.7,1.4-2.1,2.5-2.1c1.2,0,3,0,3,2
		C356.2,270.3,354.8,270.4,353.8,270.3z"/>
	<path class="st5" d="M352.7,261.5c-0.2,0.8-1,0.9-1.6,1c-0.6,0.1-0.4-0.6-0.4-1c0-0.7,0.5-1.3,1.1-1.3
		C352.3,260.2,352.8,260.8,352.7,261.5z"/>
	<path class="st5" d="M348.8,246.1c0.4-0.7,1-1.4,1.5-1c0.8,0.6,0.4,1.1-0.5,1.1C349.4,246.2,349.1,246.2,348.8,246.1z"/>
	<path class="st64" d="M323.1,216.7c-0.3,0.3-0.6,0.7-1,1.1c0,0-0.7-0.4-0.7-0.6c0-0.6,0.5-0.9,1-1.1
		C322.7,216,323.1,216.1,323.1,216.7z"/>
	<path class="st65" d="M285.8,311.7c0.2,0.9,0.9,1.9-0.2,2.4c-0.2,0.1-0.9-0.1-0.9-0.2C284.5,313,285.8,312.7,285.8,311.7z"/>
	<path class="st66" d="M342.4,239.4c0.7-1.9,2.8-2,3.9-3.3c-0.1,1.7-0.3,3.4-0.5,5.3C344.3,241.3,344.4,238.5,342.4,239.4z"/>
	<path class="st67" d="M264.2,230.4c-0.4-0.3-0.9-0.5-1.3-0.8c0-0.2,0-0.3,0-0.5c0.6-0.6,1.2-1.2,1.6-2c0.2,0,0.3,0,0.5-0.1
		c0.4,0.2,0.9,0.5,1.3,0.7c0,0.6-1,1.2-0.1,1.8C265.6,230,264.6,229.4,264.2,230.4z"/>
	<path class="st68" d="M264.5,227.2c1.3,2.1-0.2,2-1.6,2c0-0.5-0.1-1-0.1-1.5c0.3-0.2,0.6-0.4,0.9-0.5
		C263.9,227.2,264.2,227.2,264.5,227.2z"/>
	<path class="st25" d="M338.9,229.7c-0.4,0-0.8,0-1.2,0c0.1-1.1-0.4-1.5-1.4-1.2c0.4-1.1,1.3-0.7,2.1-0.8l0,0.1
		C339,228.3,339.4,228.8,338.9,229.7z"/>
	<path class="st69" d="M338.9,229.7c-0.3-0.6-0.9-1.2-0.6-1.9c0.5-0.2,1-0.5,1.5-0.7c0.1,0,0.3-0.1,0.4-0.1c0.1,0.6,0.1,1.2,0.8,1.4
		c0,0.5,0,0.9,0,1.4c-0.5,0-0.8-0.8-1.5-0.3C339.4,229.5,339.2,229.6,338.9,229.7z"/>
	<path class="st13" d="M305.7,263.2c-1.9-1.8-1.7-4.2-1.6-6.6c0-1.8,0.6-2.5,2.6-1.4C311.8,258.1,311.7,259.3,305.7,263.2z"/>
	<path class="st9" d="M310.3,268.2c-1.7-0.1-3.6-0.2-4.6-1.8c-0.5-0.8,4.1-5,5.4-5.1c1.1-0.1,2.2,1.1,1.7,1.4
		C311,264.2,315.3,268.5,310.3,268.2z"/>
	<path class="st13" d="M298.6,266.3c-1.5,1.7-1.5,5.2-3.6,5.8c-2,0.5-2.9-2.9-3-4.3c-0.1-2.5,2.8-2.4,4.6-2.9
		C297.5,264.5,298.3,265,298.6,266.3z"/>
	<path class="st13" d="M299.8,261.7c-1.9,2.7-5.2,1.5-7.5,3c-0.1,0.1-1-0.5-1-0.7c0.5-1.6,0.8-3.4,1.6-4.8c0.8-1.3,2.2-0.8,3.3,0
		C297.4,260,298.6,260.8,299.8,261.7z"/>
	<path class="st9" d="M297.2,272.1c0.1-0.3,0.4-1,0.6-1.6c0.4-1.1,0.9-2.4,2-2.5c1.6-0.1,1.2,1.9,2,2.7c0.3,0.3,0.2,0.9,0.2,1.3
		c0,1.3,2.5,2.2,1.2,3.2c-1.5,1.1-3.6-0.2-5.4-0.4C297,274.6,297.2,273.3,297.2,272.1z"/>
	<path class="st9" d="M306.4,274.5c-2.5-0.9-3-3.1-3.5-5.1c-0.3-1.1,1.1-1.5,1.8-1.2c2,1.1,5.3,0.1,5.9,2.7
		C310.9,272,308.1,273.6,306.4,274.5z"/>
	<path class="st9" d="M302.6,258.3c-0.3,0.6,0.9,2.8-1.2,2.3c-2.2-0.5-4.9-2.1-5.2-4.1c-0.3-1.8,3-2.2,4.5-2.4
		C302.5,253.9,302.9,256.1,302.6,258.3z"/>
	<path class="st70" d="M302.1,262c1.3,0.6,2.6,1.2,2.6,2.7c0,1.7-1.4,2.6-2.9,2.6c-1.1,0-2.1-1-2.1-2.6
		C299.8,263.2,300.8,262.5,302.1,262z"/>
	<path class="st71" d="M297.8,341.1c0.9,0.9,3.7-2.6,3.4,1.7C300,342.2,298.9,341.6,297.8,341.1C297.9,341,297.8,341.1,297.8,341.1z
		"/>
	<path class="st72" d="M306.1,341c-1,0.6-2.1,1.2-3.1,1.7C302.8,340.7,302.8,340.7,306.1,341C306.1,341.1,306.1,341,306.1,341z"/>
</g>
</svg>
