<?xml version="1.0" encoding="utf-8"?>
<!-- Generator: Adobe Illustrator 23.0.0, SVG Export Plug-In . SVG Version: 6.00 Build 0)  -->
<svg version="1.1" id="Layer_1" xmlns="http://www.w3.org/2000/svg" xmlns:xlink="http://www.w3.org/1999/xlink" x="0px" y="0px"
	 viewBox="0 0 1024 614" style="enable-background:new 0 0 1024 614;" xml:space="preserve">
<style type="text/css">
	.st0{fill-rule:evenodd;clip-rule:evenodd;fill:#1D58A5;}
	.st1{fill-rule:evenodd;clip-rule:evenodd;fill:#FFFFFF;}
</style>
<desc>Created with Sketch.</desc>
<path id="Accent" class="st0" d="M738.3,488c-4.5,5.2-11.2,9.1-16.3,13.9c-5.4,5-11.2,9.4-16.6,14.4c-23.6-28.9-56-46.6-84-70.5
	c-13.3-11.4-23.1-26.8-30.2-42.6c-3.7-8.1-6.4-16.4-8.5-25.1c-1-3.9-1.9-7.8-2.5-11.7c-0.8-4.8-1-5.2-4.2-8.9
	c-1.4-1.6-4.1-6.3-6.8-5.8c-2.3,0.4-6.5,7.4-7.9,9.1c-6.9,8.3-13.7,16.8-21,24.7c-11.2,12.2-21.4,24.1-31.8,37
	c-21.2,26.4-44.2,51.2-67.3,76c-1.7,1.8-5.7,7.2-8.2,8c-3,0.9-7.9-2.8-10.9-4.8c-7.3-5-13-11.1-19.2-17.2
	c-12.1-12-20.4-28.8-25.9-44.8c-3.3-9.6-5.5-19.5-8.9-29.1c-1.4-4-4.7-8.9-3-12.3c0.5-1,3.6-3.8,4.7-4c1.3-0.2,3.5,1.5,3.9,1.4
	c4.3-1.2,1.9-5.7,4.5-8.1c1.4-1.4,8.8-1.2,11-1.9c8.1-2.8,15.3-8,22.9-11.2c31.9-13.2,64.1-26,91.6-47.5c7.1-5.6,11.9-9.8,20.4-13.4
	c8.6-3.6,17.2-6.9,26-10.1c7.7-2.8,15.5-5.4,23.5-7.4c8.6-2.2,20.9-4.9,29.6-2.1c17,5.5,22.5,19.5,29.2,34.2
	c9.1,20,20.2,38.8,32.2,57.2C687.8,420.7,715.8,452.4,738.3,488"/>
<path id="ink-layer" class="st1" d="M227.2,175.5c-0.9-0.5-8.2,2.5-9.4,2.9c-4.9,1.8-9.5,4.8-14.1,7.3c3.5,4.3,7.1,8.6,10.6,12.9
	C217.7,190.2,222.1,183.2,227.2,175.5L227.2,175.5z M229.6,228.3c-1.2,0.1,8.9,24.5,10.1,27.2c4.3,10,8.8,19.8,13.2,29.7
	c4.2,9.6,9.6,18.5,15,27.5c4.6,7.7,9.4,19.6,16.4,25.3c-4.4-19.5-3.8-42-16.5-58.4C254.7,262.6,241.8,246,229.6,228.3L229.6,228.3z
	 M738.3,488.9c-19.6-31-44.1-58.4-64.5-88.8c-11.4-17-22.5-34.3-32.2-52.4c-7-13.2-11.3-32-22.1-42.1c-4.8-4.4-9.8-8.8-16.2-10.8
	c-8.7-2.7-20.8,0-29.6,2.1c-16.4,4-32.4,10.2-47.9,16.8c-15.7,6.6-29.1,18.6-43.3,28.1c-15.2,10.3-31.7,17.8-48.8,24.3
	c-14.9,5.7-28.1,13.9-42.9,19.6c-2.9,1.1-9,1-11.4,2.5c-2.7,1.6-1.6,6.4-4.8,8.1c-1.5,0.8-1.9-2.1-3.1-2c-1.4,0.1-2.6,1.7-3.9,2.7
	c-5.4,4.1-2.1,6.9,0,12.6c6.9,18.6,10.7,37.5,20.4,55.1c8,14.4,19.5,27.4,33,36.9c2.1,1.5,8.7,7.1,11.2,6.7c2.2-0.3,6.6-6.1,8.1-7.7
	c6.8-7.1,13-14.8,19.8-21.9c10.5-11,20.6-22.3,30.8-33.4c11.8-12.9,22.3-27.6,32.9-41.4c4.9-6.4,11.2-11.5,16.6-17.4
	c7.3-7.9,14-16.5,21-24.7c2.1-2.5,5.6-8.9,8.9-8.8c2.3,0.1,6.3,5.4,7.5,7.1c4.4,6.3,4.4,17.6,6.6,25.4c5.4,19.1,15.1,37.8,28.5,52.5
	c13.3,14.7,30.3,25.1,46,36.9c17,12.8,33.1,25.8,46.6,42.3c5.4-5,11.2-9.3,16.6-14.4C727.1,498,733.8,494.1,738.3,488.9L738.3,488.9
	z M486.5,576.6c3.8,0,10.2,2.4,13.6,1c-10.1-11.2-19.4-20.8-32.1-28.9c-13.3-8.5-26.5-16.9-39.3-26c-25.9-18.3-45-39.9-55.9-70.3
	c-2.8-7.8-4.7-16-6.7-24.1c-1.1-4.3-3.3-24.6-7-26.4c-2.2-1-18.8,10.6-21.4,12.1c-6.1,3.4-12.3,6-18.7,8.7
	c-13.6,5.7-27.7,10.1-42.2,13.7c-17.4,4.4-29.2-2.9-39.9-16.5c-12.2-15.5-22.3-32.9-33.5-49.2c-5.1-7.4-9.3-14.8-13-22.9
	c-2.5-5.3-12.2-19.7-8.8-25.4c9.6,7.3,13,21.8,19.6,31.6c8.1,12.2,17.3,23.7,25.5,35.8c6.9,10.2,13.9,22.6,24.1,30
	c8.9,6.5,17.4,4.5,27,1.6c11.7-3.5,23.7-5.3,35.2-9.6c12.4-4.7,24.1-11.4,36.1-16.9c5.6-2.5,12.4-4,17.7-7.2c4.6-2.7,3.9-4.2,4.2-10
	c0.4-6.8,0.8-13.6,1.1-20.4c0.2-4.6-2.3-10.8-0.6-14.2c-13.7,2.4-27.1,5.6-40.7,8.4c-7.4,1.5-14.6,3.4-22.1,4.7
	c-2.9,0.5-6.8,0.4-9.4,1.7c-2-0.6-3.1-0.2-3.1,1.1c-0.1,0.7-0.3,1.4-0.5,2.1c-4.2,1.9-6.6-2.2-10.3-6.1c-4.5-4.9-7.9-10.3-11.2-16
	c-7.4-12.7-15.9-24.7-22.7-37.8c-7-13.4-12.6-27.7-18.5-41.5c-5.4-12.7-8.9-26.5-14.8-38.9c-2.7-5.5-6-10.1-10-14.8
	c-3.3-3.9-8.3-12.2-13.1-14c-1.3-0.5-4.7,0.3-6.1,0.2c-2.9-0.2-5.5-1.3-8.5-1c-6.5,0.5-13.5,4.6-18.6,8.2c3.3,3,11.7,6.6,5.7,11.9
	c-5.8,5.2-9-4.1-11.2-8.2c-10.4,8.6-8.9,20.4-10.1,32.5c-0.6,6.3-2.3,12.6-3.4,18.8c-0.8,4.5-0.2,9.1-0.4,13.7
	c-0.6,11.6-1.7,22.8-1.7,34.2c0.1,12.3,0.9,24.1,1.9,36.3c1.7,20.5,5.4,41,8.7,61.3c1.8,11.4,4.3,22.5,6.7,33.8
	c2.8,12.8,7.8,24.8,10.7,37.6c2.9-3.7,5.1-3.7,9.8-3.2c3.6,0.4,6.1-0.5,5.8,4.5c-0.1,3.3-3,5.7-6.2,6.3c-4.1,0.7-5.6-1.3-7.7-4.5
	c-0.5,5.9,3.5,12.2,5.1,18c1.5,5.5,2.5,10.9,5,16.2c2.5,5.1,4.6,10.2,7,15.3c1.1,2.3,2.2,4.7,3.4,7.1c0.6,1.2,1.3,2.8,2.1,3.8
	c2,2.3,1.7,1.2,4.1,2.5c5.2,2.9,3.3,2.2,3.4,8.2c0.1,5.9,3.1,10.2,8,13.6c10.3,7,20.5,9,32.2,12.6c10.9,3.3,22.4,6.2,34,6.1
	c14.2-0.1,28.1-1.9,42.3-2.1c15.6-0.2,31.4-0.1,47,0.4c6.4,0.2,12.4,0.5,18.6,2.1c7.2,1.9,14.2,1.2,21.6,0.9
	c15.8-0.6,32.2-1.8,47.8-2C463.3,576.7,475.2,575.9,486.5,576.6L486.5,576.6z M897,582.7c2.8,1.5,9.1,0.9,12,0.5
	c5-0.7,5.5-2.7,8.7-7.1c5.4-7.7,9.9-15,13.1-23.9c6.1-17,8.6-34.3,11.3-52.1c3-19.7-2.5-40.2-4.4-59.8c-0.4-4.5-1.1-8.9-1.8-13.4
	c-0.4-2.7-0.5-11.7-2.3-14c-3.4-4.4-19.1-0.9-25.2-0.5c-17.2,1.1-34.5,1.4-51.7,1.6c-9.2,0.1-18.4,0.5-27.5,0.6
	c-4.2,0-8.2-0.2-12.4-0.6c-1.4-0.1-2.8-0.5-4.2-0.5c-4.8-0.3-4.5-1-5.7,3.3c-2.2,7.5-0.5,17-1.1,24.8c-0.8,10.4-1.2,20.9-1,31.3
	c0.2,9.6-0.2,19.2,0.2,28.9c0.2,4,0.6,7.2,1.6,11.1c1.2,4.3,2.5,14.4,5.5,17.4c0.3,0.3,2.9-0.5,3.5,0.4c1,1.3,0.8,4.1,1.6,4.9
	c2.3,2.7,7,2.9,10.5,4.2c9.4,3.4,18.1,7,27,11.5c7.9,4,20.7,7.5,25.5,15.5c2.2,3.7,2.5,8.5,4.5,12.3c2.3,4.3-2.3,2.1,3.3,3.8
	C890.4,583.5,894.4,582.7,897,582.7L897,582.7z M60.3,534c-0.7,9.9-6.3,19.4-8.3,29.2c-0.9,4.6-2.5,9.1-3.5,13.6
	c-1,4.4-4.7,9.5-4.4,13.8c13.7-4.9,27.6-6.1,41.9-7.4c13.6-1.2,27.9-1.7,41.4-1.8c13.7,0,28.4-1.3,42.5-1.6
	c14.8-0.2,29.8-0.6,44.3-2.1c-7.6-5.6-17.1-10.9-22.8-18.8c-6.1-8.5-9.3-19.2-14.7-28.2c-10.8-18.1-17.7-40.5-23.3-60.8
	c-11.4-41-24.2-81.2-27.3-123.7c-5.9,3-10.5,14.6-13.4,20.4c-3.7,7.4-5.7,15.4-8.1,23.3c-5,16.2-8.5,33-14.6,49
	C78.4,469.7,70.9,502.8,60.3,534L60.3,534z M804.4,295.3c2.5,18.3,7.9,36.9,8.1,55.4c0,4.1-0.6,8.6,0.2,12.6
	c0.9,4.3,3.9,8.1,5.6,12.2c2.7,6.5,9.6,19.8,2.9,25.2c-0.1-5.2-4.9-11.8-7.3-16.4c-3.6-6.9-8.4-13.1-12.3-19.8
	c-8.2-14-17.4-27.7-28-40.1c-10.3-12-22.2-22.7-33.1-34.2c-3.3-3.4-29.6-36.6-30.7-36.1c8.2,31.5,22.1,58.9,41.1,85.3
	c9.3,12.9,20.5,21.4,31.9,32.4c9.4,9.1,27.3,18.9,24,33.8c14.8-1.4,29.4-3.7,44.3-3.7c-2.5-18.9-4.3-37.4-8.7-56
	c-5-21.1-8.3-42.8-12.5-64c-4.3-21.7-11.6-42.7-16.1-64.4c-4.3-20.7-8.1-41.4-11.2-62.4c-2.6,11.6-1.7,24.4-2.6,36.2
	c-1,12.1-0.9,24-0.5,36.2C799.9,250.3,802.3,272.7,804.4,295.3L804.4,295.3z M868.4,187.4c0.1-9.7,2-19.2,2.5-28.9
	c0.2-3,3.1-23.2,0.4-24.2c-2.3,4.9-2.8,11.3-4.9,16.4c-2.1,5.2-4.8,10.1-6.8,15.3c-4.3,11.3-5.7,24.1-6.2,36.1
	c-1,27.2-1.6,54.2,0.2,81.4c0.8,11.6,1.4,23.3,1.2,35c-0.2,12.8-2.2,24,0.2,36.7c2.4,12.6,3.8,25.2,4.6,37.9c0.6,9,0.8,8.3,9.3,7.7
	c6.2-0.5,12.4,0,18.6-0.3c-2.9-35-3.4-70-8-104.9c-2.4-17.8-2.4-35.8-5.4-53.5c-1.5-8.8-3.9-17.4-5.3-26.2
	C867.5,206.4,868.3,196.9,868.4,187.4L868.4,187.4z M242.3,165.4c16.5,1.4,34,6.4,50.9,3.1c-2.8-1.1-10.1-2.7-6.8-7.1
	c3.3-4.5,9,1.2,12.3,0.6c2.1-0.4,6.6-8.9,7.8-10.7c2.9-4,3.2-4.7,8.4-5.8c5-1,6.1,0.1,6.8-4.9c0.7-5.7-1.2-12.1-1.1-18
	c0.4-12.6,4.5-23.6,8.3-35.4c-16,3.5-31.7,7.6-48.1,9.9c-7,1-17.9,3.2-24.3-1.6c-1.7-1.2-1.4-2.9-2.7-4.4c-2.3-2.4-6.5-4.9-9.7-5.6
	c-19.8-4.2-21.8,24.1-11.8,34.7c2.5,2.7,6,4,8.5,6.4c3.4,3.2,3.7,6.7,4.2,11.6c0.9,9.3-0.3,18.6-4.3,27.1L242.3,165.4z M483.1,298.9
	c5.9,1.1,12,0.9,17.8,1.8c2.1,0.3,8.3,1.5,10.2,0.3c2.8-1.9,3.8-8.7,5.1-11.9c2.3-5.6,5.6-10.5,7.8-16.2
	c9.1-23.3,17.5-46.6,28.5-69.1c-4.2-1.1-7.4-1.1-11.7-1.7c-4.4-0.6-8.4-3.2-12.6-4.3c-4-1.1-8.2-0.8-12.2-2
	c-2.2-0.7-4.1-2.2-6.2-2.7c-3.4-0.8-7.4-1.3-9.5,0.9c-2.1,2.3-2.8,8.7-4,11.6c-3,8-6.6,15.6-9.1,23.8c-2.3,7.3-4.5,14.6-6.5,22
	c-2.1,7.8-6.3,14.3-8.9,21.8c-1.9,5.7-3.8,11.5-4.1,17.6c-0.3,5.9-1.1,6.3,4.8,7.2C475.7,298.5,480.3,300.3,483.1,298.9L483.1,298.9
	z M868.6,576.1c1.5,0.7,3,0.6,4.3-0.3c-13.2-5.6-26.1-13.3-39.9-17.2c-12.9-3.6-25.5-7.9-38-12.3c-10.1-3.6-19.2-6.4-28.4-12.7
	c-5.6-3.8-10.5-8.2-14.3-13.8c-4.3-6.3-5.2-15.2-9.8-20.8c-6.2,6.8-13.5,12-20.9,17.4c-2.5,1.9-8.7,6-9.5,8.9
	c-1.1,3.7,1.8,7.2,3.3,10.9c3.7,9.5,5.6,19,7.6,28.9c0.8,4,2.6,9.9,5.8,11.6c3,1.5,11.5,0.4,15.2,0.1c19.2-1.5,38.1-2.9,57.5-1.6
	C823.4,576.6,846.8,577.7,868.6,576.1L868.6,576.1z M907,399.9c3.5,0,6.9-0.4,10.4-0.4c-2-9.4,2.7-21.5,4.4-30.9
	c1.9-10.5,3.3-21.3,4.5-31.9c2.6-22.2,3.8-44.2,3.8-66.6c0-21.7,4-41.5,9.5-62.4c5.9-22.4,15.7-42.5,23.7-64.1
	c-8.8,4.7-13.7,15.6-18.3,23.9c-5.9,10.5-9.8,22.2-12.2,34.1c-4.6,22.8-9.7,45.7-15,68.5c-5.5,23.7-8.8,47.7-15.2,71.2
	c-3.1,11.5-7.3,25.6-7.5,37.4c-0.1,4.9-1.6,15.2,0.6,19.4C897.9,402.2,902.5,400.3,907,399.9L907,399.9z M379.5,370.5
	c-0.2,2.4-0.4,4.8-0.8,7.2c4.8,0,11-5.1,15.1-7.3c5.1-2.7,10.1-5.8,15.1-8.5c9.6-5.3,20.4-8.8,30.6-13.2c11.7-5,22.5-11.1,33.7-17.2
	c3.9-2.1,32-14.3,31.6-17.6c-6.2-0.2-12.3-0.4-18.5-0.6c-5.3-0.2-13.5,1-18.6-0.6c-2.8-0.9-5.9-4.2-6.9-6.8s1.3-14.3-0.1-15.1
	c-6.9,7.1-11.3,16.4-17.4,24c-6.8,8.4-15.6,13.3-25.4,17.8c-10.7,4.9-21.9,8.8-32.8,13c-4.6,1.8-4.5,2.8-4.9,7.9
	C379.6,359.1,379.7,364.8,379.5,370.5L379.5,370.5z M937.4,583.8c11.6,1.2,23.6,0.5,35.3,1.5c4.3,0.4,10.2,0.9,5.9,6.6
	c-2.7,3.6-11.4,2.5-15.3,2.7c-10.5,0.7-21.7,0.3-32.3,0.2c-2.2,0-4.7-0.7-6.9-0.5c-2.6,0.2-5.7,2-8.1,2c-1.5,0-2-1.5-3.2-1.7
	c-2.7-0.3-5.5-0.5-8.2-0.5c-41.8,0-83-0.8-124.7-0.9c-19.9,0-40.2-0.4-60.1-1.3c-4.2-0.2-28,0.7-27.4-6.9c0.3-3.9,8.1-4.4,11-4.8
	c2.1-0.3,4.3-0.3,6.4-0.4c5.6-0.3,8,1,6.9-5.1c-4.5-23.2-12.5-42.4-29.7-59.1c-14-13.7-30.9-26-46.8-37.5
	c-19.3-13.9-34.9-28.4-46.4-49.6c-6.7-12.4-12.3-25-15.7-38.7c-1.2-4.9-1.3-10.5-2.8-15.3c-1.2-3.7-3.8-6.2-5.4-10
	c-19.2,32-44.6,58.9-67.9,87.8c-11.1,13.8-23.9,26.9-37.2,38.9c-4,3.6-7.6,7.3-11.3,11.1c-3.1,3.2-8,6.1-10.6,9.6
	c-2.5,3.4-1.9,3.3,1.9,6c5,3.6,10.6,6.6,15.7,10.1c8.2,5.6,17.1,10.3,24.4,17c7.9,7.3,14.8,15.7,21.7,23.9
	c4.6,5.5,10.6,12.5,11.8,19.4c0.4,2.3,1.8,7.9-0.1,9.6c-1.6,1.4-1.5,0.9-3.5,0c-2.7-1.1-3.5-3.8-6.7-5c-8.3-3.2-18.4-2.1-27.1-2.1
	s-17.4,0.9-26.1,0.9c-19.8-0.1-39.2,1.5-59,2.4c-21,0.9-42.3-1.3-63.3-1c-15.5,0.2-31.5-0.9-47.4-0.1c-8.2,0.4-16.3-0.6-24.3-0.7
	c-10.5-0.2-21.2,1.3-31.8,1.5c-17.4,0.3-34.5,0.3-52,0.8c-37.6,0.9-74.9,1.8-112.5,2.4c-5,0.1-10.5-0.1-15.5,0.5
	c-5.3,0.6-2.5,1.7-6.2,3.6c-10.1,5.3-7.8-14.3-7.5-18.2c1.3-20.7,6.6-41,12.9-60.6c6-18.6,10.9-38.1,15.9-57.2
	c5.6-20.8,12.8-40.8,19.4-61.5c6.7-21.1,12.2-43.1,24.4-61.8c2.8-4.3,5.7-8.9,10.1-11.6c5-3,5.2-1.3,5.2-6.8
	c0-5.2,0.3-12.1-0.9-17.1c-1.1-4.5-0.9-1.8-3.4-5c-2-2.6-4.2-4.4-5.6-7.6c-9,9.1-29.5,4.3-38.1-2.2c-10.6-8-18.7-21.5-21.6-34.4
	c-2.4-10.3,0.5-30,12-35c5.6-2.4,26-4.3,26.9-12.1c0.4-4.1-6.8-9.8-8.4-13.3c-3.1-6.5-6-15.1-6.9-22.2c-1.8-13.9,4.5-29.5,14.5-38.8
	c18.4-17.2,50.8-26,74.5-15.1c-5-19.1-8-35.6-5.5-55.5C163,48,173.1,38.4,187,29.8c23.7-14.6,56-20.3,83.2-16.1
	c6.2,1,12.1,3,17.8,4.7c8.3,2.4,18.2,1.6,26.1,5.5c5.7,2.8,10,8.4,15,12.2c5.8,4.4,10.7,10.9,14.7,16.9c8.7,12.9,5.3,36.8-2,49.7
	c-1.6,2.8-3.5,5.1-6,7c-2.7,2-6.8,2.6-8.1,5.1c-3.5,6.5-0.1,20.7,0.3,27.8c0.5,8.2-3.6,14.4-12.9,15c-5.4,0.4-5.6-2.7-8.1,3.7
	c-1.7,4.2-3.2,8.7-5.6,12.5c-5,7.9-14.1,7.1-22.4,6.9c-9.6-0.2-19.1-1.8-28.7-2.7c2.5,8.1,9.5,14.4,13.8,21.7
	c5.9,9.8,9.4,17.9,10.4,29.3c0.7,8.8-0.8,15.7-6.9,22.2c-2.5,2.7-4.7,2.8-4.1,6c0.4,1.9,3.7,5,4.8,6.6c3.1,4,6.7,7.7,9.4,12
	c10.4,16.5,13.5,41.7,13.5,60.9c0,0.9,0.5,2.8,0.1,3.7c-0.3,0.7-2.5,2.8-2.5,3c-0.4,2.5,2,6.7,5.8,7.1c4,0.4,11.2-2.9,14.9-4
	c5.9-1.7,11.9-3,17.8-4.8c9.5-2.9,19-5.2,28.7-7.5c4.4-1,8.8-1.9,13.2-2.8c5-1.1,7.3-3.2,9.9,1.9c2.2,4.4,0.8,5.2,6.2,3
	c5.3-2.2,10.5-4.9,15.7-7.4c9.2-4.3,20.1-8.2,28-14.6c13.2-10.7,18.1-27.8,30.7-39.1c3.5-3.2,5.6-3.2,7.8-7.6
	c2.4-4.7,3.6-10.7,4.9-15.8c2.2-8.8,3.8-17.7,5.7-26.5c2.5-11,7.8-21,11.7-31.4c1.5-4.1,2.3-9.3,4.8-13c0.7-1,1.9-1.5,2.4-2.3
	c1.7-2.8,1.7-3.5,2.2-6.9c2.1-15.6,11.4-7.4,21.5-3.8c4.3,1.5,24.6,11.2,16.8,17.7c9.2,2.7,24,1.2,23.9,14.5
	c-0.1,6.8-4.1,14-6.3,20.4c-1.9,5.6-3.8,11.3-5.8,16.9c-4.3,12.3-9.5,24.3-13.7,36.7c-1.9,5.6-3.5,11.4-6.2,16.7
	c-2.4,4.7-8,9.9-9,15c24.6-10.5,47.4-25.7,75-24.7c12.1,0.4,23,5.5,29.7,16.1c8.4,13.3,13.9,28.2,22,41.6
	c29.7,48.8,65.1,93.2,97.8,140c2.5,3.6,5.7,7,6.6,11.4c0.6,2.9-0.5,5.8,0.1,8.6c1.4,5.8,8.5,13,13.4,16.3
	c9.3,6.4,24.3,15.4,35.9,14.6c-7.3-17.4-7.2-36.5-6.8-55.2c0.3-17.7,2.2-35.2,4.5-52.7c0.5-4,1-7.6,2.1-11.5c1.3-4.4,3.1-4-0.8-7.9
	c-6-6.1-13.2-11.1-19.2-17.3c-13.1-13.3-26.6-23.8-36.9-39.7c-9.8-15.1-20.2-30.7-27.4-47.3c-7.5-17.1-10.5-35.3-14.2-53.4
	c-1.5-7.3-7-15.5-5.9-23.2c1.4-9.7,5.9-2.6,7.7,2.6c5.6,15.9,18.6,30.1,29.5,42.9c11.7,13.8,26,25.4,38.2,38.8
	c13.3,14.6,22.4,31.4,34.2,47c0-19.4-6.6-39.1-9.3-58.2c-2.4-16.9-3.1-33.8-4.6-50.7c-3.4-38.5-0.5-78,4.3-116.2
	c2.3-18.1,1-35.8,1.1-54c0-5.8-2.4-19.1,0.7-24.3c5.9-9.8,9.3,11.7,9.6,14.9c1.8,19.1-1.4,38,0.2,57.1c1.7,19.9,5.4,39.2,8.5,58.8
	c3.4,21.3,8.9,42.1,14.2,62.9c5.5,21.9,10.2,44.3,16.4,66c1.7-6.8-0.7-15.2-1.1-22.2c-0.7-10-1.9-19.9-2.1-29.9
	c-0.2-15.9-0.3-32.1,0.6-47.9c0.9-15.6,0.6-32,5.4-47c2.3-7.1,5.6-14.1,8.9-20.8c4-8.3,5.4-16.3,7.7-25.1c1.9-7.6,4.7-14.9,6-22.6
	c0.8-4.8,3-18.9,8.5-8.2c3.2,6.2,1.8,15.4,1.9,22.1c0.1,8.6-1.2,16.9-1.4,25.4c-0.4,16.7-0.7,33.4-1.9,50.1
	c-1.3,17.5-0.2,33.2,3.2,50.5c3.6,18.9,4.7,37.8,6.6,57c1,9.9,2.6,19.7,3.4,29.6c0.4,5.2-1.7,20.3,2,24c0.4-9.1,3-18.2,4.9-27
	c2.3-10.5,3.3-21.5,5-32.1c2.8-17.2,8.2-33.7,11.8-50.7c7.4-35.1,13.5-80.2,44.4-103.1c4-3,8.5-5.2,12.9-7.7c2.5-1.4,6.2-5,9-5.7
	c3.1-0.7,4.4-0.2,5.6,3.4c1.7,5-1.4,7.3-4.4,11c-10.3,12.6-14.7,28.7-21.1,43.4c-14.6,33.7-21.1,69.3-21.1,105.8
	c0,19.1-1.4,37.5-3.4,56.5c-2.2,20.4-5.1,42-11.3,61.7c6.2,1.4,13-0.7,14.7,6.5c0.4,1.8-0.3,3.9,0.1,6.2c0.4,2.2,1.5,4.5,2.2,6.7
	c1.3,4.6,2,9.1,2.6,13.8c2.5,18.1,6.7,35.4,7.2,53.8c0.4,17-2.9,34.2-6,50.9c-3.1,16.8-12,31.1-18.9,46.3
	C931.4,583.8,934.4,583.8,937.4,583.8L937.4,583.8z"/>
<path class="st1" d="M542.4,545.2c-3.3,0.9-19.3,2.7-19.3,7.7c0,3,16,2.9,18.8,3.3C542.1,552.6,542.3,548.9,542.4,545.2
	 M577.7,579.8c9.2,1.8,21.7-0.7,27.6-8.8c2.8-3.8,4.1-9.6,5-14.1c0.9-4.3,3.5-15.1,1.7-19.1c-2.2-5-23.4,0.2-29.5,0.8
	c-10.7,1-21.9,1.1-32.6,0.4c0,11.1-0.6,21.9,6,31.5C560.5,577.4,569.3,579,577.7,579.8 M575.9,593.5c-10-3.7-20.5-1.3-27-12
	c-1.7-2.7-3-5.7-4-8.7c-0.5-1.3-0.9-2.7-1.1-4.1c0.5-3-0.6-3.8-3.3-2.5c-5.3-1-11.1,2.6-16.7,1.5c-13.5-2.6-11.1-22-2-28.7
	c1.8-1.3,3.6-1.7,5.6-2.4c4.5-1.4,7,0.2,11.1-0.2c3.4-0.3,4.3-3.8,7.9-5.4c2.4-1,5.6-0.9,8.1-1c13-0.5,26-0.5,39-1.4
	c6.1-0.4,12.7,0.6,18.6-0.5c2.8-0.5,2.4-2.3,5-0.7c2.7,1.7,1.6,7.9,1.4,10.4c-0.8,14.4-1.7,29.8-9.4,42.4
	C602.1,591.8,588.2,593,575.9,593.5"/>
<path class="st1" d="M47.5,597.5c3.2,0,6.4-0.1,9.6-0.1C53.9,597.4,50.7,597.5,47.5,597.5"/>
<path class="st1" d="M941.3,290.6c0-3.1,0-6.2,0-9.3C941.3,284.5,941.3,287.5,941.3,290.6"/>
<path class="st1" d="M122.5,303.3c0,3,0,6,0,9C122.4,309.3,122.5,306.3,122.5,303.3"/>
<path class="st1" d="M390,594.1c2.6,0,5.1,0,7.7,0C395.1,594.1,392.6,594.1,390,594.1"/>
<path class="st1" d="M234.5,593.5c2.6,0,5.1,0,7.7,0C239.6,593.5,237.1,593.5,234.5,593.5"/>
<path class="st1" d="M794.5,468.4c-0.1,2-0.2,4.1-0.3,6.1C794.2,472.4,794.3,470.4,794.5,468.4"/>
<path class="st1" d="M937.4,583.8c-2,0-4,0-5.9-0.1C933.5,583,935.5,583,937.4,583.8"/>
<path class="st1" d="M761.7,592.9c1.4,0,2.8,0,4.2-0.1C764.6,592.8,763.1,592.8,761.7,592.9"/>
<path class="st1" d="M940.5,315.7c0-1.5,0.1-3.1,0.1-4.6C940.6,312.7,940.6,314.2,940.5,315.7"/>
<path class="st1" d="M807.7,121.3c-0.1-1.6-0.2-3.2-0.4-4.8C807.5,118.2,807.6,119.7,807.7,121.3"/>
<path class="st1" d="M941.2,296.7c0-1.6,0-3.2,0.1-4.8C941.3,293.5,941.2,295.1,941.2,296.7"/>
<path class="st1" d="M494.5,590.9c1.3,0,2.5,0,3.8,0.1C497.1,590.9,495.8,590.9,494.5,590.9"/>
<path class="st1" d="M819.8,593.5c1.2,0,2.5,0,3.7,0.1C822.3,593.5,821.1,593.5,819.8,593.5"/>
<path class="st1" d="M953.2,481.8c-0.1-1.4-0.2-2.8-0.3-4.2C953,479,953.1,480.4,953.2,481.8"/>
<path class="st1" d="M931,594.8c1,0,2,0,3,0C933,594.8,932,594.8,931,594.8"/>
<path class="st1" d="M794.1,593.5c1,0,2,0,3-0.1C796.1,593.5,795.1,593.5,794.1,593.5"/>
<path class="st1" d="M570.4,592.8c1.1,0,2.2,0,3.3,0C572.6,592.8,571.5,592.8,570.4,592.8"/>
<path class="st1" d="M317.8,592.8c1,0,2.1,0,3.1,0C319.9,592.8,318.9,592.8,317.8,592.8"/>
<path class="st1" d="M256.4,592.9c1.1-0.1,2.1-0.1,3.2-0.2C258.5,592.8,257.4,592.9,256.4,592.9"/>
<path class="st1" d="M550.6,188.3c-1.6-0.1-3.2-0.3-4.7-0.4C547.4,188,549.1,187.1,550.6,188.3"/>
<path class="st1" d="M953.3,584.4c-1.6-0.2-3.1-0.3-4.7-0.5C950.2,584.1,951.8,584.3,953.3,584.4"/>
<path class="st1" d="M844.7,197.9c-0.1,1.4-0.2,2.7-0.3,4.1C844.5,200.6,844.6,199.3,844.7,197.9"/>
<path class="st1" d="M941.6,254.8c0.1-1.3,0.2-2.6,0.3-3.9C941.8,252.2,941.7,253.5,941.6,254.8"/>
<path class="st1" d="M844.1,219.1c-0.1,1.4-0.2,2.7-0.3,4.1C843.8,221.8,843.9,220.4,844.1,219.1"/>
<path class="st1" d="M941,307.1c0-1.3,0-2.6,0-3.9C941.8,304.4,941.7,305.7,941,307.1"/>
<path class="st1" d="M794.5,496.2c0,1.3,0,2.6,0,4C793.6,498.8,793.7,497.5,794.5,496.2"/>
<path class="st1" d="M893.8,343.5c-0.2-1.3-0.3-2.7-0.5-4C893.5,340.8,893.6,342.1,893.8,343.5"/>
<path class="st1" d="M71.5,220.8c-1,1.4-2.4,0.4-3.7,0.6C69.1,221.2,70.3,221,71.5,220.8"/>
<path class="st1" d="M582.3,529.6c-1.3,0-2.6,0-3.9,0C579.7,529.6,581,529.6,582.3,529.6"/>
<path class="st1" d="M790.8,226.5c0.1,1.1,0.2,2.2,0.4,3.3C791,228.7,790.9,227.6,790.8,226.5"/>
<path class="st1" d="M145.9,116.2c-1.3,0-2.6,0.1-3.9,0.1C143.2,115.5,144.5,115.3,145.9,116.2"/>
<path class="st1" d="M844,238.3c-0.1,1.2-0.2,2.3-0.3,3.5C843.9,240.6,843.9,239.4,844,238.3"/>
<path class="st1" d="M808,95.4c0.1-1.1,0.2-2.1,0.3-3.2C808.2,93.3,808.1,94.3,808,95.4"/>
<path class="st1" d="M797.7,92.1c-0.1,1.2-0.2,2.3-0.3,3.4C797.5,94.4,797.6,93.2,797.7,92.1"/>
<path class="st1" d="M227.8,15.2c-1.3,0.2-2.7,0.3-4,0.5C225.2,15.5,226.5,15.4,227.8,15.2"/>
<path class="st1" d="M131.4,117.1c-1.4,0.1-2.7,0.3-4.1,0.4C128.7,117.4,130,117.3,131.4,117.1"/>
<path class="st1" d="M882.2,120.5c0.1-1.1,0.2-2.1,0.2-3.2C882.3,118.4,882.2,119.4,882.2,120.5"/>
<path class="st1" d="M86.5,297.3c0.8,0,1.6,0,2.4,0C88,297.3,87.2,297.3,86.5,297.3"/>
<path class="st1" d="M797.8,429.4c-0.1,1.2-0.2,2.4-0.2,3.6C797.6,431.8,797.7,430.6,797.8,429.4"/>
<path class="st1" d="M878.3,198.6c0-1.1-0.1-2.3-0.1-3.4C878.2,196.4,878.2,197.5,878.3,198.6"/>
<path class="st1" d="M261.4,12.5c-1.2,0-2.4,0-3.6,0C259,11.7,260.2,11.7,261.4,12.5"/>
<path class="st1" d="M586.4,281.5c-1.3,0-2.7,0.1-4,0.1C583.7,280.7,585,280.7,586.4,281.5"/>
<path class="st1" d="M702.8,590.8c0.8,0,1.6,0,2.4,0.1C704.4,590.9,703.6,590.9,702.8,590.8"/>
<path class="st1" d="M732.6,592.2c0.8,0,1.6-0.1,2.4-0.1C734.2,592.2,733.4,592.2,732.6,592.2"/>
<path class="st1" d="M266.9,592.8c0.8,0,1.6,0,2.5,0.1C268.5,592.8,267.7,592.8,266.9,592.8"/>
<path class="st1" d="M952.5,468.5c-0.1-1.1-0.2-2.3-0.4-3.4C952.3,466.3,952.4,467.4,952.5,468.5"/>
<path class="st1" d="M845,278c0.1,1.1,0.2,2.2,0.3,3.2C845.2,280.2,845.1,279.1,845,278"/>
<path class="st1" d="M886.4,259.5c-0.1-1.1-0.3-2.3-0.4-3.4C886.1,257.3,886.3,258.4,886.4,259.5"/>
<path class="st1" d="M273.6,593.5c0.8,0,1.7,0,2.5,0C275.2,593.4,274.4,593.4,273.6,593.5"/>
<path class="st1" d="M575.9,593.5c0.8,0,1.6-0.1,2.4-0.1C577.5,593.5,576.7,593.5,575.9,593.5"/>
<path class="st1" d="M879.6,176.2c0-1.2-0.1-2.3-0.1-3.5C879.6,173.8,879.6,175,879.6,176.2"/>
<path class="st1" d="M194.9,594.2c0.8,0,1.6,0,2.4,0C196.5,594.2,195.7,594.2,194.9,594.2"/>
<path class="st1" d="M879.3,594.2c0.8,0,1.7,0,2.5,0C881,594.2,880.1,594.2,879.3,594.2"/>
<path class="st1" d="M897.3,594.1c0.8,0.1,1.6,0.1,2.4,0.2C898.9,594.2,898.1,594.2,897.3,594.1"/>
<path class="st1" d="M904.5,594.1c0.8,0,1.6,0,2.4,0.1C906.2,594.1,905.4,594.1,904.5,594.1"/>
<path class="st1" d="M941.8,264.1c-0.1-1.1-0.1-2.3-0.2-3.4C941.7,261.9,941.8,263,941.8,264.1"/>
<path class="st1" d="M392.5,579.2c2.5-0.1,5-0.3,7.5-0.4C397.5,578.9,395,579,392.5,579.2"/>
<path class="st1" d="M242.3,165.4c2.2,0.2,4.3,0.4,6.5,0.6C246.6,165.7,244.5,165.6,242.3,165.4"/>
<path class="st1" d="M852.4,259.3c0.1,2.1,0.1,4.1,0.2,6.2C852.6,263.4,852.5,261.4,852.4,259.3"/>
<path class="st1" d="M897,582.7c2.3,0.1,4.5,0.3,6.8,0.4C901.5,583.2,899.2,583.9,897,582.7"/>
<path class="st1" d="M883.7,338.8c0-2,0-3.9,0-5.9C883.7,334.9,883.7,336.8,883.7,338.8"/>
<path class="st1" d="M877.9,400.6c2,0,4,0.1,5.9,0.1C881.9,400.6,879.9,400.6,877.9,400.6"/>
<path class="st1" d="M379.6,366c0,1.5-0.1,3-0.1,4.5C379.5,369,379.6,367.5,379.6,366"/>
<path class="st1" d="M910.9,302.5c-0.1,1.5-0.2,3-0.2,4.5C910.7,305.5,910.8,304,910.9,302.5"/>
<path class="st1" d="M868.6,576.1c1.4-0.1,2.9-0.2,4.3-0.3C871.9,576.6,870.8,576.7,868.6,576.1"/>
<path class="st1" d="M859,381.1c0.1,1.6,0.2,3.2,0.3,4.8C859.2,384.3,859.1,382.7,859,381.1"/>
<path class="st1" d="M320.6,127.3c0-1.6,0-3.1,0-4.7C320.6,124.2,320.6,125.7,320.6,127.3"/>
<path class="st1" d="M860.7,400.9l5.4-0.1C864.3,401.7,862.5,401.7,860.7,400.9"/>
<path class="st1" d="M910.3,412.4c-1.3,0-2.5,0-3.8,0C907.7,412.4,909,412.4,910.3,412.4"/>
<path class="st1" d="M446.8,576.7c1.8,0,3.5,0,5.3,0.1C450.3,577.6,448.5,577.8,446.8,576.7"/>
<path class="st1" d="M116.7,581.8c1.8-0.2,3.6-0.3,5.3-0.5C120.3,581.5,118.5,581.7,116.7,581.8"/>
<path class="st1" d="M853.1,272.6c0.1,1.6,0.2,3.2,0.3,4.8C853.2,275.8,853.1,274.2,853.1,272.6"/>
<path class="st1" d="M285.5,169.2c1.5-0.7,3-0.9,4.5-0.1C288.5,169.1,287,169.1,285.5,169.2"/>
<path class="st1" d="M804,291.2c0.1,1.4,0.2,2.7,0.4,4.1C804.3,293.9,804.2,292.6,804,291.2"/>
<path class="st1" d="M930.7,259.4c-0.8-1.3-0.7-2.7,0-4C930.7,256.8,930.7,258.1,930.7,259.4"/>
<path class="st1" d="M853.3,213.2c0,1.3,0,2.7,0,4C853.3,215.9,853.3,214.5,853.3,213.2"/>
<path class="st1" d="M907,399.9c1.5-0.5,3.1-1.1,4.6,0C910.1,400,908.6,399.9,907,399.9"/>
<path class="st1" d="M408.4,578.6c1.6-0.1,3.1-0.3,4.7-0.4C411.5,578.3,410,578.4,408.4,578.6"/>
<path class="st1" d="M195.6,578.6c1.4-0.6,2.8-1,4.2,0C198.4,578.6,197,578.6,195.6,578.6"/>
<path class="st1" d="M486.5,576.6c1.5-0.7,3-1,4.5,0C489.5,576.6,488,576.6,486.5,576.6"/>
<path class="st1" d="M148,379.8c0.1,1.4,0.2,2.7,0.3,4.1C148.2,382.6,148.1,381.2,148,379.8"/>
<path class="st1" d="M501,300.7c1.5-0.5,3-0.8,4.5,0.1C504,300.8,502.5,300.8,501,300.7"/>
<path class="st1" d="M853,341.6c0.1,1.3,0.2,2.7,0.2,4C853.2,344.3,853.1,343,853,341.6"/>
<path class="st1" d="M147,220.5c-0.1,1.1-0.2,2.2-0.4,3.2C146.7,222.7,146.9,221.6,147,220.5"/>
<path class="st1" d="M60.3,534c-0.1,1.1-0.2,2.1-0.2,3.2C60.1,536.1,60.2,535.1,60.3,534"/>
<path class="st1" d="M884.4,348.7c-0.1-1.1-0.2-2.2-0.3-3.3C884.2,346.5,884.3,347.6,884.4,348.7"/>
<path class="st1" d="M775.4,574.5c1.3,0,2.7,0,4,0C778.1,574.5,776.7,574.5,775.4,574.5"/>
<path class="st1" d="M379.1,375.3c0.2,0.8,0.5,1.6,0.7,2.4C378.2,378,378,377.3,379.1,375.3"/>
<path class="st1" d="M479.1,299c1.4,0,2.7,0,4.1,0C481.8,299.6,480.4,300,479.1,299"/>
<path class="st1" d="M148.7,386.3c0,1.2,0.1,2.4,0.1,3.6C148.8,388.7,148.8,387.5,148.7,386.3"/>
<path class="st1" d="M163,579.9c1.3,0,2.6,0,3.9,0C165.7,579.9,164.4,579.9,163,579.9"/>
<path class="st1" d="M807.3,399c0,1.1,0.1,2.2,0.1,3.3C807.4,401.2,807.4,400.1,807.3,399"/>
<path class="st1" d="M135.3,581.2c1.3-0.9,2.6-0.8,3.9,0C137.9,581.2,136.6,581.2,135.3,581.2"/>
<path class="st1" d="M169.1,205.1c0.1,1.1,0.1,2.3,0.2,3.4C169.3,207.3,169.2,206.2,169.1,205.1"/>
<path class="st1" d="M128.6,581.3c1.3,0,2.7,0,4,0C131.3,582.3,129.9,582.3,128.6,581.3"/>
<path class="st1" d="M868.4,187.4c0-1.1,0-2.3,0-3.4C868.4,185.1,868.4,186.2,868.4,187.4"/>
<path class="st1" d="M255.1,167.3c1.3,0.2,2.6,0.3,3.8,0.5C257.6,167.7,256.3,167.5,255.1,167.3"/>
<path class="st1" d="M142.3,266.2c0,1.1,0,2.1,0.1,3.2C142.3,268.4,142.3,267.3,142.3,266.2"/>
<path class="st1" d="M877,266.1c-0.1-1.1-0.1-2.2-0.2-3.3C876.9,263.9,876.9,265,877,266.1"/>
<path class="st1" d="M578.9,580.1c1.6,0.1,3.2,0.3,4.7,0.4C582.1,580.3,580.5,580.2,578.9,580.1"/>
<path class="st1" d="M573.7,539.2c-0.9,0-1.7,0-2.5,0C572,539.3,572.8,539.3,573.7,539.2"/>
<path class="st1" d="M573.7,579.4c1.3,0.1,2.6,0.3,4,0.4C576.4,579.7,575.1,579.6,573.7,579.4"/>
<path class="st1" d="M335.7,490.4c1.7,9.7-13.4,19.2-14.6,5.4c-0.4-5.1,2.9-8.6,6.7-11.7C333.2,479.7,336.2,483.9,335.7,490.4"/>
<path class="st1" d="M169.1,371.7c3.6,1.5,30.8,10.3,16.6,14.8c-3.7,1.2-9.4,1.4-12.6-0.7C169.2,383.3,165.3,375.9,169.1,371.7"/>
<path class="st1" d="M175.8,240c9.2-1.1,17.7,14.1,6.4,13.6C173.9,253.3,162.8,240,175.8,240"/>
<path class="st1" d="M208.9,277.2c7.7,6.7-6.6,21.8-12.3,16c-2.9-3-0.2-9.4,2.2-11.9C201.2,278.7,205.6,278.3,208.9,277.2"/>
<path class="st1" d="M231.8,451.6c-4.6,0.7-24.6,7.3-20.4-4.6c1.6-4.5,6-3.2,10.1-3C228.1,444.3,231.8,444,231.8,451.6"/>
<path class="st1" d="M218.6,482.2c6.8,3.6-3.1,24-8.8,19.7C202,495.9,212.7,484,218.6,482.2"/>
<path class="st1" d="M248.3,465.8c3.3-1.4,18.9,13.7,13,17.8c-3,2.1-8.8-1.5-10.7-3.7C247.2,475.7,246.9,470.6,248.3,465.8"/>
<path class="st1" d="M158.2,343c3.4,0.6,9.2,0.7,9.5,5.5c0.2,4.2-5.1,5.5-8.7,5.9c-3.8,0.3-8.9-0.7-9-5.6
	C149.9,343.6,158.1,343.9,158.2,343"/>
<path class="st1" d="M241.7,550.1c3.6,2.2,20.4,10.1,13.2,15.8c-2.7,2.1-10.9-2.3-12.7-4.5C240,558.6,237.9,552.4,241.7,550.1"/>
<path class="st1" d="M288.5,492.9c-0.5-8.7,14.2-12.2,11.1,0.2c-0.9,3.5-1.7,8.8-6,9C288.5,502.3,288.3,496.2,288.5,492.9"/>
<path class="st1" d="M243.2,341.6c0.1,6.6-12.5,12.4-12.6,2C230.4,334.2,243.6,331.4,243.2,341.6"/>
<path class="st1" d="M234.8,307.2c3.1,1,7.3,1.5,7.5,5.5c0.3,4.2-3.6,6.1-7.1,5.8c-2.9-0.2-7.1-2.3-7.6-5.4
	C226.8,308.5,231.3,308.2,234.8,307.2"/>
<path class="st1" d="M176.9,428c-0.1-5.4,10.9-12,12.9-5.7c0.6,2-4.5,11.1-6.2,11.8C179,435.9,178.4,431.7,176.9,428"/>
<path class="st1" d="M266.3,518.7c-3.7,3.3-14.8,12.6-13.9,0.1C252.9,510.8,267.3,511.3,266.3,518.7"/>
<path class="st1" d="M446.5,554.3c1.2-5.2,18.5,3.8,12.7,10.5c-1.9,2.2-7,0.2-9-1.1C446.5,561,446.4,558.6,446.5,554.3"/>
<path class="st1" d="M350.1,442.2c0.7-2.3,1.4-6.5,3.7-7.9c4-2.7,7.5,1.4,7.5,5.7C361.3,447.9,352.2,450.4,350.1,442.2"/>
<path class="st1" d="M307.2,535.6c4.5,1,14.5,12,8.7,16.4C310.3,556.3,302.9,538.9,307.2,535.6"/>
<path class="st1" d="M311.5,452.9c5.8,0.5,13.7,9.8,4.7,11.3C309.2,465.4,301,455.2,311.5,452.9"/>
<path class="st1" d="M363.8,496c1.4-4.9,15.8,0.3,15,5.7c-0.4,2.9-6.3,3.5-9.4,2.8C364.9,503.4,363.7,500.4,363.8,496"/>
<path class="st1" d="M194.9,223.4c0.1-6.3,12.2-8.9,13.1-2.5C208.8,226.6,194.7,232.7,194.9,223.4"/>
<path class="st1" d="M359.8,561c0.9-3.2,1.3-7,5.2-7.4c4.5-0.5,4.4,3,3.9,6.6C367.4,570,361.9,570.5,359.8,561"/>
<path class="st1" d="M168.3,298.5c-6.3,1.4-17.9-10.7-10.8-13.4C162.5,283.3,168.3,294.8,168.3,298.5"/>
<path class="st1" d="M248.9,393c-3.2,1.5-4,2.4-6.4-0.1c-2.2-2.2-2.1-8.2-0.2-10.4C249.4,373.9,249.2,389.5,248.9,393"/>
<path class="st1" d="M275.2,375.5c3.4,0.4,13.3,9.9,8.1,13.6C277,393.8,273.4,379.4,275.2,375.5"/>
<path class="st1" d="M347.8,378c-2.4,9.4-8.5,3.1-8.2-4C340.1,362.6,346.5,372.5,347.8,378"/>
<path class="st1" d="M384.8,528.9c4.1,1.7,9.7,17.5,3.8,18.3C382,548.1,384.2,532.1,384.8,528.9"/>
<path class="st1" d="M333.3,520c4.7-1.6,6.5,8.4,3.7,10.2C330.9,534.3,332.2,522.4,333.3,520"/>
<path class="st1" d="M288.5,492.9c-0.1,1.3-0.1,2.6-0.2,4C288.4,495.5,288.4,494.2,288.5,492.9"/>
<path class="st1" d="M446.5,554.3c0,1.4-0.1,2.7-0.1,4.1C446.4,557,446.5,555.6,446.5,554.3"/>
<path class="st1" d="M363.8,496c0,1.1-0.1,2.3-0.1,3.4C363.7,498.3,363.8,497.1,363.8,496"/>
<path class="st1" d="M886,476.2c9.8-0.3,20.7-4,30.3-2.8c2.6,0.3,8.7,1,4.5,4.9c-2,1.9-11.7,0.9-14.7,1.5c-18,3.8-38.4,6.3-56.8,5.9
	c-8.6-0.1-17.3-0.8-25.9-1.3c-8.6-0.5-9.5-4,0.2-5.1c10.1-1.2,20.4-0.7,30.5-0.7C864.8,478.7,875.4,476.9,886,476.2"/>
<path class="st1" d="M907.5,452.6c-0.9,2.7-1.8,8.8-5.4,9.2c-5.1,0.6-5.9-8.1-5.7-11.3c0.2-3.8,1.6-10.2,6.4-8.9
	C906.8,442.8,907.2,449.6,907.5,452.6"/>
<path class="st1" d="M876.9,450.7c0.7-2.9,1.1-9.3,5.2-9.6c4.5-0.2,5.8,6.5,5.8,9.7c0,3.1-1.2,8.9-4.8,9.6
	C878.2,461.4,877.7,453.9,876.9,450.7"/>
<path class="st1" d="M825.9,455.8c-1.5,3.5-2.4,8.2-7,5.9c-3.5-1.8-4-9.2-3.3-12.5c0.7-3.5,2.1-7.5,6.1-5.9
	C826.3,445,825.8,452,825.9,455.8"/>
<path class="st1" d="M864.5,452.6c-4.3,13.2-12.3,4.3-9.2-5.6C858.4,436.8,864.1,446.8,864.5,452.6"/>
<path class="st1" d="M843.4,453.3c-1.2,2.3-2.5,7.3-5.7,6.8c-4-0.6-4.1-8.3-3.7-11.2c0.4-2.5,1.5-6.7,4.8-6.6
	C843.6,442.4,843.3,450.3,843.4,453.3"/>
<path class="st1" d="M929.9,455.8c-3.2,7.2-7.7,1-6.3-4.1C925.8,444,929.7,450.8,929.9,455.8"/>
<path class="st1" d="M850.8,478.7c-3.5,0-7.1,0-10.6,0C843.8,478,847.3,477.7,850.8,478.7"/>
<path class="st1" d="M920.9,473.4c-3.1,0-6.1,0-9.2,0.1C914.8,472.5,917.8,472.5,920.9,473.4"/>
<path class="st1" d="M886,476.2c-2.4,0.2-4.9,0.3-7.3,0.5C881.1,476.5,883.5,476.4,886,476.2"/>
<path class="st1" d="M825.9,455.8c0-1.8,0-3.5-0.1-5.3C826.7,452.3,826.7,454.1,825.9,455.8"/>
<path class="st1" d="M845.1,485.7c1.4,0,2.8,0,4.2,0C847.9,485.8,846.5,485.8,845.1,485.7"/>
<path class="st1" d="M821.2,484.5c1.4,0,2.9,0,4.3,0C824.1,484.5,822.7,484.5,821.2,484.5"/>
<path class="st1" d="M833,478.8c-2,0.2-4,0.3-6,0.5C829,479.2,831,479,833,478.8"/>
<path class="st1" d="M860.1,478.7c-2,0-3.9,0-5.9,0C856.1,477.8,858.1,477.8,860.1,478.7"/>
<path class="st1" d="M843.4,453.3c0-1.8-0.1-3.7-0.1-5.5C843.3,449.6,843.3,451.5,843.4,453.3"/>
<path class="st1" d="M815.6,449.1c0,1.8,0,3.6,0,5.4C815.5,452.7,815.5,450.9,815.6,449.1"/>
<path class="st1" d="M897.2,475.5c-1.7,0.2-3.5,0.3-5.2,0.5C893.7,475.9,895.5,475.7,897.2,475.5"/>
<path class="st1" d="M929.9,455.8c-0.1-1.6-0.1-3.1-0.2-4.7C929.8,452.7,929.9,454.2,929.9,455.8"/>
<path class="st1" d="M855.6,485.8c1.2,0,2.4,0,3.6-0.1C858.1,485.7,856.8,485.8,855.6,485.8"/>
<path class="st1" d="M907.5,452.6c-0.1-1.1-0.2-2.2-0.3-3.4C907.3,450.4,907.4,451.5,907.5,452.6"/>
<path class="st1" d="M864.5,452.6c-0.1-1.2-0.2-2.3-0.2-3.5C864.3,450.3,864.4,451.5,864.5,452.6"/>
<path class="st1" d="M237.9,114.1c-4.8-1.3-5.7-8-4.9-12.1c0.9-2,1.7-4,2.6-6c-0.3-0.7-0.7-1.5-1-2.2c0.4-4.1-0.7-5.9,4-4.2
	C247.3,92.7,248.7,113.8,237.9,114.1"/>
<path class="st1" d="M308.6,101.1c3.9-0.3,11.1,4.3,7.2,8.7c-2.4,2.7-10.4,1.4-13.7,2c-4.3,0.8-8.8,1.8-6.5-4.7
	C297.4,102.1,304,101,308.6,101.1"/>
<path class="st1" d="M304.5,131.6c-4-3.2-2.2-17.8,3.9-15.2C314.6,119.1,307.8,129.5,304.5,131.6"/>
<path class="st1" d="M233,102c0,1.5,0,3.1,0,4.6C232.1,105.1,232.1,103.5,233,102"/>
<path class="st1" d="M237.9,114.1c0.8,0,1.6,0,2.4-0.1C239.5,114.1,238.7,114.1,237.9,114.1"/>
<path class="st1" d="M731.6,534.8c-0.4,6.6-7.5,1.7-7-2.7C725.6,524,730.1,532,731.6,534.8"/>
</svg>
