<?xml version="1.0" encoding="utf-8"?>
<!-- Generator: Adobe Illustrator 23.0.0, SVG Export Plug-In . SVG Version: 6.00 Build 0)  -->
<svg version="1.1" id="Layer_1" xmlns="http://www.w3.org/2000/svg" xmlns:xlink="http://www.w3.org/1999/xlink" x="0px" y="0px"
	 viewBox="0 0 125 125" style="enable-background:new 0 0 125 125;" xml:space="preserve">
<style type="text/css">
	.st0{fill:#0D0015;}
	.st1{fill:#FEFEFE;}
	.st2{fill:#E7C21E;}
	.st3{fill:#347F3D;}
	.st4{fill:#FDFDFD;}
	.st5{fill:#FEF24F;}
	.st6{fill:#EB1C24;}
	.st7{fill:#FDF14F;}
	.st8{fill:#FCFCFC;}
	.st9{fill:#347E3D;}
	.st10{fill:#FBFBFB;}
	.st11{fill:#FCF14F;}
	.st12{fill:#FAFAFA;}
	.st13{fill:#FDFCFD;}
	.st14{fill:#FBFAFB;}
	.st15{fill:#F8F8F8;}
	.st16{fill:#F8F8F9;}
	.st17{fill:#F9F9F9;}
	.st18{fill:#F7F7F7;}
	.st19{fill:#F8F7F8;}
	.st20{fill:#F5F5F5;}
	.st21{fill:#F9F8F9;}
	.st22{fill:#EFEFF0;}
	.st23{fill:#34783C;}
	.st24{fill:#0E0117;}
	.st25{fill:#1A0E23;}
	.st26{fill:#1B0F23;}
	.st27{fill:#12051B;}
	.st28{fill:#F6F6F6;}
	.st29{fill:#11041A;}
	.st30{fill:#1D1125;}
	.st31{fill:#11051A;}
	.st32{fill:#FDFDFC;}
	.st33{fill:#22162A;}
	.st34{fill:#170B20;}
	.st35{fill:#100419;}
	.st36{fill:#15081D;}
	.st37{fill:#160A1F;}
	.st38{fill:#1E1226;}
	.st39{fill:#0D0016;}
	.st40{fill:#CAC8CC;}
	.st41{fill:#D5D3D7;}
	.st42{fill:#C6C5CA;}
	.st43{fill:#E8E7E9;}
	.st44{fill:#211629;}
	.st45{fill:#817F84;}
	.st46{fill:#C8C5CA;}
	.st47{fill:#BAB6BC;}
	.st48{fill:#0D0116;}
	.st49{fill:#0D0115;}
	.st50{fill:#0E0116;}
	.st51{fill:#34803D;}
	.st52{fill:#EA1E25;}
	.st53{fill:#F7F9F7;}
	.st54{fill:#1F1427;}
	.st55{fill:#100318;}
	.st56{fill:#12061B;}
	.st57{fill:#0F0218;}
	.st58{fill:#0F0318;}
	.st59{fill:#221629;}
	.st60{fill:#1C1124;}
	.st61{fill:#1D1126;}
	.st62{fill:#D8D6DA;}
	.st63{fill:#413747;}
	.st64{fill:#514858;}
	.st65{fill:#FCF050;}
	.st66{fill:#F7F8F5;}
	.st67{fill:#F9FAF8;}
</style>
<g>
	<g>
		<path class="st0" d="M0.8,58.1c0.8-2.2,0.7-4.6,1.2-6.9c1.8-9.8,5.8-18.5,12-26.3C20,17.2,27.5,11.1,36.4,7
			c5.5-2.6,11.3-4.3,17.4-5.2C55.3,1.6,57,2,58.4,1.1c3.3,0,6.5,0,9.8,0c2.4,0.4,4.8,0.8,7.1,1.2c9.9,1.9,18.8,6,26.6,12.3
			c7.4,6,13.3,13.2,17.4,21.9c2.6,5.5,4.3,11.2,5.2,17.2c0.6,4.2,1,8.4,0.7,12.7c-0.8,12.2-4.6,23.4-11.9,33.2
			c-8.9,11.8-20.4,19.8-34.8,23.5c-6.2,1.6-12.6,2.3-18.9,1.8c-12.6-0.9-24.2-4.8-34.2-12.6C13.6,103.1,5.8,91.5,2.5,76.9
			c-0.6-2.8-1.3-5.6-1.2-8.5c0-0.3-0.1-0.5-0.4-0.6C0.8,64.6,0.8,61.3,0.8,58.1z"/>
		<path class="st1" d="M63.2,2.2c32.1-0.6,62.5,27,60.7,64.2c-1.4,29-26.5,58.9-64.2,57.3C30.3,122.5,0,97.2,2.1,59
			C3.7,29.6,28.7,1.9,63.2,2.2z"/>
		<path class="st0" d="M22,94.7c-4.6,1.2-8.5-0.5-10.3-4c-2.8-5.5-2-9.4,2.5-13.4c-4.4-0.7-7.7-2.9-8.8-7.3
			c-0.7-2.6-0.7-5.6,1.1-7.5c1.5-1.7,2.7-4.4,6.1-4c-0.7-1.1-1.4-1.3-2.1-1.7c-0.8-0.5-1.7-0.9-1.5-2.1c0-0.2,0-0.5-0.1-0.6
			c-2.5-1.1-1.7-3.5-2-5.4c-0.2-2,2.8-7.2,4.6-8c0.5-0.2,1.1-0.3,1.6,0c0.6,0.4,0.9,0.2,1.2-0.3c0.9-1.4,2.2-1.3,3.6-0.6
			c0-0.9-0.6-1.4-1.1-1.9c-0.7-0.7-1.6-5.2-1.4-6.2c1-5.4,5.4-8.4,9-11.7c2.3-2.2,5.1-3.9,8.1-5.1c0.1,0,0.3,0,0.4-0.1
			c2.1-3.9,6.2-4.4,9.8-5.6c3.1-1,6.3-1.3,9.5-0.5c0.8,0.2,1.1-0.4,1.5-0.8c2.5-2.6,5.4-3.5,8.9-2.5C63.8,5.8,65,5,66.3,5
			c2.1,0,4,0.6,5.4,2c1.2,1.1,2.1,1.6,3.9,1.4c5.4-0.6,10.8,0.6,15,3.7c5.1,3.8,11.1,6.6,15.2,11.7c1.5,1.9,3.1,3.7,4.1,5.9
			c1.7,3.7,5.2,6.1,6.3,10.2c0.8,3,1.9,5.9,2.3,9c0.2,1.5,1.4,2.7,1.6,4.2c0.7,4.4-0.3,8.8,0.1,13.1c0.6,6.9-2.1,12.7-4.7,18.7
			c-1.5,3.6-2.6,7.3-4.9,10.5c-4,5.6-8.6,10.7-15,13.7c-0.4,0.2-0.9,0.6-1.3,0.5c-1.1-0.1-1.6,0.2-1.4,1.4c0,0.1-0.1,0.3-0.2,0.4
			c-2.6,1.7-4.1,5.1-7.8,5.3c-1.4,0.1-2.7,0.4-4,1.6s-3.4,1.3-5.2,1.6c-2.6,0.3-5.3,1-8,0.1c-0.9-0.3-1.7,0.2-2.4,0.7
			c-1.5,0.9-3.1,0.9-4.6,0c-1.2-0.7-2.2-0.6-3.6-0.4c-4.2,0.5-8.5,0.1-12.1-1.8c-2.1-1-4.2-1.4-6.2-2.3c-1.2-0.5-3.2-0.4-2.9-2.6
			c-1.7-0.6-2.7-2.2-4.4-2.9c-2.1-0.9-4.3-1.8-6.2-3.2c-0.9-0.7-2.3-1.1-1.6-2.8c0-0.1-0.1-0.4-0.3-0.5c-1.7-1.2-1.9-2.8-2.1-4.7
			C21.3,98,21.2,96.5,22,94.7z"/>
		<path class="st2" d="M39.1,62.8C39,49,50.1,39.2,63.2,39.1c13.7,0,23.9,10.6,23.9,23.9c0,13.4-10.5,23.9-24,23.8
			C49.7,86.7,38.8,76.5,39.1,62.8z"/>
		<path class="st1" d="M69.4,24.7c2.3,2.3,5.1,2.7,7.9,2.8c3.2,0.1,6.4,0.1,9.6,0c0.9,0,1.5,0.2,2.1,1c1.8,2.2,3.5,4.6,5.9,6.1
			c1.4,0.9,1.5,2.3,1.8,3.8c0.9,4,2.9,7.7,5,11.1c0.4,0.6,0.8,1.1,0.6,2c-1.1,4.9,0,9.7,1,14.5c0.1,0.7,0.3,1.2-0.1,1.9
			c-2.4,4.2-2.8,8.8-3.4,13.5c-0.1,0.8-0.2,1.4-0.9,2c-3.1,2.5-5.3,5.8-7.4,9.3c-0.7-3-3-0.9-4.6-1.9c1.3-1.2,2.7-2.5,3.9-3.9
			c4.9-5.6,7.7-12.1,8.6-19.6c1.3-10.7-1.7-20.1-8.6-28.2c-4.9-5.8-11.2-9.8-18.7-11.5C70.7,27.2,69.4,26.8,69.4,24.7z"/>
		<path class="st1" d="M35.8,87.8c-3.1,0.1-3.1,0.1-2.9,5.3c-0.8-0.4-1.7-0.7-2.5-1.2s-1.7-0.7-2.6-1.1c2.3-3.3,2.4-6.9,0.5-10.1
			c-0.9-1.5-2.5-3.3-4.3-4.1c-1-0.5-2.3-0.9-3.8-1.1c3.6-2.3,4.3-5.7,4.2-9.4c0-1.4-0.8-1.8-1.8-2.5c-0.5-0.3,0.4-2.2-0.8-2.8
			c-1-0.6-2.1-1.1-2.8-2.1c6.8-2.3,9.4-9,4.9-16.2c2.6,1.1,4.4-0.6,6.2-1.4c1.5-0.6,3.6-2.3,3.6-4.8c0-0.2-0.1-0.5,0-0.6
			c2.1-1.5,0.7-3.6,0.7-5.4c0-1.2,0.3-1.6,1.3-2c1.3-0.5,2.5-0.8,3.9-0.8c4.1-0.1,8.1,0.3,12.2-0.3c1.9-0.3,3.4-1.2,5-2.2
			c0.2,1.7-0.7,2.2-2,2.4c-8,1.6-14.5,5.7-19.8,11.7c-4.2,4.8-6.9,10.3-8.1,16.5c-1.9,10.2-0.1,19.8,6,28.4
			C33.8,85.2,34.8,86.4,35.8,87.8z"/>
		<path class="st1" d="M53.4,114.4c-0.6-0.3-0.4-0.8-0.4-1.2c0-4.9,0-9.9,0-15c6.8,1.9,13.5,2,20.4,0c-0.2,5.5,0.2,10.9-0.2,16.3
			c-2.5,0.9-5.2,0.3-7.7,0.5c-0.3,0-0.7,0-1-0.1c-0.4-0.1-1-0.2-1-0.8c0-0.7,0.6-0.6,1.1-0.6c1,0,1.8-0.3,2.6-0.8
			c0.4-0.3,0.3-0.5-0.1-0.8c-0.5-0.3-1.1-0.4-1.2-1c0.3-0.7,1.2-0.8,1.8-1.5c-0.6-0.4-1.4-0.4-2-0.8c-0.2-0.1-0.2-0.3-0.2-0.5
			c0.4-0.9,1.5-0.8,2-1.6c-1.1-1.1-2.5,0.2-3.6-0.5c-0.4-0.8,0.5-1.5,0.4-2.3s-0.1-1.8-1.1-1.8s-1.1,1-1.2,1.8
			c-0.1,0.9,0.5,1.5,0.8,2.2c-0.2,1-0.9,0.7-1.4,0.5c-0.8-0.2-1.5-0.5-2.4,0c0.3,0.9,1.3,0.9,1.7,1.6c0.1,0.2,0,0.4-0.1,0.5
			c-0.6,0.5-1.3,0.5-2,0.8c0.2,0.6,1,0.8,1,1.4s-0.6,0.8-0.9,1.2c0.5,1.4,1.8,1.4,2.9,1.6c0.4,0.1,1.1-0.2,1.2,0.5
			c0.1,0.7-0.6,0.8-1.1,1s-1,0.2-1.6,0.1C58,114.6,55.6,115.4,53.4,114.4z"/>
		<path class="st2" d="M57.3,27.9c0.7-2.2,1.1-4,1.9-5.6c0.5-1.2,0.1-1.7-0.7-2.3c-1.5-1-2.9-2.1-4.4-3.6c1.8,0,3.7-0.1,5.5,0
			c1.2,0.1,1.7-0.4,2-1.4c0.5-1.6,1-3.2,1.7-5.4c0.8,2.2,1.4,3.9,1.8,5.6c0.2,1,0.7,1.2,1.7,1.2c1.8,0,3.7,0,5.8,0
			c-1.2,1.6-2.7,2.3-4.1,3.3c-1.1,0.8-1.6,1.5-1,2.9c0.7,1.4,1,3,1.5,4.8c-1.9-0.7-3.1-1.9-4.4-3c-1-0.8-1.8-0.7-2.7,0
			C60.5,25.6,59.1,26.6,57.3,27.9z"/>
		<path class="st3" d="M23.6,22.5c8.5-9.1,22.1-12.2,32.1-2.8c-5.6-0.8-11-1-16.4-0.5C33.9,19.9,28.7,20.9,23.6,22.5z"/>
		<path class="st3" d="M102.8,22.7c-10.7-3.5-21.2-4.8-32.1-2.9C80.1,10.5,93.8,13.2,102.8,22.7z"/>
		<path class="st3" d="M111.7,85.2c0.5,0.1,0.3,0.5,0.5,0.6c2.4,1.7,1.1,3.6,0.1,5.3c-4,7-8.9,13.2-16.4,16.8
			c-0.4,0.2-0.9,0.7-1.5,0.4c0-3.3,2.7-5.1,4.6-7.1c4.4-4.8,8.2-10,12-15.3C111.2,85.7,111.5,85.5,111.7,85.2z"/>
		<path class="st3" d="M57.7,119.1c-3.9,0.3-7.4-0.1-11-1.1c-0.7-0.2-1.2-0.1-0.7-1.1c0.4-0.8-0.5-0.5-0.8-0.6
			c-2-0.4-4.1-0.7-6.1-1.3c-0.5-0.1-2.1,0.2-1.2-1.5c0.3-0.5-1.2-0.8-1.9-1.2c-1.1-0.7-1.1-0.6-1.3-2c0-0.4-0.6-0.7-0.9-1.1
			c-0.9-0.9-1.5-1.9-1.1-3.5c2.7,1.8,5.5,3.2,8.3,4.6c-0.1,0.8-1,0.7-1.4,1.6c3-1.2,5.6-0.1,8.2,0.8c-0.1,0.8-1.1,0.6-1.5,1.3
			c1.3,0.4,2.5-0.2,3.6-0.5c0.6-0.1,1.5-0.5,1.7,0.1C52.8,116.6,55.7,117.2,57.7,119.1z"/>
		<path class="st3" d="M58.2,21.6c-1.8,3.1-4.5,4.4-7.8,4.7c-2.4,0.2-4.8,0-7.1,0c-2.6,0-5.3-0.3-8,1.1C39.8,20,47.8,18.9,58.2,21.6
			z"/>
		<path class="st3" d="M84.8,110.5c3.1-1.5,6.1-3.1,9.1-5.3c-0.1,1.6-0.8,2.5-1.3,3.6c-0.3,0.7-2.4,0.9-0.7,2.1
			c-0.3,0.3-0.7,0.6-1,0.9c-0.8,1-3.3,0.3-2.7,2.7c0,0.1-0.8,0.4-1.2,0.5c-2.3,0.7-4.7,1-7.3,1.4c0.8,1,0.5,1.3-0.7,1.6
			c-3.3,0.9-6.6,1.3-10.3,1c1.6-1.1,3.3-1.8,4.3-3.1c1.6-2.1,3.1-2.9,5.6-1.7c0.3,0.1,0.7,0,1,0c0-0.5-0.4-0.5-0.6-0.7
			c-0.3-0.2-0.5-0.3-1.1-0.7c2.9-0.8,5.3-2.2,8.1-0.9C86,111.1,85.1,111.3,84.8,110.5z"/>
		<path class="st3" d="M90.8,27.1c-4.6-1.5-9.2-0.7-13.8-0.8c-3.7-0.1-6.6-1.5-8.7-4.6C77.7,18.9,86.3,20,90.8,27.1z"/>
		<path class="st3" d="M88.9,104.5c5-7.6,13.3-12.5,16.7-21.4c0.5,1.6,0.1,3.1,1.7,4c0.6,0.3,0.1,0.9-0.1,1.2
			c-3.5,6-7.9,11.1-13.9,14.7C91.9,103.8,90.3,104,88.9,104.5z"/>
		<path class="st3" d="M37.5,12.5c7.3-4.3,18.8-4.5,22.2,3.2c-3.4-0.3-6.6,0.5-9.9-1.1C46.1,12.9,42.1,12.1,37.5,12.5z"/>
		<path class="st3" d="M66.7,15.6c3.7-7.4,13.8-7.5,21.8-3.3c-2.9,0.1-5.5,0.2-7.9,0.9c-1,0.3-1.9,0.5-2.9,0.9
			C72.6,15.9,72.3,15.9,66.7,15.6z"/>
		<path class="st4" d="M34.3,64.6c0.5,1.2,1.1,2.3,0,3.5c-0.1,0.1-0.6,0.5-0.1,0.5c0.7,0.1,1.3,0.4,1.2,1c-0.1,0.9-1.1,1-1.8,1.5
			c-0.1,0.1-0.3,0.2-0.5,0.3c2.4,0.3,3.5,1.7,4.5,4c0.8,1.9,0.3,2.8-1.4,3.5c-0.6,0.3-1,0.9-0.6,1.4c0.3,0.5,1.1,0.4,1.5,0
			c2-1.9,3.1-1,4.4,1c0.8,1.2,2,2.2,3,3.2c0.2,0.4,0,0.5-0.3,0.6c-1.1-0.5-1.1,0.4-1.4,1c-0.1,0-0.1,0-0.2,0c-0.8,0.2-1-1.5-1.8-0.6
			c-0.7,0.8,0.7,1,0.8,1.6c0,0.1,0,0.3,0,0.4c-2.5-0.8-2.8-1.6-1-3.5c0.2-0.2,0.5-0.5,0.7-0.7c0.5-0.4,0.2-0.7,0-1
			c-0.4-0.6-0.7-0.2-1,0c-0.7,0.6-1.3,1.2-2,1.7c-0.4,0.4-0.7,0.3-1-0.1s0.1-0.5,0.3-0.8c0.6-0.5,1.2-1.1,1.8-1.7
			c0.3-0.2,0.8-0.4,0.3-0.9c-0.3-0.4-0.6-0.4-1-0.1c-0.1,0.1-0.4,0.1-0.5,0.3c-1.2,1.1-2.4,1.1-3.4-0.3c-0.8-1.1-0.3-2,1.6-3.3
			c-0.8-0.2-1.6-0.3-1.8-1c-0.3-0.9-0.8-0.5-1.3-0.4c-0.9,0.2-1.4,0.1-0.6-0.9c0-0.2,0.4-0.3,0.1-0.5c-0.1-0.1-0.4-0.1-0.5,0.1
			c-0.6-0.4-1.4-0.7,0-1.3c0.5-0.2,1.3-0.1,1.6-0.8c-0.1,0.3,0-0.3,0.1-0.1s0.4,0.1,0.1,0c-0.5-0.2-1,0.1-1.5-0.2
			c-0.5-0.1-1.3,0.2-1.5-0.3c-0.3-1.1,1.2-0.9,1.4-1.6c-0.6-0.8-1.8,0.6-2.2-0.5c-0.3-1,1.4,0.1,1.2-1.2c-0.9-0.1-1.5-0.8-1.8-1.9
			c-0.3-1.3,0.8-1.9,1.3-2.8c0.1-0.1,0.2-0.1,0.2-0.2c0.9-0.4,1.8-0.3,2.7,0.2C34.1,64.3,34.2,64.4,34.3,64.6z"/>
		<path class="st3" d="M41.5,108.2c-0.8,0.3,0.7,1.6-0.9,0.9c-2.5-1-4.7-2.5-6.8-4.2c1.1,0.2,2.2,0.5,3.3,0.6c0.7,0,1.8,1.6,2.1-0.5
			c0-0.1,0.9-0.2,1.3-0.1c1.7,0.5,3.4,0.6,5,1.5c0.3,0.2,1.3,1.3,1.2-0.4c0-0.5,0.4-0.2,0.6-0.2c0.3,0.1,0.6,0.2,1,0.2
			c4.2,1,4.2,1,3.9,5.3c0,0.4,0.1,0.9-0.3,1.1c-0.5,0.3-0.9-0.1-1.2-0.4c-1.1-1.1-2.4-1.9-4.1-3c0.6,1.1,1.1,1.8,1.6,2.7
			C45.2,111.4,43,110.4,41.5,108.2z"/>
		<path class="st3" d="M84.7,108.2c-1.7,1.9-3.8,3.3-6.7,3.6c0.5-0.8,0.9-1.5,1.3-2.3c-1.5,0.3-2.3,1.4-3.3,2.3
			c-0.3,0.3-0.6,0.9-1.1,0.7c-0.6-0.2-0.3-0.8-0.4-1.2c0-0.3,0-0.7,0-1c0-3.3,1-5,4-4.1c2.7,0.8,4.3-1.3,6.5-1.1
			c0.7,0.1,1.8-0.9,1.9,0.8c0,0.6,0.8,0.2,1.2,0c1.5-0.5,2.9-0.9,4.5-1.2c-2.2,2-4.7,3.4-7.4,4.6C83.9,109.9,85.2,108.6,84.7,108.2z
			"/>
		<path class="st3" d="M89.9,93c-0.2,1.5-0.3,3-1.2,4.3c-0.3,0.4-1.1,1.1,0.1,1.6c0.5,0.2,0,0.5-0.2,0.7c-0.7,0.5-1.5,1-2.2,1.5
			c-0.4,0.3-1.9,0.3-0.6,1.3c0,0-0.1,0.4-0.2,0.5c-1.6,1-3.3,2.3-4.9,2.1c-1.7-0.3-2.9,0.2-4.4,0.4c-0.5,0.1-1.1,0.7-1.5,0.1
			s-0.3-1.5-0.1-2.2c0.2-0.6,0.9-0.9,1.5-0.6c1.2,0.4,2.4,0.1,4,0.3c-0.8-0.8-1.6-0.8-2.5-1.1c2.3-2.1,5-2.9,7.9-3.2
			c0-0.8-0.4-0.6-0.7-0.7c-0.3,0-0.5-0.1-1-0.1C86,96.1,88.1,94.8,89.9,93z"/>
		<path class="st5" d="M105.4,36.5c-2.7-1.4-5-3.2-6.6-5.6c-1.7-2.3-3.2-4.8-4.9-7.1c-0.6-0.7-0.9-1.5-0.5-2.2
			c0.5-0.8,1.2,0.1,1.8,0.1c2.2,0.2,3.2,2.1,4.4,3.6c2.3,2.8,4.3,5.8,5.6,9.2C105.5,35.3,105.5,35.3,105.4,36.5z"/>
		<path class="st6" d="M64.9,114.4c2.8,0,5.5,0,8.3,0c-2.6,2.3-5.6,4.1-8.7,5.6c-0.6,0.3-1.2,0.6-1.9,0.3c-3.3-1.6-6.6-3.3-9.2-5.9
			c2.4,0,4.9-0.4,7.3,0.3c-0.3,0.5-0.8,0.5-0.9,0.5c2.4,0.4,5.1,0.2,7.6,0C66.8,114.8,65.5,115.8,64.9,114.4z"/>
		<path class="st5" d="M103.2,52.2c1.3,0.6,2.3,2.1,3.8,0.3c1.2,5.4,0.7,10.4-0.4,15.4c-0.1,0.4,0,1.1-0.6,1.1s-0.7-0.6-0.9-1.1
			C103.3,62.9,102.9,57.7,103.2,52.2z"/>
		<path class="st5" d="M116.1,68.8c0.9,1.4,1.7,2.6,3.2,0.6c0.3,4.2-3.1,13.6-5.7,16.2C112.2,83,113.7,73.3,116.1,68.8z"/>
		<path class="st5" d="M117.9,69.3c-2.3-5.6-3.4-11.2-2.7-17.4c2.3,1.8,2.6,1.8,3.7,0.2C119.7,58,119.9,63.7,117.9,69.3z"/>
		<path class="st5" d="M99.6,84.1c0.5,1.4,0.5,2.9,2.5,3c-3.2,4.7-6.8,8.8-11.7,11.6C92,92.9,95.3,88.3,99.6,84.1z"/>
		<path class="st5" d="M112,69.9c-2.7-6.1-3.1-11.8-2.7-17.9c1.1,0.4,2,2.5,3.4,0.6c0.2,0.2,0.5,0.4,0.5,0.7
			C114,58.8,113.7,64.1,112,69.9z"/>
		<path class="st5" d="M107.4,69.9c-0.6,6-2.6,11.1-5.9,15.8c-0.7-5.9,0.3-11.4,2.5-17.1C104.8,69.9,105.6,70.9,107.4,69.9z"/>
		<path class="st5" d="M100.9,35.8c2.8,5.2,4.8,10.5,4.8,17c-3.9-4.5-6.3-9.3-7.8-14.4c-0.2-0.6-0.1-1.4,0.9-1
			C100.5,38.2,100.7,37.1,100.9,35.8z"/>
		<path class="st5" d="M107.5,85.6c-0.6-5.9,0.1-11.5,2.5-17c0.9,1.1,1.5,2.7,3.4,0.9C112.8,75.6,110.8,80.9,107.5,85.6z"/>
		<path class="st5" d="M109.4,36.8c1.7,0.8,3.1,1.7,3.7-1c2.8,5.3,4.4,10.6,4.5,16.4C113.4,48,111.1,42.8,109.4,36.8z"/>
		<path class="st5" d="M111.5,52.6c-4-4.8-6.5-9.9-8-15.7c2.8,1.1,3,1.1,3.5-0.9C109.7,39.7,112,47.8,111.5,52.6z"/>
		<path class="st3" d="M27.9,93c1.7,1.8,3.4,3.6,5,5.4c-0.2,0-0.7,0.2-1.4,0.3c0.5,0.2,0.8,0.5,1,0.5c3-0.3,4.3,1.7,5.2,4.1
			c0.1,0.3,0.6,0.6,0.2,1.1c-0.3,0.4-0.7,0.2-1.1,0.2c-1.8-0.2-3.6-1.2-5.7-0.3c0.9-1,1.2-1.5-0.3-2c-1.4-0.5-3.2-2-2.9-3.1
			C28.6,96.9,27.1,95.1,27.9,93z"/>
		<path class="st5" d="M99.2,22.9c3.7,1.1,6.9,2.1,8.7,5.5c1,2,2.3,3.9,3.3,5.9c0.3,0.6,1,1.5,0.3,2c-0.6,0.4-1.3-0.3-1.8-0.8
			c-2.4-1.8-4.6-3.9-6.2-6.5C102.3,27,100.8,25.2,99.2,22.9z"/>
		<path class="st3" d="M52.2,105c-1.8,0.1-2.9-0.8-4-1.9c-0.5-0.5-0.6-0.5-1.1,0.3c-0.2,0.4-0.4,0.1-0.6,0c-2.7-1.3-5.4-2.6-8.2-4.7
			c1.5,0.1,2.5,0.1,3.5,0.3c0.8,0.1,1.9,1.5,2.7-0.5c0.3-0.9,6.9,0.4,7.4,1.5C52.5,101.6,52,103.2,52.2,105z"/>
		<path class="st3" d="M24.8,105.6c0.7-0.2,1.1-0.3,1.7-0.4c-3.7-2-3.7-5.4-4.1-9.4c2.3,2.2,3.7,4.5,6,5.9c-0.3,0.8-1.2,0.1-1.6,0.8
			c4.6,0.2,4.4,4.2,5.9,7.4C29.8,108.6,27.2,107.7,24.8,105.6z"/>
		<path class="st7" d="M87.3,21.6c1.3-1,2.3-0.3,3.1,0.4c4.4,3.9,7.4,8.7,9.3,14.3c-3.6-1.7-6.3-4.4-8.9-7.4
			c0.2-0.1,0.3-0.2,0.5-0.2c0.8,0,1.3,1.8,2.1,0.8c0.6-0.7-0.5-1.6-1-2.3C91.2,25.1,89.2,23.5,87.3,21.6z"/>
		<path class="st3" d="M88.7,92.4c-1,1.6-2.5,2.3-3.7,3.5c-0.9,0.8-1.5,0.8-1.7-1.4c-1.2,3.2-2.7,5-5.3,5.8
			c-0.4-0.8,0.7-1.3,0.4-2.1c-1.6,0.8-1.9,2.9-3.9,3.9c0-1.3,0-2.4,0-3.5c0-0.6,0.2-0.9,0.7-1c3.9-1.1,7-3.9,10.9-4.9
			C87,92.4,87.8,92.2,88.7,92.4z"/>
		<path class="st4" d="M26.9,22.8c4.8-1.6,9.6-2,14.4-2.5c-3.3,1.7-5.8,4.1-7.9,7.1c-0.3,0.4-0.5,0.6-0.9,0.6
			c-0.3-0.1-0.4-0.4-0.3-0.6c0.2-1.6-0.9-2-2-2.6C29.2,24.1,28.2,23.5,26.9,22.8z"/>
		<path class="st4" d="M33.9,49.5c0.8,0.3,1.6,0.6,2.4,1c0.4,0.2,1.2,0.2,0.7,1.1c-0.3,0.6-0.7,1-1.4,0.8c-0.6-0.2-1.3-0.5-2-0.2
			c0.5,0.4,0.9,1,1.4,1.2c1.9,0.7,0.2,1.9,0.3,2.9c0.1,0.7-1.1,0.3-1.7,0.2c-0.9-0.1-2.3-1-2.5,0.4c-0.2,1,1.3,1.3,2.3,1.3
			c0.6,0,1,0.3,1.6,0.7c-1.4,1.3-2.8,0.2-4-0.1c-0.9-0.2-1-1.2-0.8-2.1c0.3-1.4,1.4-1.8,2.8-1.8c-0.7-0.6-2.4-0.3-1.9-1.4
			c0.4-0.9,1.7,0.7,2.6,0.1c-0.5-0.8-2.2-1-1.8-2.1c0.3-0.8,1.8,0,2.9-0.4c-0.7-0.3-1.3-0.5-1.8-0.9c-0.2-0.2-0.9,0-0.7-0.6
			c0.2-0.4,0.5-0.5,1-0.4C33.6,49.1,33.7,49.4,33.9,49.5z"/>
		<path class="st3" d="M38,95.9c1.8,0.9,4.1-0.7,5.3,2C41,98,38.6,98.2,36.6,97c-2.6-1.6-2.2-4.6-2.7-7.2c2.2,1.6,3.8,3.6,5.9,5.1
			C39.5,95.7,38.7,95.4,38,95.9z"/>
		<path class="st3" d="M52.2,98.6c-3.8-1.7-8.5-0.1-10.9-4.7c-0.3-0.5-0.8-1.4-1.7-0.5c-0.1,0.1-0.6-0.2-0.8-0.5
			c-1.4-1.3-2.7-2.6-4.2-4.1c2.4-0.3,3.5,1.2,4.9,2.3c3.4,2.6,6.8,5.1,11.1,6.1c0.5,0.1,0.9,0.3,1.3,0.5C51.9,97.8,52,98,52.2,98.6z
			"/>
		<path class="st4" d="M80.3,89.1c-0.1,3-1.1,3.7-3.7,2.9c-1.2,3.4-2.4-0.4-3.6,0.2c-0.5,0.7,1.3,1.8-0.3,2.6
			c-0.6-1.3-1.1-2.6-1.4-4c-0.2-0.3-0.2-0.5,0-0.8c1.4-0.4,2.1,0.9,3.1,1.5c0.5-0.5-0.3-0.8-0.2-1.3c0.1-0.4-0.7-0.9,0.1-1.3
			c0.8-0.4,0.6,0.3,0.8,0.6c0.3,0.5,0.3,0,0.3-0.2c0.6-1.9,2-2.1,3.7-1.9C79.9,87.7,80.5,88.1,80.3,89.1z"/>
		<path class="st4" d="M89.6,80.7c0.7,1.6-0.1,3.2-1.8,3.4c-1.1,0.1-1.3,0.4-1.3,1.5c-0.1,1.7-1.2,2.4-2.9,2.2
			c-0.2-0.1-0.3-0.2-0.4-0.4c-1.1-0.7-1.9-1.5-1.5-2.9c0.5-1.5,1.7-1.9,3.3-1.6c-0.7-2,0.4-3.1,1.8-4.2c0.1,0.1,0.3,0.3,0.3,0.5
			c0.1,0.6-0.2,1-0.4,1.5c-0.3,0.8-0.1,1.4,0.9,1.7c-0.9-1.2-0.9-2.1,0.6-2.6C88.8,80,89.5,80,89.6,80.7z"/>
		<path class="st8" d="M93.3,67.4c0.6,0.9,0.2,2.5,1.9,2.6c0.1,0,0.2,0.5,0.1,0.7c-0.1,0.5-0.4,0.4-0.8,0.2
			c-0.6-0.4-1.3-0.1-2.1-0.2c0.3,0.2,0.4,0.3,0.5,0.4c0.7,0.4,2,0.1,1.9,1.1c0,1.3-1.3,0.8-2.1,0.9c-0.4,0.1-0.9,0.3-1.3,0.5
			c0.8,0.7,2.6,0.4,2.4,1.3c-0.3,1.3-1.7-0.4-2.6,0.2c-1,0.4-1.2-0.5-1.7-1c-0.7-0.8-0.2-1.3,0.5-1.4c0.9-0.2,1.7-0.7,2.8-0.4
			c-0.9-0.9-2.8-0.6-2.6-1.5c0.4-1.3-0.3-3.1,1.4-3.9c0.6-0.4,0.1,1.8,1.1,0.5C93,67.3,93.2,67.3,93.3,67.4z"/>
		<path class="st4" d="M31.4,34.8c-0.2,0-0.4,0.1-0.6,0c-0.8-0.4-2.1,0.1-2.6-1c-0.5-1.2,0.6-1.9,1.4-2.7c0.1-0.1,0.2-0.2,0.3-0.3
			c0.9-0.7,1.4-2.3,2.9-1.7c1.3,0.5,0.5,1.9,0.7,2.9C33.8,34.7,33.7,34.8,31.4,34.8z"/>
		<path class="st4" d="M19.2,77.9c0.5-0.6,0.5-1.9,1.9-1.1c0.4,0.3,1,0.3,1.5,0.5c2.6,0.8,2.9,1.5,1.3,3.8c-0.5,0.7-0.8,2.2-1.8,2
			s-1.7-1.3-1.8-2.5C20.1,79.6,19.6,78.8,19.2,77.9z"/>
		<path class="st4" d="M24.9,86.2c-0.6-0.2-1.6,0.4-1.9-0.4s-0.1-1.6,0.7-2.3c0.6-0.6,1.2-1.5,1.5-2.3s0.8-0.7,1.4-0.7
			c0.7-0.1,1.1,0.4,1.1,0.9c0.1,1,0.5,1.8,0.8,2.6c0.4,1-0.1,1.5-1.2,1.9C26.5,86.2,25.7,86.1,24.9,86.2z"/>
		<path class="st4" d="M17.6,59.2c1.4,1,2.7,1.8,3.9,2.7c0.3,0.2,0.2,0.6,0,0.9c-0.3,0.5-0.6,1-1,1.5c-0.8,0.8-1.7,2-2.9,1.7
			c-1.3-0.4-0.8-1.9-0.9-3c0-0.7-0.1-1.3-0.3-2C16.1,59.9,17.1,59.7,17.6,59.2z"/>
		<path class="st4" d="M21.3,49.5c-2,0.2-1.9-1-1.6-2c0.4-1.2,1-2.4,1.7-3.5c0.6-1,1.4-0.9,2.1-0.1c0.3,0.3,0.3,0.8,0.5,1.3
			c1.5,3.1,1.5,3.1-1.9,4C21.8,49.3,21.4,49.5,21.3,49.5z"/>
		<path class="st4" d="M28.2,31.2c-2.5-1.4-1.5-4-2.4-5.8c-0.2-0.4,0.6-1.2,1-1.1c1.5,0.3,2.9,1.1,4,2c0.9,0.8,0,2-0.7,2.8
			C29.4,29.8,28.8,30.6,28.2,31.2z"/>
		<path class="st4" d="M20.4,42.8c0,0.2,0.1,0.5,0,0.6c-0.5,1.1-0.6,2.8-1.9,3s-1.9-1.2-2.2-2.3c-0.1-0.3-0.4-0.5-0.5-0.9
			c-0.3-0.7-1.3-1.3-0.6-2.2s1.5-0.6,2.3-0.2c0.3,0.2,0.8,0.1,1.2,0.1C20.2,40.8,20.6,41.5,20.4,42.8z"/>
		<path class="st1" d="M17.6,69.4c0.1-2.7,2.9-3,4.2-4.6c0.2-0.3,1.3,0.1,1.4,0.9c0.1,0.5,0,0.9,0,1.4c0,3.6-0.5,4-3.9,2.9
			C18.7,69.7,18.2,69.5,17.6,69.4z"/>
		<path class="st1" d="M15.5,62.9c-0.2,0.5,0.5,1.3-0.4,1.7c-0.7,0.3-1.2-0.3-1.8-0.7c-1-0.7-1.9-1.7-3.1-2.1
			c-0.4-0.1-0.8-0.4-0.7-0.8c0.1-0.4,0.3-0.7,0.8-0.8c0.4-0.1,0.7-0.3,1.1-0.4C14.7,58.6,15.5,59.2,15.5,62.9z"/>
		<path class="st4" d="M20,39.7c-0.5,0.1-0.7-0.2-0.9-0.6c-0.3-0.5-0.6-1-1-1.5c-1.5-1.8-1.3-2.6,0.8-3.6c0.4-0.2,0.7-0.3,1.1-0.4
			c0.7-0.2,1.4-0.9,2-0.1c0.4,0.7,0.3,1.4-0.2,2.2c-0.5,1-1,2-1,3.2C20.8,39.4,20.6,39.8,20,39.7z"/>
		<path class="st8" d="M16.1,75.4c-0.1,0.5-0.1,1.1-0.8,1c-1.2-0.2-2.5-0.4-3.7-0.8c-1.1-0.3-1-1.1-0.7-2.1c0.4-1.3,0.8-3.1,1.9-3.2
			c1.4-0.2,1.4,1.7,2,2.8C15.2,73.9,15.7,74.7,16.1,75.4z"/>
		<path class="st4" d="M24.5,41.4c-0.9-0.2-2.2,0.6-2.5-1.1c-0.4-1.7,0.3-3.2,1.1-4.4c0.4-0.7,1.4-0.1,1.8,0.7c0.5,1,1.1,2,1.7,3
			c0.3,0.4,1,0.7,0.7,1.3c-0.3,0.7-1,0.5-1.6,0.5C25.2,41.4,24.9,41.4,24.5,41.4z"/>
		<path class="st4" d="M13.5,48.4c0,0.5-0.1,1-0.6,1.3c-1.1,0.7-2.3,1.4-3.1,2.5c-0.8,0.9-1.3,0.5-1.5-0.4c-0.2-1.2,0.1-2.4-0.4-3.6
			c-0.2-0.7,0.7-0.9,1.2-1.1c1.4-0.5,2.7,0.1,4.1,0.5C13.4,47.8,13.8,48,13.5,48.4z"/>
		<path class="st4" d="M15.5,54.3c0.1-0.6-0.4-1.5,0.6-1.9c0.9-0.4,1.6,0.2,2.3,0.9c0.7,0.7,1.3,1.5,2.3,2c0.4,0.2,0.8,0.5,0.7,1.1
			c-0.1,0.6-0.7,0.5-1.1,0.8c-0.3,0.2-0.8,0.1-1.2,0.2C16.1,58,15.5,57.5,15.5,54.3z"/>
		<path class="st4" d="M22.8,30.5c-1.4,2.2-4,1.9-5.9,3c-0.6,0.3-0.7-0.7-0.6-1.2c0.2-1.1,0.5-2.2,0.8-3.3c0.3-0.9,1.1-0.9,1.8-0.7
			C20.4,28.8,21.6,29.6,22.8,30.5z"/>
		<path class="st4" d="M9.5,74c-0.9-0.1-1.1-0.4-1.3-0.9s-0.5-0.9-0.8-1.4c-1.4-2.3-0.9-3.4,1.9-3.9c0.8-0.1,1.7-1.1,2.4-0.1
			c0.6,0.9-0.2,1.7-0.6,2.5c-0.5,0.9-1.1,1.8-1.2,2.9C9.8,73.7,9.7,74,9.5,74z"/>
		<path class="st4" d="M17.5,87.8c-0.6,1.5-0.7,3.1-0.8,4.7c0,0.9-0.7,0.8-1.3,0.3c-0.8-0.8-1.6-1.7-2.6-2.2
			c-0.5-0.3-0.4-0.8-0.2-1.4c0.8-1.6,2.3-2,3.7-2.8C16.8,86.2,17.5,87.1,17.5,87.8z"/>
		<path class="st1" d="M25.3,28.5c-0.1,1.4-0.9,1.5-1.9,1c-1.3-0.6-2.4-1.6-3.8-2.1c-0.8-0.3-0.8-1.1,0-1.6c1-0.5,2.1-0.9,3-1.6
			c0.6-0.4,1.1,0.2,1.5,0.7C24.9,26,25.1,27.3,25.3,28.5z"/>
		<path class="st4" d="M16.6,77.2c1.6,0.7,2.1,2.2,2.6,3.6c0.4,1.2-0.3,2-1.5,1.6c-1.3-0.5-2.6-1-3.9-1.4c-1.2-0.3-1.4-1.1-0.2-1.7
			C14.7,78.8,15.3,77.5,16.6,77.2z"/>
		<path class="st4" d="M14.1,46.7c-1.4-0.3-2.6-0.6-3.8-0.9c-0.4-0.1-1,0.3-1.3-0.3s0.2-1,0.6-1.4c0.3-0.3,0.6-0.7,1-1
			c0.7-0.5,1.1-2.1,2.4-1.2c1.5,0.9,2.1,2.5,2.7,4.1C15.7,46,14.8,47.1,14.1,46.7z"/>
		<path class="st4" d="M18,91.6c0-1.4-0.1-2.9,0.8-3.2c1.2-0.4,1.8,1.1,2.5,1.9c0.2,0.2,0.4,0.4,0.4,0.7c0.1,1,2.6,1,1.5,2.2
			c-1,1-3,1.1-4.5,0.8C17.5,93.6,18.1,92.2,18,91.6z"/>
		<path class="st4" d="M25.3,50.9c-0.7,1.1-1,2.6-1.7,3.7c-0.5,0.7-1.6,0.3-2.3-0.2c-1.1-0.7-2.6-1.6-2.5-2.7
			c0.1-1.4,1.9-0.6,2.8-1.1c0.8-0.4,1.7-0.1,2.5-0.6C24.6,49.7,25.2,50,25.3,50.9z"/>
		<path class="st4" d="M16.8,70.2c1.6,0.6,3.1,1.1,4.8,1.4c0.8,0.1,0.5,0.9,0,1.4c-0.9,0.7-1.8,1.4-2.6,2.2c-0.6,0.6-1,0.2-1.4-0.1
			c-1.2-1-1.9-2.4-2.1-3.9C15.3,70.2,16.3,70.5,16.8,70.2z"/>
		<path class="st4" d="M8.5,62.6c1.8-0.2,2.7,1.3,3.9,2.2c0.5,0.4-0.2,1.2-0.8,1.4c-1.5,0.5-3.1,0.6-4.6,1.2c-0.7,0.3-1-0.3-0.8-0.9
			C6.5,65.3,7,64.1,7.4,63C7.6,62.3,8.1,62.7,8.5,62.6z"/>
		<path class="st4" d="M13.5,50.7c0.7,0.5,1.5,1,1.2,2.1c-0.4,1.2-0.5,2.3,0,3.5c0.2,0.4,0,0.9-0.4,1.2c-0.6,0.4-0.8-0.2-1.2-0.4
			c-0.4-0.3-0.9-0.6-1.3-0.9c-2.1-1.3-2.2-2.4-0.3-4.1C12.1,51.6,12.8,51.2,13.5,50.7z"/>
		<path class="st4" d="M13,82.1c1.3,0.2,2.6,0.5,3.7,1.3c0.8,0.7,0.1,1.4-0.5,1.8c-1.3,0.7-2.6,1.4-3.8,2.3
			c-0.8,0.6-1.4-0.3-1.3-0.8c0.4-1.2,0.1-2.4,0.3-3.6C11.6,82.2,12.3,82.2,13,82.1z"/>
		<path class="st4" d="M21.3,88.4c0.5-0.9,1.3-1.1,2.3-1s2.2,0.3,3.2-0.2c0.6-0.3,0.9-0.1,1.2,0.3c0.3,0.5,0.2,0.9-0.2,1.3
			c-0.3,0.3-0.6,0.7-0.9,1.1c-1.4,2.4-2.7,2.4-4.4,0.1C22.1,89.5,21.7,88.9,21.3,88.4z"/>
		<path class="st4" d="M26,36c0.3-0.6,1-0.9,1.6-0.8c1.5,0.3,2.9,0.8,4.5,0.8c0.6,0,0.7,0.6,0.5,0.8c-0.9,1.1-1.9,2.2-2.9,3.2
			c-0.2,0.2-0.7,0.1-1-0.1C27.4,39.1,26.6,37.7,26,36z"/>
		<path class="st8" d="M68,95.3c-2.4,1.4-3.2,1-3.6-1.9c-0.1-0.5,0.4-1.4-0.6-1.4c-1.2,0-0.4,1-0.6,1.5c-0.3,0.8,0.5,2.3-0.6,2.4
			c-1.3,0-0.6-1.5-0.6-2.2c0-1.1-0.2-1.8-1.4-2.2c2.4-0.5,4.8,0,7-0.6c0.3,0.3,0.3,0.7,0.2,1.1c0.1,0.4-1.1,0.2-0.4,0.8
			c0.1,0.2,0.3,0.4,0.3,0.5C67.4,94.2,67.4,94.7,68,95.3z"/>
		<path class="st4" d="M62.5,6.5c-2.5,0.9-4.2,2.3-4.2,5.1c-1.2-1.1-2.6-1.7-3.9-2.5C56.4,6.4,58.5,5.7,62.5,6.5z"/>
		<path class="st4" d="M64.1,6.5C67.5,5.2,70,6.6,72.2,9c-1.4,0.8-2.7,1.6-4.1,2.5C68.3,8.5,66.2,7.5,64.1,6.5z"/>
		<path class="st4" d="M91.8,59.2c-1.1-0.7-1.5-1.4,0.1-2C92.5,57,93,56.6,94,56c-1.2,0-2,0-2.7,0c-0.9,0.1-0.7-0.7-0.9-1.1
			c-0.5-0.8,0.6-0.7,0.7-0.8c1-0.4,2-0.7,3-0.9c0.4-0.1,0.8-0.2,0.9,0.4c0.1,0.5-0.1,0.8-0.6,0.8c-0.8-0.1-1.4,0.7-2.3,0.7
			c0.5,0,1.1,0,1.6,0.1c0.6,0.1,1.5-0.5,1.7,0.5c0.2,0.9-0.8,0.9-1.3,1.3c-0.2,0.1-0.4,0.3-0.7,0.4c2.3,0.2,2.3,0.2,2.7,0.9
			C94.6,58.7,93.1,58.7,91.8,59.2L91.8,59.2z"/>
		<path class="st9" d="M37.6,99.4c2.6,1.9,5.1,3.3,7.6,4.5c0.3,0.1,0.9,0.2,0.7,0.8c-0.2,0.7-0.7,0.4-1.2,0.3
			c-1.3-0.4-2.6-0.6-3.9-0.9C38.8,103.6,37.9,101.9,37.6,99.4z"/>
		<path class="st10" d="M51.4,91.9c-0.5,0.2-0.9,0.6-1.4,0.7c-1.4,0.2-2.7-0.1-3.7-1.1c-0.2-0.3,1.7-3.9,2.1-4.1
			c1.3-0.5,3.5,1.4,3.4,2.9C51.7,90.9,51.5,91.4,51.4,91.9C51.3,92,51.4,91.9,51.4,91.9z"/>
		<path class="st8" d="M48.5,34.1c0.2-0.5-0.3-1.2,0.6-1.3c0.6-0.1,1.1-0.5,1.7,0.3c0.5,0.8,1.4,1.4,2.1,2.2
			c0.3,0.3,0.9,0.6,0.4,1.1c-0.2,0.2-0.6,0.3-1-0.1c-0.9-0.8-1.5-0.5-1.6,0.7c0,0.8-0.5,1.1-1.2,1.1c-0.9-0.1-0.4-0.8-0.5-1.3
			C48.7,35.9,48.6,35,48.5,34.1z"/>
		<path class="st10" d="M58.5,93.8c0.3-1,0.1-2.1,0.8-2.9c0.6,0.8,0.5,4-0.2,4.6c-0.5,0.4-1,0.3-1.2-0.5c-0.3-1-0.7-1.9-1-2.9
			c-0.4,1.1,0.1,2.7-1.2,2.9c-0.4,0.1-0.1-1.9,0.2-2.9c0.2-0.6-0.6-1.6,0.6-1.8c1.3-0.2,1,1.2,1.4,1.8
			C58.1,92.6,58.6,93.1,58.5,93.8z"/>
		<path class="st11" d="M26.9,32.7c0,1.5-0.7,2.1-2,2.1c-1.4,0-2-1.1-1.9-2.1c0-1,0.7-2.1,2.1-2C26.4,30.9,27,31.6,26.9,32.7z"/>
		<path class="st8" d="M34.3,64.6c-0.2,0-0.4,0-0.6-0.1c-0.8-1.1-1.8-1-2.8-0.3l0.1-0.1c-0.4,0.1-1.1,0.2-1.2,0.1
			c-0.5-1.4,1-1.4,1.5-2c0-0.6-0.4-0.5-0.7-0.5c-0.5,0-0.9,0-0.9-0.7c0.1-0.6,0.5-0.5,0.9-0.5c0.9,0,1.9,0,2.8,0
			c0.4,0,1.2-0.3,1.2,0.6c0,0.9-0.7,0.5-1.2,0.6c-0.2,0-0.4,0-0.6,0C33.1,62.8,35.6,62.8,34.3,64.6z"/>
		<path class="st12" d="M44,85c0.2-0.2,0.3-0.3,0.5-0.5c0.7,0.4,1.5,0.8,2.1,1.5c0.6,0.8,0.6,1.8-0.3,2c-1.1,0.3-0.8,1.2-1.3,1.7
			c-0.2,0.2,0.2,1-0.5,0.7c-0.3-0.1-0.9-0.3-0.5-1c0.2-0.4,0.7-0.9,0.2-1.4c-0.8-0.6-0.8,0.4-1.1,0.7c-0.4,0.4-0.7,0.3-1,0
			c-0.7-0.5,0.1-0.6,0.2-0.9c0.3-0.6,0.7-1.1,1.1-1.7C43.2,85.6,43.4,85.2,44,85z"/>
		<path class="st7" d="M17.1,51.2c-1.7,0-2.4-0.5-2.4-1.8s0.8-2.2,1.8-2.2c1.2-0.1,2.2,0.9,2.2,2.1C18.7,50.4,17.9,51.2,17.1,51.2z"
			/>
		<path class="st13" d="M93.3,67.4c-0.1,0-0.3,0-0.4,0c-0.8,0.3-0.8-0.5-1.2-0.8c-0.8-2.1-0.4-3.4,1.1-3.7c2-0.4,3.2,0.2,3.4,1.7
			C96.4,66.6,95.6,67.4,93.3,67.4z"/>
		<path class="st7" d="M14.5,69.5c-1.1,0.1-1.7-0.8-1.7-1.9s0.8-2.1,2-2.1s2.1,0.8,2.1,2.2C16.7,69,16,69.5,14.5,69.5z"/>
		<path class="st5" d="M19.8,83.3c1.4,0,2.1,1,2.1,2c0,1.1-0.8,2.1-2,2.1c-1.1,0-2-0.6-2-2C18,84.1,18.5,83.4,19.8,83.3z"/>
		<path class="st8" d="M91.8,59.3c1.2-0.1,2.4,0.6,3.6-0.4c0.2-0.2,0.7-0.2,0.8,0.3c0.1,0.4,0.2,0.9-0.5,0.9s-1.1,0.4-1.5,0.9
			c0.3,0.5,0.7,0.3,1.1,0.3c0.5,0,1,0,0.9,0.7c-0.1,0.6-0.5,0.5-0.9,0.5c-0.5,0-1.1,0.1-1.6,0.1C91.1,62.7,90.6,61.8,91.8,59.3
			C91.8,59.2,91.8,59.3,91.8,59.3z"/>
		<path class="st10" d="M59.5,29.6c1.4,1,1.2,2.1,1.2,3c0,0.6,0.1,1.3,0.8,1.3s0.8-0.7,0.8-1.4s0-1.5,0-2.2c0-0.4,0.2-0.6,0.6-0.7
			c0.4,0,0.6,0.3,0.6,0.7c0,0.9,0.1,1.8,0,2.6c-0.1,1.2-0.9,1.8-2.1,1.9c-1.3,0-1.8-0.8-1.9-1.9C59.4,32,59.5,31,59.5,29.6z"/>
		<path class="st14" d="M55.2,32.7c0.2-0.4,0.2-0.8,0.4-1.1c0.3-0.4,0.1-1.5,1-1.2c1,0.3,0.2,1,0,1.4c-0.3,0.6-0.2,1,0.3,1.5
			s1.2,0.9,1.4,1.7c-1.5,0.7-1.8-1.1-2.9-1.3c0,0.3,0,0.7,0.1,1c0.2,0.5,0.5,0.7-0.3,1c-1,0.4-0.6-0.3-0.7-0.6
			c-0.3-0.9-0.6-1.8-0.8-2.7c-0.1-0.5-0.4-1.2,0.4-1.4c0.6-0.1,0.6,0.6,0.8,1C55.1,32.3,55.1,32.5,55.2,32.7z"/>
		<path class="st15" d="M92.9,48.7c0.5,0.4,0.9,0.8,0.2,1.5c-1.1,1-0.4,1.5,0.6,1.7c0.3,0.1,0.8-0.3,0.8,0.4c0,0.5-0.4,0.4-0.7,0.5
			c-1.1,0.3-2.2,0.4-3.4,0.4c-0.5,0-1-0.2-1.1-0.7c-0.2-0.6,0.1-1,0.6-1.4C90.9,50.3,92,49.5,92.9,48.7L92.9,48.7z"/>
		<path class="st8" d="M67.6,91.9c0-0.4,0-0.8,0-1.2c1.3-0.3,0.9,1.1,1.5,1.5c0.3-1.1,0.7-2.3,2.2-2.3c0,0.3,0,0.5,0,0.8
			c-1.1,0.7-1.6,1.5-0.4,2.7c0.4,0.4,1.5,0.8,0.9,1.4c-1,1-1.2-0.4-1.7-0.9c-0.2-0.2-0.2-0.5-0.3-0.8c-1,0.9,0.2,1.9-0.6,2.4
			c-0.7,0.4-0.6-0.7-1.1-0.8c-0.7-0.5,0-1.4-0.5-1.9C67.4,92.5,67.4,92.2,67.6,91.9z"/>
		<path class="st10" d="M75.7,38.1c-0.4-1.8-0.6-3.5-2.5-1.7c-0.2,0.2-0.5-0.1-0.6-0.3c-0.2-0.3,0-0.5,0.1-0.7c0.8-1,1.6-2,2.5-2.9
			c0.6-0.6,1.5-0.4,1.5,0.3C76.6,34.5,77.1,36.2,75.7,38.1z"/>
		<path class="st10" d="M60.6,14.5c-2.1-3-1.6-5.2,1.7-6.6C62.3,10.2,61,12.1,60.6,14.5z"/>
		<path class="st4" d="M63.9,7.7c3.5,1.7,4.1,3.6,2.1,6.5C65.2,12.1,64.4,10.1,63.9,7.7z"/>
		<path class="st16" d="M51.3,92c0.9-0.4,1.1-1.5,1.8-2.1c0.4-0.3,0.7-0.5,1.2-0.2s0.6,0.5,0.6,1.1c-0.2,1-0.2,2-0.3,3
			c0,0.4,0.1,1-0.7,0.9c-0.7,0-0.5-0.5-0.4-0.9c0.1-1.2-0.8-0.8-1.4-0.7c-0.4,0.1-0.5,1.1-1.2,0.6c-0.9-0.7,0.4-0.9,0.4-1.4
			C51.3,92.2,51.4,92.1,51.3,92C51.4,91.9,51.3,92,51.3,92z"/>
		<path class="st17" d="M90.1,45.8c2,0,2.4,1.4,2.9,2.9l0.1-0.1c-0.4,0-1.1,0.3-1.2-0.3c-0.2-0.6-0.2-1.4-1-1.2
			c-0.6,0.1-0.3,0.9-0.3,1.4c0.1,0.9-0.4,1.5-1.1,1.7c-0.6,0.2-1.3-0.3-1.7-0.9c-0.3-0.4-0.3-1-0.5-1.5c0.1-0.1,0.1-0.1,0.2-0.2
			c1.9,0.7,1.3-1.4,2.1-1.9C89.7,45.7,89.9,45.7,90.1,45.8z"/>
		<path class="st10" d="M77.5,37.9c0.5-0.4,0.7-0.1,1,0.1c0.3,0.4,0.8,0.7,1.2,0.4c0.7-0.5-0.1-0.8-0.3-1.1
			c-0.4-0.8-0.6-1.6,0.1-2.2c0.6-0.6,1.4-0.3,2,0.1c0.5,0.3,1.1,0.5,0.7,1.2C81.6,37.2,81.5,36,81,36c-0.2,0-0.4-0.4-0.8-0.1
			c-0.1,1.2,2.2,2.9-0.4,3.7C78.8,39.9,77.8,39.1,77.5,37.9z"/>
		<path class="st17" d="M46.5,35c-0.3,0.2-0.6,0.4-0.8,0.6c-0.3,0.2-1,0.3-0.6,0.9c0.4,0.6,0.7,0.3,1.2,0c0.3-0.2,1.1-0.1,0.9,0
			c-1.1,1-0.4,2.1-0.6,3.2c-0.1,0.5-0.6,0.2-0.8-0.1c-0.6-0.8-1.2-1.6-1.6-2.5c-0.2-0.4-0.9-0.9-0.3-1.4c0.6-0.5,1.3-0.9,2-1.2
			C45.9,34.5,46.2,34.8,46.5,35z"/>
		<path class="st18" d="M33.9,49.5c-0.2-0.1-0.3-0.3-0.5-0.4c-0.9-1.4,0.6-2,0.8-3.1c1.1,0.2,1.8,1.1,2.9,1.1
			c0.7-0.2,1.3-0.1,1.2,0.8c0.2,0.8,0.3,1.4-0.8,1c-0.4-0.2-0.8-0.4-1.2-0.7C34.5,47.2,34.2,47.3,33.9,49.5z"/>
		<path class="st9" d="M29.3,92.5c2.1,1,3.8,1.6,4.6,3.6c0.2,0.4,0.7,0.7,0.9,1.1c0.3,0.5,1.7,0.4,1,1.3c-0.5,0.6-1.2-0.4-1.6-0.8
			C32.7,96.2,31.2,94.5,29.3,92.5z"/>
		<path class="st15" d="M83.2,87.4c0.1,0.1,0.3,0.3,0.4,0.4c1.1,1.5-0.7,1.5-1.2,2.1c-1.1,1.3-1.3-0.7-2.1-0.8
			c-0.4-0.6-0.8-1.2-1.3-1.7c0.2-0.4-0.7-0.7,0-1.2c0.6-0.4,0.9,0,1.2,0.5c0.3,0.4,0.6,0.9,0.9,1.3C82.2,89.3,82.8,89,83.2,87.4z"/>
		<path class="st8" d="M68.8,30.4c1.8,0.1,3,0.4,4.6,1.3c-2.3,0.1-2.3,1.6-2.5,2.8c-0.1,0.6-0.2,1.2-0.9,1.1
			c-0.6-0.2-0.5-0.9-0.3-1.4C70.4,32.9,70.6,31.6,68.8,30.4z"/>
		<path class="st4" d="M68.5,34c-0.8,1.5-2,0.7-2.9,0.7c-0.8,0-0.3-1-0.4-1.5c-0.1-0.9,0.6-1.6,0.4-2.6c-0.1-0.5,0.1-0.8,0.7-0.7
			c0.6,0,0.6,0.5,0.5,0.9c0,0.3-0.1,0.5-0.2,0.8C66.1,33.2,66.1,34.4,68.5,34z"/>
		<path class="st19" d="M89.6,80.7c-0.4-0.2-0.8-0.4-1.1-0.6c-0.5-0.3-1.2-0.3-1.6-0.8c0-0.2,0-0.3,0-0.5c0.1-0.9,0.3-1.5,1.3-0.6
			c0.6,0.6,1.5,0.9,2.2,1.4c0.4,0.3,1.4,0.2,0.8,1.2C90.5,81.8,90.1,80.4,89.6,80.7z"/>
		<path class="st20" d="M38.3,47.9c-0.4-0.3-0.8-0.6-1.2-0.8c-0.2-0.9-1.2-0.8-1.6-1.4c-0.2-0.3-0.9-0.1-0.6-0.7
			c0.2-0.4,0.7-0.5,1-0.3c1.1,0.7,2.2,1.2,3.1,2.1C39.9,47.5,39.1,47.8,38.3,47.9z"/>
		<path class="st21" d="M89.6,74.2c0.5,0.4,1.1,0.9,1.7,1c0.1,0.1,0.1,0.3,0.2,0.3c0.6,0.4,2.2,0.2,1.6,1.3c-0.5,1-1.4-0.2-2.2-0.5
			c-0.5-0.2-1-0.5-1.6-0.8C88,74.9,88.7,74.6,89.6,74.2z"/>
		<path class="st15" d="M90.1,45.8c-0.2,0-0.4,0.1-0.6,0.1c-0.4,1.1-1.5,1.4-2.3,2h0.1c-0.9-0.6-1-1.2,0-1.8c0.7-0.4,1.3-0.8,2-1.3
			c0.4-0.3,0.7-0.9,1.3-0.4C91.4,45.3,90,45.3,90.1,45.8z"/>
		<path class="st10" d="M108.6,68.9c-1.1-2-0.1-4,0-6C108.5,64.9,110.6,66.9,108.6,68.9z"/>
		<path class="st12" d="M114.7,68.6c-1.2-1.7-0.4-3.4,0-5C114.6,65.2,116.6,66.8,114.7,68.6z"/>
		<path class="st8" d="M26.7,92.7c-0.3,0.9,0,1.8-0.2,2.8c-0.7-0.7-2.2-0.3-2.2-1.5C24.2,92.6,26,93.5,26.7,92.7z"/>
		<path class="st22" d="M90.4,100.2c-1,1.2-2.1,2.4-3.3,3.8C87.2,101.6,88.5,100.7,90.4,100.2z"/>
		<path class="st23" d="M24,95.8c1.1,0.6,3.3,0.4,2.3,2.8C25.2,97.9,24.7,96.8,24,95.8z"/>
		<path class="st24" d="M43.2,40.6c0.5,0.7,0.4,1.3,0,2c-0.5,0.4-0.9,0.4-1.4-0.1c-0.4-0.5-0.5-1.1-0.2-1.7
			C42.1,40.2,42.5,39.6,43.2,40.6z"/>
		<path class="st22" d="M110.5,84.6c-0.2-1.4,0.5-2.3,1.1-3.4C112.3,82.9,112.2,83,110.5,84.6z"/>
		<path class="st25" d="M67.6,92.7c0.7,0.5,0.3,1.3,0.5,2c0,0.2-0.1,0.4-0.1,0.6c-0.1,0-0.1-0.1-0.2-0.1c-1-0.5-1.1-1-0.4-1.9
			c0.1-0.1-0.1-0.3-0.2-0.5C67.4,92.6,67.5,92.6,67.6,92.7z"/>
		<path class="st26" d="M43.2,40.6c-0.6-0.3-1-0.3-1.2,0.4c-0.5,0.1-0.8-0.1-1-0.5c-0.1-0.4-0.1-0.8,0.2-1.2
			C42.4,38.9,43.2,39.1,43.2,40.6z"/>
		<path class="st27" d="M41.2,39.3c0,0.4,0,0.8,0,1.2c-0.1,0.1-0.3,0.2-0.5,0.3c-0.2,0-0.4,0-0.6,0c-0.6-0.3-1.2-0.6-1-1.5
			C39.8,38.1,40.5,38.7,41.2,39.3z"/>
		<path class="st28" d="M106.9,48.1c0.8,1.5,2,2.3,1.4,4C107.5,50.9,106.6,49.9,106.9,48.1z"/>
		<path class="st29" d="M41.9,42.1c0.3,0.5,0.8,0.5,1.3,0.5c-0.6,0.6-0.8,1.8-2,1.2c-0.5-0.3-0.7-0.8-0.6-1.4
			C40.9,41.8,41.4,41.9,41.9,42.1z"/>
		<path class="st30" d="M38.4,43.1c0-0.6,0-1.1,0-1.7c0.4-0.5,0.9-0.9,1.6-0.6c0.3,0.2,0.4,0.5,0.4,0.8c0,0.2,0,0.4-0.1,0.6
			c-0.1,0.3-0.3,0.5-0.5,0.7C39.3,43.2,38.9,43.3,38.4,43.1z"/>
		<path class="st24" d="M83.6,43.4c-0.7-0.5-1-1.2-0.8-2c0.4-0.2,0.8,0.1,1.2-0.2c0.6,0.1,0.8,0.5,0.8,1.1
			C84.6,42.9,84.5,43.5,83.6,43.4z"/>
		<path class="st31" d="M44,85c-0.2,0.5-0.3,0.9-0.7,1.2c-0.2,0-0.3,0-0.5,0c0-0.1,0-0.3,0-0.4c0.1-0.6-1.6-1-0.5-1.7
			C43.1,83.6,43.3,84.9,44,85z"/>
		<path class="st32" d="M112.6,48.9c1,0.8,2.5,1.4,1.5,3.3C113.5,50.9,113.1,49.9,112.6,48.9z"/>
		<path class="st33" d="M83.6,41.4c-0.3,0.6-0.5,0-0.8,0c0.1-0.6,0.3-1.2,0.8-1.6c1.1-0.5,1.4,0.1,1.4,1
			C84.6,41.4,83.9,40.9,83.6,41.4z"/>
		<path class="st34" d="M83.6,43.4c0.6-0.2,0.8-0.7,0.8-1.3c0.3-0.2,0.6-0.3,0.9-0.2c0.2,0.1,0.4,0.2,0.5,0.4c0.2,0.4,0.2,0.9,0,1.3
			c-0.5,0.6-1.2,0.5-1.8,0.2C83.8,43.7,83.7,43.5,83.6,43.4z"/>
		<path class="st35" d="M39.5,42.6c0.2-0.2,0.3-0.3,0.5-0.5c0.4-0.1,0.6,0.1,0.8,0.5c0.1,0.4,0.3,0.8,0.4,1.3
			c-0.5,0.2-1.1,0.7-1.6,0C39.2,43.4,39.3,43,39.5,42.6z"/>
		<path class="st17" d="M61.8,26.1c1.3-1.1,1.3-1.1,3.1,0C63.7,26.1,62.8,26.1,61.8,26.1z"/>
		<path class="st27" d="M84.8,40.9c0-0.8-0.5-1.1-1.2-1.2c0.3-0.8,0.9-0.9,1.7-0.8c0.6,0.4,0.9,0.9,0.6,1.6
			c-0.2,0.3-0.4,0.5-0.7,0.5C85,41,84.9,41,84.8,40.9z"/>
		<path class="st36" d="M39.9,40.9c-0.5,0.1-1,0.3-1.6,0.4c0-0.8,0.1-1.5,0.8-2c0.3,0.6,0.7,1,1.3,1.3
			C40.4,40.9,40.3,41.2,39.9,40.9z"/>
		<path class="st37" d="M91.7,66.7c0.4,0.3,0.8,0.5,1.2,0.8c0,0.3,0,0.7,0,1c0,0.5-0.1,0.8-0.7,0.7c-0.5-0.1-0.6-0.4-0.6-0.9
			s0-0.9,0-1.4C91.7,66.9,91.7,66.8,91.7,66.7z"/>
		<path class="st38" d="M85.6,43.5c0-0.5,0-1-0.1-1.5c0.2-0.3,0.4-0.3,0.7-0.2c0.2,0.1,0.3,0.2,0.5,0.3c0.5,0.4,0.8,0.9,0,1.3
			c0,0.5-0.3,0.8-0.8,0.8C85.7,44,85.8,43.7,85.6,43.5z"/>
		<path class="st29" d="M88,40.8c0,0.5,0.1,1-0.4,1.3c-0.4,0.3-0.8,0.3-1.2,0l0,0c-0.2-0.2-0.3-0.5-0.3-0.8c0-0.2,0.1-0.4,0.2-0.5
			C86.9,40.5,87.4,40.1,88,40.8z"/>
		<path class="st39" d="M86.4,40.9c0,0.1,0,0.3,0,0.4c-0.7,0.1-0.7-0.4-0.6-0.8c0.1-0.5-0.2-1.1,0.2-1.6c0.4,0,0.7,0.1,0.8,0.5
			C87.8,40.2,86.9,40.5,86.4,40.9z"/>
		<path class="st40" d="M86.4,40.9c0.1-0.5,1.1-0.8,0.4-1.5c1.3-0.2,0.8,1,1.1,1.5C87.5,40.4,87,41.1,86.4,40.9z"/>
		<path class="st41" d="M86.4,42.2c0.4,0,0.8,0,1.2,0c0,0.5,0.3,1.4-0.8,1.2C87.7,42.6,86.3,42.7,86.4,42.2z"/>
		<path class="st42" d="M85.2,20.2c0.7,0,1.3,0,1.2,0.6c-0.1,0.6-0.6,0.2-0.9,0C85.4,20.7,85.4,20.5,85.2,20.2z"/>
		<path class="st43" d="M85.6,43.5c0.5,0,0.5,0.4,0.4,0.8c-0.7-0.1-1.5,0.4-2-0.4C84.5,43.6,85.2,44.1,85.6,43.5z"/>
		<path class="st44" d="M32.2,74.8c0.4-0.6,1.1-0.3,1.7-0.9c-0.1,1.1-0.9,0.9-1.3,1.2C32.5,75,32.3,74.9,32.2,74.8z"/>
		<path class="st45" d="M32.6,72.4c0.7,0,1.4,0,2.2,0c-0.2,0.5-0.7,0.1-1,0.4C33.3,72.8,32.9,72.7,32.6,72.4z"/>
		<path class="st46" d="M39.5,42.6c0,0.4,0,0.8,0.1,1.2c-0.4-0.2-0.8-0.5-1.2-0.7C38.9,43.2,39.1,42.8,39.5,42.6z"/>
		<path class="st47" d="M86,38.9c0,0.5-0.1,1-0.1,1.6c-0.1,0.2-0.1,0.2-0.3,0c-0.2-0.5-0.3-1.1-0.5-1.6C85.5,38.9,85.8,38.9,86,38.9
			z"/>
		<path class="st48" d="M70.4,62.5c0.8,2.2-0.8,3.8-1.8,5.2c-1.1,1.6-3.3,2.6-5.3,2.5c-4.2-0.1-7.9-4.3-7.5-8.1
			c0.3-2.5,4.8-7,6.8-6.4c1.8,0.6,4.2,0.1,5.4,2C69,59.2,70.4,60.6,70.4,62.5z"/>
		<path class="st0" d="M48.7,75.2c-2.2,0.3-3.7-1-4.5-3c-0.9-2-1.4-4.1-2.1-6.2c-0.1-0.4-0.7-1.2,0.4-1.4c0.8-0.1,1.3,0.2,1.5,1
			c0.5,1.9,1.1,3.8,1.7,5.7c0.4,1.2,1.1,2.1,2.5,2.4c1.9,0.3,2.8-0.6,2.2-2.4s-1.3-3.6-2-5.5c-0.2-0.5-0.6-1.1,0.3-1.2
			c0.6,0,1.5-0.5,1.9,0.6c0.7,2.3,1.4,4.6,1.9,6.9C53,74.2,51.7,75.2,48.7,75.2z"/>
		<path class="st49" d="M77.4,75.2c-3.1,0-4-1.1-3.3-3.8c0.5-2,1.2-4,1.6-6c0.2-1.1,0.9-0.9,1.5-0.8c1.2,0.2,0.4,0.8,0.3,1.3
			c-0.5,1.7-0.9,3.4-1.4,5c-0.3,1-0.6,2,0.4,2.5c1.1,0.6,2.2,0.2,3-0.8c1.2-1.5,1.1-3.4,2-5c0.6-1.1-0.1-3.6,2-2.9
			c1.4,0.5-0.1,2.1-0.3,3.2c-0.4,2-0.9,4-2.3,5.7C79.9,74.7,78.7,75.5,77.4,75.2z"/>
		<path class="st49" d="M62.7,52.4c-0.5-0.1-0.9,0-1.3-0.2c-0.6-0.3-1.9-0.1-1.5-1.4c0.4-1,1.2-0.3,1.8-0.2c1.1,0.2,2.2,0.3,2.7-1
			c0.4-1.3-0.7-1.7-1.6-2c-1-0.4-1.9-0.7-2.5-1.6c-0.8-1.3-0.7-2.6,0.5-3.6c1.1-1,4.1-1.3,4.9-0.5c0.3,0.3,0.3,0.6,0.2,0.9
			c-0.2,0.5-0.5,0.8-1.1,0.5c-0.5-0.3-1.1-0.3-1.6-0.2c-0.6,0.1-1.2,0.4-1.3,1.1c-0.1,0.7,0.3,1.1,0.9,1.4c0.4,0.2,0.8,0.5,1.3,0.6
			c2,0.6,2.7,2,2.3,3.9C66,52,64.2,52.1,62.7,52.4z"/>
		<path class="st50" d="M57.1,47.3c-0.1,0.7-0.6,0.8-1.1,1c-4.8,2.7-8.4,6.3-9.2,12c-0.1,0.5-0.1,1.7-0.9,1.5
			c-0.9-0.2-0.3-1-0.2-1.7c0.8-6.4,4.9-10.2,10.2-13.1C56.8,46.5,57.1,46.7,57.1,47.3z"/>
		<path class="st50" d="M80.1,62c-0.4-0.2-0.5-0.5-0.6-1c-1-5.9-4-10.3-9.5-12.9c-0.5-0.3-1-0.7-0.6-1.2c0.4-0.7,0.9,0,1.2,0.2
			c5.7,2.7,8.9,7.3,10.1,13.4C80.8,61.1,80.8,61.7,80.1,62z"/>
		<path class="st50" d="M63.1,80.5c-2.7,0.1-5.1-0.7-7.5-1.8c-0.4-0.2-1.2-0.3-0.9-1.1c0.3-0.8,0.8-0.4,1.3-0.1
			c4.8,2.4,9.7,2.3,14.5,0c0.5-0.2,1.1-0.7,1.4,0c0.4,0.9-0.6,0.9-1,1.1C68.4,79.9,65.9,80.6,63.1,80.5z"/>
		<path class="st51" d="M64.9,114.4c1.1,0.7,2.4,0.1,4,0.6c-3.9,1.3-7.3,1.3-10.8-0.1c0.4,0,0.8-0.1,1.2-0.1c0.5,0,0.9-0.1,1.4-0.1
			c0.7-0.2,1.3-0.3,2-0.5c-1.7,0.1-3.1-0.7-4.5-1.6c-0.8-0.5-0.6-0.8,0.1-1.2c1.1-0.3,2.2-0.4,3.3-0.1c-0.7-0.2-1.6,0-2.1-0.7
			c-0.6-0.5-1.2-1-1.9-1.5c1.1-0.6,2.1-0.7,3.1-0.8c0.2,0.2,0.5,0.2,0.8,0.2c0.1,0,0.3,0,0.4,0c-0.1-0.1-0.3,0-0.4-0.1
			c-0.3,0-0.5,0-0.8-0.1c0-0.8-0.9-0.3-1.2-0.7c-0.5-0.5-1.8-0.6-1.5-1.5c0.2-0.5,1.4-0.7,2.3-0.7c0.9,0,1.5,1.1,2.5,0.6
			c0.3-0.6,0.8-0.2,1.2-0.2c1.5-0.1,3.1-0.8,4.6,0.3c-0.6,1.3-2.2,1.2-3,2.2c-0.3,0.2-0.6,0.1-0.9,0.2c0.3,0,0.6,0,0.9-0.2
			c1,0.2,2,0.4,3.4,0.6c-1.1,1-1.9,1.6-3,1.9c-0.4,0.6-1,0.5-2,0.7c1.4-0.3,2.3-0.4,3.2-0.1c0.6,0.1,1.3,0,1.6,0.8
			c-1.6,0.9-3,2.3-5.2,1.5C63.8,114.7,64.5,114.1,64.9,114.4z"/>
		<path class="st52" d="M64,105.7c-0.3,0.5-0.8,0.2-1.2,0.2c-1.6-0.9-1.6-2.4-1-3.8c0.2-0.5,0.6-1.2,1.4-1.2c0.9,0,1.1,0.7,1.4,1.3
			C65.4,103.5,64.9,104.6,64,105.7z"/>
		<path class="st4" d="M59.5,110.6c1-0.1,1.8,0.7,2.9,0.3c0.6-0.2,0.3,0.7,0.2,1.3c-1.3-1.3-2.9-0.7-4.4-0.9
			C58.7,111.1,59.1,110.9,59.5,110.6z"/>
		<path class="st53" d="M67.3,111.4c-1.2,0.1-2.4-0.2-3.5,0.9c-0.4-1.1-0.4-1.7,0.9-1.3c0.4,0.1,0.9-0.2,1.3-0.2
			C66.5,111,66.9,111.2,67.3,111.4z"/>
		<path class="st50" d="M32.3,65.4c0.7,0,1.4,0,1.5,0.9c0.1,1.1-1,1.4-1.6,1.4c-0.6,0.1-1.6-0.3-1.5-1.2
			C30.8,65.9,31.4,65.3,32.3,65.4z"/>
		<path class="st29" d="M31,64.2c1.4-1.5,2-1.4,2.8,0.3C32.9,63.9,31.9,64.3,31,64.2z"/>
		<path class="st54" d="M36.7,75.6c-0.1,0.5-0.6,0.5-0.9,0.6c-0.3,0-0.7-0.1-0.6-0.6c0.1-0.4,0.4-0.7,0.8-0.7
			C36.3,74.8,36.6,75.2,36.7,75.6z"/>
		<path class="st55" d="M79.1,90.2c0.1,0.7-0.3,1.4-0.9,1.2c-0.9-0.2-1.6-0.9-1.5-2c0-0.7,0.4-1.2,1.1-1.1
			C78.7,88.5,79.2,89.1,79.1,90.2z"/>
		<path class="st56" d="M86.8,79.3c0.7-0.1,1.4-0.1,1.6,0.8c-1.3,1.1-1.3,1.1,0,1.6c0.6,0.2,0.5,0.6,0.2,0.9
			c-0.5,0.5-0.9,0.8-1.7,0.4C86,82.6,86,82,86,81.2C86,80.4,87.1,80.2,86.8,79.3z"/>
		<path class="st57" d="M83.8,83.7c0.8,0.4,1.6,0.9,1.7,2c0,0.7-0.6,1-1.2,0.9c-1-0.1-1.5-0.7-1.6-1.7C82.7,84.2,83,83.8,83.8,83.7z
			"/>
		<path class="st58" d="M67.6,92.7c-0.1,0-0.3,0-0.4,0c-0.5-0.2-1.6,0.3-1.5-0.3c0.1-1.1,1.2-0.3,1.9-0.5
			C67.6,92.2,67.6,92.5,67.6,92.7z"/>
		<path class="st57" d="M48.5,91.7c-0.2-0.1-1-0.2-0.7-0.7c0.4-0.9,0.4-2.2,1.8-2.4c0.7-0.1,0.9,0.5,1,1.2
			C50.7,91.2,49.9,91.6,48.5,91.7z"/>
		<path class="st37" d="M45,85.8c0.4,0.3,0.7,0.6,0.6,1c0,0.4-0.2,0.6-0.6,0.6c-0.5-0.1-0.7-0.4-0.6-0.8
			C44.6,86.3,44.8,86.1,45,85.8z"/>
		<path class="st57" d="M94,66.2c-0.9,0-1.8,0.1-1.8-1C92,64.2,93,64,93.6,64c0.7,0,1.8,0,1.8,1.2C95.4,66.2,94.6,66.3,94,66.2z"/>
		<path class="st0" d="M93.3,61c-0.1,0.4-0.6,0.5-0.9,0.6c-0.3,0-0.3-0.4-0.3-0.6c0-0.4,0.3-0.8,0.7-0.8
			C93.1,60.3,93.4,60.6,93.3,61z"/>
		<path class="st0" d="M91,51.9c0.2-0.4,0.6-0.8,0.9-0.6c0.5,0.3,0.2,0.7-0.3,0.7C91.3,52,91.2,51.9,91,51.9z"/>
		<path class="st59" d="M75.7,34.4c-0.2,0.2-0.3,0.4-0.6,0.6c0,0-0.4-0.2-0.4-0.3c0-0.4,0.3-0.5,0.6-0.6C75.5,34,75.7,34,75.7,34.4z
			"/>
		<path class="st60" d="M53.6,90.8c0.1,0.5,0.5,1.1-0.1,1.5c-0.1,0.1-0.5,0-0.5-0.1C52.8,91.6,53.6,91.4,53.6,90.8z"/>
		<path class="st61" d="M87.2,47.9c0.4-1.1,1.7-1.2,2.3-2c-0.1,1-0.2,2-0.3,3.2C88.3,49,88.4,47.3,87.2,47.9z"/>
		<path class="st62" d="M40.8,42.5c-0.3-0.2-0.5-0.3-0.8-0.5c0-0.1,0-0.2,0-0.3c0.3-0.4,0.7-0.7,0.9-1.2c0.1,0,0.2,0,0.3-0.1
			c0.3,0.1,0.5,0.3,0.8,0.4c0,0.4-0.6,0.7,0,1.1C41.6,42.3,41,42,40.8,42.5z"/>
		<path class="st63" d="M40.9,40.6c0.8,1.2-0.1,1.2-0.9,1.2c0-0.3,0-0.6-0.1-0.9c0.2-0.1,0.4-0.2,0.5-0.3
			C40.6,40.6,40.8,40.6,40.9,40.6z"/>
		<path class="st20" d="M85.1,42.1c-0.2,0-0.5,0-0.7,0c0-0.6-0.2-0.9-0.8-0.7c0.2-0.7,0.8-0.4,1.2-0.4l0,0
			C85.1,41.3,85.4,41.6,85.1,42.1z"/>
		<path class="st64" d="M85.1,42.1c-0.2-0.4-0.5-0.7-0.4-1.2c0.3-0.1,0.6-0.3,0.9-0.4c0.1,0,0.2,0,0.3,0c0.1,0.3,0,0.7,0.5,0.8
			c0,0.3,0,0.6,0,0.8c-0.3,0-0.5-0.5-0.9-0.2C85.4,42,85.3,42.1,85.1,42.1z"/>
		<path class="st8" d="M65.4,62c-1.1-1.1-1-2.5-1-3.9c0-1.1,0.4-1.5,1.5-0.8C69,59,68.9,59.7,65.4,62z"/>
		<path class="st4" d="M68.1,65c-1,0-2.1-0.1-2.7-1.1c-0.3-0.5,2.5-3,3.2-3c0.6,0,1.3,0.7,1,0.9C68.5,62.6,71.1,65.2,68.1,65z"/>
		<path class="st8" d="M61.2,63.9c-0.9,1-0.9,3.1-2.2,3.4c-1.2,0.3-1.7-1.7-1.8-2.6c-0.1-1.5,1.7-1.4,2.7-1.7
			C60.5,62.8,61,63.1,61.2,63.9z"/>
		<path class="st8" d="M61.9,61.1c-1.1,1.6-3.1,0.9-4.4,1.8c-0.1,0.1-0.6-0.3-0.6-0.4c0.3-1,0.5-2,1-2.8s1.3-0.5,1.9,0
			C60.5,60.1,61.2,60.6,61.9,61.1z"/>
		<path class="st4" d="M60.3,67.3c0.1-0.2,0.2-0.6,0.4-0.9c0.3-0.6,0.5-1.5,1.2-1.5c0.9-0.1,0.7,1.1,1.2,1.6
			c0.1,0.2,0.1,0.5,0.1,0.8c0,0.8,1.5,1.3,0.7,1.9c-0.9,0.6-2.1-0.1-3.2-0.3C60.2,68.8,60.3,68,60.3,67.3z"/>
		<path class="st4" d="M65.8,68.7c-1.5-0.6-1.8-1.9-2.1-3c-0.2-0.7,0.7-0.9,1.1-0.7c1.2,0.6,3.2,0.1,3.5,1.6
			C68.5,67.3,66.8,68.2,65.8,68.7z"/>
		<path class="st4" d="M63.5,59.1c-0.2,0.4,0.6,1.7-0.7,1.4s-2.9-1.2-3.1-2.4c-0.2-1.1,1.8-1.3,2.7-1.4
			C63.5,56.5,63.7,57.8,63.5,59.1z"/>
		<path class="st65" d="M63.2,61.3c0.8,0.4,1.5,0.7,1.5,1.6c0,1-0.8,1.6-1.7,1.5c-0.7,0-1.2-0.6-1.2-1.5
			C61.9,62,62.5,61.6,63.2,61.3z"/>
		<path class="st66" d="M60.7,108.3c0.6,0.5,2.2-1.5,2,1C62,108.9,61.4,108.6,60.7,108.3C60.7,108.2,60.7,108.3,60.7,108.3z"/>
		<path class="st67" d="M65.6,108.2c-0.6,0.3-1.2,0.7-1.9,1C63.7,108,63.7,108,65.6,108.2C65.7,108.3,65.6,108.2,65.6,108.2z"/>
	</g>
</g>
</svg>
