<?xml version="1.0" encoding="utf-8"?>
<!-- Generator: Adobe Illustrator 23.0.0, SVG Export Plug-In . SVG Version: 6.00 Build 0)  -->
<svg version="1.1" id="Layer_1" xmlns="http://www.w3.org/2000/svg" xmlns:xlink="http://www.w3.org/1999/xlink" x="0px" y="0px"
	 viewBox="0 0 64 78.4" style="enable-background:new 0 0 64 78.4;" xml:space="preserve">
<style type="text/css">
	.st0{display:none;}
	.st1{display:inline;fill:#242E4C;}
	.st2{display:inline;opacity:0.4;fill:#242E4C;enable-background:new    ;}
	.st3{fill:#0D0015;}
	.st4{fill:#FEFEFE;}
	.st5{fill:#E7C21E;}
	.st6{fill:#347F3D;}
	.st7{fill:#FDFDFD;}
	.st8{fill:#FEF24F;}
	.st9{fill:#EB1C24;}
	.st10{fill:#FDF14F;}
	.st11{fill:#FCFCFC;}
	.st12{fill:#347E3D;}
	.st13{fill:#FBFBFB;}
	.st14{fill:#FCF14F;}
	.st15{fill:#FAFAFA;}
	.st16{fill:#FDFCFD;}
	.st17{fill:#FBFAFB;}
	.st18{fill:#F8F8F8;}
	.st19{fill:#F8F8F9;}
	.st20{fill:#F9F9F9;}
	.st21{fill:#F7F7F7;}
	.st22{fill:#F8F7F8;}
	.st23{fill:#F5F5F5;}
	.st24{fill:#F9F8F9;}
	.st25{fill:#EFEFF0;}
	.st26{fill:#34783C;}
	.st27{fill:#0E0117;}
	.st28{fill:#1A0E23;}
	.st29{fill:#1B0F23;}
	.st30{fill:#12051B;}
	.st31{fill:#F6F6F6;}
	.st32{fill:#11041A;}
	.st33{fill:#1D1125;}
	.st34{fill:#11051A;}
	.st35{fill:#FDFDFC;}
	.st36{fill:#22162A;}
	.st37{fill:#170B20;}
	.st38{fill:#100419;}
	.st39{fill:#15081D;}
	.st40{fill:#160A1F;}
	.st41{fill:#1E1226;}
	.st42{fill:#0D0016;}
	.st43{fill:#CAC8CC;}
	.st44{fill:#D5D3D7;}
	.st45{fill:#C6C5CA;}
	.st46{fill:#E8E7E9;}
	.st47{fill:#211629;}
	.st48{fill:#817F84;}
	.st49{fill:#C8C5CA;}
	.st50{fill:#BAB6BC;}
	.st51{fill:#0D0116;}
	.st52{fill:#0D0115;}
	.st53{fill:#0E0116;}
	.st54{fill:#34803D;}
	.st55{fill:#EA1E25;}
	.st56{fill:#F7F9F7;}
	.st57{fill:#1F1427;}
	.st58{fill:#100318;}
	.st59{fill:#12061B;}
	.st60{fill:#0F0218;}
	.st61{fill:#0F0318;}
	.st62{fill:#221629;}
	.st63{fill:#1C1124;}
	.st64{fill:#1D1126;}
	.st65{fill:#D8D6DA;}
	.st66{fill:#413747;}
	.st67{fill:#514858;}
	.st68{fill:#FCF050;}
	.st69{fill:#F7F8F5;}
	.st70{fill:#F9FAF8;}
</style>
<g class="st0">
	<path id="Rectangle_14" class="st1" d="M10,0h1.2v11.2H0V10C0,4.5,4.5,0,10,0z"/>
	<rect id="Rectangle_15" x="35.2" y="17.6" class="st1" width="11.2" height="25.6"/>
	<rect id="Rectangle_16" x="17.6" y="35.2" class="st2" width="11.2" height="25.6"/>
	<path id="Rectangle_17" class="st1" d="M52.8,35.2H64v18.6c0,3.9-3.1,7-7,7h-4.2V35.2z"/>
	<rect id="Rectangle_18" y="52.8" class="st1" width="11.2" height="25.6"/>
	<path id="Rectangle_19" class="st1" d="M52.8,0H57c3.9,0,7,3.1,7,7l0,0l0,0v4.2H52.8V0z"/>
	<rect id="Rectangle_20" x="52.8" y="17.6" class="st2" width="11.2" height="11.2"/>
	<rect id="Rectangle_21" y="35.2" class="st1" width="11.2" height="11.2"/>
	<rect id="Rectangle_22" x="35.2" y="49.6" class="st1" width="11.2" height="11.2"/>
	<path id="Rectangle_23" class="st1" d="M17.6,67.2h11.2v1.2c0,5.5-4.5,10-10,10h-1.2C17.6,78.4,17.6,67.2,17.6,67.2z"/>
	<rect id="Rectangle_24" x="17.6" y="0" class="st2" width="28.8" height="11.2"/>
	<rect id="Rectangle_25" y="17.6" class="st1" width="28.8" height="11.2"/>
</g>
<g>
	<g>
		<path class="st3" d="M0.2,38.6c0.4-1.2,0.4-2.4,0.7-3.6c0.9-5.1,3-9.7,6.2-13.6s7-7.2,11.7-9.4c2.9-1.3,5.9-2.2,9-2.8
			c0.8-0.1,1.7,0.1,2.4-0.3c1.7,0,3.4,0,5.1,0c1.2,0.2,2.5,0.4,3.7,0.7c5.2,1,9.8,3.1,13.9,6.4c3.9,3.1,6.9,6.8,9,11.3
			c1.3,2.9,2.2,5.8,2.8,8.9c0.3,2.2,0.6,4.4,0.3,6.6C64.5,49.1,62.5,55,58.7,60c-4.6,6.2-10.6,10.3-18.2,12.2
			c-3.2,0.8-6.5,1.2-9.9,1c-6.5-0.4-12.5-2.5-17.8-6.6c-6.1-4.7-10-10.8-11.8-18.3c-0.3-1.4-0.7-2.9-0.7-4.4c0-0.1,0-0.2-0.2-0.3
			C0.2,41.9,0.2,40.2,0.2,38.6z"/>
		<path class="st4" d="M32.7,9.5c16.7-0.3,32.6,14.1,31.6,33.3c-0.8,15.1-13.8,30.6-33.3,29.8C15.5,72-0.2,58.9,0.9,39
			C1.7,23.7,14.7,9.3,32.7,9.5z"/>
		<path class="st3" d="M11.2,57.6c-2.4,0.7-4.4-0.2-5.4-2.1c-1.4-2.9-1-4.8,1.3-6.9c-2.3-0.3-4-1.5-4.6-3.9c-0.3-1.3-0.3-2.9,0.6-4
			c0.8-0.9,1.4-2.3,3.2-2.1c-0.3-0.6-0.8-0.7-1.1-0.9c-0.4-0.2-0.9-0.4-0.8-1.1c0-0.1,0-0.2-0.1-0.3c-1.3-0.6-0.9-1.9-1-2.9
			c-0.1-1.1,1.4-3.7,2.4-4.2c0.2-0.1,0.6-0.1,0.8,0c0.3,0.2,0.4,0.1,0.6-0.1c0.4-0.8,1.1-0.7,1.9-0.3c0-0.4-0.3-0.8-0.6-1
			c-0.3-0.3-0.8-2.8-0.7-3.2c0.6-2.9,2.8-4.3,4.6-6.1c1.2-1.1,2.6-2,4.2-2.6c0.1,0,0.2,0,0.2-0.1c1.1-2,3.2-2.3,5.2-2.9
			c1.7-0.6,3.3-0.7,5-0.2c0.4,0.1,0.6-0.2,0.8-0.4c1.3-1.3,2.9-1.9,4.6-1.3c0.7,0.2,1.3-0.2,2-0.2c1.1,0,2.1,0.3,2.9,1.1
			c0.6,0.6,1.1,0.9,2,0.8c2.8-0.3,5.6,0.3,7.8,2c2.6,2,5.7,3.4,7.9,6.1c0.8,1,1.7,2,2.1,3.1c0.9,1.9,2.8,3.2,3.3,5.3
			c0.4,1.5,1,3.1,1.2,4.6c0.1,0.8,0.7,1.4,0.9,2.2c0.3,2.3-0.1,4.5,0,6.8c0.3,3.6-1.1,6.6-2.4,9.8c-0.8,1.9-1.3,3.9-2.5,5.5
			c-2.1,3-4.4,5.6-7.8,7.2c-0.2,0.1-0.4,0.3-0.7,0.3c-0.6,0-0.9,0.1-0.8,0.8c0,0.1,0,0.1-0.1,0.2c-1.3,0.9-2.2,2.6-4.1,2.8
			c-0.8,0-1.4,0.2-2.1,0.9c-0.4,0.4-1.5,0.4-2.5,0.6c-1.3,0.2-2.8,0.6-4.2,0c-0.4-0.1-0.9,0.1-1.3,0.3c-0.8,0.4-1.7,0.4-2.4,0
			c-0.7-0.3-1.2-0.3-1.9-0.2c-2.2,0.2-4.4,0-6.3-0.9c-1.1-0.6-2.2-0.8-3.2-1.2c-0.7-0.2-1.7-0.2-1.5-1.3c-0.9-0.3-1.4-1.1-2.3-1.5
			c-1.1-0.4-2.2-1-3.2-1.7c-0.4-0.3-1.2-0.6-0.9-1.4L12,62.5c-0.9-0.6-1-1.4-1.1-2.4C10.9,59.2,10.8,58.5,11.2,57.6z"/>
		<path class="st5" d="M20.1,41c-0.1-7.2,5.7-12.3,12.5-12.3c7.2,0,12.4,5.5,12.4,12.4s-5.5,12.4-12.4,12.3
			C25.6,53.4,19.9,48.1,20.1,41z"/>
		<path class="st4" d="M35.9,21.2c1.2,1.2,2.6,1.4,4.1,1.4c1.7,0.1,3.3,0,5,0c0.4,0,0.8,0.1,1.1,0.6c1,1.1,1.8,2.4,3.1,3.2
			c0.8,0.4,0.8,1.2,1,2c0.4,2.1,1.5,4,2.6,5.8c0.2,0.3,0.4,0.6,0.3,1c-0.6,2.5,0,5.1,0.6,7.6c0.1,0.3,0.1,0.7,0,1
			c-1.2,2.2-1.4,4.6-1.8,7c0,0.4-0.1,0.7-0.4,1c-1.7,1.3-2.8,3-3.9,4.8c-0.3-1.5-1.5-0.4-2.4-1c0.7-0.7,1.4-1.3,2.1-2.1
			c2.5-3,4.1-6.3,4.5-10.1c0.7-5.6-0.9-10.5-4.5-14.6c-2.5-3.1-5.8-5.1-9.7-6.1C36.5,22.5,35.9,22.3,35.9,21.2z"/>
		<path class="st4" d="M18.4,54c-1.7,0-1.7,0-1.5,2.8c-0.4-0.2-0.9-0.3-1.3-0.7c-0.4-0.2-0.9-0.3-1.3-0.6c1.2-1.8,1.2-3.6,0.2-5.3
			c-0.4-0.8-1.3-1.7-2.2-2.1c-0.6-0.2-1.2-0.4-2-0.6c1.9-1.2,2.2-3,2.2-5c0-0.8-0.4-0.9-1-1.3c-0.2-0.2,0.2-1.1-0.4-1.4
			c-0.6-0.3-1.1-0.6-1.4-1.1c3.5-1.2,4.8-4.7,2.5-8.5c1.3,0.6,2.3-0.3,3.2-0.7c0.8-0.3,1.9-1.2,1.9-2.5c0-0.1,0-0.2,0-0.3
			c1.1-0.8,0.3-1.9,0.3-2.8c0-0.7,0.1-0.9,0.7-1c0.7-0.2,1.3-0.4,2-0.4c2.1,0,4.2,0.1,6.4-0.2c1-0.1,1.8-0.6,2.6-1.1
			c0.1,0.9-0.3,1.1-1,1.3c-4.2,0.9-7.6,3-10.3,6.1c-2.2,2.4-3.6,5.4-4.2,8.6c-1,5.3,0,10.3,3.1,14.7C17.4,52.6,17.9,53.3,18.4,54z"
			/>
		<path class="st4" d="M27.6,67.8c-0.3-0.1-0.2-0.4-0.2-0.7c0-2.5,0-5.2,0-7.8c3.5,1,7,1,10.6,0c-0.1,2.9,0.1,5.6-0.1,8.5
			c-1.3,0.4-2.6,0.1-4.1,0.2c-0.2,0-0.3,0-0.6-0.1c-0.2-0.1-0.6-0.1-0.6-0.4c0-0.3,0.3-0.3,0.6-0.3c0.6,0,1-0.1,1.3-0.4
			c0.2-0.1,0.1-0.3,0-0.4c-0.2-0.1-0.6-0.2-0.7-0.6c0.2-0.3,0.7-0.4,0.9-0.8c-0.3-0.2-0.8-0.2-1-0.4c-0.1-0.1-0.1-0.1-0.1-0.2
			c0.2-0.4,0.8-0.4,1.1-0.8c-0.6-0.6-1.3,0.1-1.9-0.3c-0.2-0.4,0.2-0.8,0.2-1.2c0-0.4-0.1-1-0.6-1c-0.6,0-0.6,0.6-0.7,0.9
			c0,0.4,0.3,0.8,0.4,1.1c-0.1,0.6-0.4,0.3-0.8,0.2c-0.4-0.1-0.8-0.3-1.2,0c0.1,0.4,0.7,0.4,0.9,0.8c0,0.1,0,0.2,0,0.2
			c-0.3,0.2-0.7,0.2-1,0.4c0.1,0.3,0.6,0.4,0.6,0.8s-0.3,0.4-0.4,0.7c0.2,0.8,0.9,0.8,1.5,0.8c0.2,0,0.6-0.1,0.6,0.2
			c0,0.3-0.3,0.4-0.6,0.6s-0.6,0.1-0.9,0.1C29.9,67.9,28.7,68.4,27.6,67.8z"/>
		<path class="st5" d="M29.6,22.8c0.3-1.2,0.6-2.1,1-2.9c0.2-0.6,0-0.9-0.3-1.2c-0.8-0.6-1.5-1.1-2.3-1.9c1,0,1.9,0,2.9,0
			c0.7,0,0.9-0.2,1-0.8c0.2-0.9,0.6-1.7,0.9-2.8c0.4,1.2,0.8,2,1,2.9c0.1,0.6,0.4,0.7,0.9,0.7c1,0,1.9,0,3.1,0
			c-0.7,0.8-1.4,1.2-2.1,1.7C35,19,34.6,19.3,35,20.1c0.3,0.8,0.6,1.5,0.8,2.5c-1-0.3-1.7-1-2.3-1.5c-0.6-0.4-0.9-0.3-1.4,0
			C31.2,21.6,30.6,22.2,29.6,22.8z"/>
		<path class="st6" d="M12.1,20.1c4.4-4.7,11.4-6.3,16.7-1.4c-2.9-0.4-5.7-0.6-8.6-0.2C17.5,18.6,14.7,19.2,12.1,20.1z"/>
		<path class="st6" d="M53.2,20.2c-5.6-1.8-11-2.5-16.6-1.5C41.5,13.8,48.6,15.2,53.2,20.2z"/>
		<path class="st6" d="M57.9,52.6c0.2,0,0.1,0.2,0.2,0.3c1.2,0.9,0.6,1.9,0,2.8c-2.1,3.6-4.6,6.8-8.6,8.8c-0.2,0.1-0.4,0.3-0.8,0.2
			c0-1.8,1.4-2.6,2.4-3.7c2.3-2.5,4.3-5.2,6.3-7.9C57.6,52.9,57.8,52.7,57.9,52.6z"/>
		<path class="st6" d="M29.8,70.2c-2,0.1-3.9,0-5.7-0.6c-0.3-0.1-0.7-0.1-0.3-0.6c0.2-0.4-0.2-0.2-0.4-0.3c-1.1-0.2-2.1-0.3-3.2-0.7
			c-0.2-0.1-1.1,0.1-0.7-0.8c0.1-0.2-0.7-0.4-1-0.7c-0.6-0.3-0.6-0.3-0.7-1.1c0-0.2-0.3-0.3-0.4-0.6c-0.4-0.4-0.8-1-0.6-1.8
			c1.4,0.9,2.9,1.7,4.3,2.4c0,0.4-0.6,0.3-0.7,0.9c1.5-0.7,2.9,0,4.3,0.4c-0.1,0.4-0.6,0.3-0.8,0.7c0.7,0.2,1.3-0.1,1.9-0.2
			c0.3-0.1,0.8-0.2,0.9,0C27.3,68.9,28.8,69.3,29.8,70.2z"/>
		<path class="st6" d="M30,19.5c-0.9,1.5-2.3,2.3-4.1,2.4c-1.2,0.1-2.4,0-3.7,0c-1.3,0-2.8-0.1-4.2,0.6C20.4,18.7,24.6,18.1,30,19.5
			z"/>
		<path class="st6" d="M43.9,65.7c1.7-0.8,3.2-1.7,4.7-2.8c-0.1,0.8-0.4,1.3-0.7,1.9c-0.1,0.3-1.2,0.4-0.3,1.1
			c-0.2,0.1-0.4,0.3-0.6,0.4c-0.4,0.6-1.7,0.2-1.4,1.4c0,0-0.4,0.2-0.7,0.3c-1.2,0.3-2.4,0.6-3.7,0.7c0.4,0.6,0.2,0.7-0.3,0.9
			c-1.8,0.4-3.4,0.7-5.4,0.6c0.8-0.6,1.8-1,2.2-1.7c0.8-1.1,1.7-1.5,2.9-0.9c0.1,0.1,0.3,0,0.6,0c0-0.2-0.2-0.2-0.3-0.3
			c-0.1-0.1-0.2-0.1-0.6-0.3c1.5-0.4,2.8-1.1,4.2-0.4C44.6,66.1,44,66.2,43.9,65.7z"/>
		<path class="st6" d="M47,22.4c-2.4-0.8-4.8-0.3-7.2-0.4c-2,0-3.4-0.8-4.5-2.4C40.3,18.1,44.7,18.7,47,22.4z"/>
		<path class="st6" d="M46,62.7c2.6-4,6.9-6.5,8.7-11.1c0.2,0.8,0.1,1.7,0.9,2.1c0.3,0.2,0,0.4-0.1,0.7c-1.9,3.1-4.1,5.8-7.3,7.7
			C47.6,62.3,46.8,62.4,46,62.7z"/>
		<path class="st6" d="M19.3,14.8c3.9-2.2,9.8-2.3,11.6,1.7c-1.8-0.2-3.4,0.2-5.2-0.6C23.8,15,21.7,14.6,19.3,14.8z"/>
		<path class="st6" d="M34.4,16.4c1.9-3.9,7.2-3.9,11.3-1.7c-1.5,0-2.9,0.1-4.1,0.4c-0.6,0.1-1,0.2-1.5,0.4
			C37.5,16.5,37.4,16.7,34.4,16.4z"/>
		<path class="st7" d="M17.6,42c0.2,0.6,0.6,1.2,0,1.8c-0.1,0.1-0.3,0.2-0.1,0.2c0.3,0.1,0.7,0.2,0.7,0.6c-0.1,0.4-0.6,0.6-0.9,0.8
			c-0.1,0-0.1,0.1-0.3,0.1c1.2,0.2,1.9,0.9,2.3,2.1c0.4,1,0.2,1.4-0.7,1.8c-0.3,0.1-0.6,0.4-0.3,0.8c0.1,0.2,0.6,0.2,0.8,0
			c1-1,1.7-0.6,2.3,0.4c0.4,0.7,1,1.1,1.5,1.7c0.1,0.2,0,0.2-0.1,0.3c-0.6-0.2-0.6,0.2-0.7,0.6H22c-0.4,0.1-0.6-0.8-1-0.3
			c-0.3,0.4,0.3,0.6,0.4,0.9c0,0.1,0,0.1,0,0.2c-1.3-0.4-1.4-0.9-0.6-1.8c0.1-0.1,0.2-0.2,0.3-0.3c0.2-0.2,0.1-0.3,0-0.6
			c-0.2-0.3-0.3-0.1-0.6,0c-0.3,0.3-0.7,0.6-1,0.9c-0.2,0.2-0.3,0.1-0.6-0.1c-0.1-0.2,0-0.3,0.1-0.4c0.3-0.3,0.7-0.6,0.9-0.9
			c0.1-0.1,0.4-0.2,0.1-0.4c-0.2-0.2-0.3-0.2-0.6,0c-0.1,0.1-0.2,0.1-0.3,0.1c-0.7,0.6-1.3,0.6-1.8-0.1c-0.4-0.6-0.1-1,0.8-1.8
			c-0.4-0.1-0.8-0.2-0.9-0.6c-0.1-0.4-0.4-0.2-0.7-0.2c-0.4,0.1-0.8,0-0.3-0.4c0-0.1,0.2-0.1,0.1-0.2c-0.1,0-0.2,0-0.3,0
			c-0.3-0.2-0.8-0.3,0-0.7c0.2-0.1,0.7,0,0.9-0.4c0,0.1,0-0.2,0.1-0.1c0.1,0.1,0.2,0,0.1,0c-0.2-0.1-0.6,0-0.8-0.1
			c-0.2-0.1-0.7,0.1-0.8-0.1c-0.2-0.6,0.7-0.4,0.8-0.9c-0.3-0.4-1,0.3-1.1-0.3c-0.1-0.6,0.8,0.1,0.7-0.7c-0.4-0.1-0.8-0.4-0.9-1
			c-0.2-0.7,0.4-1,0.7-1.4l0.1-0.1c0.4-0.2,1-0.1,1.4,0.1C17.5,41.7,17.6,41.9,17.6,42z"/>
		<path class="st6" d="M21.3,64.6c-0.4,0.1,0.3,0.9-0.4,0.4c-1.3-0.6-2.4-1.3-3.5-2.2c0.6,0.1,1.1,0.2,1.8,0.3c0.3,0,1,0.8,1.1-0.2
			c0,0,0.4-0.1,0.7,0c0.9,0.2,1.8,0.3,2.6,0.8c0.1,0.1,0.7,0.7,0.7-0.2c0-0.2,0.2-0.1,0.3-0.1c0.2,0,0.3,0.1,0.6,0.1
			c2.2,0.6,2.2,0.6,2,2.8c0,0.2,0.1,0.4-0.1,0.6c-0.3,0.1-0.4,0-0.7-0.2c-0.6-0.6-1.2-1-2.2-1.5c0.3,0.6,0.6,1,0.8,1.4
			C23.3,66.3,22.1,65.7,21.3,64.6z"/>
		<path class="st6" d="M43.8,64.6c-0.9,1-2,1.8-3.4,1.9c0.2-0.4,0.4-0.8,0.7-1.2c-0.8,0.1-1.2,0.8-1.7,1.2c-0.2,0.1-0.3,0.4-0.6,0.3
			c-0.3-0.1-0.1-0.4-0.2-0.7c0-0.2,0-0.3,0-0.6c0-1.8,0.6-2.6,2.1-2.2c1.4,0.4,2.2-0.7,3.4-0.6c0.3,0,0.9-0.4,1,0.4
			c0,0.3,0.4,0.1,0.7,0c0.8-0.2,1.5-0.4,2.3-0.7c-1.1,1-2.4,1.8-3.9,2.4C43.5,65.5,44.1,64.7,43.8,64.6z"/>
		<path class="st6" d="M46.5,56.7c-0.1,0.8-0.1,1.5-0.7,2.2c-0.1,0.2-0.6,0.6,0,0.9c0.2,0.1,0,0.3-0.1,0.3c-0.3,0.2-0.8,0.6-1.1,0.8
			c-0.2,0.1-1,0.1-0.3,0.7c0,0,0,0.2-0.1,0.2c-0.8,0.6-1.8,1.2-2.5,1.1c-0.9-0.1-1.5,0.1-2.3,0.2c-0.2,0-0.6,0.3-0.8,0
			c-0.2-0.3-0.2-0.8,0-1.1c0.1-0.3,0.4-0.4,0.8-0.3c0.7,0.2,1.2,0,2.1,0.1c-0.4-0.4-0.9-0.4-1.3-0.6c1.2-1.1,2.6-1.5,4.1-1.7
			c0-0.4-0.2-0.3-0.3-0.3s-0.2,0-0.6-0.1C44.6,58.4,45.5,57.6,46.5,56.7z"/>
		<path class="st8" d="M54.6,27.3c-1.4-0.8-2.5-1.7-3.4-2.9c-0.9-1.2-1.7-2.5-2.5-3.7c-0.3-0.3-0.4-0.8-0.2-1.1
			c0.2-0.4,0.7,0,0.9,0.1c1.1,0.1,1.7,1.1,2.3,1.9c1.2,1.4,2.2,3,3,4.8C54.7,26.7,54.7,26.7,54.6,27.3z"/>
		<path class="st9" d="M33.5,67.8c1.4,0,2.9,0,4.3,0c-1.3,1.2-2.9,2.1-4.5,2.9c-0.3,0.1-0.7,0.3-1,0.1c-1.8-0.8-3.4-1.7-4.7-3.1
			c1.3,0,2.5-0.2,3.9,0.1C31.3,68,31,68,31,68c1.2,0.2,2.6,0.1,4,0C34.5,68,33.9,68.5,33.5,67.8z"/>
		<path class="st8" d="M53.5,35.5c0.7,0.3,1.2,1.1,2,0.2c0.6,2.8,0.3,5.4-0.2,8c0,0.2,0,0.6-0.3,0.6c-0.3,0-0.3-0.3-0.4-0.6
			C53.6,41,53.2,38.3,53.5,35.5z"/>
		<path class="st8" d="M60.2,44.1c0.4,0.8,0.9,1.3,1.7,0.3c0.1,2.2-1.7,7-3,8.5C58.2,51.4,58.9,46.5,60.2,44.1z"/>
		<path class="st8" d="M61.2,44.4c-1.2-2.9-1.8-5.8-1.4-9c1.2,1,1.3,1,2,0.1C62,38.6,62.2,41.4,61.2,44.4z"/>
		<path class="st8" d="M51.6,52.1c0.2,0.8,0.2,1.5,1.3,1.5c-1.7,2.4-3.5,4.6-6.1,6.1C47.6,56.6,49.4,54.3,51.6,52.1z"/>
		<path class="st8" d="M58.1,44.7c-1.4-3.2-1.7-6.2-1.4-9.2c0.6,0.2,1,1.3,1.8,0.3c0.1,0.1,0.2,0.2,0.2,0.3
			C59.1,38.9,59,41.6,58.1,44.7z"/>
		<path class="st8" d="M55.7,44.6c-0.3,3.1-1.3,5.8-3.1,8.3c-0.4-3.1,0.1-5.9,1.3-8.9C54.2,44.7,54.7,45.2,55.7,44.6z"/>
		<path class="st8" d="M52.3,27c1.4,2.6,2.5,5.5,2.4,8.8c-2-2.3-3.3-4.8-4.1-7.5c-0.1-0.3,0-0.8,0.4-0.6C52,28.2,52.1,27.7,52.3,27z
			"/>
		<path class="st8" d="M55.7,52.9c-0.3-3.1,0.1-5.9,1.3-8.8c0.4,0.6,0.8,1.4,1.8,0.4C58.4,47.7,57.4,50.3,55.7,52.9z"/>
		<path class="st8" d="M56.7,27.4c0.9,0.4,1.7,0.9,1.9-0.6c1.4,2.8,2.3,5.5,2.3,8.5C58.7,33.3,57.5,30.5,56.7,27.4z"/>
		<path class="st8" d="M57.8,35.7c-2.1-2.5-3.4-5.2-4.2-8.1c1.4,0.6,1.5,0.6,1.9-0.4C56.8,29,58,33.2,57.8,35.7z"/>
		<path class="st6" d="M14.3,56.7c0.9,1,1.8,1.9,2.6,2.8c-0.1,0-0.3,0.1-0.8,0.1c0.2,0.1,0.4,0.3,0.6,0.2c1.5-0.1,2.2,0.9,2.6,2.1
			c0.1,0.2,0.3,0.3,0.1,0.6c-0.1,0.2-0.3,0.1-0.6,0.1c-1-0.1-1.9-0.6-3-0.1c0.4-0.6,0.7-0.8-0.1-1.1c-0.8-0.2-1.7-1-1.5-1.7
			C14.6,58.7,13.8,57.8,14.3,56.7z"/>
		<path class="st8" d="M51.4,20.2c2,0.6,3.6,1.1,4.5,2.9c0.6,1,1.2,2,1.8,3.1c0.1,0.3,0.6,0.8,0.2,1.1c-0.3,0.2-0.7-0.2-1-0.4
			c-1.2-1-2.4-2-3.2-3.4C53,22.4,52.3,21.4,51.4,20.2z"/>
		<path class="st6" d="M26.9,63c-0.9,0-1.5-0.4-2.1-1c-0.3-0.2-0.3-0.2-0.6,0.1c-0.1,0.2-0.2,0.1-0.3,0c-1.4-0.7-2.9-1.3-4.3-2.4
			c0.8,0.1,1.3,0,1.9,0.1c0.4,0.1,1,0.8,1.4-0.2c0.2-0.4,3.6,0.2,3.9,0.8C27.2,61.1,26.8,62,26.9,63z"/>
		<path class="st6" d="M12.6,63.2c0.3-0.1,0.6-0.1,0.9-0.2c-1.9-1-2-2.9-2.1-4.8c1.2,1.1,2,2.3,3.1,3.1c-0.2,0.4-0.7,0.1-0.9,0.4
			c2.4,0.1,2.3,2.2,3.1,3.9C15.3,64.7,14,64.3,12.6,63.2z"/>
		<path class="st10" d="M45.2,19.6c0.7-0.6,1.2-0.1,1.7,0.2c2.3,2,3.9,4.5,4.8,7.5c-1.9-0.9-3.3-2.3-4.6-3.9c0.1,0,0.2-0.1,0.2-0.1
			c0.4,0,0.7,0.9,1.1,0.4c0.3-0.3-0.2-0.9-0.6-1.2C47.2,21.4,46.2,20.6,45.2,19.6z"/>
		<path class="st6" d="M45.9,56.4c-0.6,0.9-1.3,1.2-1.9,1.8c-0.4,0.4-0.8,0.4-0.9-0.8c-0.6,1.7-1.4,2.6-2.8,3
			c-0.2-0.4,0.3-0.7,0.2-1.1c-0.9,0.4-1,1.5-2,2c0-0.7,0-1.3,0-1.9c0-0.3,0.1-0.4,0.4-0.6c2-0.6,3.6-2,5.6-2.5
			C45,56.4,45.4,56.3,45.9,56.4z"/>
		<path class="st7" d="M13.7,20.2c2.4-0.9,5-1.1,7.5-1.3c-1.7,0.9-3,2.2-4.1,3.6c-0.1,0.2-0.2,0.3-0.4,0.3c-0.2,0-0.2-0.2-0.2-0.3
			c0.1-0.8-0.4-1.1-1-1.3C14.9,20.8,14.4,20.5,13.7,20.2z"/>
		<path class="st7" d="M17.4,34c0.4,0.1,0.9,0.3,1.2,0.6c0.2,0.1,0.6,0.1,0.3,0.6c-0.1,0.3-0.3,0.6-0.7,0.4
			c-0.3-0.1-0.7-0.2-1.1-0.1c0.2,0.2,0.4,0.6,0.8,0.7c1,0.4,0.1,1,0.2,1.5c0,0.3-0.6,0.1-0.9,0.1c-0.4-0.1-1.2-0.6-1.3,0.2
			c-0.1,0.6,0.7,0.7,1.2,0.7c0.3,0,0.6,0.1,0.8,0.3c-0.8,0.7-1.4,0.1-2.1-0.1c-0.4-0.1-0.6-0.7-0.4-1.1c0.1-0.8,0.8-0.9,1.4-0.9
			c-0.4-0.3-1.2-0.1-1-0.8c0.2-0.4,0.9,0.3,1.3,0.1c-0.2-0.4-1.2-0.6-0.9-1.1c0.2-0.4,1,0,1.5-0.2c-0.3-0.1-0.7-0.2-0.9-0.4
			c-0.1-0.1-0.4,0-0.3-0.3c0.1-0.2,0.3-0.3,0.6-0.2C17.3,33.8,17.4,34,17.4,34z"/>
		<path class="st6" d="M19.6,58.1c1,0.4,2.2-0.3,2.8,1c-1.2,0.1-2.4,0.1-3.5-0.4c-1.3-0.8-1.1-2.4-1.4-3.7c1.1,0.8,2,1.9,3.1,2.6
			C20.3,58.1,19.9,57.9,19.6,58.1z"/>
		<path class="st6" d="M26.9,59.6c-2-0.9-4.4,0-5.6-2.4c-0.1-0.2-0.4-0.8-0.9-0.2c0,0-0.3-0.1-0.4-0.2c-0.7-0.7-1.4-1.3-2.2-2.1
			c1.2-0.2,1.9,0.7,2.5,1.2c1.8,1.3,3.5,2.6,5.7,3.2c0.2,0.1,0.4,0.2,0.7,0.3C26.8,59.1,26.8,59.2,26.9,59.6z"/>
		<path class="st7" d="M41.6,54.6c0,1.5-0.6,2-2,1.5c-0.7,1.8-1.2-0.2-1.9,0.1c-0.2,0.3,0.7,0.9-0.1,1.3c-0.3-0.7-0.6-1.3-0.8-2.1
			c-0.1-0.1-0.1-0.2,0-0.4c0.8-0.2,1.1,0.4,1.7,0.8c0.2-0.2-0.2-0.4-0.1-0.7c0.1-0.2-0.3-0.4,0-0.7c0.4-0.2,0.3,0.1,0.4,0.3
			c0.1,0.2,0.1,0,0.2-0.1c0.3-1,1.1-1.1,1.9-1C41.4,54,41.7,54.1,41.6,54.6z"/>
		<path class="st7" d="M46.4,50.3c0.3,0.9,0,1.7-1,1.8c-0.6,0-0.7,0.2-0.7,0.8c0,0.9-0.7,1.2-1.5,1.1c-0.1,0-0.1-0.1-0.2-0.2
			c-0.6-0.3-1-0.8-0.8-1.5c0.2-0.8,0.9-1,1.8-0.8c-0.3-1.1,0.2-1.7,0.9-2.2c0.1,0.1,0.1,0.1,0.1,0.2c0,0.3-0.1,0.6-0.2,0.8
			c-0.1,0.4-0.1,0.8,0.4,0.9c-0.4-0.7-0.4-1.1,0.3-1.3C46,49.9,46.3,49.9,46.4,50.3z"/>
		<path class="st11" d="M48.3,43.4c0.3,0.4,0.1,1.3,1,1.3c0,0,0.1,0.2,0.1,0.3c-0.1,0.2-0.2,0.2-0.4,0.1c-0.3-0.2-0.7-0.1-1.1-0.1
			c0.1,0.1,0.2,0.2,0.2,0.2c0.3,0.2,1,0,1,0.6c0,0.7-0.7,0.4-1.1,0.4c-0.2,0-0.4,0.2-0.7,0.2c0.4,0.3,1.3,0.2,1.2,0.7
			c-0.1,0.7-0.9-0.2-1.3,0.1c-0.6,0.2-0.7-0.2-0.9-0.6c-0.4-0.4-0.1-0.7,0.2-0.8c0.4-0.1,0.9-0.3,1.4-0.2c-0.4-0.4-1.4-0.3-1.3-0.8
			c0.2-0.7-0.1-1.7,0.8-2.1c0.3-0.2,0.1,0.9,0.6,0.2C48.2,43.3,48.3,43.3,48.3,43.4z"/>
		<path class="st7" d="M16.2,26.4c-0.1,0-0.2,0-0.3,0c-0.4-0.2-1.1,0-1.3-0.6c-0.2-0.7,0.3-1,0.7-1.4l0.1-0.1
			c0.4-0.3,0.8-1.2,1.5-0.9c0.7,0.2,0.3,1,0.3,1.5C17.4,26.3,17.3,26.4,16.2,26.4z"/>
		<path class="st7" d="M9.8,48.8c0.2-0.3,0.2-1,1-0.6c0.2,0.1,0.6,0.2,0.8,0.2c1.3,0.4,1.5,0.8,0.7,2c-0.2,0.3-0.4,1.1-1,1
			s-0.9-0.7-1-1.3C10.2,49.8,10,49.3,9.8,48.8z"/>
		<path class="st7" d="M12.7,53.2c-0.3-0.1-0.8,0.2-1-0.2s0-0.9,0.3-1.2c0.3-0.3,0.7-0.8,0.8-1.2c0.1-0.4,0.4-0.3,0.8-0.3
			c0.3,0,0.6,0.2,0.6,0.4c0,0.6,0.2,0.9,0.4,1.3c0.2,0.6-0.1,0.8-0.7,1C13.5,53.1,13.2,53.1,12.7,53.2z"/>
		<path class="st7" d="M8.9,39.1c0.8,0.6,1.4,1,2.1,1.4c0.1,0.1,0.1,0.3,0,0.4c-0.2,0.2-0.3,0.6-0.6,0.8c-0.4,0.4-0.9,1-1.4,0.9
			c-0.7-0.2-0.4-1-0.4-1.5c0-0.3-0.1-0.7-0.2-1C8.1,39.4,8.7,39.4,8.9,39.1z"/>
		<path class="st7" d="M10.9,34c-1,0.1-1-0.6-0.9-1c0.2-0.7,0.6-1.2,0.9-1.9c0.3-0.6,0.8-0.4,1.1,0c0.1,0.2,0.2,0.4,0.2,0.7
			c0.8,1.7,0.8,1.7-1,2.1C11.1,33.9,10.9,34,10.9,34z"/>
		<path class="st7" d="M14.4,24.6c-1.3-0.8-0.8-2.1-1.2-3c-0.1-0.2,0.3-0.7,0.6-0.6c0.8,0.1,1.5,0.6,2.1,1.1c0.4,0.4,0,1-0.3,1.4
			C15.1,23.8,14.7,24.2,14.4,24.6z"/>
		<path class="st7" d="M10.4,30.6c0,0.1,0,0.2,0,0.3c-0.2,0.6-0.3,1.4-1,1.5c-0.7,0.1-1-0.6-1.2-1.2C8.2,31.2,8,31,8,30.8
			c-0.1-0.3-0.7-0.7-0.3-1.1c0.3-0.4,0.8-0.3,1.2-0.1c0.2,0.1,0.4,0.1,0.7,0C10.3,29.5,10.5,30,10.4,30.6z"/>
		<path class="st4" d="M8.9,44.4C9,43,10.4,42.8,11.1,42c0.1-0.1,0.7,0,0.8,0.4c0,0.2,0,0.4,0,0.8c0,1.9-0.2,2.1-2.1,1.4
			C9.6,44.6,9.2,44.5,8.9,44.4z"/>
		<path class="st4" d="M7.9,41c-0.1,0.2,0.2,0.7-0.2,0.9C7.4,42,7,41.7,6.8,41.5c-0.6-0.3-1-0.9-1.7-1.1c-0.2-0.1-0.4-0.2-0.3-0.4
			c0-0.2,0.1-0.3,0.4-0.4c0.2,0,0.3-0.1,0.6-0.2C7.5,38.8,7.9,39.1,7.9,41z"/>
		<path class="st7" d="M10.2,29c-0.2,0-0.3-0.1-0.4-0.3c-0.1-0.3-0.3-0.6-0.6-0.8C8.5,27,8.6,26.6,9.7,26c0.2-0.1,0.4-0.1,0.6-0.2
			c0.3-0.1,0.8-0.4,1,0c0.2,0.3,0.1,0.8-0.1,1.1c-0.3,0.4-0.6,1-0.6,1.7C10.7,28.9,10.5,29,10.2,29z"/>
		<path class="st11" d="M8.1,47.6c-0.1,0.2,0,0.6-0.4,0.6C7,48,6.4,47.9,5.8,47.7c-0.6-0.2-0.6-0.6-0.3-1.1c0.2-0.7,0.4-1.5,1-1.7
			c0.8-0.1,0.8,0.9,1,1.4C7.7,46.7,7.9,47.1,8.1,47.6z"/>
		<path class="st7" d="M12.5,29.9c-0.4-0.1-1.1,0.3-1.3-0.6s0.2-1.7,0.6-2.3c0.2-0.3,0.8,0,1,0.3c0.3,0.6,0.6,1,0.9,1.5
			c0.1,0.2,0.6,0.3,0.3,0.7c-0.2,0.3-0.6,0.2-0.9,0.2C13,29.9,12.7,29.9,12.5,29.9z"/>
		<path class="st7" d="M6.8,33.5c0,0.3,0,0.6-0.3,0.7c-0.6,0.3-1.2,0.8-1.7,1.3c-0.4,0.4-0.7,0.2-0.8-0.2c-0.1-0.6,0-1.2-0.2-1.9
			c-0.1-0.3,0.3-0.4,0.7-0.6c0.8-0.2,1.4,0.1,2.1,0.2C6.8,33.2,6.9,33.3,6.8,33.5z"/>
		<path class="st7" d="M7.9,36.6c0.1-0.3-0.2-0.8,0.3-1c0.4-0.2,0.9,0.1,1.2,0.4c0.3,0.3,0.7,0.8,1.2,1c0.2,0.1,0.4,0.2,0.3,0.6
			c0,0.3-0.3,0.3-0.6,0.4c-0.1,0.1-0.4,0-0.7,0.1C8.1,38.4,7.8,38.2,7.9,36.6z"/>
		<path class="st7" d="M11.6,24.2c-0.7,1.1-2.1,1-3.1,1.5c-0.3,0.2-0.3-0.3-0.3-0.7c0.1-0.6,0.2-1.1,0.4-1.7c0.1-0.4,0.6-0.4,1-0.3
			C10.3,23.4,11,23.7,11.6,24.2z"/>
		<path class="st7" d="M4.7,46.8c-0.4,0-0.6-0.2-0.7-0.4c-0.1-0.2-0.2-0.4-0.4-0.7c-0.8-1.2-0.4-1.8,1-2c0.4-0.1,0.9-0.6,1.2,0
			c0.3,0.4-0.1,0.9-0.3,1.3c-0.3,0.4-0.6,0.9-0.7,1.5C4.8,46.6,4.8,46.8,4.7,46.8z"/>
		<path class="st7" d="M8.9,54c-0.3,0.8-0.4,1.7-0.4,2.4c0,0.4-0.3,0.4-0.7,0.1c-0.4-0.4-0.8-0.9-1.3-1.1c-0.3-0.1-0.3-0.4-0.1-0.7
			c0.4-0.9,1.2-1.1,2-1.4C8.6,53.2,8.9,53.6,8.9,54z"/>
		<path class="st4" d="M13,23.1c0,0.8-0.4,0.8-1,0.6c-0.7-0.3-1.2-0.9-2-1.1c-0.4-0.1-0.4-0.6,0-0.8c0.6-0.3,1.1-0.4,1.5-0.8
			c0.3-0.2,0.6,0.1,0.8,0.3C12.7,21.8,12.9,22.5,13,23.1z"/>
		<path class="st7" d="M8.5,48.5c0.8,0.4,1.1,1.1,1.3,1.9C10,51,9.7,51.4,9,51.2c-0.7-0.2-1.3-0.6-2.1-0.7c-0.7-0.2-0.7-0.6-0.1-0.9
			C7.5,49.3,7.8,48.7,8.5,48.5z"/>
		<path class="st7" d="M7.1,32.6c-0.7-0.1-1.3-0.3-2-0.4c-0.2,0-0.6,0.1-0.7-0.1c-0.1-0.3,0.1-0.6,0.3-0.7c0.2-0.2,0.3-0.3,0.6-0.6
			c0.3-0.3,0.6-1.1,1.2-0.7c0.8,0.4,1.1,1.3,1.4,2.1C8,32.3,7.5,32.8,7.1,32.6z"/>
		<path class="st7" d="M9.1,55.9c0-0.7-0.1-1.5,0.4-1.7c0.6-0.2,0.9,0.6,1.3,1c0.1,0.1,0.2,0.2,0.2,0.3c0.1,0.6,1.3,0.6,0.8,1.1
			s-1.5,0.6-2.3,0.4C8.9,56.9,9.2,56.3,9.1,55.9z"/>
		<path class="st7" d="M13,34.8c-0.3,0.6-0.6,1.3-0.9,1.9c-0.2,0.3-0.8,0.1-1.2-0.1c-0.6-0.3-1.3-0.8-1.3-1.4c0-0.7,1-0.3,1.4-0.6
			c0.4-0.2,0.9,0,1.3-0.3C12.5,34.2,12.9,34.3,13,34.8z"/>
		<path class="st7" d="M8.6,44.8c0.8,0.3,1.7,0.6,2.4,0.8c0.4,0.1,0.2,0.4,0,0.8c-0.4,0.3-0.9,0.8-1.3,1.1c-0.3,0.3-0.4,0.1-0.7,0
			c-0.7-0.6-1-1.2-1.1-2C7.7,44.8,8.2,45,8.6,44.8z"/>
		<path class="st7" d="M4.3,40.9c0.9-0.1,1.4,0.7,2,1.1c0.2,0.2-0.1,0.7-0.4,0.8c-0.8,0.3-1.7,0.3-2.4,0.7C3.1,43.6,2.8,43.3,3,43
			c0.2-0.7,0.4-1.2,0.7-1.9C3.7,40.8,4.1,40.9,4.3,40.9z"/>
		<path class="st7" d="M6.8,34.7c0.4,0.2,0.8,0.6,0.6,1.1c-0.2,0.7-0.2,1.2,0,1.9c0.1,0.2,0,0.4-0.2,0.7c-0.3,0.2-0.4-0.1-0.6-0.2
			c-0.2-0.2-0.4-0.4-0.7-0.6c-1.1-0.7-1.1-1.3-0.1-2.1C6.1,35.1,6.5,34.9,6.8,34.7z"/>
		<path class="st7" d="M6.6,51c0.7,0.1,1.3,0.2,1.9,0.7c0.4,0.3,0,0.8-0.2,0.9c-0.7,0.3-1.3,0.8-2,1.2c-0.4,0.3-0.8-0.2-0.7-0.4
			c0.2-0.7,0.1-1.2,0.1-1.9C5.8,51.1,6.1,51.1,6.6,51z"/>
		<path class="st7" d="M10.9,54.3c0.2-0.4,0.7-0.6,1.2-0.6s1.1,0.1,1.7-0.1c0.3-0.1,0.4-0.1,0.7,0.2c0.1,0.2,0.1,0.4-0.1,0.7
			c-0.2,0.2-0.3,0.3-0.4,0.6c-0.8,1.2-1.4,1.2-2.3,0.1C11.3,54.8,11.1,54.6,10.9,54.3z"/>
		<path class="st7" d="M13.3,27.1c0.1-0.3,0.6-0.4,0.9-0.4c0.8,0.1,1.5,0.4,2.3,0.4c0.3,0,0.3,0.3,0.2,0.4c-0.4,0.6-1,1.1-1.5,1.7
			c-0.1,0.1-0.3,0-0.6,0C14.1,28.6,13.6,28,13.3,27.1z"/>
		<path class="st11" d="M35.2,57.9c-1.2,0.8-1.7,0.6-1.9-1c0-0.2,0.2-0.8-0.3-0.8c-0.7,0-0.2,0.6-0.3,0.8c-0.1,0.4,0.2,1.2-0.3,1.2
			c-0.7,0-0.3-0.8-0.3-1.2c0-0.6-0.1-1-0.8-1.1c1.2-0.2,2.5,0,3.6-0.3c0.1,0.1,0.2,0.3,0.1,0.6c0.1,0.2-0.6,0.1-0.2,0.4
			c0.1,0.1,0.1,0.2,0.1,0.3C34.9,57.3,34.9,57.6,35.2,57.9z"/>
		<path class="st7" d="M32.2,11.7c-1.3,0.4-2.2,1.2-2.2,2.6c-0.7-0.6-1.3-0.9-2-1.3C29.1,11.6,30.1,11.3,32.2,11.7z"/>
		<path class="st7" d="M33.1,11.7c1.8-0.7,3.1,0.1,4.2,1.3c-0.8,0.4-1.4,0.9-2.1,1.3C35.3,12.8,34.2,12.2,33.1,11.7z"/>
		<path class="st7" d="M47.5,39.1c-0.6-0.3-0.8-0.7,0-1c0.3-0.1,0.6-0.3,1.1-0.7c-0.7,0-1,0-1.4,0c-0.4,0-0.3-0.3-0.4-0.6
			c-0.2-0.4,0.3-0.3,0.3-0.4c0.6-0.2,1-0.3,1.5-0.4c0.2,0,0.4-0.1,0.4,0.2c0,0.2,0,0.4-0.3,0.4c-0.4,0-0.8,0.3-1.2,0.3
			c0.3,0,0.6,0,0.9,0c0.3,0.1,0.8-0.2,0.9,0.3c0.1,0.4-0.4,0.4-0.7,0.7c-0.1,0.1-0.2,0.1-0.3,0.2c1.2,0.1,1.2,0.1,1.4,0.4
			C49,38.8,48.2,38.8,47.5,39.1L47.5,39.1z"/>
		<path class="st12" d="M19.3,60c1.3,1,2.6,1.7,4,2.3c0.1,0.1,0.4,0.1,0.3,0.4c-0.1,0.3-0.3,0.2-0.6,0.1c-0.7-0.2-1.3-0.3-2-0.4
			C19.9,62.2,19.6,61.3,19.3,60z"/>
		<path class="st13" d="M26.5,56.2c-0.2,0.1-0.4,0.3-0.8,0.3c-0.8,0.1-1.4,0-1.9-0.6c-0.1-0.1,0.9-2.1,1.1-2.1
			c0.7-0.2,1.9,0.7,1.8,1.4C26.7,55.6,26.5,55.8,26.5,56.2L26.5,56.2z"/>
		<path class="st11" d="M25,26c0.1-0.2-0.2-0.7,0.3-0.7c0.3,0,0.6-0.2,0.9,0.1c0.3,0.4,0.8,0.8,1.1,1.1c0.1,0.1,0.4,0.3,0.2,0.6
			c-0.1,0.1-0.3,0.1-0.6,0c-0.4-0.4-0.8-0.2-0.8,0.3c0,0.4-0.2,0.6-0.6,0.6c-0.4,0-0.2-0.4-0.2-0.7C25.2,27,25.1,26.4,25,26z"/>
		<path class="st13" d="M30.2,57c0.1-0.6,0-1.1,0.4-1.5c0.3,0.4,0.2,2.1-0.1,2.4c-0.3,0.2-0.6,0.1-0.7-0.2c-0.1-0.6-0.3-1-0.6-1.5
			c-0.2,0.6,0.1,1.4-0.7,1.5c-0.2,0,0-1,0.1-1.5c0.1-0.3-0.3-0.9,0.3-0.9c0.7-0.1,0.6,0.6,0.7,1C30,56.5,30.2,56.7,30.2,57z"/>
		<path class="st14" d="M13.8,25.3c0,0.8-0.3,1.1-1.1,1.1c-0.7,0-1-0.6-1-1.1s0.3-1.1,1.1-1C13.5,24.4,13.8,24.7,13.8,25.3z"/>
		<path class="st11" d="M17.6,42c-0.1,0-0.2,0-0.3,0c-0.4-0.6-0.9-0.6-1.4-0.2l0,0c-0.2,0-0.6,0.1-0.6,0.1c-0.2-0.8,0.6-0.8,0.8-1.1
			c0-0.3-0.2-0.2-0.3-0.2c-0.2,0-0.4,0-0.4-0.3c0-0.3,0.2-0.2,0.4-0.2c0.4,0,1,0,1.4,0c0.2,0,0.7-0.2,0.7,0.3c0,0.4-0.4,0.2-0.7,0.3
			c-0.1,0-0.2,0-0.3,0C17,41,18.2,41,17.6,42z"/>
		<path class="st15" d="M22.7,52.5c0.1-0.1,0.1-0.1,0.2-0.2c0.4,0.2,0.8,0.4,1.1,0.8c0.3,0.4,0.3,0.9-0.1,1
			c-0.6,0.1-0.4,0.7-0.7,0.9c-0.1,0.1,0.1,0.6-0.2,0.3c-0.3,0-0.6-0.1-0.3-0.4c0.1-0.2,0.4-0.4,0.1-0.7c-0.4-0.3-0.4,0.2-0.6,0.3
			c-0.2,0.2-0.3,0.1-0.6,0c-0.3-0.2,0-0.3,0.1-0.4c0.2-0.3,0.3-0.6,0.6-0.9C22.3,52.9,22.4,52.6,22.7,52.5z"/>
		<path class="st10" d="M8.7,34.9c-0.9,0-1.2-0.3-1.3-1c0-0.7,0.4-1.1,1-1.1c0.7,0,1.1,0.4,1.1,1.1C9.6,34.6,9.1,34.9,8.7,34.9z"/>
		<path class="st16" d="M48.3,43.4c-0.1,0-0.1,0-0.2,0c-0.4,0.1-0.4-0.2-0.7-0.4c-0.4-1.1-0.2-1.8,0.6-1.9c1-0.2,1.7,0.1,1.8,0.9
			C49.9,43,49.5,43.4,48.3,43.4z"/>
		<path class="st10" d="M7.4,44.5c-0.6,0.1-0.9-0.4-0.9-1s0.4-1.1,1-1.1s1.1,0.4,1.1,1.1C8.5,44.2,8.1,44.5,7.4,44.5z"/>
		<path class="st8" d="M10.1,51.6c0.8,0,1.1,0.6,1.1,1c0,0.6-0.4,1.1-1.1,1.1c-0.6,0-1-0.3-1-1C9.1,52.1,9.4,51.6,10.1,51.6z"/>
		<path class="st11" d="M47.5,39.1c0.7,0,1.3,0.3,1.9-0.2c0.1-0.1,0.3-0.1,0.4,0.1c0,0.2,0.1,0.4-0.2,0.4c-0.3,0-0.6,0.2-0.8,0.4
			c0.1,0.2,0.3,0.1,0.6,0.1c0.2,0,0.6,0,0.4,0.3c0,0.3-0.2,0.2-0.4,0.2c-0.3,0-0.6,0-0.9,0C47.2,40.9,46.9,40.4,47.5,39.1L47.5,39.1
			z"/>
		<path class="st13" d="M30.8,23.7c0.8,0.6,0.7,1.1,0.7,1.5c0,0.3,0,0.7,0.4,0.7c0.3,0,0.4-0.3,0.4-0.7c0-0.4,0-0.8,0-1.2
			c0-0.2,0.1-0.3,0.3-0.3c0.2,0,0.3,0.1,0.3,0.3c0,0.4,0,0.9,0,1.3c-0.1,0.7-0.4,1-1.1,1s-0.9-0.4-1-1C30.7,25,30.8,24.5,30.8,23.7z
			"/>
		<path class="st17" d="M28.5,25.3c0.1-0.2,0.1-0.4,0.2-0.6c0.1-0.2,0.1-0.8,0.6-0.7c0.6,0.1,0.1,0.6,0,0.8
			c-0.1,0.3-0.1,0.6,0.1,0.8c0.2,0.2,0.7,0.4,0.7,0.9c-0.8,0.3-0.9-0.6-1.5-0.7c0,0.2,0,0.3,0,0.6c0.1,0.2,0.2,0.3-0.1,0.6
			c-0.6,0.2-0.3-0.2-0.3-0.3c-0.1-0.4-0.3-0.9-0.4-1.4c0-0.2-0.2-0.7,0.2-0.7c0.3-0.1,0.3,0.3,0.4,0.6
			C28.5,25.1,28.5,25.2,28.5,25.3z"/>
		<path class="st18" d="M48.1,33.6c0.3,0.2,0.4,0.4,0.1,0.8c-0.6,0.6-0.2,0.8,0.3,0.9c0.2,0,0.4-0.2,0.4,0.2c0,0.2-0.2,0.2-0.3,0.2
			c-0.6,0.2-1.2,0.2-1.8,0.2c-0.3,0-0.6-0.1-0.6-0.3c-0.1-0.3,0-0.6,0.3-0.8C47.1,34.5,47.6,34,48.1,33.6L48.1,33.6z"/>
		<path class="st11" d="M35,56.2c0-0.2,0-0.4,0-0.7c0.7-0.2,0.4,0.6,0.8,0.8c0.2-0.6,0.3-1.2,1.1-1.2c0,0.1,0,0.2,0,0.4
			c-0.6,0.4-0.8,0.8-0.2,1.4c0.2,0.2,0.8,0.4,0.4,0.8c-0.6,0.6-0.7-0.2-0.9-0.4c-0.1-0.1-0.1-0.2-0.2-0.4c-0.6,0.4,0.1,1-0.3,1.2
			c-0.3,0.2-0.3-0.3-0.6-0.4c-0.3-0.2,0-0.8-0.3-1C34.9,56.4,34.9,56.3,35,56.2z"/>
		<path class="st13" d="M39.2,28.1c-0.2-1-0.3-1.8-1.3-0.9c-0.1,0.1-0.2,0-0.3-0.1c-0.1-0.1,0-0.3,0.1-0.3c0.4-0.6,0.9-1,1.3-1.5
			c0.3-0.3,0.8-0.2,0.8,0.2C39.6,26.2,39.8,27.1,39.2,28.1z"/>
		<path class="st13" d="M31.3,15.9c-1.1-1.5-0.9-2.6,0.9-3.4C32.2,13.7,31.6,14.7,31.3,15.9z"/>
		<path class="st7" d="M33,12.4c1.9,0.9,2.1,1.9,1.1,3.4C33.7,14.7,33.3,13.6,33,12.4z"/>
		<path class="st19" d="M26.5,56.2c0.4-0.2,0.6-0.8,1-1.1c0.2-0.2,0.3-0.3,0.7-0.1c0.2,0.1,0.3,0.3,0.3,0.6
			c-0.1,0.6-0.1,1.1-0.1,1.5c0,0.2,0.1,0.6-0.3,0.4c-0.3,0-0.2-0.2-0.2-0.4c0-0.7-0.4-0.4-0.7-0.3c-0.2,0.1-0.2,0.6-0.7,0.3
			c-0.4-0.3,0.2-0.4,0.2-0.8C26.5,56.3,26.5,56.2,26.5,56.2L26.5,56.2z"/>
		<path class="st20" d="M46.6,32.2c1,0,1.3,0.8,1.5,1.5l0,0c-0.2,0-0.6,0.2-0.7-0.1c-0.1-0.3-0.1-0.7-0.6-0.7
			c-0.3,0.1-0.2,0.4-0.1,0.8c0,0.4-0.2,0.8-0.6,0.9c-0.3,0.1-0.7-0.2-0.9-0.4c-0.1-0.2-0.2-0.6-0.2-0.8l0.1-0.1c1,0.3,0.7-0.7,1.1-1
			C46.4,32.1,46.5,32.1,46.6,32.2z"/>
		<path class="st13" d="M40,28c0.2-0.2,0.4-0.1,0.4,0.1c0.2,0.2,0.4,0.3,0.7,0.2c0.3-0.2,0-0.4-0.1-0.6c-0.2-0.4-0.3-0.8,0.1-1.1
			c0.3-0.3,0.8-0.1,1.1,0.1c0.2,0.1,0.6,0.3,0.3,0.7c-0.3,0.4-0.3-0.2-0.7-0.2c-0.1,0-0.2-0.2-0.4-0.1c0,0.7,1.1,1.5-0.2,1.9
			C40.8,29.1,40.3,28.6,40,28z"/>
		<path class="st20" d="M24,26.6c-0.1,0.1-0.3,0.2-0.4,0.3C23.3,27,23,27,23.2,27.3c0.2,0.3,0.4,0.1,0.6,0c0.1-0.1,0.6-0.1,0.4,0
			c-0.6,0.6-0.2,1.1-0.3,1.7c0,0.3-0.3,0.1-0.4-0.1c-0.3-0.4-0.7-0.9-0.9-1.3c-0.1-0.2-0.4-0.4-0.2-0.8c0.3-0.2,0.7-0.4,1.1-0.7
			C23.6,26.2,23.9,26.4,24,26.6z"/>
		<path class="st21" d="M17.4,34c-0.1-0.1-0.1-0.1-0.2-0.2c-0.4-0.8,0.3-1.1,0.4-1.7c0.6,0.1,0.9,0.6,1.4,0.6c0.3-0.1,0.7,0,0.7,0.4
			c0.1,0.4,0.1,0.8-0.4,0.6c-0.2-0.1-0.4-0.2-0.7-0.3C17.7,32.8,17.6,32.9,17.4,34z"/>
		<path class="st12" d="M15.1,56.5c1.1,0.6,2,0.9,2.4,1.9c0.1,0.2,0.3,0.3,0.4,0.6c0.1,0.2,0.9,0.2,0.6,0.7
			c-0.2,0.3-0.7-0.2-0.8-0.4C16.8,58.4,16,57.5,15.1,56.5z"/>
		<path class="st18" d="M43,53.7c0.1,0.1,0.1,0.1,0.2,0.2c0.6,0.8-0.3,0.8-0.6,1.1c-0.6,0.7-0.7-0.3-1.1-0.4
			c-0.2-0.3-0.4-0.6-0.7-0.9c0.1-0.2-0.4-0.3,0-0.7c0.3-0.2,0.4,0,0.7,0.2c0.1,0.2,0.3,0.4,0.4,0.7C42.6,54.7,42.9,54.6,43,53.7z"/>
		<path class="st11" d="M35.6,24.1c1,0.1,1.5,0.2,2.4,0.7c-1.2,0-1.2,0.8-1.3,1.4c0,0.3-0.1,0.7-0.4,0.6c-0.3-0.1-0.2-0.4-0.1-0.7
			C36.4,25.5,36.5,24.8,35.6,24.1z"/>
		<path class="st7" d="M35.4,26c-0.4,0.8-1.1,0.4-1.5,0.3c-0.4,0-0.2-0.6-0.2-0.8c0-0.4,0.3-0.9,0.2-1.3c0-0.2,0.1-0.4,0.3-0.3
			c0.3,0,0.3,0.2,0.3,0.4c0,0.1,0,0.3-0.1,0.4C34.2,25.6,34.1,26.2,35.4,26z"/>
		<path class="st22" d="M46.4,50.3c-0.2-0.1-0.4-0.2-0.6-0.3c-0.3-0.1-0.7-0.1-0.9-0.4c0-0.1,0-0.2,0-0.2c0-0.4,0.1-0.8,0.7-0.3
			c0.3,0.3,0.8,0.4,1.1,0.8c0.2,0.1,0.7,0.1,0.4,0.7C46.9,50.9,46.6,50.1,46.4,50.3z"/>
		<path class="st23" d="M19.7,33.3c-0.2-0.1-0.4-0.3-0.7-0.4c-0.1-0.4-0.7-0.4-0.8-0.8c-0.1-0.1-0.4,0-0.3-0.3
			c0.1-0.2,0.3-0.3,0.6-0.2c0.6,0.3,1.2,0.7,1.7,1.1S20.1,33.2,19.7,33.3z"/>
		<path class="st24" d="M46.4,46.9c0.3,0.2,0.6,0.4,0.9,0.6c0,0.1,0,0.1,0.1,0.1c0.3,0.2,1.1,0.1,0.9,0.7c-0.2,0.6-0.8-0.1-1.1-0.2
			c-0.3-0.1-0.6-0.2-0.8-0.4C45.5,47.2,45.9,47.1,46.4,46.9z"/>
		<path class="st18" d="M46.6,32.2c-0.1,0-0.2,0-0.3,0c-0.2,0.6-0.8,0.8-1.2,1l0,0c-0.4-0.3-0.6-0.6,0-0.9c0.3-0.2,0.7-0.4,1.1-0.7
			c0.2-0.1,0.3-0.4,0.7-0.2C47.3,31.8,46.6,31.8,46.6,32.2z"/>
		<path class="st13" d="M56.2,44.2c-0.6-1,0-2.1,0-3.1C56.2,42.1,57.3,43.1,56.2,44.2z"/>
		<path class="st15" d="M59.4,43.9c-0.7-0.9-0.2-1.8,0-2.6C59.4,42.2,60.4,43.1,59.4,43.9z"/>
		<path class="st11" d="M13.6,56.5c-0.2,0.4,0,1-0.1,1.4c-0.3-0.3-1.1-0.2-1.1-0.8C12.4,56.5,13.3,56.9,13.6,56.5z"/>
		<path class="st25" d="M46.8,60.5c-0.6,0.7-1.1,1.2-1.8,2C45.1,61.2,45.9,60.7,46.8,60.5z"/>
		<path class="st26" d="M12.3,58.1c0.6,0.3,1.8,0.2,1.2,1.4C12.9,59.2,12.6,58.7,12.3,58.1z"/>
		<path class="st27" d="M22.2,29.4c0.2,0.3,0.2,0.7,0,1c-0.2,0.2-0.4,0.2-0.8,0c-0.2-0.3-0.2-0.6-0.1-0.9
			C21.7,29.2,21.9,28.9,22.2,29.4z"/>
		<path class="st25" d="M57.2,52.3c-0.1-0.8,0.2-1.2,0.6-1.8C58.2,51.4,58.2,51.5,57.2,52.3z"/>
		<path class="st28" d="M35,56.5c0.3,0.2,0.2,0.7,0.2,1c0,0.1,0,0.2,0,0.3h-0.1c-0.6-0.2-0.6-0.6-0.2-1l-0.1-0.2
			C34.9,56.5,34.9,56.5,35,56.5z"/>
		<path class="st29" d="M22.2,29.4c-0.3-0.2-0.6-0.1-0.7,0.2c-0.2,0.1-0.4-0.1-0.6-0.2c-0.1-0.2-0.1-0.4,0.1-0.6
			C21.9,28.5,22.2,28.6,22.2,29.4z"/>
		<path class="st30" d="M21.2,28.8c0,0.2,0,0.4,0,0.7c-0.1,0.1-0.1,0.1-0.2,0.1c-0.1,0-0.2,0-0.3,0c-0.3-0.1-0.7-0.3-0.6-0.8
			C20.4,28.1,20.9,28.4,21.2,28.8z"/>
		<path class="st31" d="M55.3,33.3c0.4,0.8,1,1.2,0.8,2.1C55.7,34.8,55.2,34.3,55.3,33.3z"/>
		<path class="st32" d="M21.5,30.2c0.1,0.3,0.4,0.2,0.7,0.2c-0.3,0.3-0.4,0.9-1.1,0.7c-0.2-0.2-0.3-0.4-0.3-0.7
			C21,30.1,21.3,30.1,21.5,30.2z"/>
		<path class="st33" d="M19.8,30.7c0-0.3,0-0.6,0-0.9c0.2-0.2,0.4-0.4,0.8-0.3c0.1,0.1,0.2,0.2,0.2,0.4c0,0.1,0,0.2,0,0.3
			c0,0.1-0.1,0.2-0.2,0.3C20.2,30.7,20,30.8,19.8,30.7z"/>
		<path class="st27" d="M43.2,30.8c-0.3-0.2-0.4-0.7-0.4-1.1c0.2-0.1,0.4,0.1,0.7-0.1c0.3,0,0.4,0.3,0.4,0.6
			C43.8,30.6,43.7,31,43.2,30.8z"/>
		<path class="st34" d="M22.7,52.5c-0.1,0.2-0.1,0.4-0.3,0.7c-0.1,0-0.1,0-0.2,0c0-0.1,0-0.1,0-0.2c0-0.3-0.8-0.6-0.2-0.9
			C22.2,51.8,22.3,52.4,22.7,52.5z"/>
		<path class="st35" d="M58.3,33.7c0.6,0.4,1.3,0.7,0.8,1.7C58.9,34.8,58.5,34.3,58.3,33.7z"/>
		<path class="st36" d="M43.2,29.9c-0.1,0.3-0.3,0-0.4,0c0-0.3,0.1-0.7,0.4-0.9c0.6-0.2,0.7,0,0.7,0.6
			C43.8,29.9,43.5,29.6,43.2,29.9z"/>
		<path class="st37" d="M43.2,30.8c0.3-0.1,0.4-0.3,0.4-0.7c0.1-0.1,0.3-0.1,0.4-0.1s0.2,0.1,0.2,0.2c0.1,0.2,0.1,0.4,0,0.7
			c-0.3,0.3-0.7,0.2-1,0.1C43.3,31.1,43.3,31,43.2,30.8z"/>
		<path class="st38" d="M20.3,30.5c0.1-0.1,0.2-0.2,0.2-0.2c0.2,0,0.3,0.1,0.4,0.2c0.1,0.2,0.1,0.4,0.2,0.7c-0.3,0.1-0.6,0.4-0.9,0
			C20.2,30.8,20.2,30.7,20.3,30.5z"/>
		<path class="st20" d="M31.9,21.9c0.7-0.6,0.7-0.6,1.7,0C32.9,21.9,32.4,21.9,31.9,21.9z"/>
		<path class="st30" d="M43.9,29.6c0-0.4-0.2-0.6-0.7-0.7c0.1-0.4,0.4-0.4,0.9-0.4c0.3,0.2,0.4,0.4,0.3,0.8
			c-0.1,0.1-0.2,0.2-0.3,0.3C44,29.6,43.9,29.6,43.9,29.6z"/>
		<path class="st39" d="M20.6,29.6c-0.2,0.1-0.6,0.1-0.8,0.2c0-0.4,0.1-0.8,0.4-1.1c0.1,0.3,0.3,0.6,0.7,0.7
			C20.8,29.6,20.8,29.7,20.6,29.6z"/>
		<path class="st40" d="M47.5,43c0.2,0.1,0.4,0.2,0.7,0.4c0,0.2,0,0.3,0,0.6c0,0.2,0,0.4-0.3,0.3c-0.3,0-0.3-0.2-0.3-0.4
			c0-0.2,0-0.4,0-0.7C47.5,43.1,47.5,43.1,47.5,43z"/>
		<path class="st41" d="M44.3,31c0-0.2,0-0.6,0-0.8c0.1-0.2,0.2-0.1,0.3-0.1c0.1,0,0.2,0.1,0.2,0.1c0.3,0.2,0.4,0.4,0,0.7
			c0,0.3-0.1,0.4-0.4,0.4C44.3,31.2,44.4,31.1,44.3,31z"/>
		<path class="st32" d="M45.5,29.5c0,0.2,0.1,0.6-0.2,0.7c-0.2,0.1-0.4,0.1-0.7,0l0,0c-0.1-0.1-0.1-0.2-0.1-0.4c0-0.1,0-0.2,0.1-0.2
			C45,29.3,45.2,29.2,45.5,29.5z"/>
		<path class="st42" d="M44.8,29.6c0,0.1,0,0.1,0,0.2c-0.3,0.1-0.3-0.2-0.3-0.4c0-0.3-0.1-0.6,0.1-0.9c0.2,0,0.3,0.1,0.4,0.2
			C45.4,29.2,45,29.4,44.8,29.6z"/>
		<path class="st43" d="M44.8,29.6c0.1-0.2,0.6-0.4,0.2-0.8c0.7-0.1,0.4,0.6,0.6,0.8C45.3,29.3,45,29.7,44.8,29.6z"/>
		<path class="st44" d="M44.8,30.2c0.2,0,0.4,0,0.7,0c0,0.3,0.2,0.7-0.4,0.7C45.4,30.5,44.7,30.5,44.8,30.2z"/>
		<path class="st45" d="M44.1,18.9c0.3,0,0.7,0,0.7,0.3c-0.1,0.3-0.3,0.1-0.4,0C44.2,19.1,44.2,19,44.1,18.9z"/>
		<path class="st46" d="M44.3,31c0.3,0,0.2,0.2,0.2,0.4c-0.3-0.1-0.8,0.2-1.1-0.2C43.8,31.1,44.1,31.3,44.3,31z"/>
		<path class="st47" d="M16.5,47.2c0.2-0.3,0.6-0.1,0.9-0.4c0,0.6-0.4,0.4-0.7,0.7C16.7,47.4,16.6,47.2,16.5,47.2z"/>
		<path class="st48" d="M16.7,45.9c0.3,0,0.8,0,1.1,0c-0.1,0.2-0.3,0.1-0.6,0.2C17.1,46.1,16.9,46.1,16.7,45.9z"/>
		<path class="st49" d="M20.3,30.5c0,0.2,0,0.4,0,0.7c-0.2-0.1-0.4-0.2-0.7-0.4C20,30.7,20.1,30.6,20.3,30.5z"/>
		<path class="st50" d="M44.6,28.5c0,0.2,0,0.6,0,0.8c0,0.1-0.1,0.1-0.1,0c-0.1-0.3-0.1-0.6-0.2-0.9C44.2,28.5,44.3,28.5,44.6,28.5z
			"/>
		<path class="st51" d="M36.4,40.9c0.4,1.2-0.4,2-0.9,2.6c-0.6,0.9-1.8,1.3-2.8,1.3c-2.2-0.1-4.1-2.2-3.9-4.2
			c0.1-1.3,2.5-3.6,3.5-3.3c1,0.3,2.2,0.1,2.8,1C35.6,39.1,36.4,39.8,36.4,40.9z"/>
		<path class="st3" d="M25.2,47.5c-1.2,0.2-1.9-0.6-2.3-1.5c-0.4-1-0.8-2.1-1.1-3.2c-0.1-0.2-0.3-0.7,0.2-0.8
			c0.4-0.1,0.7,0.1,0.8,0.6c0.3,1,0.6,2,0.9,3c0.2,0.7,0.6,1.1,1.3,1.2c1,0.1,1.4-0.3,1.1-1.2c-0.3-1-0.7-1.9-1.1-2.9
			c-0.1-0.3-0.3-0.7,0.1-0.7c0.3,0,0.8-0.2,1,0.3c0.3,1.2,0.8,2.4,1,3.6C27.3,46.9,26.6,47.5,25.2,47.5z"/>
		<path class="st52" d="M40,47.5c-1.5,0-2.1-0.6-1.7-2c0.2-1,0.7-2.1,0.9-3.1c0.1-0.6,0.4-0.4,0.8-0.4c0.7,0.1,0.2,0.4,0.1,0.7
			c-0.2,0.9-0.4,1.8-0.8,2.6c-0.2,0.6-0.3,1,0.2,1.3c0.6,0.3,1.1,0.1,1.5-0.4c0.7-0.8,0.6-1.8,1-2.6c0.3-0.6-0.1-1.9,1-1.5
			c0.8,0.2,0,1.1-0.2,1.7c-0.2,1-0.4,2.1-1.2,3C41.4,47.1,40.7,47.6,40,47.5z"/>
		<path class="st52" d="M32.4,35.6c-0.2,0-0.4,0-0.7-0.1c-0.3-0.1-1,0-0.8-0.7c0.2-0.6,0.6-0.2,1-0.1c0.6,0.1,1.2,0.1,1.4-0.6
			c0.2-0.7-0.3-0.9-0.8-1.1c-0.6-0.2-1-0.3-1.3-0.8c-0.4-0.7-0.3-1.3,0.2-1.9s2.1-0.7,2.5-0.2c0.2,0.1,0.1,0.3,0.1,0.4
			c-0.1,0.2-0.3,0.4-0.6,0.2c-0.2-0.2-0.6-0.2-0.8-0.1c-0.3,0.1-0.7,0.2-0.7,0.6c-0.1,0.3,0.1,0.6,0.4,0.8c0.2,0.1,0.4,0.2,0.7,0.3
			c1,0.3,1.4,1,1.2,2C34.1,35.4,33.2,35.4,32.4,35.6z"/>
		<path class="st53" d="M29.5,32.9c0,0.3-0.3,0.4-0.6,0.6c-2.5,1.4-4.4,3.3-4.8,6.3c0,0.2,0,0.9-0.4,0.8c-0.4-0.1-0.1-0.6-0.1-0.9
			c0.4-3.3,2.5-5.3,5.3-6.8C29.4,32.5,29.5,32.6,29.5,32.9z"/>
		<path class="st53" d="M41.5,40.5c-0.2-0.1-0.3-0.2-0.3-0.6c-0.6-3.1-2.1-5.4-5-6.7c-0.3-0.1-0.6-0.3-0.3-0.7
			c0.2-0.3,0.4,0,0.7,0.1c3,1.4,4.6,3.9,5.3,6.9C41.8,40.1,41.8,40.4,41.5,40.5z"/>
		<path class="st53" d="M32.7,50.2c-1.4,0-2.6-0.3-4-0.9c-0.2-0.1-0.7-0.1-0.4-0.6c0.1-0.4,0.4-0.2,0.7-0.1c2.5,1.2,5.1,1.2,7.5,0
			c0.2-0.1,0.6-0.3,0.8,0c0.2,0.4-0.3,0.4-0.6,0.6C35.4,49.9,34.1,50.2,32.7,50.2z"/>
		<path class="st54" d="M33.5,67.8c0.6,0.3,1.2,0,2.1,0.3c-2,0.7-3.7,0.7-5.6,0c0.2,0,0.4,0,0.7-0.1c0.2,0,0.4,0,0.8,0
			c0.3-0.1,0.7-0.2,1.1-0.2c-0.9,0-1.7-0.3-2.3-0.8c-0.4-0.2-0.3-0.4,0-0.7c0.6-0.1,1.1-0.2,1.8,0c-0.3-0.1-0.8,0-1.1-0.3
			c-0.3-0.2-0.7-0.6-1-0.8c0.6-0.3,1.1-0.3,1.7-0.4C31.7,65,31.8,65,32,65c0.1,0,0.1,0,0.2,0c-0.1,0-0.1,0-0.2,0
			c-0.1,0-0.3,0-0.4-0.1c0-0.4-0.4-0.2-0.7-0.3c-0.2-0.3-1-0.3-0.8-0.8c0.1-0.3,0.8-0.3,1.2-0.3c0.4,0,0.8,0.6,1.3,0.3
			c0.1-0.3,0.4-0.1,0.7-0.1c0.8-0.1,1.7-0.4,2.4,0.2c-0.3,0.7-1.1,0.7-1.5,1.1c-0.1,0.1-0.3,0.1-0.4,0.1c0.1,0,0.3,0,0.4-0.1
			c0.6,0.1,1.1,0.2,1.8,0.3c-0.6,0.6-1,0.8-1.5,1c-0.2,0.3-0.6,0.2-1.1,0.3c0.7-0.1,1.2-0.2,1.7,0c0.3,0.1,0.7,0,0.8,0.4
			c-0.9,0.4-1.5,1.2-2.8,0.8C33,67.9,33.3,67.7,33.5,67.8z"/>
		<path class="st55" d="M33.1,63.3c-0.2,0.2-0.4,0.1-0.7,0.1c-0.8-0.4-0.9-1.2-0.6-2c0.1-0.3,0.3-0.7,0.8-0.7s0.6,0.3,0.8,0.7
			C33.8,62.1,33.5,62.8,33.1,63.3z"/>
		<path class="st7" d="M30.8,65.8c0.6,0,0.9,0.3,1.5,0.2c0.3-0.1,0.1,0.3,0.1,0.7c-0.7-0.7-1.5-0.3-2.3-0.4
			C30.4,66.1,30.6,66,30.8,65.8z"/>
		<path class="st56" d="M34.8,66.3c-0.7,0-1.3-0.1-1.8,0.4c-0.2-0.6-0.2-0.9,0.4-0.7c0.2,0.1,0.4-0.1,0.7-0.1
			C34.3,66.1,34.5,66.2,34.8,66.3z"/>
		<path class="st53" d="M16.6,42.3c0.3,0,0.8,0,0.8,0.4c0,0.6-0.4,0.7-0.9,0.8c-0.3,0-0.9-0.2-0.8-0.7
			C15.8,42.6,16.2,42.3,16.6,42.3z"/>
		<path class="st32" d="M15.9,41.7C16.7,41,17,41,17.4,42C16.9,41.5,16.4,41.7,15.9,41.7z"/>
		<path class="st57" d="M18.8,47.6c-0.1,0.2-0.3,0.2-0.4,0.3c-0.1,0-0.3-0.1-0.3-0.3s0.2-0.3,0.4-0.3S18.8,47.4,18.8,47.6z"/>
		<path class="st58" d="M40.9,55.2c0,0.3-0.1,0.7-0.4,0.7c-0.4-0.1-0.8-0.4-0.8-1.1c0-0.3,0.2-0.7,0.6-0.6
			C40.7,54.3,40.9,54.7,40.9,55.2z"/>
		<path class="st59" d="M45,49.6c0.3-0.1,0.7,0,0.9,0.4c-0.7,0.6-0.7,0.6,0,0.8c0.3,0.1,0.3,0.3,0.1,0.4c-0.2,0.2-0.4,0.4-0.9,0.2
			c-0.4-0.2-0.4-0.6-0.4-0.9C44.4,50.1,45.1,50,45,49.6z"/>
		<path class="st60" d="M43.3,51.9c0.4,0.2,0.9,0.4,0.9,1c0,0.3-0.3,0.6-0.7,0.4c-0.6-0.1-0.8-0.3-0.8-0.9
			C42.8,52.1,43,51.9,43.3,51.9z"/>
		<path class="st61" d="M35,56.5c-0.1,0-0.1,0-0.2,0c-0.2-0.1-0.8,0.1-0.8-0.1c0.1-0.6,0.7-0.1,1-0.2C35,56.3,35,56.4,35,56.5z"/>
		<path class="st60" d="M25,56.1c-0.1,0-0.6-0.1-0.3-0.3c0.2-0.4,0.2-1.2,0.9-1.2c0.4,0,0.4,0.2,0.6,0.7
			C26.2,55.7,25.7,55.9,25,56.1z"/>
		<path class="st40" d="M23.2,53c0.2,0.1,0.3,0.3,0.3,0.6c0,0.2-0.1,0.3-0.3,0.3s-0.3-0.2-0.3-0.4C23,53.2,23.1,53.1,23.2,53z"/>
		<path class="st60" d="M48.6,42.7c-0.4,0-0.9,0-1-0.6c0-0.6,0.4-0.7,0.8-0.7c0.3,0,0.9,0,0.9,0.7C49.4,42.7,49,42.7,48.6,42.7z"/>
		<path class="st3" d="M48.3,40.1c-0.1,0.2-0.3,0.3-0.4,0.3c-0.2,0-0.1-0.2-0.1-0.3c0-0.2,0.1-0.4,0.3-0.4
			C48.2,39.7,48.3,39.9,48.3,40.1z"/>
		<path class="st3" d="M47.1,35.3c0.1-0.2,0.3-0.4,0.4-0.3c0.2,0.2,0.1,0.3-0.2,0.3C47.3,35.4,47.2,35.4,47.1,35.3z"/>
		<path class="st62" d="M39.2,26.2c-0.1,0.1-0.2,0.2-0.3,0.3c0,0-0.2-0.1-0.2-0.2c0-0.2,0.1-0.3,0.3-0.3C39,26,39.2,26,39.2,26.2z"
			/>
		<path class="st63" d="M27.7,55.5c0.1,0.3,0.3,0.6-0.1,0.8c-0.1,0-0.3,0-0.3-0.1C27.3,55.9,27.6,55.8,27.7,55.5z"/>
		<path class="st64" d="M45.1,33.3c0.2-0.6,0.9-0.7,1.2-1c0,0.6-0.1,1.1-0.1,1.7C45.8,33.8,45.8,32.9,45.1,33.3z"/>
		<path class="st65" d="M21,30.4c-0.1-0.1-0.2-0.1-0.4-0.2v-0.1c0.2-0.2,0.3-0.3,0.4-0.7h0.1c0.1,0.1,0.3,0.1,0.4,0.2
			c0,0.2-0.3,0.3,0,0.6C21.4,30.3,21.1,30.2,21,30.4z"/>
		<path class="st66" d="M21.1,29.4c0.4,0.7-0.1,0.6-0.4,0.7c0-0.1,0-0.3,0-0.4c0.1-0.1,0.2-0.1,0.3-0.2C20.9,29.4,21,29.4,21.1,29.4
			z"/>
		<path class="st23" d="M44,30.2c-0.1,0-0.2,0-0.3,0c0-0.3-0.1-0.4-0.4-0.3c0.1-0.3,0.4-0.2,0.7-0.2l0,0C44.1,29.7,44.2,30,44,30.2z
			"/>
		<path class="st67" d="M44,30.2c-0.1-0.2-0.2-0.3-0.2-0.6c0.1-0.1,0.3-0.1,0.4-0.2h0.1c0,0.2,0,0.3,0.2,0.4c0,0.1,0,0.3,0,0.4
			c-0.1,0-0.2-0.2-0.4-0.1C44.2,30.2,44.1,30.2,44,30.2z"/>
		<path class="st11" d="M33.8,40.5c-0.6-0.6-0.6-1.3-0.6-2c0-0.6,0.2-0.8,0.8-0.4C35.6,39,35.6,39.3,33.8,40.5z"/>
		<path class="st7" d="M35.2,42.1c-0.6,0-1.1-0.1-1.4-0.6c-0.1-0.2,1.3-1.5,1.7-1.5c0.3,0,0.7,0.3,0.6,0.4
			C35.4,40.9,36.7,42.2,35.2,42.1z"/>
		<path class="st11" d="M31.6,41.5c-0.4,0.6-0.4,1.7-1.1,1.8c-0.7,0.1-0.9-0.9-0.9-1.3c0-0.8,0.9-0.8,1.4-0.9
			C31.2,41,31.6,41.1,31.6,41.5z"/>
		<path class="st11" d="M32,40.1c-0.6,0.9-1.7,0.4-2.3,0.9l-0.3-0.2c0.1-0.6,0.2-1,0.6-1.4c0.2-0.4,0.7-0.2,1,0
			C31.2,39.5,31.6,39.9,32,40.1z"/>
		<path class="st7" d="M31.1,43.3c0-0.1,0.1-0.3,0.2-0.4c0.1-0.3,0.3-0.8,0.7-0.8c0.4,0,0.3,0.6,0.7,0.9c0.1,0.1,0.1,0.2,0.1,0.4
			c0,0.4,0.8,0.7,0.3,1c-0.4,0.3-1.1,0-1.7-0.1C31.1,44.1,31.1,43.7,31.1,43.3z"/>
		<path class="st7" d="M34,44.1c-0.8-0.3-0.9-1-1.1-1.5c-0.1-0.3,0.3-0.4,0.6-0.3c0.7,0.3,1.7,0,1.9,0.8
			C35.4,43.3,34.5,43.8,34,44.1z"/>
		<path class="st7" d="M32.9,39.1c-0.1,0.2,0.3,0.9-0.4,0.7c-0.7-0.1-1.5-0.7-1.7-1.3c-0.1-0.6,0.9-0.7,1.4-0.8
			C32.8,37.7,32.9,38.4,32.9,39.1z"/>
		<path class="st68" d="M32.7,40.2c0.4,0.2,0.8,0.3,0.8,0.9s-0.4,0.8-0.9,0.8c-0.3,0-0.7-0.3-0.7-0.8C32,40.5,32.2,40.3,32.7,40.2z"
			/>
		<path class="st69" d="M31.3,64.6c0.3,0.2,1.1-0.8,1.1,0.6C32,65,31.7,64.7,31.3,64.6L31.3,64.6z"/>
		<path class="st70" d="M33.9,64.6c-0.3,0.2-0.7,0.3-1,0.6C32.9,64.5,32.9,64.5,33.9,64.6C34,64.6,33.9,64.6,33.9,64.6z"/>
	</g>
</g>
</svg>
