<?xml version="1.0" encoding="utf-8"?>
<!-- Generator: Adobe Illustrator 23.0.0, SVG Export Plug-In . SVG Version: 6.00 Build 0)  -->
<svg version="1.1" xmlns="http://www.w3.org/2000/svg" xmlns:xlink="http://www.w3.org/1999/xlink" x="0px" y="0px"
	 viewBox="0 0 50 50" style="enable-background:new 0 0 50 50;" xml:space="preserve">
<style type="text/css">
	.st0{display:none;}
	.st1{display:inline;fill:#FFFFFF;}
	.st2{display:inline;opacity:0.4;fill:#FFFFFF;enable-background:new    ;}
	.st3{fill:#0D0015;}
	.st4{fill:#FEFEFE;}
	.st5{fill:#E7C21E;}
	.st6{fill:#347F3D;}
	.st7{fill:#FDFDFD;}
	.st8{fill:#FEF24F;}
	.st9{fill:#EB1C24;}
	.st10{fill:#FDF14F;}
	.st11{fill:#FCFCFC;}
	.st12{fill:#347E3D;}
	.st13{fill:#FBFBFB;}
	.st14{fill:#FCF14F;}
	.st15{fill:#FAFAFA;}
	.st16{fill:#FDFCFD;}
	.st17{fill:#FBFAFB;}
	.st18{fill:#F8F8F8;}
	.st19{fill:#F8F8F9;}
	.st20{fill:#F9F9F9;}
	.st21{fill:#F7F7F7;}
	.st22{fill:#F8F7F8;}
	.st23{fill:#F5F5F5;}
	.st24{fill:#F9F8F9;}
	.st25{fill:#EFEFF0;}
	.st26{fill:#34783C;}
	.st27{fill:#0E0117;}
	.st28{fill:#1A0E23;}
	.st29{fill:#1B0F23;}
	.st30{fill:#12051B;}
	.st31{fill:#F6F6F6;}
	.st32{fill:#11041A;}
	.st33{fill:#1D1125;}
	.st34{fill:#11051A;}
	.st35{fill:#FDFDFC;}
	.st36{fill:#22162A;}
	.st37{fill:#170B20;}
	.st38{fill:#100419;}
	.st39{fill:#15081D;}
	.st40{fill:#160A1F;}
	.st41{fill:#1E1226;}
	.st42{fill:#0D0016;}
	.st43{fill:#CAC8CC;}
	.st44{fill:#D5D3D7;}
	.st45{fill:#C6C5CA;}
	.st46{fill:#E8E7E9;}
	.st47{fill:#211629;}
	.st48{fill:#817F84;}
	.st49{fill:#C8C5CA;}
	.st50{fill:#BAB6BC;}
	.st51{fill:#0D0116;}
	.st52{fill:#0D0115;}
	.st53{fill:#0E0116;}
	.st54{fill:#34803D;}
	.st55{fill:#EA1E25;}
	.st56{fill:#F7F9F7;}
	.st57{fill:#1F1427;}
	.st58{fill:#100318;}
	.st59{fill:#12061B;}
	.st60{fill:#0F0218;}
	.st61{fill:#0F0318;}
	.st62{fill:#221629;}
	.st63{fill:#1C1124;}
	.st64{fill:#1D1126;}
	.st65{fill:#D8D6DA;}
	.st66{fill:#413747;}
	.st67{fill:#514858;}
	.st68{fill:#FCF050;}
	.st69{fill:#F7F8F5;}
	.st70{fill:#F9FAF8;}
</style>
<g id="loader-logo" class="st0">
	<path class="st1" d="M11,0h0.8v7.1H4.6V6.4C4.6,2.9,7.4,0,11,0z"/>
	<rect x="27" y="11.2" class="st1" width="7.1" height="16.3"/>
	<rect x="15.8" y="22.4" class="st2" width="7.1" height="16.3"/>
	<path class="st1" d="M38.3,22.4h7.1v11.9c0,2.5-2,4.5-4.5,4.5h-2.7V22.4z"/>
	<rect x="4.6" y="33.7" class="st1" width="7.1" height="16.3"/>
	<path class="st1" d="M38.3,0h2.7c2.5,0,4.5,2,4.5,4.5l0,0l0,0v2.7h-7.1V0z"/>
	<rect x="38.3" y="11.2" class="st2" width="7.1" height="7.1"/>
	<rect x="4.6" y="22.4" class="st1" width="7.1" height="7.1"/>
	<rect x="27" y="31.6" class="st1" width="7.1" height="7.1"/>
	<path class="st1" d="M15.8,42.9H23v0.8c0,3.5-2.9,6.4-6.4,6.4h-0.8V42.9z"/>
	<rect x="15.8" y="0" class="st2" width="18.4" height="7.1"/>
	<rect x="4.6" y="11.2" class="st1" width="18.4" height="7.1"/>
</g>
<g id="Layer_2">
	<g>
		<path class="st3" d="M4.7,23.4c0.3-0.7,0.2-1.5,0.4-2.3c0.6-3.2,1.9-6.1,3.9-8.6c2-2.5,4.4-4.5,7.3-5.9C18.1,5.8,20,5.2,22,5
			c0.5-0.1,1,0.1,1.5-0.2c1.1,0,2.1,0,3.2,0C27.4,4.9,28.2,5,29,5.1c3.2,0.6,6.1,2,8.7,4c2.4,2,4.4,4.3,5.7,7.1
			c0.8,1.8,1.4,3.7,1.7,5.6c0.2,1.4,0.3,2.8,0.2,4.1c-0.3,4-1.5,7.7-3.9,10.9c-2.9,3.9-6.7,6.5-11.4,7.7c-2,0.5-4.1,0.8-6.2,0.6
			c-4.1-0.3-7.9-1.6-11.2-4.1c-3.8-3-6.4-6.8-7.4-11.5c-0.2-0.9-0.4-1.8-0.4-2.8c0-0.1,0-0.2-0.1-0.2C4.7,25.5,4.7,24.5,4.7,23.4z"
			/>
		<path class="st4" d="M25.1,5.1c10.5-0.2,20.5,8.8,19.9,21c-0.5,9.5-8.7,19.3-21,18.8c-9.7-0.4-19.6-8.7-18.9-21.2
			C5.6,14.1,13.8,5,25.1,5.1z"/>
		<path class="st3" d="M11.6,35.4c-1.5,0.4-2.8-0.2-3.4-1.3C7.3,32.3,7.6,31,9,29.7c-1.4-0.2-2.5-0.9-2.9-2.4
			c-0.2-0.8-0.2-1.8,0.4-2.5c0.5-0.5,0.9-1.4,2-1.3C8.3,23.2,8,23.1,7.8,23c-0.3-0.2-0.6-0.3-0.5-0.7c0-0.1,0-0.2,0-0.2
			c-0.8-0.4-0.6-1.1-0.6-1.8c-0.1-0.7,0.9-2.3,1.5-2.6c0.2-0.1,0.4-0.1,0.5,0c0.2,0.1,0.3,0,0.4-0.1c0.3-0.5,0.7-0.4,1.2-0.2
			c0-0.3-0.2-0.5-0.4-0.6c-0.2-0.2-0.5-1.7-0.4-2c0.3-1.8,1.8-2.7,2.9-3.8c0.8-0.7,1.7-1.3,2.7-1.7c0,0,0.1,0,0.1,0
			c0.7-1.3,2-1.4,3.2-1.8c1-0.3,2.1-0.4,3.1-0.2c0.3,0.1,0.4-0.1,0.5-0.3c0.8-0.8,1.8-1.2,2.9-0.8C25.3,6.3,25.7,6,26.1,6
			c0.7,0,1.3,0.2,1.8,0.7c0.4,0.4,0.7,0.5,1.3,0.5C30.9,7,32.7,7.3,34,8.4c1.7,1.3,3.6,2.1,5,3.8c0.5,0.6,1,1.2,1.3,1.9
			c0.6,1.2,1.7,2,2.1,3.3c0.3,1,0.6,1.9,0.8,2.9c0.1,0.5,0.4,0.9,0.5,1.4c0.2,1.4-0.1,2.9,0,4.3c0.2,2.3-0.7,4.1-1.5,6.1
			c-0.5,1.2-0.8,2.4-1.6,3.5c-1.3,1.8-2.8,3.5-4.9,4.5c-0.1,0.1-0.3,0.2-0.4,0.2c-0.4,0-0.5,0.1-0.5,0.5c0,0,0,0.1-0.1,0.1
			c-0.9,0.6-1.4,1.7-2.6,1.7c-0.5,0-0.9,0.1-1.3,0.5c-0.4,0.4-1.1,0.4-1.7,0.5c-0.9,0.1-1.7,0.3-2.6,0c-0.3-0.1-0.6,0.1-0.8,0.2
			c-0.5,0.3-1,0.3-1.5,0c-0.4-0.2-0.7-0.2-1.2-0.1c-1.4,0.2-2.8,0-4-0.6c-0.7-0.3-1.4-0.5-2-0.7c-0.4-0.2-1-0.1-0.9-0.8
			c-0.6-0.2-0.9-0.7-1.4-1c-0.7-0.3-1.4-0.6-2-1c-0.3-0.2-0.8-0.4-0.5-0.9c0,0,0-0.1-0.1-0.2c-0.5-0.4-0.6-0.9-0.7-1.5
			C11.4,36.4,11.3,36,11.6,35.4z"/>
		<path class="st5" d="M17.2,24.9c-0.1-4.5,3.6-7.7,7.9-7.8c4.5,0,7.8,3.5,7.8,7.8c0,4.4-3.4,7.8-7.8,7.8
			C20.7,32.7,17.1,29.4,17.2,24.9z"/>
		<path class="st4" d="M27.1,12.5c0.8,0.7,1.7,0.9,2.6,0.9c1,0,2.1,0,3.1,0c0.3,0,0.5,0.1,0.7,0.3c0.6,0.7,1.1,1.5,1.9,2
			c0.5,0.3,0.5,0.8,0.6,1.2c0.3,1.3,0.9,2.5,1.6,3.6c0.1,0.2,0.3,0.4,0.2,0.6c-0.4,1.6,0,3.2,0.3,4.7c0,0.2,0.1,0.4,0,0.6
			c-0.8,1.4-0.9,2.9-1.1,4.4c0,0.3-0.1,0.4-0.3,0.6c-1,0.8-1.7,1.9-2.4,3.1c-0.2-1-1-0.3-1.5-0.6c0.4-0.4,0.9-0.8,1.3-1.3
			c1.6-1.8,2.5-4,2.8-6.4c0.4-3.5-0.6-6.6-2.8-9.2c-1.6-1.9-3.7-3.2-6.1-3.8C27.5,13.3,27.1,13.1,27.1,12.5z"/>
		<path class="st4" d="M16.1,33.1c-1,0-1,0-0.9,1.7c-0.3-0.1-0.6-0.2-0.8-0.4c-0.3-0.2-0.6-0.2-0.8-0.4c0.7-1.1,0.8-2.3,0.2-3.3
			c-0.3-0.5-0.8-1.1-1.4-1.3c-0.3-0.2-0.7-0.3-1.2-0.4c1.2-0.8,1.4-1.9,1.4-3.1c0-0.5-0.3-0.6-0.6-0.8c-0.2-0.1,0.1-0.7-0.2-0.9
			c-0.3-0.2-0.7-0.4-0.9-0.7c2.2-0.7,3.1-2.9,1.6-5.3c0.8,0.4,1.4-0.2,2-0.4c0.5-0.2,1.2-0.8,1.2-1.6c0-0.1,0-0.2,0-0.2
			c0.7-0.5,0.2-1.2,0.2-1.8c0-0.4,0.1-0.5,0.4-0.6c0.4-0.2,0.8-0.3,1.3-0.3c1.3,0,2.7,0.1,4-0.1c0.6-0.1,1.1-0.4,1.6-0.7
			c0.1,0.5-0.2,0.7-0.6,0.8c-2.6,0.5-4.7,1.9-6.5,3.8c-1.4,1.6-2.3,3.4-2.7,5.4c-0.6,3.4,0,6.5,2,9.3C15.5,32.3,15.8,32.7,16.1,33.1
			z"/>
		<path class="st4" d="M21.9,41.8c-0.2-0.1-0.1-0.3-0.1-0.4c0-1.6,0-3.2,0-4.9c2.2,0.6,4.4,0.6,6.7,0c-0.1,1.8,0.1,3.6-0.1,5.3
			c-0.8,0.3-1.7,0.1-2.5,0.2c-0.1,0-0.2,0-0.3,0c-0.1,0-0.3-0.1-0.3-0.3c0-0.2,0.2-0.2,0.3-0.2c0.3,0,0.6-0.1,0.9-0.3
			c0.1-0.1,0.1-0.2,0-0.3c-0.1-0.1-0.4-0.1-0.4-0.3c0.1-0.2,0.4-0.3,0.6-0.5c-0.2-0.1-0.5-0.1-0.6-0.3c-0.1,0-0.1-0.1-0.1-0.2
			c0.1-0.3,0.5-0.2,0.7-0.5c-0.3-0.3-0.8,0.1-1.2-0.2c-0.1-0.3,0.2-0.5,0.1-0.8c0-0.3,0-0.6-0.4-0.6c-0.3,0-0.4,0.3-0.4,0.6
			c0,0.3,0.2,0.5,0.3,0.7c-0.1,0.3-0.3,0.2-0.5,0.2c-0.3-0.1-0.5-0.2-0.8,0c0.1,0.3,0.4,0.3,0.6,0.5c0,0.1,0,0.1,0,0.2
			c-0.2,0.2-0.4,0.2-0.6,0.3c0.1,0.2,0.3,0.3,0.3,0.5c0,0.2-0.2,0.3-0.3,0.4c0.2,0.5,0.6,0.5,1,0.5c0.1,0,0.3-0.1,0.4,0.2
			c0,0.2-0.2,0.3-0.3,0.3c-0.2,0.1-0.3,0.1-0.5,0C23.3,41.9,22.6,42.1,21.9,41.8z"/>
		<path class="st5" d="M23.1,13.5c0.2-0.7,0.4-1.3,0.6-1.8c0.2-0.4,0-0.6-0.2-0.8c-0.5-0.3-1-0.7-1.4-1.2c0.6,0,1.2,0,1.8,0
			c0.4,0,0.5-0.1,0.6-0.5c0.2-0.5,0.3-1.1,0.5-1.8c0.2,0.7,0.5,1.3,0.6,1.8c0.1,0.3,0.2,0.4,0.5,0.4c0.6,0,1.2,0,1.9,0
			c-0.4,0.5-0.9,0.8-1.3,1.1c-0.4,0.3-0.5,0.5-0.3,1c0.2,0.5,0.3,1,0.5,1.6c-0.6-0.2-1-0.6-1.4-1c-0.3-0.3-0.6-0.2-0.9,0
			C24.2,12.7,23.7,13.1,23.1,13.5z"/>
		<path class="st6" d="M12.1,11.8c2.8-3,7.2-4,10.5-0.9c-1.8-0.3-3.6-0.3-5.4-0.2C15.5,10.9,13.8,11.2,12.1,11.8z"/>
		<path class="st6" d="M38,11.8c-3.5-1.1-6.9-1.6-10.5-0.9C30.6,7.8,35.1,8.7,38,11.8z"/>
		<path class="st6" d="M40.9,32.3c0.2,0,0.1,0.2,0.2,0.2c0.8,0.6,0.3,1.2,0,1.7c-1.3,2.3-2.9,4.3-5.4,5.5c-0.1,0.1-0.3,0.2-0.5,0.1
			c0-1.1,0.9-1.7,1.5-2.3c1.4-1.6,2.7-3.3,3.9-5C40.8,32.4,40.9,32.3,40.9,32.3z"/>
		<path class="st6" d="M23.3,43.4c-1.3,0.1-2.4,0-3.6-0.4c-0.2-0.1-0.4,0-0.2-0.4c0.1-0.3-0.2-0.2-0.3-0.2c-0.7-0.1-1.3-0.2-2-0.4
			c-0.2,0-0.7,0.1-0.4-0.5c0.1-0.2-0.4-0.3-0.6-0.4c-0.4-0.2-0.4-0.2-0.4-0.7c0-0.1-0.2-0.2-0.3-0.3c-0.3-0.3-0.5-0.6-0.4-1.1
			c0.9,0.6,1.8,1,2.7,1.5c0,0.3-0.3,0.2-0.4,0.5c1-0.4,1.8,0,2.7,0.3c0,0.3-0.4,0.2-0.5,0.4c0.4,0.1,0.8-0.1,1.2-0.2
			c0.2,0,0.5-0.2,0.5,0C21.6,42.5,22.6,42.7,23.3,43.4z"/>
		<path class="st6" d="M23.4,11.5c-0.6,1-1.5,1.5-2.6,1.5c-0.8,0.1-1.6,0-2.3,0c-0.9,0-1.7-0.1-2.6,0.3C17.4,10.9,20,10.6,23.4,11.5
			z"/>
		<path class="st6" d="M32.1,40.5c1-0.5,2-1,3-1.7c0,0.5-0.3,0.8-0.4,1.2c-0.1,0.2-0.8,0.3-0.2,0.7c-0.1,0.1-0.2,0.2-0.3,0.3
			c-0.3,0.3-1.1,0.1-0.9,0.9c0,0-0.3,0.1-0.4,0.2c-0.8,0.2-1.5,0.3-2.4,0.4c0.3,0.3,0.2,0.4-0.2,0.5c-1.1,0.3-2.2,0.4-3.4,0.3
			c0.5-0.4,1.1-0.6,1.4-1c0.5-0.7,1-1,1.8-0.6c0.1,0,0.2,0,0.3,0c0-0.2-0.1-0.2-0.2-0.2c-0.1-0.1-0.2-0.1-0.4-0.2
			c0.9-0.3,1.7-0.7,2.7-0.3C32.5,40.7,32.2,40.8,32.1,40.5z"/>
		<path class="st6" d="M34.1,13.3c-1.5-0.5-3-0.2-4.5-0.3c-1.2,0-2.2-0.5-2.8-1.5C29.8,10.6,32.6,10.9,34.1,13.3z"/>
		<path class="st6" d="M33.5,38.6c1.6-2.5,4.3-4.1,5.5-7c0.1,0.5,0,1,0.5,1.3c0.2,0.1,0,0.3,0,0.4c-1.2,1.9-2.6,3.6-4.6,4.8
			C34.5,38.3,33.9,38.4,33.5,38.6z"/>
		<path class="st6" d="M16.7,8.5c2.4-1.4,6.2-1.5,7.3,1.1c-1.1-0.1-2.2,0.2-3.2-0.4C19.5,8.6,18.1,8.3,16.7,8.5z"/>
		<path class="st6" d="M26.2,9.5c1.2-2.4,4.5-2.4,7.1-1.1c-0.9,0-1.8,0.1-2.6,0.3c-0.3,0.1-0.6,0.2-0.9,0.3
			C28.1,9.6,28,9.6,26.2,9.5z"/>
		<path class="st7" d="M15.6,25.5c0.2,0.4,0.4,0.8,0,1.1c0,0-0.2,0.1,0,0.2c0.2,0,0.4,0.1,0.4,0.3c0,0.3-0.4,0.3-0.6,0.5
			c0,0-0.1,0.1-0.2,0.1c0.8,0.1,1.2,0.5,1.5,1.3c0.3,0.6,0.1,0.9-0.4,1.1c-0.2,0.1-0.3,0.3-0.2,0.5c0.1,0.2,0.4,0.1,0.5,0
			c0.6-0.6,1-0.3,1.4,0.3c0.3,0.4,0.7,0.7,1,1.1c0.1,0.1,0,0.2-0.1,0.2c-0.4-0.2-0.4,0.1-0.4,0.3c0,0,0,0-0.1,0
			c-0.2,0.1-0.3-0.5-0.6-0.2c-0.2,0.3,0.2,0.3,0.3,0.5c0,0,0,0.1,0,0.1c-0.8-0.3-0.9-0.5-0.3-1.1c0.1-0.1,0.1-0.2,0.2-0.2
			c0.2-0.1,0.1-0.2,0-0.3c-0.1-0.2-0.2-0.1-0.3,0c-0.2,0.2-0.4,0.4-0.6,0.6c-0.1,0.1-0.2,0.1-0.3,0c-0.1-0.1,0-0.2,0.1-0.3
			c0.2-0.2,0.4-0.4,0.6-0.5c0.1-0.1,0.3-0.1,0.1-0.3c-0.1-0.1-0.2-0.1-0.3,0c0,0-0.1,0-0.2,0.1c-0.4,0.4-0.8,0.4-1.1-0.1
			c-0.2-0.4-0.1-0.7,0.5-1.1c-0.3-0.1-0.5-0.1-0.6-0.3c-0.1-0.3-0.2-0.2-0.4-0.1c-0.3,0.1-0.5,0-0.2-0.3c0-0.1,0.1-0.1,0-0.1
			c0,0-0.1,0-0.2,0c-0.2-0.1-0.5-0.2,0-0.4c0.2-0.1,0.4,0,0.5-0.2c0,0.1,0-0.1,0,0c0.1,0.1,0.1,0,0,0c-0.2-0.1-0.3,0-0.5-0.1
			c-0.2,0-0.4,0.1-0.5-0.1c-0.1-0.4,0.4-0.3,0.5-0.5c-0.2-0.3-0.6,0.2-0.7-0.2c-0.1-0.3,0.5,0,0.4-0.4c-0.3,0-0.5-0.3-0.6-0.6
			c-0.1-0.4,0.3-0.6,0.4-0.9c0,0,0,0,0.1-0.1c0.3-0.1,0.6-0.1,0.9,0.1C15.5,25.4,15.6,25.5,15.6,25.5z"/>
		<path class="st6" d="M18,39.8c-0.3,0.1,0.2,0.5-0.3,0.3c-0.8-0.3-1.5-0.8-2.2-1.4c0.4,0.1,0.7,0.2,1.1,0.2c0.2,0,0.6,0.5,0.7-0.1
			c0,0,0.3-0.1,0.4,0c0.5,0.2,1.1,0.2,1.6,0.5c0.1,0.1,0.4,0.4,0.4-0.1c0-0.1,0.1-0.1,0.2-0.1c0.1,0,0.2,0.1,0.3,0.1
			c1.4,0.3,1.4,0.3,1.3,1.7c0,0.1,0,0.3-0.1,0.4c-0.2,0.1-0.3,0-0.4-0.1c-0.4-0.3-0.8-0.6-1.4-1c0.2,0.4,0.3,0.6,0.5,0.9
			C19.2,40.8,18.5,40.5,18,39.8z"/>
		<path class="st6" d="M32.1,39.8c-0.6,0.6-1.2,1.1-2.2,1.2c0.1-0.3,0.3-0.5,0.4-0.8c-0.5,0.1-0.7,0.5-1.1,0.8
			c-0.1,0.1-0.2,0.3-0.4,0.2c-0.2-0.1-0.1-0.3-0.1-0.4c0-0.1,0-0.2,0-0.3c0-1.1,0.3-1.6,1.3-1.4c0.9,0.2,1.4-0.4,2.1-0.4
			c0.2,0,0.6-0.3,0.6,0.3c0,0.2,0.3,0.1,0.4,0c0.5-0.2,1-0.3,1.5-0.4c-0.7,0.7-1.5,1.1-2.4,1.5C31.8,40.3,32.3,39.9,32.1,39.8z"/>
		<path class="st6" d="M33.8,34.8c-0.1,0.5-0.1,1-0.4,1.4c-0.1,0.1-0.4,0.3,0,0.5c0.2,0.1,0,0.2-0.1,0.2c-0.2,0.2-0.5,0.3-0.7,0.5
			c-0.1,0.1-0.6,0.1-0.2,0.4c0,0,0,0.1-0.1,0.2c-0.5,0.3-1.1,0.8-1.6,0.7c-0.5-0.1-1,0.1-1.4,0.1c-0.2,0-0.3,0.2-0.5,0
			c-0.1-0.2-0.1-0.5,0-0.7c0.1-0.2,0.3-0.3,0.5-0.2c0.4,0.1,0.8,0,1.3,0.1c-0.3-0.3-0.5-0.3-0.8-0.3c0.8-0.7,1.6-1,2.6-1.1
			c0-0.3-0.1-0.2-0.2-0.2c-0.1,0-0.2,0-0.3,0C32.5,35.8,33.2,35.4,33.8,34.8z"/>
		<path class="st8" d="M38.9,16.3c-0.9-0.5-1.6-1.1-2.2-1.8c-0.5-0.8-1-1.6-1.6-2.3c-0.2-0.2-0.3-0.5-0.2-0.7c0.2-0.3,0.4,0,0.6,0
			c0.7,0.1,1,0.7,1.4,1.2c0.7,0.9,1.4,1.9,1.8,3C38.9,16,38.9,16,38.9,16.3z"/>
		<path class="st9" d="M25.6,41.8c0.9,0,1.8,0,2.7,0c-0.9,0.8-1.8,1.3-2.8,1.8c-0.2,0.1-0.4,0.2-0.6,0.1c-1.1-0.5-2.1-1.1-3-1.9
			c0.8,0,1.6-0.1,2.4,0.1C24.2,42.1,24,42,24,42c0.8,0.1,1.7,0.1,2.5,0C26.2,42,25.8,42.3,25.6,41.8z"/>
		<path class="st8" d="M38.2,21.5c0.4,0.2,0.8,0.7,1.2,0.1c0.4,1.8,0.2,3.4-0.1,5c0,0.1,0,0.4-0.2,0.4c-0.2,0-0.2-0.2-0.3-0.4
			C38.2,25,38,23.3,38.2,21.5z"/>
		<path class="st8" d="M42.4,26.9c0.3,0.5,0.6,0.8,1,0.2c0.1,1.4-1,4.4-1.9,5.3C41.1,31.5,41.6,28.4,42.4,26.9z"/>
		<path class="st8" d="M43,27.1c-0.7-1.8-1.1-3.7-0.9-5.7c0.7,0.6,0.8,0.6,1.2,0.1C43.5,23.4,43.6,25.2,43,27.1z"/>
		<path class="st8" d="M37,31.9c0.2,0.5,0.2,0.9,0.8,1c-1,1.6-2.2,2.9-3.8,3.8C34.5,34.8,35.6,33.3,37,31.9z"/>
		<path class="st8" d="M41,27.3c-0.9-2-1-3.9-0.9-5.8c0.4,0.1,0.7,0.8,1.1,0.2c0.1,0.1,0.2,0.1,0.2,0.2C41.7,23.6,41.6,25.4,41,27.3
			z"/>
		<path class="st8" d="M39.5,27.2c-0.2,2-0.9,3.6-1.9,5.2c-0.2-1.9,0.1-3.7,0.8-5.6C38.7,27.3,38.9,27.6,39.5,27.2z"/>
		<path class="st8" d="M37.4,16.1c0.9,1.7,1.6,3.4,1.6,5.6c-1.3-1.5-2.1-3-2.6-4.7c-0.1-0.2,0-0.5,0.3-0.3
			C37.3,16.9,37.3,16.5,37.4,16.1z"/>
		<path class="st8" d="M39.6,32.4c-0.2-1.9,0-3.8,0.8-5.6c0.3,0.4,0.5,0.9,1.1,0.3C41.3,29.1,40.6,30.8,39.6,32.4z"/>
		<path class="st8" d="M40.2,16.4c0.6,0.2,1,0.6,1.2-0.3c0.9,1.7,1.4,3.5,1.5,5.4C41.5,20.1,40.7,18.4,40.2,16.4z"/>
		<path class="st8" d="M40.9,21.6c-1.3-1.6-2.1-3.2-2.6-5.1c0.9,0.4,1,0.4,1.1-0.3C40.3,17.4,41,20,40.9,21.6z"/>
		<path class="st6" d="M13.5,34.8c0.6,0.6,1.1,1.2,1.6,1.8c-0.1,0-0.2,0-0.5,0.1c0.2,0.1,0.3,0.2,0.3,0.2c1-0.1,1.4,0.5,1.7,1.3
			c0,0.1,0.2,0.2,0.1,0.3c-0.1,0.1-0.2,0.1-0.4,0.1c-0.6-0.1-1.2-0.4-1.9-0.1c0.3-0.3,0.4-0.5-0.1-0.7c-0.5-0.2-1-0.7-0.9-1
			C13.7,36.1,13.3,35.5,13.5,34.8z"/>
		<path class="st8" d="M36.8,11.9c1.2,0.4,2.3,0.7,2.8,1.8c0.3,0.7,0.7,1.3,1.1,1.9c0.1,0.2,0.3,0.5,0.1,0.7
			c-0.2,0.1-0.4-0.1-0.6-0.3c-0.8-0.6-1.5-1.3-2-2.1C37.9,13.2,37.4,12.6,36.8,11.9z"/>
		<path class="st6" d="M21.5,38.7c-0.6,0-1-0.3-1.3-0.6C20,38,19.9,38,19.8,38.2c-0.1,0.1-0.1,0-0.2,0c-0.9-0.4-1.8-0.8-2.7-1.5
			c0.5,0,0.8,0,1.2,0.1c0.3,0,0.6,0.5,0.9-0.2c0.1-0.3,2.3,0.1,2.4,0.5C21.6,37.6,21.4,38.2,21.5,38.7z"/>
		<path class="st6" d="M12.5,38.9c0.2-0.1,0.4-0.1,0.5-0.1c-1.2-0.7-1.2-1.8-1.3-3.1c0.8,0.7,1.2,1.5,2,1.9c-0.1,0.2-0.4,0-0.5,0.3
			c1.5,0.1,1.4,1.4,1.9,2.4C14.1,39.9,13.3,39.6,12.5,38.9z"/>
		<path class="st10" d="M32.9,11.5c0.4-0.3,0.8-0.1,1,0.1c1.5,1.3,2.4,2.9,3.1,4.7c-1.2-0.5-2.1-1.4-2.9-2.4c0.1,0,0.1-0.1,0.1-0.1
			c0.3,0,0.4,0.6,0.7,0.3c0.2-0.2-0.2-0.5-0.3-0.8C34.2,12.6,33.6,12.1,32.9,11.5z"/>
		<path class="st6" d="M33.4,34.6c-0.3,0.5-0.8,0.8-1.2,1.1c-0.3,0.3-0.5,0.3-0.5-0.5c-0.4,1-0.9,1.6-1.7,1.9
			c-0.1-0.3,0.2-0.4,0.1-0.7c-0.5,0.3-0.6,0.9-1.3,1.3c0-0.4,0-0.8,0-1.2c0-0.2,0.1-0.3,0.2-0.3c1.3-0.3,2.3-1.3,3.6-1.6
			C32.9,34.6,33.1,34.6,33.4,34.6z"/>
		<path class="st7" d="M13.2,11.9c1.6-0.5,3.1-0.7,4.7-0.8c-1.1,0.5-1.9,1.4-2.6,2.3c-0.1,0.1-0.2,0.2-0.3,0.2
			c-0.1,0-0.1-0.1-0.1-0.2c0.1-0.5-0.3-0.7-0.7-0.9C13.9,12.3,13.6,12.1,13.2,11.9z"/>
		<path class="st7" d="M15.5,20.6c0.3,0.1,0.5,0.2,0.8,0.3c0.1,0.1,0.4,0.1,0.2,0.4c-0.1,0.2-0.2,0.3-0.4,0.2
			c-0.2-0.1-0.4-0.2-0.7-0.1c0.2,0.1,0.3,0.3,0.5,0.4c0.6,0.2,0.1,0.6,0.1,0.9c0,0.2-0.4,0.1-0.6,0.1c-0.3,0-0.7-0.3-0.8,0.1
			c-0.1,0.3,0.4,0.4,0.8,0.4c0.2,0,0.3,0.1,0.5,0.2c-0.5,0.4-0.9,0.1-1.3,0c-0.3-0.1-0.3-0.4-0.3-0.7c0.1-0.5,0.5-0.6,0.9-0.6
			c-0.2-0.2-0.8-0.1-0.6-0.5c0.1-0.3,0.5,0.2,0.9,0c-0.2-0.3-0.7-0.3-0.6-0.7c0.1-0.2,0.6,0,1-0.1c-0.2-0.1-0.4-0.2-0.6-0.3
			c-0.1-0.1-0.3,0-0.2-0.2c0.1-0.1,0.2-0.2,0.3-0.1C15.4,20.5,15.4,20.5,15.5,20.6z"/>
		<path class="st6" d="M16.8,35.7c0.6,0.3,1.4-0.2,1.7,0.7c-0.7,0-1.5,0.1-2.2-0.3c-0.9-0.5-0.7-1.5-0.9-2.3
			c0.7,0.5,1.2,1.2,1.9,1.7C17.3,35.7,17,35.6,16.8,35.7z"/>
		<path class="st6" d="M21.5,36.6c-1.2-0.6-2.8,0-3.6-1.5c-0.1-0.2-0.3-0.5-0.5-0.2c0,0-0.2-0.1-0.3-0.2c-0.4-0.4-0.9-0.9-1.4-1.3
			c0.8-0.1,1.1,0.4,1.6,0.7c1.1,0.9,2.2,1.7,3.6,2c0.1,0,0.3,0.1,0.4,0.2C21.4,36.4,21.4,36.4,21.5,36.6z"/>
		<path class="st7" d="M30.7,33.5c0,1-0.4,1.2-1.2,0.9c-0.4,1.1-0.8-0.1-1.2,0.1c-0.2,0.2,0.4,0.6-0.1,0.8c-0.2-0.4-0.4-0.8-0.5-1.3
			c-0.1-0.1-0.1-0.2,0-0.3c0.5-0.1,0.7,0.3,1,0.5c0.2-0.2-0.1-0.3-0.1-0.4c0-0.1-0.2-0.3,0-0.4c0.3-0.1,0.2,0.1,0.3,0.2
			c0.1,0.2,0.1,0,0.1-0.1c0.2-0.6,0.7-0.7,1.2-0.6C30.5,33.1,30.7,33.2,30.7,33.5z"/>
		<path class="st7" d="M33.7,30.8c0.2,0.5,0,1.1-0.6,1.1c-0.4,0-0.4,0.1-0.4,0.5c0,0.5-0.4,0.8-0.9,0.7c-0.1,0-0.1-0.1-0.1-0.1
			c-0.3-0.2-0.6-0.5-0.5-0.9c0.2-0.5,0.6-0.6,1.1-0.5c-0.2-0.7,0.1-1,0.6-1.4c0,0,0.1,0.1,0.1,0.2c0,0.2-0.1,0.3-0.1,0.5
			c-0.1,0.3,0,0.5,0.3,0.6c-0.3-0.4-0.3-0.7,0.2-0.9C33.5,30.6,33.7,30.5,33.7,30.8z"/>
		<path class="st11" d="M34.9,26.5c0.2,0.3,0,0.8,0.6,0.8c0,0,0.1,0.2,0,0.2c0,0.2-0.1,0.1-0.2,0.1c-0.2-0.1-0.4,0-0.7-0.1
			c0.1,0.1,0.1,0.1,0.2,0.1c0.2,0.1,0.6,0,0.6,0.4c0,0.4-0.4,0.3-0.7,0.3c-0.1,0-0.3,0.1-0.4,0.2c0.3,0.2,0.9,0.1,0.8,0.4
			c-0.1,0.4-0.6-0.1-0.8,0.1c-0.3,0.1-0.4-0.2-0.6-0.3c-0.2-0.3-0.1-0.4,0.2-0.5c0.3-0.1,0.6-0.2,0.9-0.1c-0.3-0.3-0.9-0.2-0.8-0.5
			c0.1-0.4-0.1-1,0.5-1.3c0.2-0.1,0,0.6,0.4,0.2C34.8,26.4,34.9,26.4,34.9,26.5z"/>
		<path class="st7" d="M14.7,15.8c-0.1,0-0.1,0-0.2,0c-0.3-0.1-0.7,0-0.8-0.3c-0.2-0.4,0.2-0.6,0.4-0.9c0,0,0.1-0.1,0.1-0.1
			c0.3-0.2,0.5-0.8,0.9-0.6c0.4,0.2,0.2,0.6,0.2,0.9C15.4,15.7,15.4,15.8,14.7,15.8z"/>
		<path class="st7" d="M10.7,29.9c0.2-0.2,0.2-0.6,0.6-0.4c0.1,0.1,0.3,0.1,0.5,0.2c0.9,0.3,1,0.5,0.4,1.2c-0.2,0.2-0.3,0.7-0.6,0.6
			c-0.3-0.1-0.5-0.4-0.6-0.8C11,30.4,10.8,30.2,10.7,29.9z"/>
		<path class="st7" d="M12.5,32.6c-0.2-0.1-0.5,0.1-0.6-0.1c-0.1-0.3,0-0.5,0.2-0.8c0.2-0.2,0.4-0.5,0.5-0.8
			c0.1-0.3,0.3-0.2,0.5-0.2c0.2,0,0.3,0.1,0.4,0.3c0,0.3,0.2,0.6,0.3,0.9c0.1,0.3,0,0.5-0.4,0.6C13,32.6,12.8,32.6,12.5,32.6z"/>
		<path class="st7" d="M10.1,23.8c0.5,0.3,0.9,0.6,1.3,0.9c0.1,0.1,0.1,0.2,0,0.3c-0.1,0.2-0.2,0.3-0.3,0.5
			c-0.3,0.3-0.6,0.7-0.9,0.5c-0.4-0.1-0.3-0.6-0.3-1c0-0.2,0-0.4-0.1-0.6C9.6,24,10,23.9,10.1,23.8z"/>
		<path class="st7" d="M11.4,20.6c-0.6,0.1-0.6-0.3-0.5-0.6c0.1-0.4,0.3-0.8,0.6-1.2c0.2-0.3,0.5-0.3,0.7,0c0.1,0.1,0.1,0.3,0.2,0.4
			c0.5,1,0.5,1-0.6,1.3C11.5,20.5,11.4,20.6,11.4,20.6z"/>
		<path class="st7" d="M13.6,14.6c-0.8-0.5-0.5-1.3-0.8-1.9c-0.1-0.1,0.2-0.4,0.3-0.4c0.5,0.1,0.9,0.4,1.3,0.7
			c0.3,0.3,0,0.6-0.2,0.9C14,14.1,13.8,14.4,13.6,14.6z"/>
		<path class="st7" d="M11.1,18.4c0,0.1,0,0.2,0,0.2c-0.2,0.4-0.2,0.9-0.6,1c-0.4,0.1-0.6-0.4-0.7-0.8c0-0.1-0.1-0.2-0.2-0.3
			c-0.1-0.2-0.4-0.4-0.2-0.7c0.2-0.3,0.5-0.2,0.8-0.1c0.1,0.1,0.3,0,0.4,0C11,17.7,11.1,18,11.1,18.4z"/>
		<path class="st4" d="M10.1,27.1c0-0.9,1-1,1.4-1.5c0.1-0.1,0.4,0,0.5,0.3c0,0.2,0,0.3,0,0.5c0,1.2-0.1,1.3-1.3,0.9
			C10.5,27.2,10.3,27.1,10.1,27.1z"/>
		<path class="st4" d="M9.5,25c-0.1,0.2,0.2,0.4-0.1,0.6c-0.2,0.1-0.4-0.1-0.6-0.2c-0.3-0.2-0.6-0.6-1-0.7c-0.1,0-0.2-0.1-0.2-0.3
			c0-0.1,0.1-0.2,0.3-0.3C7.9,24,8,24,8.1,23.9C9.2,23.6,9.5,23.7,9.5,25z"/>
		<path class="st7" d="M10.9,17.4c-0.2,0-0.2-0.1-0.3-0.2c-0.1-0.2-0.2-0.3-0.3-0.5c-0.5-0.6-0.4-0.9,0.3-1.2
			c0.1-0.1,0.2-0.1,0.4-0.1c0.2-0.1,0.5-0.3,0.6,0c0.1,0.2,0.1,0.5-0.1,0.7c-0.2,0.3-0.3,0.7-0.3,1C11.2,17.3,11.1,17.4,10.9,17.4z"
			/>
		<path class="st11" d="M9.6,29.1c0,0.2,0,0.4-0.3,0.3c-0.4-0.1-0.8-0.1-1.2-0.3C7.8,29,7.9,28.8,8,28.4c0.1-0.4,0.3-1,0.6-1.1
			c0.5-0.1,0.5,0.6,0.6,0.9C9.4,28.6,9.5,28.8,9.6,29.1z"/>
		<path class="st7" d="M12.4,17.9c-0.3-0.1-0.7,0.2-0.8-0.4c-0.1-0.6,0.1-1,0.4-1.4c0.1-0.2,0.5,0,0.6,0.2c0.2,0.3,0.4,0.6,0.5,1
			c0.1,0.1,0.3,0.2,0.2,0.4c-0.1,0.2-0.3,0.2-0.5,0.2C12.6,17.9,12.5,17.9,12.4,17.9z"/>
		<path class="st7" d="M8.8,20.2c0,0.2,0,0.3-0.2,0.4c-0.4,0.2-0.7,0.5-1,0.8c-0.2,0.3-0.4,0.2-0.5-0.1C7,21,7.1,20.6,7,20.2
			c-0.1-0.2,0.2-0.3,0.4-0.4c0.5-0.2,0.9,0,1.3,0.2C8.8,20,8.9,20.1,8.8,20.2z"/>
		<path class="st7" d="M9.5,22.2c0-0.2-0.1-0.5,0.2-0.6c0.3-0.1,0.5,0.1,0.7,0.3c0.2,0.2,0.4,0.5,0.7,0.6c0.1,0.1,0.3,0.2,0.2,0.4
			c0,0.2-0.2,0.2-0.3,0.2c-0.1,0.1-0.3,0-0.4,0.1C9.6,23.4,9.5,23.2,9.5,22.2z"/>
		<path class="st7" d="M11.8,14.4c-0.4,0.7-1.3,0.6-1.9,1c-0.2,0.1-0.2-0.2-0.2-0.4c0.1-0.4,0.2-0.7,0.3-1.1
			c0.1-0.3,0.4-0.3,0.6-0.2C11,13.8,11.4,14.1,11.8,14.4z"/>
		<path class="st7" d="M7.5,28.6c-0.3,0-0.4-0.1-0.4-0.3C7,28.2,6.9,28,6.8,27.9c-0.5-0.8-0.3-1.1,0.6-1.3c0.2,0,0.6-0.4,0.8,0
			c0.2,0.3-0.1,0.6-0.2,0.8c-0.2,0.3-0.4,0.6-0.4,0.9C7.6,28.5,7.6,28.6,7.5,28.6z"/>
		<path class="st7" d="M10.1,33.1c-0.2,0.5-0.2,1-0.3,1.5c0,0.3-0.2,0.3-0.4,0.1c-0.3-0.3-0.5-0.5-0.8-0.7c-0.2-0.1-0.1-0.3-0.1-0.4
			c0.3-0.5,0.8-0.7,1.2-0.9C9.9,32.6,10.1,32.9,10.1,33.1z"/>
		<path class="st4" d="M12.7,13.7c0,0.5-0.3,0.5-0.6,0.3c-0.4-0.2-0.8-0.5-1.2-0.7c-0.3-0.1-0.3-0.4,0-0.5c0.3-0.2,0.7-0.3,1-0.5
			c0.2-0.1,0.4,0.1,0.5,0.2C12.5,12.9,12.6,13.3,12.7,13.7z"/>
		<path class="st7" d="M9.8,29.6c0.5,0.2,0.7,0.7,0.8,1.2c0.1,0.4-0.1,0.7-0.5,0.5c-0.4-0.2-0.8-0.3-1.3-0.4
			c-0.4-0.1-0.4-0.4-0.1-0.5C9.2,30.2,9.4,29.8,9.8,29.6z"/>
		<path class="st7" d="M9,19.7c-0.4-0.1-0.8-0.2-1.2-0.3c-0.1,0-0.3,0.1-0.4-0.1c-0.1-0.2,0.1-0.3,0.2-0.4c0.1-0.1,0.2-0.2,0.3-0.3
			c0.2-0.2,0.4-0.7,0.8-0.4c0.5,0.3,0.7,0.8,0.9,1.3C9.5,19.5,9.2,19.8,9,19.7z"/>
		<path class="st7" d="M10.3,34.4c0-0.4,0-0.9,0.3-1.1c0.4-0.1,0.6,0.3,0.8,0.6c0.1,0.1,0.1,0.1,0.1,0.2c0,0.3,0.9,0.3,0.5,0.7
			c-0.3,0.3-1,0.4-1.5,0.3C10.1,35,10.3,34.6,10.3,34.4z"/>
		<path class="st7" d="M12.7,21c-0.2,0.4-0.3,0.8-0.6,1.2c-0.2,0.2-0.5,0.1-0.8-0.1c-0.4-0.2-0.8-0.5-0.8-0.9c0-0.4,0.6-0.2,0.9-0.4
			c0.3-0.1,0.6,0,0.8-0.2C12.4,20.6,12.6,20.7,12.7,21z"/>
		<path class="st7" d="M9.9,27.4c0.5,0.2,1,0.4,1.6,0.5c0.3,0,0.2,0.3,0,0.5c-0.3,0.2-0.6,0.5-0.8,0.7c-0.2,0.2-0.3,0.1-0.4,0
			c-0.4-0.3-0.6-0.8-0.7-1.3C9.4,27.4,9.7,27.5,9.9,27.4z"/>
		<path class="st7" d="M7.2,24.9c0.6-0.1,0.9,0.4,1.3,0.7C8.6,25.7,8.4,26,8.2,26c-0.5,0.2-1,0.2-1.5,0.4c-0.2,0.1-0.3-0.1-0.3-0.3
			c0.1-0.4,0.3-0.8,0.4-1.2C6.9,24.8,7,24.9,7.2,24.9z"/>
		<path class="st7" d="M8.8,21c0.2,0.2,0.5,0.3,0.4,0.7c-0.1,0.4-0.2,0.8,0,1.2c0.1,0.1,0,0.3-0.1,0.4c-0.2,0.1-0.3-0.1-0.4-0.1
			c-0.1-0.1-0.3-0.2-0.4-0.3c-0.7-0.4-0.7-0.8-0.1-1.3C8.3,21.3,8.6,21.1,8.8,21z"/>
		<path class="st7" d="M8.6,31.2c0.4,0.1,0.9,0.2,1.2,0.4c0.3,0.2,0,0.5-0.2,0.6c-0.4,0.2-0.8,0.5-1.2,0.7C8.2,33.2,8,32.9,8,32.7
			c0.1-0.4,0-0.8,0.1-1.2C8.2,31.3,8.4,31.3,8.6,31.2z"/>
		<path class="st7" d="M11.4,33.3c0.2-0.3,0.4-0.4,0.8-0.3c0.3,0,0.7,0.1,1-0.1c0.2-0.1,0.3,0,0.4,0.1c0.1,0.1,0.1,0.3-0.1,0.4
			c-0.1,0.1-0.2,0.2-0.3,0.4c-0.5,0.8-0.9,0.8-1.4,0C11.6,33.7,11.5,33.5,11.4,33.3z"/>
		<path class="st7" d="M12.9,16.2c0.1-0.2,0.3-0.3,0.5-0.2c0.5,0.1,1,0.3,1.5,0.3c0.2,0,0.2,0.2,0.2,0.3c-0.3,0.4-0.6,0.7-0.9,1
			c0,0.1-0.2,0-0.3,0C13.4,17.2,13.1,16.7,12.9,16.2z"/>
		<path class="st11" d="M26.6,35.6c-0.8,0.5-1.1,0.3-1.2-0.6c0-0.2,0.1-0.5-0.2-0.5c-0.4,0-0.1,0.3-0.2,0.5
			c-0.1,0.3,0.2,0.8-0.2,0.8c-0.4,0-0.2-0.5-0.2-0.7c0-0.3-0.1-0.6-0.5-0.7c0.8-0.2,1.6,0,2.3-0.2c0.1,0.1,0.1,0.2,0.1,0.3
			c0,0.1-0.3,0.1-0.1,0.3c0,0.1,0.1,0.1,0.1,0.2C26.4,35.2,26.5,35.4,26.6,35.6z"/>
		<path class="st7" d="M24.8,6.5c-0.8,0.3-1.4,0.8-1.4,1.7c-0.4-0.4-0.9-0.6-1.3-0.8C22.8,6.5,23.5,6.2,24.8,6.5z"/>
		<path class="st7" d="M25.4,6.5c1.1-0.4,1.9,0,2.6,0.8c-0.5,0.3-0.9,0.5-1.3,0.8C26.7,7.2,26.1,6.8,25.4,6.5z"/>
		<path class="st7" d="M34.4,23.8c-0.4-0.2-0.5-0.4,0-0.7c0.2-0.1,0.4-0.2,0.7-0.4c-0.4,0-0.6,0-0.9,0c-0.3,0-0.2-0.2-0.3-0.4
			c-0.2-0.3,0.2-0.2,0.2-0.3c0.3-0.1,0.7-0.2,1-0.3c0.1,0,0.3-0.1,0.3,0.1c0,0.2,0,0.3-0.2,0.2c-0.3,0-0.5,0.2-0.7,0.2
			c0.2,0,0.4,0,0.5,0c0.2,0,0.5-0.2,0.5,0.2c0.1,0.3-0.2,0.3-0.4,0.4c-0.1,0-0.1,0.1-0.2,0.1c0.8,0.1,0.8,0.1,0.9,0.3
			C35.3,23.6,34.9,23.6,34.4,23.8L34.4,23.8z"/>
		<path class="st12" d="M16.7,36.9c0.9,0.6,1.7,1.1,2.5,1.5c0.1,0,0.3,0.1,0.2,0.3c-0.1,0.2-0.2,0.1-0.4,0.1
			c-0.4-0.1-0.8-0.2-1.3-0.3C17.1,38.3,16.8,37.7,16.7,36.9z"/>
		<path class="st13" d="M21.2,34.5c-0.2,0.1-0.3,0.2-0.5,0.2c-0.5,0.1-0.9,0-1.2-0.4c-0.1-0.1,0.5-1.3,0.7-1.3
			c0.4-0.2,1.1,0.4,1.1,0.9C21.3,34.1,21.2,34.3,21.2,34.5C21.2,34.5,21.2,34.5,21.2,34.5z"/>
		<path class="st11" d="M20.2,15.5c0.1-0.1-0.1-0.4,0.2-0.4c0.2,0,0.4-0.2,0.5,0.1c0.2,0.3,0.5,0.5,0.7,0.7c0.1,0.1,0.3,0.2,0.1,0.4
			c-0.1,0.1-0.2,0.1-0.3,0c-0.3-0.3-0.5-0.2-0.5,0.2c0,0.3-0.2,0.4-0.4,0.3c-0.3,0-0.1-0.3-0.2-0.4C20.3,16.1,20.3,15.8,20.2,15.5z"
			/>
		<path class="st13" d="M23.5,35.1c0.1-0.3,0-0.7,0.3-1c0.2,0.3,0.2,1.3-0.1,1.5c-0.2,0.1-0.3,0.1-0.4-0.2c-0.1-0.3-0.2-0.6-0.3-1
			c-0.1,0.3,0,0.9-0.4,1c-0.1,0,0-0.6,0.1-1c0.1-0.2-0.2-0.5,0.2-0.6c0.4,0,0.3,0.4,0.4,0.6C23.4,34.7,23.5,34.8,23.5,35.1z"/>
		<path class="st14" d="M13.2,15.1c0,0.5-0.2,0.7-0.7,0.7c-0.4,0-0.7-0.4-0.6-0.7c0-0.3,0.2-0.7,0.7-0.6
			C13,14.5,13.2,14.7,13.2,15.1z"/>
		<path class="st11" d="M15.6,25.5c-0.1,0-0.1,0-0.2,0c-0.3-0.4-0.6-0.3-0.9-0.1c0,0,0,0,0,0c-0.1,0-0.4,0.1-0.4,0
			C14,25,14.5,25,14.7,24.8c0-0.2-0.1-0.2-0.2-0.2c-0.2,0-0.3,0-0.3-0.2c0-0.2,0.2-0.2,0.3-0.2c0.3,0,0.6,0,0.9,0
			c0.1,0,0.4-0.1,0.4,0.2c0,0.3-0.2,0.2-0.4,0.2c-0.1,0-0.1,0-0.2,0C15.2,24.9,16,24.9,15.6,25.5z"/>
		<path class="st15" d="M18.8,32.2c0.1-0.1,0.1-0.1,0.2-0.2c0.2,0.1,0.5,0.3,0.7,0.5c0.2,0.3,0.2,0.6-0.1,0.6
			c-0.4,0.1-0.3,0.4-0.4,0.6c-0.1,0.1,0.1,0.3-0.2,0.2c-0.1,0-0.3-0.1-0.2-0.3c0.1-0.1,0.2-0.3,0-0.4c-0.3-0.2-0.3,0.1-0.4,0.2
			c-0.1,0.1-0.2,0.1-0.3,0c-0.2-0.2,0-0.2,0.1-0.3c0.1-0.2,0.2-0.4,0.4-0.5C18.5,32.4,18.6,32.3,18.8,32.2z"/>
		<path class="st10" d="M10,21.1c-0.6,0-0.8-0.2-0.8-0.6c0-0.4,0.2-0.7,0.6-0.7c0.4,0,0.7,0.3,0.7,0.7C10.5,20.9,10.3,21.2,10,21.1z
			"/>
		<path class="st16" d="M34.9,26.5c0,0-0.1,0-0.1,0c-0.3,0.1-0.3-0.2-0.4-0.3c-0.3-0.7-0.1-1.1,0.4-1.2c0.7-0.1,1.1,0.1,1.1,0.6
			C35.9,26.2,35.7,26.4,34.9,26.5z"/>
		<path class="st10" d="M9.1,27.1c-0.4,0-0.6-0.3-0.6-0.6c0-0.4,0.3-0.7,0.6-0.7c0.4,0,0.7,0.2,0.7,0.7C9.8,27,9.6,27.1,9.1,27.1z"
			/>
		<path class="st8" d="M10.9,31.6c0.5,0,0.7,0.3,0.7,0.7c0,0.3-0.3,0.7-0.7,0.7c-0.4,0-0.7-0.2-0.6-0.7
			C10.3,31.9,10.4,31.7,10.9,31.6z"/>
		<path class="st11" d="M34.4,23.8c0.4,0,0.8,0.2,1.2-0.1c0.1,0,0.2-0.1,0.3,0.1c0,0.1,0.1,0.3-0.2,0.3c-0.2,0-0.4,0.1-0.5,0.3
			c0.1,0.1,0.2,0.1,0.3,0.1c0.2,0,0.3,0,0.3,0.2c0,0.2-0.2,0.2-0.3,0.2c-0.2,0-0.4,0-0.5,0C34.2,24.9,34,24.6,34.4,23.8
			C34.4,23.8,34.4,23.8,34.4,23.8z"/>
		<path class="st13" d="M23.9,14.1c0.5,0.3,0.4,0.7,0.4,1c0,0.2,0,0.4,0.3,0.4c0.2,0,0.3-0.2,0.3-0.4c0-0.2,0-0.5,0-0.7
			c0-0.1,0.1-0.2,0.2-0.2c0.1,0,0.2,0.1,0.2,0.2c0,0.3,0,0.6,0,0.9c0,0.4-0.3,0.6-0.7,0.6c-0.4,0-0.6-0.3-0.6-0.6
			C23.8,14.9,23.9,14.5,23.9,14.1z"/>
		<path class="st17" d="M22.5,15.1c0.1-0.1,0.1-0.3,0.1-0.4c0.1-0.1,0-0.5,0.3-0.4c0.3,0.1,0.1,0.3,0,0.5c-0.1,0.2-0.1,0.3,0.1,0.5
			c0.2,0.2,0.4,0.3,0.4,0.6c-0.5,0.2-0.6-0.4-0.9-0.4c0,0.1,0,0.2,0,0.3c0.1,0.2,0.2,0.2-0.1,0.3c-0.3,0.1-0.2-0.1-0.2-0.2
			c-0.1-0.3-0.2-0.6-0.3-0.9c0-0.1-0.1-0.4,0.1-0.4c0.2,0,0.2,0.2,0.3,0.3C22.4,14.9,22.4,15,22.5,15.1z"/>
		<path class="st18" d="M34.8,20.3c0.2,0.1,0.3,0.3,0.1,0.5c-0.3,0.3-0.1,0.5,0.2,0.6c0.1,0,0.3-0.1,0.3,0.1c0,0.2-0.1,0.1-0.2,0.2
			c-0.4,0.1-0.7,0.1-1.1,0.1c-0.2,0-0.3-0.1-0.4-0.2c-0.1-0.2,0-0.3,0.2-0.5C34.1,20.9,34.5,20.6,34.8,20.3L34.8,20.3z"/>
		<path class="st11" d="M26.5,34.5c0-0.1,0-0.3,0-0.4c0.4-0.1,0.3,0.3,0.5,0.5c0.1-0.4,0.2-0.7,0.7-0.8c0,0.1,0,0.2,0,0.3
			c-0.4,0.2-0.5,0.5-0.1,0.9c0.1,0.1,0.5,0.3,0.3,0.5c-0.3,0.3-0.4-0.1-0.6-0.3c-0.1-0.1-0.1-0.2-0.1-0.2c-0.3,0.3,0.1,0.6-0.2,0.8
			c-0.2,0.1-0.2-0.2-0.4-0.3c-0.2-0.2,0-0.5-0.2-0.6C26.4,34.6,26.4,34.6,26.5,34.5z"/>
		<path class="st13" d="M29.1,16.8c-0.1-0.6-0.2-1.1-0.8-0.5c-0.1,0.1-0.2,0-0.2-0.1c-0.1-0.1,0-0.2,0-0.2c0.3-0.3,0.5-0.6,0.8-0.9
			c0.2-0.2,0.5-0.1,0.5,0.1C29.5,15.7,29.6,16.2,29.1,16.8z"/>
		<path class="st13" d="M24.2,9.1c-0.7-1-0.5-1.7,0.6-2.2C24.8,7.7,24.4,8.4,24.2,9.1z"/>
		<path class="st7" d="M25.3,6.9C26.4,7.5,26.6,8.1,26,9C25.7,8.4,25.5,7.7,25.3,6.9z"/>
		<path class="st19" d="M21.2,34.5c0.3-0.1,0.4-0.5,0.6-0.7c0.1-0.1,0.2-0.2,0.4-0.1c0.2,0.1,0.2,0.2,0.2,0.4
			c-0.1,0.3-0.1,0.7-0.1,1c0,0.1,0,0.3-0.2,0.3c-0.2,0-0.1-0.2-0.1-0.3c0-0.4-0.3-0.3-0.4-0.2c-0.1,0-0.2,0.4-0.4,0.2
			c-0.3-0.2,0.1-0.3,0.1-0.5C21.2,34.6,21.2,34.5,21.2,34.5C21.2,34.5,21.2,34.5,21.2,34.5z"/>
		<path class="st20" d="M33.9,19.4c0.6,0,0.8,0.5,0.9,0.9c0,0,0,0,0,0c-0.1,0-0.3,0.1-0.4-0.1c-0.1-0.2-0.1-0.4-0.3-0.4
			c-0.2,0-0.1,0.3-0.1,0.5c0,0.3-0.1,0.5-0.4,0.5c-0.2,0.1-0.4-0.1-0.5-0.3C33,20.4,33,20.2,32.9,20c0,0,0,0,0.1-0.1
			c0.6,0.2,0.4-0.4,0.7-0.6C33.7,19.3,33.8,19.3,33.9,19.4z"/>
		<path class="st13" d="M29.7,16.8c0.2-0.1,0.2,0,0.3,0c0.1,0.1,0.3,0.2,0.4,0.1c0.2-0.1,0-0.3-0.1-0.4c-0.1-0.3-0.2-0.5,0-0.7
			c0.2-0.2,0.5-0.1,0.7,0c0.1,0.1,0.4,0.2,0.2,0.4c-0.2,0.3-0.2-0.1-0.4-0.1c-0.1,0-0.1-0.1-0.2,0c0,0.4,0.7,1-0.1,1.2
			C30.2,17.5,29.8,17.2,29.7,16.8z"/>
		<path class="st20" d="M19.6,15.9c-0.1,0.1-0.2,0.1-0.3,0.2c-0.1,0.1-0.3,0.1-0.2,0.3c0.1,0.2,0.2,0.1,0.4,0c0.1-0.1,0.3,0,0.3,0
			c-0.4,0.3-0.1,0.7-0.2,1.1c0,0.2-0.2,0.1-0.3,0c-0.2-0.3-0.4-0.5-0.5-0.8c-0.1-0.1-0.3-0.3-0.1-0.5c0.2-0.2,0.4-0.3,0.7-0.4
			C19.4,15.7,19.5,15.8,19.6,15.9z"/>
		<path class="st21" d="M15.5,20.6c-0.1,0-0.1-0.1-0.2-0.1c-0.3-0.5,0.2-0.7,0.3-1c0.4,0.1,0.6,0.4,0.9,0.4c0.2-0.1,0.4,0,0.4,0.3
			c0.1,0.2,0.1,0.5-0.3,0.3c-0.1-0.1-0.3-0.1-0.4-0.2C15.7,19.8,15.6,19.9,15.5,20.6z"/>
		<path class="st12" d="M14,34.7c0.7,0.3,1.3,0.5,1.5,1.2c0.1,0.1,0.2,0.2,0.3,0.3c0.1,0.2,0.6,0.1,0.3,0.4
			c-0.1,0.2-0.4-0.1-0.5-0.3C15.1,35.8,14.6,35.3,14,34.7z"/>
		<path class="st18" d="M31.6,33c0,0,0.1,0.1,0.1,0.1c0.4,0.5-0.2,0.5-0.4,0.7c-0.4,0.4-0.4-0.2-0.7-0.3c-0.1-0.2-0.3-0.4-0.4-0.6
			c0.1-0.1-0.2-0.2,0-0.4c0.2-0.1,0.3,0,0.4,0.2c0.1,0.1,0.2,0.3,0.3,0.4C31.3,33.6,31.5,33.5,31.6,33z"/>
		<path class="st11" d="M26.9,14.3c0.6,0,1,0.1,1.5,0.4c-0.7,0-0.8,0.5-0.8,0.9c0,0.2-0.1,0.4-0.3,0.3c-0.2-0.1-0.1-0.3-0.1-0.4
			C27.4,15.1,27.5,14.7,26.9,14.3z"/>
		<path class="st7" d="M26.8,15.5c-0.3,0.5-0.7,0.2-0.9,0.2c-0.3,0-0.1-0.3-0.1-0.5c0-0.3,0.2-0.5,0.1-0.8c0-0.2,0-0.2,0.2-0.2
			c0.2,0,0.2,0.2,0.2,0.3c0,0.1,0,0.2-0.1,0.3C26,15.2,26,15.6,26.8,15.5z"/>
		<path class="st22" d="M33.7,30.8c-0.1-0.1-0.3-0.1-0.4-0.2c-0.2-0.1-0.4-0.1-0.5-0.3c0-0.1,0-0.1,0-0.2c0-0.3,0.1-0.5,0.4-0.2
			c0.2,0.2,0.5,0.3,0.7,0.5c0.1,0.1,0.4,0.1,0.3,0.4C34,31.1,33.9,30.7,33.7,30.8z"/>
		<path class="st23" d="M16.9,20.1c-0.1-0.1-0.3-0.2-0.4-0.3c-0.1-0.3-0.4-0.3-0.5-0.5c-0.1-0.1-0.3,0-0.2-0.2
			c0.1-0.1,0.2-0.2,0.3-0.1c0.4,0.2,0.7,0.4,1,0.7C17.4,19.9,17.2,20,16.9,20.1z"/>
		<path class="st24" d="M33.7,28.7c0.2,0.1,0.3,0.3,0.6,0.3c0,0,0,0.1,0.1,0.1c0.2,0.1,0.7,0.1,0.5,0.4c-0.2,0.3-0.5-0.1-0.7-0.1
			c-0.2-0.1-0.3-0.2-0.5-0.3C33.2,28.9,33.4,28.8,33.7,28.7z"/>
		<path class="st18" d="M33.9,19.4c-0.1,0-0.1,0-0.2,0c-0.1,0.4-0.5,0.5-0.8,0.6c0,0,0,0,0,0c-0.3-0.2-0.3-0.4,0-0.6
			c0.2-0.1,0.4-0.3,0.7-0.4c0.1-0.1,0.2-0.3,0.4-0.1C34.3,19.2,33.8,19.2,33.9,19.4z"/>
		<path class="st13" d="M39.9,26.9c-0.4-0.6,0-1.3,0-2C39.9,25.6,40.6,26.3,39.9,26.9z"/>
		<path class="st15" d="M41.9,26.8c-0.4-0.6-0.1-1.1,0-1.6C41.9,25.7,42.5,26.3,41.9,26.8z"/>
		<path class="st11" d="M13.1,34.7c-0.1,0.3,0,0.6-0.1,0.9c-0.2-0.2-0.7-0.1-0.7-0.5C12.3,34.7,12.9,35,13.1,34.7z"/>
		<path class="st25" d="M34,37.2c-0.3,0.4-0.7,0.8-1.1,1.3C32.9,37.6,33.3,37.3,34,37.2z"/>
		<path class="st26" d="M12.2,35.7c0.4,0.2,1.1,0.1,0.8,0.9C12.6,36.4,12.5,36,12.2,35.7z"/>
		<path class="st27" d="M18.5,17.7c0.2,0.2,0.1,0.4,0,0.7c-0.2,0.1-0.3,0.1-0.5,0c-0.1-0.2-0.2-0.4-0.1-0.6
			C18.2,17.5,18.3,17.3,18.5,17.7z"/>
		<path class="st25" d="M40.5,32.1c-0.1-0.5,0.2-0.8,0.4-1.1C41.1,31.5,41.1,31.5,40.5,32.1z"/>
		<path class="st28" d="M26.5,34.7c0.2,0.2,0.1,0.4,0.1,0.6c0,0.1,0,0.1,0,0.2c0,0,0,0-0.1,0c-0.3-0.2-0.4-0.3-0.1-0.6
			c0,0,0-0.1-0.1-0.2C26.4,34.7,26.5,34.7,26.5,34.7z"/>
		<path class="st29" d="M18.5,17.7c-0.2-0.1-0.3-0.1-0.4,0.1c-0.2,0-0.3,0-0.3-0.2c0-0.1,0-0.3,0.1-0.4
			C18.3,17.1,18.5,17.2,18.5,17.7z"/>
		<path class="st30" d="M17.9,17.3c0,0.1,0,0.3,0,0.4c0,0-0.1,0.1-0.2,0.1c-0.1,0-0.1,0-0.2,0c-0.2-0.1-0.4-0.2-0.3-0.5
			C17.4,16.9,17.6,17.1,17.9,17.3z"/>
		<path class="st31" d="M39.3,20.1c0.3,0.5,0.6,0.8,0.5,1.3C39.5,21,39.3,20.7,39.3,20.1z"/>
		<path class="st32" d="M18.1,18.1c0.1,0.2,0.3,0.2,0.4,0.2c-0.2,0.2-0.3,0.6-0.7,0.4c-0.1-0.1-0.2-0.3-0.2-0.4
			C17.8,18.1,17.9,18.1,18.1,18.1z"/>
		<path class="st33" d="M16.9,18.5c0-0.2,0-0.4,0-0.5c0.1-0.1,0.3-0.3,0.5-0.2c0.1,0.1,0.1,0.2,0.1,0.3c0,0.1,0,0.1,0,0.2
			c0,0.1-0.1,0.2-0.2,0.2C17.2,18.5,17.1,18.6,16.9,18.5z"/>
		<path class="st27" d="M31.7,18.6c-0.2-0.2-0.3-0.4-0.3-0.7c0.1-0.1,0.3,0,0.4-0.1c0.2,0,0.3,0.2,0.3,0.4
			C32.1,18.4,32,18.6,31.7,18.6z"/>
		<path class="st34" d="M18.8,32.2c-0.1,0.1-0.1,0.3-0.2,0.4c-0.1,0-0.1,0-0.2,0c0,0,0-0.1,0-0.1c0-0.2-0.5-0.3-0.1-0.6
			C18.5,31.7,18.6,32.1,18.8,32.2z"/>
		<path class="st35" d="M41.2,20.4c0.3,0.2,0.8,0.4,0.5,1.1C41.5,21,41.4,20.7,41.2,20.4z"/>
		<path class="st36" d="M31.7,17.9c-0.1,0.2-0.2,0-0.3,0c0-0.2,0.1-0.4,0.3-0.5c0.4-0.2,0.4,0,0.4,0.3
			C32.1,17.9,31.8,17.8,31.7,17.9z"/>
		<path class="st37" d="M31.7,18.6c0.2-0.1,0.3-0.2,0.3-0.4c0.1-0.1,0.2-0.1,0.3-0.1c0.1,0,0.1,0.1,0.2,0.1c0.1,0.1,0.1,0.3,0,0.4
			c-0.2,0.2-0.4,0.2-0.6,0.1C31.8,18.7,31.8,18.6,31.7,18.6z"/>
		<path class="st38" d="M17.3,18.3c0.1-0.1,0.1-0.1,0.2-0.2c0.1,0,0.2,0,0.3,0.1c0,0.1,0.1,0.3,0.1,0.4c-0.2,0.1-0.4,0.2-0.5,0
			C17.2,18.6,17.2,18.5,17.3,18.3z"/>
		<path class="st20" d="M24.6,12.9c0.4-0.4,0.4-0.4,1,0C25.2,12.9,24.9,12.9,24.6,12.9z"/>
		<path class="st30" d="M32.1,17.8c0-0.3-0.2-0.4-0.4-0.4c0.1-0.3,0.3-0.3,0.5-0.3c0.2,0.1,0.3,0.3,0.2,0.5
			C32.4,17.7,32.3,17.8,32.1,17.8C32.2,17.8,32.2,17.8,32.1,17.8z"/>
		<path class="st39" d="M17.4,17.8c-0.2,0-0.3,0.1-0.5,0.1c0-0.3,0-0.5,0.3-0.7c0.1,0.2,0.2,0.3,0.4,0.4
			C17.6,17.8,17.6,17.9,17.4,17.8z"/>
		<path class="st40" d="M34.4,26.2c0.1,0.1,0.3,0.2,0.4,0.3c0,0.1,0,0.2,0,0.3c0,0.1,0,0.3-0.2,0.2c-0.2,0-0.2-0.1-0.2-0.3
			C34.4,26.6,34.4,26.4,34.4,26.2C34.4,26.3,34.4,26.2,34.4,26.2z"/>
		<path class="st41" d="M32.4,18.6c0-0.2,0-0.3,0-0.5c0.1-0.1,0.1-0.1,0.2-0.1c0.1,0,0.1,0.1,0.2,0.1c0.2,0.1,0.3,0.3,0,0.4
			c0,0.2-0.1,0.3-0.3,0.3C32.4,18.8,32.5,18.7,32.4,18.6z"/>
		<path class="st32" d="M33.2,17.7c0,0.2,0,0.3-0.1,0.4c-0.1,0.1-0.3,0.1-0.4,0l0,0c-0.1-0.1-0.1-0.2-0.1-0.2c0-0.1,0-0.1,0.1-0.2
			C32.8,17.6,33,17.5,33.2,17.7z"/>
		<path class="st42" d="M32.7,17.8c0,0,0,0.1,0,0.1c-0.2,0-0.2-0.1-0.2-0.3c0-0.2-0.1-0.4,0.1-0.5c0.1,0,0.2,0,0.3,0.2
			C33.1,17.5,32.8,17.6,32.7,17.8z"/>
		<path class="st43" d="M32.7,17.8c0-0.2,0.4-0.3,0.1-0.5c0.4-0.1,0.3,0.3,0.4,0.5C33,17.6,32.8,17.8,32.7,17.8z"/>
		<path class="st44" d="M32.7,18.2c0.1,0,0.3,0,0.4,0c0,0.2,0.1,0.4-0.3,0.4C33.1,18.3,32.6,18.3,32.7,18.2z"/>
		<path class="st45" d="M32.3,11c0.2,0,0.4,0,0.4,0.2c0,0.2-0.2,0.1-0.3,0C32.3,11.2,32.3,11.1,32.3,11z"/>
		<path class="st46" d="M32.4,18.6c0.2,0,0.2,0.1,0.1,0.2c-0.2,0-0.5,0.1-0.7-0.1C32,18.7,32.3,18.8,32.4,18.6z"/>
		<path class="st47" d="M14.9,28.8c0.1-0.2,0.4-0.1,0.5-0.3c0,0.4-0.3,0.3-0.4,0.4C15,28.9,15,28.9,14.9,28.8z"/>
		<path class="st48" d="M15,28.1c0.2,0,0.5,0,0.7,0c-0.1,0.2-0.2,0-0.3,0.1C15.3,28.2,15.2,28.2,15,28.1z"/>
		<path class="st49" d="M17.3,18.3c0,0.1,0,0.3,0,0.4c-0.1-0.1-0.3-0.2-0.4-0.2C17.1,18.5,17.2,18.4,17.3,18.3z"/>
		<path class="st50" d="M32.5,17.1c0,0.2,0,0.3,0,0.5c0,0.1,0,0.1-0.1,0c0-0.2-0.1-0.3-0.1-0.5C32.4,17.1,32.4,17.1,32.5,17.1z"/>
		<path class="st51" d="M27.4,24.8c0.3,0.7-0.3,1.2-0.6,1.7c-0.4,0.5-1.1,0.8-1.7,0.8c-1.4,0-2.6-1.4-2.4-2.6
			c0.1-0.8,1.6-2.3,2.2-2.1c0.6,0.2,1.4,0,1.8,0.6C27,23.8,27.4,24.2,27.4,24.8z"/>
		<path class="st3" d="M20.3,29c-0.7,0.1-1.2-0.3-1.5-1c-0.3-0.6-0.5-1.3-0.7-2c0-0.1-0.2-0.4,0.1-0.5c0.3,0,0.4,0.1,0.5,0.3
			c0.2,0.6,0.3,1.3,0.6,1.9c0.1,0.4,0.4,0.7,0.8,0.8c0.6,0.1,0.9-0.2,0.7-0.8c-0.2-0.6-0.4-1.2-0.7-1.8c-0.1-0.2-0.2-0.4,0.1-0.4
			c0.2,0,0.5-0.2,0.6,0.2c0.2,0.8,0.5,1.5,0.6,2.3C21.7,28.6,21.3,29,20.3,29z"/>
		<path class="st52" d="M29.7,29c-1,0-1.3-0.4-1.1-1.2c0.2-0.7,0.4-1.3,0.5-2c0.1-0.4,0.3-0.3,0.5-0.3c0.4,0,0.1,0.3,0.1,0.4
			c-0.2,0.5-0.3,1.1-0.5,1.6c-0.1,0.3-0.2,0.6,0.1,0.8c0.4,0.2,0.7,0.1,1-0.3c0.4-0.5,0.4-1.1,0.6-1.6c0.2-0.4,0-1.2,0.7-0.9
			c0.5,0.1,0,0.7-0.1,1.1c-0.1,0.7-0.3,1.3-0.8,1.8C30.5,28.8,30.1,29.1,29.7,29z"/>
		<path class="st52" d="M24.9,21.5c-0.2,0-0.3,0-0.4-0.1c-0.2-0.1-0.6,0-0.5-0.4c0.1-0.3,0.4-0.1,0.6-0.1c0.3,0.1,0.7,0.1,0.9-0.3
			c0.1-0.4-0.2-0.6-0.5-0.7c-0.3-0.1-0.6-0.2-0.8-0.5c-0.3-0.4-0.2-0.8,0.2-1.2c0.4-0.3,1.3-0.4,1.6-0.2c0.1,0.1,0.1,0.2,0.1,0.3
			c-0.1,0.2-0.2,0.3-0.4,0.2c-0.2-0.1-0.3-0.1-0.5-0.1c-0.2,0-0.4,0.1-0.4,0.4c0,0.2,0.1,0.4,0.3,0.5c0.1,0.1,0.3,0.1,0.4,0.2
			c0.6,0.2,0.9,0.7,0.7,1.3C26,21.4,25.4,21.4,24.9,21.5z"/>
		<path class="st53" d="M23.1,19.9c0,0.2-0.2,0.3-0.4,0.3c-1.6,0.9-2.7,2.1-3,3.9c0,0.2,0,0.5-0.3,0.5c-0.3-0.1-0.1-0.3-0.1-0.6
			c0.3-2.1,1.6-3.3,3.4-4.3C23,19.6,23.1,19.7,23.1,19.9z"/>
		<path class="st53" d="M30.6,24.7c-0.1-0.1-0.2-0.2-0.2-0.3c-0.3-1.9-1.3-3.4-3.1-4.2c-0.2-0.1-0.3-0.2-0.2-0.4
			c0.1-0.2,0.3,0,0.4,0.1c1.9,0.9,2.9,2.4,3.3,4.4C30.8,24.4,30.8,24.6,30.6,24.7z"/>
		<path class="st53" d="M25,30.7c-0.9,0-1.7-0.2-2.5-0.6c-0.1-0.1-0.4-0.1-0.3-0.3c0.1-0.3,0.3-0.1,0.4,0c1.6,0.8,3.2,0.7,4.7,0
			c0.2-0.1,0.4-0.2,0.5,0c0.1,0.3-0.2,0.3-0.3,0.4C26.8,30.5,25.9,30.8,25,30.7z"/>
		<path class="st54" d="M25.6,41.8c0.4,0.2,0.8,0,1.3,0.2c-1.3,0.4-2.4,0.4-3.5,0c0.1,0,0.3,0,0.4,0c0.2,0,0.3,0,0.5,0
			c0.2-0.1,0.4-0.1,0.7-0.2c-0.6,0-1-0.2-1.5-0.5c-0.3-0.2-0.2-0.3,0-0.4c0.4-0.1,0.7-0.1,1.1,0c-0.2-0.1-0.5,0-0.7-0.2
			c-0.2-0.2-0.4-0.3-0.6-0.5c0.3-0.2,0.7-0.2,1-0.3c0.1,0.1,0.2,0.1,0.3,0.1c0,0,0.1,0,0.1,0c0,0-0.1,0-0.1,0c-0.1,0-0.2,0-0.3,0
			c0-0.3-0.3-0.1-0.4-0.2c-0.2-0.2-0.6-0.2-0.5-0.5c0.1-0.2,0.5-0.2,0.8-0.2c0.3,0,0.5,0.4,0.8,0.2c0.1-0.2,0.3-0.1,0.4-0.1
			c0.5,0,1-0.3,1.5,0.1c-0.2,0.4-0.7,0.4-1,0.7c-0.1,0.1-0.2,0-0.3,0c0.1,0,0.2,0,0.3-0.1c0.3,0.1,0.7,0.1,1.1,0.2
			c-0.3,0.3-0.6,0.5-1,0.6c-0.1,0.2-0.3,0.1-0.7,0.2c0.4-0.1,0.7-0.1,1,0c0.2,0,0.4,0,0.5,0.2c-0.5,0.3-1,0.7-1.7,0.5
			C25.2,41.9,25.5,41.7,25.6,41.8z"/>
		<path class="st55" d="M25.3,39c-0.1,0.2-0.3,0.1-0.4,0.1c-0.5-0.3-0.5-0.8-0.3-1.3c0.1-0.2,0.2-0.4,0.5-0.4c0.3,0,0.4,0.2,0.5,0.4
			C25.8,38.2,25.6,38.6,25.3,39z"/>
		<path class="st7" d="M23.9,40.6c0.3,0,0.6,0.2,0.9,0.1c0.2-0.1,0.1,0.2,0.1,0.4c-0.4-0.4-0.9-0.2-1.4-0.3
			C23.6,40.7,23.7,40.7,23.9,40.6z"/>
		<path class="st56" d="M26.4,40.8c-0.4,0-0.8-0.1-1.1,0.3c-0.1-0.4-0.1-0.5,0.3-0.4c0.1,0,0.3,0,0.4-0.1
			C26.1,40.7,26.3,40.8,26.4,40.8z"/>
		<path class="st53" d="M15,25.8c0.2,0,0.5,0,0.5,0.3c0,0.4-0.3,0.4-0.5,0.5c-0.2,0-0.5-0.1-0.5-0.4C14.4,25.9,14.7,25.7,15,25.8z"
			/>
		<path class="st32" d="M14.5,25.4c0.5-0.5,0.7-0.5,0.9,0.1C15.1,25.3,14.8,25.4,14.5,25.4z"/>
		<path class="st57" d="M16.4,29.1c0,0.2-0.2,0.2-0.3,0.2c-0.1,0-0.2,0-0.2-0.2c0-0.1,0.1-0.2,0.3-0.2C16.3,28.9,16.3,29,16.4,29.1z
			"/>
		<path class="st58" d="M30.3,33.9c0,0.2-0.1,0.4-0.3,0.4c-0.3-0.1-0.5-0.3-0.5-0.7c0-0.2,0.1-0.4,0.4-0.4
			C30.1,33.3,30.3,33.6,30.3,33.9z"/>
		<path class="st59" d="M32.8,30.3c0.2,0,0.4,0,0.5,0.3c-0.4,0.4-0.4,0.4,0,0.5c0.2,0.1,0.2,0.2,0.1,0.3c-0.2,0.2-0.3,0.3-0.6,0.1
			c-0.3-0.1-0.3-0.3-0.3-0.6C32.5,30.7,32.9,30.6,32.8,30.3z"/>
		<path class="st60" d="M31.8,31.8c0.3,0.1,0.5,0.3,0.6,0.6c0,0.2-0.2,0.3-0.4,0.3c-0.3,0-0.5-0.2-0.5-0.6
			C31.5,31.9,31.6,31.8,31.8,31.8z"/>
		<path class="st61" d="M26.5,34.7c0,0-0.1,0-0.1,0c-0.2-0.1-0.5,0.1-0.5-0.1c0-0.4,0.4-0.1,0.6-0.2C26.5,34.6,26.5,34.6,26.5,34.7z
			"/>
		<path class="st60" d="M20.3,34.4c-0.1,0-0.3-0.1-0.2-0.2c0.1-0.3,0.1-0.7,0.6-0.8c0.2,0,0.3,0.2,0.3,0.4
			C21,34.2,20.7,34.4,20.3,34.4z"/>
		<path class="st40" d="M19.1,32.5c0.1,0.1,0.2,0.2,0.2,0.3c0,0.1-0.1,0.2-0.2,0.2c-0.2,0-0.2-0.1-0.2-0.3
			C19,32.6,19.1,32.5,19.1,32.5z"/>
		<path class="st60" d="M35.1,26.1c-0.3,0-0.6,0-0.6-0.3c0-0.3,0.3-0.4,0.5-0.4c0.2,0,0.6,0,0.6,0.4C35.6,26.1,35.3,26.1,35.1,26.1z
			"/>
		<path class="st3" d="M34.9,24.3c0,0.1-0.2,0.2-0.3,0.2c-0.1,0-0.1-0.1-0.1-0.2c0-0.1,0.1-0.3,0.2-0.3
			C34.8,24.1,34.9,24.2,34.9,24.3z"/>
		<path class="st3" d="M34.1,21.4c0.1-0.1,0.2-0.3,0.3-0.2c0.2,0.1,0.1,0.2-0.1,0.2C34.3,21.4,34.2,21.4,34.1,21.4z"/>
		<path class="st62" d="M29.2,15.6c-0.1,0.1-0.1,0.1-0.2,0.2c0,0-0.1-0.1-0.1-0.1c0-0.1,0.1-0.2,0.2-0.2
			C29.1,15.5,29.2,15.5,29.2,15.6z"/>
		<path class="st63" d="M21.9,34.1c0,0.2,0.2,0.4,0,0.5c0,0-0.2,0-0.2,0C21.7,34.3,21.9,34.3,21.9,34.1z"/>
		<path class="st64" d="M32.9,20.1c0.1-0.4,0.5-0.4,0.8-0.6c0,0.3-0.1,0.7-0.1,1C33.3,20.4,33.3,19.9,32.9,20.1z"/>
		<path class="st65" d="M17.7,18.3c-0.1,0-0.2-0.1-0.3-0.1c0,0,0-0.1,0-0.1c0.1-0.1,0.2-0.2,0.3-0.4c0,0,0.1,0,0.1,0
			c0.1,0,0.2,0.1,0.3,0.1c0,0.1-0.2,0.2,0,0.4C18,18.2,17.8,18.1,17.7,18.3z"/>
		<path class="st66" d="M17.8,17.7c0.2,0.4,0,0.4-0.3,0.4c0-0.1,0-0.2,0-0.3c0.1,0,0.1-0.1,0.2-0.1C17.7,17.7,17.7,17.7,17.8,17.7z"
			/>
		<path class="st23" d="M32.2,18.2c-0.1,0-0.2,0-0.2,0c0-0.2-0.1-0.3-0.3-0.2c0.1-0.2,0.3-0.1,0.4-0.1l0,0
			C32.2,17.9,32.3,18,32.2,18.2z"/>
		<path class="st67" d="M32.2,18.2c-0.1-0.1-0.2-0.2-0.1-0.4c0.1,0,0.2-0.1,0.3-0.1c0,0,0.1,0,0.1,0c0,0.1,0,0.2,0.2,0.3
			c0,0.1,0,0.2,0,0.3c-0.1,0-0.2-0.2-0.3-0.1C32.3,18.1,32.3,18.2,32.2,18.2z"/>
		<path class="st11" d="M25.8,24.7c-0.4-0.4-0.3-0.8-0.3-1.3c0-0.3,0.1-0.5,0.5-0.3C27,23.7,26.9,23.9,25.8,24.7z"/>
		<path class="st7" d="M26.7,25.7c-0.3,0-0.7,0-0.9-0.3c-0.1-0.1,0.8-1,1.1-1c0.2,0,0.4,0.2,0.3,0.3C26.8,24.9,27.7,25.7,26.7,25.7z
			"/>
		<path class="st11" d="M24.4,25.3c-0.3,0.3-0.3,1-0.7,1.1c-0.4,0.1-0.6-0.6-0.6-0.8c0-0.5,0.5-0.5,0.9-0.6
			C24.2,24.9,24.3,25,24.4,25.3z"/>
		<path class="st11" d="M24.6,24.4c-0.4,0.5-1,0.3-1.5,0.6c0,0-0.2-0.1-0.2-0.1c0.1-0.3,0.1-0.7,0.3-0.9c0.1-0.2,0.4-0.1,0.6,0
			C24.2,24.1,24.4,24.2,24.6,24.4z"/>
		<path class="st7" d="M24.1,26.4c0-0.1,0.1-0.2,0.1-0.3c0.1-0.2,0.2-0.5,0.4-0.5c0.3,0,0.2,0.4,0.4,0.5c0,0.1,0,0.2,0,0.3
			c0,0.2,0.5,0.4,0.2,0.6c-0.3,0.2-0.7,0-1-0.1C24.1,26.9,24.1,26.6,24.1,26.4z"/>
		<path class="st7" d="M25.9,26.9c-0.5-0.2-0.6-0.6-0.7-1c-0.1-0.2,0.2-0.3,0.4-0.2c0.4,0.2,1,0,1.1,0.5
			C26.8,26.4,26.2,26.7,25.9,26.9z"/>
		<path class="st7" d="M25.2,23.7c-0.1,0.1,0.2,0.6-0.2,0.4c-0.4-0.1-1-0.4-1-0.8c-0.1-0.4,0.6-0.4,0.9-0.5
			C25.2,22.9,25.2,23.3,25.2,23.7z"/>
		<path class="st68" d="M25.1,24.5c0.2,0.1,0.5,0.2,0.5,0.5c0,0.3-0.3,0.5-0.6,0.5c-0.2,0-0.4-0.2-0.4-0.5
			C24.6,24.7,24.8,24.5,25.1,24.5z"/>
		<path class="st69" d="M24.2,39.8c0.2,0.2,0.7-0.5,0.7,0.3C24.7,40,24.5,39.9,24.2,39.8C24.3,39.8,24.2,39.8,24.2,39.8z"/>
		<path class="st70" d="M25.9,39.8c-0.2,0.1-0.4,0.2-0.6,0.3C25.2,39.7,25.2,39.7,25.9,39.8C25.9,39.8,25.9,39.8,25.9,39.8z"/>
	</g>
</g>
</svg>
