<?xml version="1.0" encoding="utf-8"?>
<!-- Generator: Adobe Illustrator 23.0.0, SVG Export Plug-In . SVG Version: 6.00 Build 0)  -->
<svg version="1.1" xmlns="http://www.w3.org/2000/svg" xmlns:xlink="http://www.w3.org/1999/xlink" x="0px" y="0px"
	 viewBox="0 0 66 105.6" style="enable-background:new 0 0 66 105.6;" xml:space="preserve">
<style type="text/css">
	.st0{display:none;}
	.st1{display:inline;}
	.st2{fill:#274890;}
	.st3{opacity:0.4;fill:#274890;enable-background:new    ;}
	.st4{display:inline;fill:#274890;}
	.st5{font-family:'MyriadPro-Regular';}
	.st6{font-size:25px;}
	.st7{fill:#0D0015;}
	.st8{fill:#FEFEFE;}
	.st9{fill:#E7C21E;}
	.st10{fill:#347F3D;}
	.st11{fill:#FDFDFD;}
	.st12{fill:#FEF24F;}
	.st13{fill:#EB1C24;}
	.st14{fill:#FDF14F;}
	.st15{fill:#FCFCFC;}
	.st16{fill:#347E3D;}
	.st17{fill:#FBFBFB;}
	.st18{fill:#FCF14F;}
	.st19{fill:#FAFAFA;}
	.st20{fill:#FDFCFD;}
	.st21{fill:#FBFAFB;}
	.st22{fill:#F8F8F8;}
	.st23{fill:#F8F8F9;}
	.st24{fill:#F9F9F9;}
	.st25{fill:#F7F7F7;}
	.st26{fill:#F8F7F8;}
	.st27{fill:#F5F5F5;}
	.st28{fill:#F9F8F9;}
	.st29{fill:#EFEFF0;}
	.st30{fill:#34783C;}
	.st31{fill:#0E0117;}
	.st32{fill:#1A0E23;}
	.st33{fill:#1B0F23;}
	.st34{fill:#12051B;}
	.st35{fill:#F6F6F6;}
	.st36{fill:#11041A;}
	.st37{fill:#1D1125;}
	.st38{fill:#11051A;}
	.st39{fill:#FDFDFC;}
	.st40{fill:#22162A;}
	.st41{fill:#170B20;}
	.st42{fill:#100419;}
	.st43{fill:#15081D;}
	.st44{fill:#160A1F;}
	.st45{fill:#1E1226;}
	.st46{fill:#0D0016;}
	.st47{fill:#CAC8CC;}
	.st48{fill:#D5D3D7;}
	.st49{fill:#C6C5CA;}
	.st50{fill:#E8E7E9;}
	.st51{fill:#211629;}
	.st52{fill:#817F84;}
	.st53{fill:#C8C5CA;}
	.st54{fill:#BAB6BC;}
	.st55{fill:#0D0116;}
	.st56{fill:#0D0115;}
	.st57{fill:#0E0116;}
	.st58{fill:#34803D;}
	.st59{fill:#EA1E25;}
	.st60{fill:#F7F9F7;}
	.st61{fill:#1F1427;}
	.st62{fill:#100318;}
	.st63{fill:#12061B;}
	.st64{fill:#0F0218;}
	.st65{fill:#0F0318;}
	.st66{fill:#221629;}
	.st67{fill:#1C1124;}
	.st68{fill:#1D1126;}
	.st69{fill:#D8D6DA;}
	.st70{fill:#413747;}
	.st71{fill:#514858;}
	.st72{fill:#FCF050;}
	.st73{fill:#F7F8F5;}
	.st74{fill:#F9FAF8;}
</style>
<g id="Layer_2" class="st0">
</g>
<g id="Layer_1" class="st0">
	<title>Asset 2</title>
	<g id="Layer_2_1_" class="st1">
		<g id="Layer_1-2">
			<g id="Group_1">
				<path id="Rectangle_14" class="st2" d="M10.3,2.7h1.2v11.2H0.3v-1.2C0.3,7.2,4.8,2.7,10.3,2.7z"/>
				<rect id="Rectangle_15" x="35.5" y="20.3" class="st2" width="11.2" height="25.6"/>
				<rect id="Rectangle_16" x="17.9" y="37.9" class="st3" width="11.2" height="25.6"/>
				<path id="Rectangle_17" class="st2" d="M53.1,37.9h11.2v18.6c0,3.9-3.1,7-7,7h-4.2C53.1,63.5,53.1,37.9,53.1,37.9z"/>
				<rect id="Rectangle_18" x="0.3" y="55.5" class="st2" width="11.2" height="25.6"/>
				<path id="Rectangle_19" class="st2" d="M53.1,2.7h4.2c3.9,0,7,3.1,7,7l0,0l0,0v4.2H53.1V2.7z"/>
				<rect id="Rectangle_20" x="53.1" y="20.3" class="st3" width="11.2" height="11.2"/>
				<rect id="Rectangle_21" x="0.3" y="37.9" class="st2" width="11.2" height="11.2"/>
				<rect id="Rectangle_22" x="35.5" y="52.3" class="st2" width="11.2" height="11.2"/>
				<path id="Rectangle_23" class="st2" d="M17.9,69.9h11.2v1.2c0,5.5-4.5,10-10,10h-1.2C17.9,81.1,17.9,69.9,17.9,69.9z"/>
				<rect id="Rectangle_24" x="17.9" y="2.7" class="st3" width="28.8" height="11.2"/>
				<rect id="Rectangle_25" x="0.3" y="20.3" class="st2" width="28.8" height="11.2"/>
			</g>
		</g>
	</g>
	<text transform="matrix(1 0 0 1 -1.9216 103.7609)" class="st4 st5 st6">DOCS</text>
	<i:aipgf  id="adobe_illustrator_pgf">
		<![CDATA[
	KLUv/QBYXekCmvl2lyqQAGCYDwDwe7eTOrZT0VOwGnlA2BNnMDzyQml3qlpqpZRFAAAAEAEAAAQY
CYsJngkq3wG1B9ymtACNv2P5ZfmvCfDw/JJV2vzCqjp+//x9AHkWzZKXJf3filluHopmLKu8R4B3
4wsMe3XlMyQPTS3sp3l+ezzLk5u8JCez/DnLuq09L/2GWPHbot+4DfkAb93CvjM2BngMXXuaTj2c
ausvzwJWsFa9FIX26Pyl5Y78gX2nk3K4pvitZkALz/RL6SM3tfAcuclrlYe9J6Uvaet/OstfnWWO
5lltjBW3mTo217GNdl7SHbZor9HOS8oJtLqiUbwrq94YBGqLkvaKva7XIChGIgHyJAD/hjQF/Kba
WoD/aD7A97T/HI1zTmvu+1naAFXsfzvTcftr7bykHk5pvm5hmX5TcOz10tr3cztr59e62cXO0rj2
ZVhWae5v5VT9W+28pCytjskulRy7NI3zS/p9TbcdTa5jqXZJXXT7ctuZDL93dkt5pukXbj8sq9oX
brW3jltSgK9d8q9pzccvXMdk7fuVtvkl3QYiqRAgT2b5qyc25OmKX3tgOFa5pC7FGI4jyYpTr2or
oipua/qlsOI3AP+GTLEWz06W/eOiaGr85CbcqjwnLqvjV+Zwjb8xaLdYb8fXAtZ65TMj73t/2yzN
USzJsof+syLvZJ+Ypzm6vlOvfCYcR7J+Ve3s6dVq82UZrtRxTFZh2KscAK8Hhr0aWmIZAO+XLXvs
n5P7ftY1nG3dum3tXwGsaK/6MdnDBQgYMKDFen2r783DHZpjuMXP3LxVu28Are+A2tjJfYZj3/wz
yXrlMy+5ruUULMsTUOOqF6Z5ACu6195Te09btxQPz6+WdgRwBHC85JqOqU50jPBwqn1/G4B7BLX3
/DYAf1Oe610qGfaxHNOvNqZj+CUgBrcBWPH7aw+oLR70bwOc6Bih8POA2rtyXMcXUOux/y78tlTt
/yl44jJPW9C+jqXeX9dtw7tyDL8EKLSHd2WCjEY04LevQwNPXNbWLeV04/UkdrHX9JuZcDIVJ0tx
tK3tzNe1h1uOG688FXVKNRxrV56CAAARJ0M+7pOXo8j3+W3tJMfTHLtIkqe4RVMUyZGXXTz5WZLf
1kbyFE+xJEXey1MsxYe28hRQyx5g5oo6Im1nrrZLCJpG21wLQONagra1AW1nA0Ta1nbWirTx2xoP
u9m/rZnmuEuRLDkXzz7yb2vmGe4ukpuX4yjy/W3NLDe5RVLspdnHzb+tjWVZhmd5muIZ9rCHnCx5
aZacj+T57WyjbQ/Pr9cDZp7mXy0BqC1CUYvlOFVkDi0OQI4xYEZ7eEDtqX96NhpuvJ5Gj7bwc9vy
aG4ck+eXrPr6jXm07934XbXqluMDvBnajT1Mp95MS1W3AXi+XL/uqqneF4Zbtf5p/dNW3XLiTcyB
ZfkDy/JHa9GxP9G+r+tW9fI1PcDjYdVb/5bzot9a5Wf6e85v4Yqo9nELc+r4bTmaD/BmtN/GLczx
swz7APGqLbTXl1eespjf9lNoC1b8qtr/0RTaolb5hNRGcz0A3i/XKh9SZPIqvswx+bPxy4rBnGwm
yFjxW8fv58QywWkET7Cceg3wnMDMw/PcglvsmmfFHgAyDIq8a20NewponlwTIP95bsHy5Brcql63
/eB48kxrWf61AU+Ta3D7Wb6OX/CdwVoVc+U/t69XjAZXq9eF27f+7QzGXiA3efZ93frPAmnawwPq
N35X8QuSJdfgNgbztRyDYck1TnKEzM8DPj72P5obrwcfbYMgwklzsOLXlVXxegr9K0Z/TgPj+sli
+bcq0OVjmSWDdayFX7HfsuJYC8xUbS27oA/gfwqM5a9qXyD40rSHa9kFgUCbzeZyAbPLZV3TNQUz
N27pmNyqv5893aZir3Ll9/sZhFMuvALfFZjJP7a2fzUa4N03wOvCKfflwRbdurEHMy+D6yZNQa9q
ZxqkX3p+YdjXKw/X8svD8Btjxe+X4VUtx3Crelky/GphlQAPxgHIbiy/Ne1jMBn0rY9fOKai25f7
ZdDHb/y+/Mr9cuwFxn5ALH5fdAyesxbdwvQGXFNw5d1ajj/Q9duXd9tfg3WL9f4Bs6wCXf/9BzMa
Trlx+/qeBbbm9rPa385g7WE4lgJj+a1VngZZ8Qt/X9NgHXsV6P1neRf8nsVq3RiYxWIxUJZlWQaz
+H3f13sPZl7VtqAAD69eMdV/VS3YtiAIzDagd+G3JgB9HVO1K9jC8Ot6lQqy4venIP3S/vvXTUGz
c80HaD8LJE/Nw6z4pX0tx2DgGWYI2RyrvYclw/LnxC/LTzguo+vYv16y6sYrx2Uezbe3Rj11Hvu6
buFKF7k5crI8z37ufnK+zc/Ueum+nz2VnYulaJ7neY7fKIYNrexnwxG/rPdvPKvlcFxWBuDfUOzn
De+mtkmya2V4aiZJco08RVHk42iSWxzFL9RKsZ9m2M8dhuUXllw7TTM0u1ieo1iWn2g2QvIn9vPm
dNLfD2gzrxiBWcdgmfad2rN+++EtXOGaA/aurDkvKZeRmoOu3xj0PRzr7C2KnvqnPpYJNEcA/g3g
+zj2sjx3OG7y413URvPkpjmaYhh+ZxhqpSiWve+TFM/w22XY0PjIt8m5yEeS/HrZG/B7fmaojV8P
fd3C88t/TrM0xz7yvfcWP7PUTF6aZDfNPvIx/EhSI8ey3ObJzfA0+Vf2hsY5OXazc9M0ucnDb2sO
2vXb1yz/RSmW35flOwiKrTkmbIfjsq05aFb81rX3eFb7upzKS8plmsOzWhp0Ci8pl41lqDm+T71i
BC78xianzi8p1+r29eWKh9/Kabykrne9J3BhedKg49YT+3mjOeg6lisuVQtPtABkGPYjra1jz2o1
WtwOUDUH/WVYVmnaq+TPqWP/iqlkCsdlnJvhycmwkyYvv7HUxjIUw77PU/xIUuO8k5yL53iKJvn1
sKGNnRz5GG7y47TvvBaOy8hSK0ktDBtab2gOAfKEFb9uHJMnHJeFZkhyzeEB8NJ0GyBuVY7LNBxN
3A6u7Q6aHeyaw9ctJZbfBSsA/Q347ev9s0JzeLh+PxyXLRTaIm7f32oa9fcpuaMFaGH6jduPQnN8
ucJxWfg5Yvmlvw+dzEvKcdn+xK4tOoov1+2v6RgMXzTN8eW69V/luEzbX9jwKdlNGx7OxgUFJ9Gk
g59KpzIYHum4bLQYjUTsiXIZneKfSqfo1D+x6Kdw/NPBBUl01dCCJPqWgiS6aglTaCcS/ZOoYRAZ
QFlgJBgJRuIyGMlAhDCkCi3nYqJCy1WwwFcwEozEot0/GUiklSdWG5ZYbS6DJVbziA2JugVqBokK
NnJIDskh0MZJGTyTMrjacNFcJofkEItyWexhGT7Bb5/gt0/wW+ET/OayF4d9cViPqIagLFvlHCjL
VmEiyrLV7tT6XfDisCiG5ECRrcCB4UCRMAsxswMUSRQ4IpjZ0IEiIWZmTxSMDfAIzHGgcKxILNoN
wM5DGMYG+MBLIToO4cBB4TiEAy9GbD4PIT3AL2JNUURUESyx2lwmh1i0u7TokuYTioSXBISiLiki
lwT2RBcwusRliQTnkrCoWXSpqwgJd3+KItLxxC7Fop2FrQvtSTTpXJZxC+vUAZ1avxGRGu24rBZN
+iFSW1hbpI65oklf24S7LSwv7HyHQpBED3EZd3Y2LC1PJJ4RY2MmSKLXpgutJEwYnHVZSCe3wEmn
7ZpFmEI7EFT7Lal0CqdCy7nMcxheMNZTFVqedL1jC204cB5M+uyBGohi4s3eCO0KNKMCX+3V1KH4
FoiYRyzaoJBWzmUIDBvOHkXUWjZiwSFQmgJHBGYboxAziZX6alJ4GkiiJ2Kny+naID6Oh9nvjVZa
njBQ0orwqSsu+6fse7B0aeWygYsO+QS/uezFYVGDFOQFs0KCW9EM5nEIFx4R3BRRi1kVEQQO8rjH
QR43cBldkTUet6KoJXFoOQWBPVEuYxgovgVyFN8CJx0mSRl80mkLDuHHVcwol3HcOLAnnVbimREc
Ruxk2RwCZdkcEHuiXLZuLNpRaHlCQMuTbjGmDO6idBgNtSs4hLRYoDIaqrd6aOgRwX3ZkURXReyJ
JsQRBNxcljoYqL3VMPZBCCP2PQ4k0Q+9AlrXEIbA7Iy4rNW8G85iHhgKWPLAFk4jFIVA5AxkWynQ
a6G0EGGEiGLRGmnwCz+iTBgQCLePHPPgERebAMyyvtQlATowsOFcKdCkUWnRKQ8axq5s7kDFvsAq
E36ihfh/TAQBdyI2NeAIQXWglkRoQDmjkIFucCCJXvidCIFJr4WUwRcpyAsaEgaUZVMKaKJzmVsh
iSpqogYlHLaLUGKIrWF+PF2E4hnwBorBADhRuYvygVhiDULT6XjiXOk8KJku0L0ou290yoVqDts/
jWqH2E7yjHA8HLANl0OUgIviOeGg1QfhbSMkchRNGdybWCaRqDBtFK5ShzAeUFoWBYk8cA4GMZUV
gpFgJSg0jwa6V/+N3PnsydrynGfIk+CKbfZ3EFnwplGh3NOnk9lyCMEiyezY47kC6/4IDgrLELRr
XFThi7O6nH17cdhu/f9vAwh3MwQoogRSGDK3RwS3qlb7Ftc9kwFFws/Ap8BlDQyPGDRASBerINw9
KhU+sXGo2P8qoHXdBSORywYcdamnTofNWbpIvWeClZYg3N3RvBsO/BCY3lrLjo7LOAvxf4sCTfT/
Kk8wxukKxTz2YQ6Eu1UCZqGT9I3JZZ2LU/l/2wRAhmlUUIhC1KNrMWYuK3QbMTWZdoQ0kIAdLk0h
VdotsgPhMgVDtSX4C4EJ4h3s1/BQpAZchgg1DCIEmyKUODNowhTaF4QWSOA/b71DJQKb8dSxhefy
2SKCiBHZTBlqPF/+PsxBAuPZwJtt4rKUadWYfvXKbDEyEUuYy8LwiODmsvC8ZDZ60PG4YKOiMQpP
bIKeS4S7PSHQxW0DApM+MBSw27N+o0EMvHJlc1kBhUDkzlelwBHAVDbCSCwPYjCDgaTBD3XAj47L
Mq8DDF2oBR3fMtClTYD0UIQHC5d1UBETP1RKspV84lbpn+bTaxy5LJHgTHam9GUR4e4FhxHCkWKR
QWOkb7CmUgbnMtQHPeis+ekW9nMa4AiBjS14CFaVbRqJ/3MZZPHjg4GUYCaVLZoqBc1G9ehECzEU
lwWoZUKaDHQGnkGGxYTApLnMoANNP7WBCZ20TFilz2VepiUSSZz1iODecB6lf0A//l8ZHgYha9Lg
h9hYtIuZmfAzWTTpc1mL7EBijnD3YXQq+ieumLTqT7NnRDvYSINfZAA16bSWPQssZpTLEpqKi7Ty
hIPlRGF2RLuZMkK4acODOmXKpuSo7BqUeEKVA4pEU48s440Rjo2KtKSamAY1iW0RLlOMIOAWR5PG
9kloedtumI0tFPE0tm+7ig2Fsd02oDjotpbu/3MZnUkQV4EK6GPapBuJXal/tPk2Dw==
	
			]]>
		<![CDATA[
	i90dBQLiRuWgLPs1MKIdLVCDEpEY+VTUCGlJMQepBRQVVIO1q8hemhZoUBMuSyWEYDZu0f9Vf7Js
d4cGpVxBNQQOXuQBaYbmJERRm4joooxop6E7LRYs1G1cjCDgPhAgdFsnoeVtD+65TeSevK2D38XG
ZQOfqtvIz7rYWmQH0nV0tFeUFtIxWFzsuaJM6k8kfBSEjgIBsWs6cId1K9I1NB24wVQo0pWoEe24
zNO8K6s8ZTQvF9WTgppD4/ySglktwH84v6QsT7fqdj6x4jeArPHw2zKY2/hS020mfjNu3Gp17F+3
/eyKxaF8KDv+HiPXsVSA/7Ahj4gNeepYrrAhz6vyn8OGPK5PvVY25OkqOZN6D09UMsXTsS8lJ7Rq
2TXgpfJ1/H4vVf/z91J9vUGSJyfV9aJN2A6teKniuFXFsRX93T8L8PXbCmCO0T3m0rP8zQJUs9y+
ddy+sOqbBbC+WcD/4TcL+Gjax3ULr2pPf++2Lfqj63Z+ySoOf/TsY7mOZdVHzzTt//ySVS3Lx7+N
39RHzz6Ahz96DlMx+qvjlbz6M+x+dbwiydVKpn+b+vIqfj2rnb/Kwykfv/DKu9+u3zolJwyoaTjV
xv5zvVjz3MLfB5Dht45VKnhW0QE83Kroz/0qHqD1sT73jwD4cmt+4dXnftWuY/9++XO/S9XCKXmm
6+8DxLLq+7BKfn0fTskJr/pN0e27klMx66W9K6u+P8/fB3g/RRuQ0lwfvytPUfxZrlce/jyrfb1n
+f155uSf5z/P7gx7V3658/dwTbsfXNMwLKteiiav4ktKHtA8q51ZcfvjFk7Nr4uGYVnl3S97+vsA
/sNw+6XkBBDkH8+G842Hs0400MNZy44mwMPzC6t0+8Kp9tZxql1SjeSXVOsvLcevJsfaeUn9qyVg
Qx46FfPUsVxhQ54Tl3mr7zmwF/ByNG33uY3d1xKA3PJsGE5pD89vDcc0PkDrqWUCUHO9++UqLDSi
3Zx5HWCcMvJ/BxIZ4DIuizUjymVcppZkDhZSPqkLwrIUEuWAeaglmaMT5UchxQnXRFVnBPqIdIUz
E34E9EuZcJhSod/XhZKCKUzCX45lLVAoXJPXrw5JJ+MwdKdKh2HR1kyDko0wWlKSKASzaJw5eJgc
pr96KnM9JZa+TjyUgZL6t9GSYiI1KMl4Jgarh8dGlst6zFxPAgMBajIRIC2phCQt6anhlBwlK/K/
6utWNOkqo6Fy2SvlMi47SRxH5P+JRfwSdf+/7ojgphxCINTCZVzmyaNOIiRBgbBY4lpR7RpyicCd
QG3e5v2/QMO0sXkq3dsOLrTbDqA5sW0aZmN7FAq6zWCGedvmsgsfTXrnMvBUAffKOIFQjm4V3IP1
S7TtmulYYGVri3lS1z/94xuEPmnr4O1W2vCBCo9Y4IicJC47qVDtmqKoocMwI1aUAsr20zDWjCiX
jb5FlsBEiZDkIyqvKlmMIODuIBy/IxsVpceaEU3FkJX6UZ2PcmqRHhLGSdVFD2nlP+ZaIOyrRAQk
BUXMkw6QCBeKIuHxSVHjSKmUJJzNJKbQm8s2hgPI/5SYczclUdo6dMGKchApnzQjwNqkBot3qrQ2
JGrdPvWpwmUXCCYk8SF6N8aUwWNNo0dcaLftT9VtDbOxeRPGYlMr3du4jOBTdQvFQbcNuCdvq4hw
t0kUB91GkAAbW+9QPEim02JHdYwvyGUOl2jSNyjEJHxcUAIQ8XE8xZ0weMkBWm31ZTn1c9EjXUof
nDolIbFw0os9UZrU8cQGZ0rxniEtnGBEuwgmNcI6O0WXeqPCgluWkFauQW0iYidhv0KG5ZOFuo0L
gtbl0OCVuABPYNd5CLcsMEABISyPNzAj2jW6jMcRXNPKFQ70G4kmnSJq92UEK+MCw4o27Il+6gju
hsWDjODuEBqUDnou2itOrd/tahAJuWyPKYM3WnSpM/wGjDUKA8qyEeA3wBibRaTxNjdMG1vEpBw2
LtvMMG8bSICNLSJgUg4bxYV2WygBNjaRQGCxIer+P50hMGHtCXOpVgT3IkJFAYt2Y2lEO8MWYVJR
FBGQfGhuRYEtrwNy7UaTHrJqLusGSCv/0pTBPwPKskGEWiDTEQUiNhGzHFyGEGhBSuOARDsTNaKd
pQKKhKnxYEQ7U9PXishyRUAHk57qrQuiHlpFSlp5wuRsoeUfyAVumENZdmNkpS4CsVIfuYoZtYQH
k87wQBK9ESq03KOQVu4ZUJb9dVLgfn0Id7cGBpiUyzIpVPgZ0e5vmYfkFakWJgbCpJ+ZTosGcfpJ
Z0zZUlEPBChVHRAQuUEjcIOdEbhVhIRrGkx4sqmQLXW1MPnHtxk9uMrg3WUE7sV3WHzxJxIyDF3E
ATft0qXOU3Sp7w4H3F+GA+5Y48IBd1ymDO6NKYN3KuesW8tmGFCW3UEsuOvXeQi7cW9YEMyw4DY1
Kqypk7ALA8qyFw52ZySmWOmroJlIonsSAYdp5QyHQ6Fwd4nLFCIKbg62rzqZQ5GQZGCASS2i0NqB
3/epnmVEO6/AVwzLiHYMF+03HKugncIyJiwjaEBZNk0a0YYBZdneSTTpB4pvgeMIkugYhMWpQnod
Wn65WBSVGOdROpOBASalM/IrNSW132cm/M5P1W1cRiqIGxsKv4vNhAAbGydMG9vDhXbbQKFtKDaR
gcYTJbS8LVYpMTRnZoaghjMTfg+ZRH8wYV134fwsXAOT/hzZwG4uqxh8KhuN7MqWiKpHV6DQoDai
w0A5GgIC3WhRIMLddsLvApYptLz0/q1xqRToSkdaeQIiUzZWkrckSC9QgCY4lU/HZQ3VwKdgOjyo
BMFJ7IgK+OMD+jkIGTg+0SrKzk1Ami1BohyZxZjMBhqhdsT+BSHTnyyl9E80CP5fmARQm+swUDtu
XE5b9NWlzWUY16a0KamIwT4MzKEN45nQbsWJ0HZTCaA9iZw8e0w8PPujGZqtOkDIbIRJmdmdmMfu
FTOpbMl6VnY4E6w70cKAOsmHoN3EAT86jcfRtwKPzNi4rLIdiU0sY25TjEogdNIhm8HEYLXInBFd
wByqQlr5BEHEnuiWqAgYqcB7X3TcAqPADLwujc7SqT3LsjEk0U/XQKRGO5Z1WdPVWbdSaSuFxmiN
vRFosykIFIRHV0hsHAQHwXkhOAoP4W7XKfa5bINsCt6w4TI31uAgjxf+CXGpFDwuA5EG0mYgDQMs
+jt2OxJTIdDFGciOpVTZrNFoZhhIGCD40XUkBeYmQIqRMEM4+uy4sabR6RHGG3JS2Q1TpUBaiK7O
IaWY5UNigxzFJuCSIWjpEoF7PGE47snbyPTD2D7uyds8ppC3GXQo3sYfGMbW6QydYlHwU1db5VSX
aNK5bESn2MZINOkJDRdtyH9i0X8K/4lFucJRI0AS/Z96o8AbBb4KuaxR4I0CX20YycDAoFNouRrq
KmnlauKRMrjqov120X67aL/lkCNlcDXREe7+iD6ixWLRyLyOsUBZ9gJl2eqp9fvFeXHCF4dFPaJT
63cCM2M4UCTEzJhFgSOCKUGRkCtwRDAgo4aQxMxqc9kYtuhVEelWRaTjsi2mS/3ypehSP4km3cIC
LQwLDIbWIlhi1bmMsXLZano8KAiMxiNlcAoCg4LwSBl80SkIlQQH7bJOQYhVFCkpZfBJa9yIVhPM
QMavmOnlHqiL05sa0EX5NEqSzUBuKIj+icy3CbRKhU+EUJ5IVwp0aWTqr05IsM/K7pARwusACz0T
V3Ua4AgPwSqhUqAPRgjwDDIYyAJWF+gaHyr2EQWB/09HL4if4/RHHM5M+Bl0KN6mdijeJkloeaNz
oLGpLrTb1nOgsZnCtLGtppC3nQrixsaiY82I9tF3Ek36p642nWLpFEun2P6pq63S8oTLQJBEV7nM
wMDAAOELLVcLfLULfLULfBXCSCyaKbRcTcASKw+WWHkeLLHa8ygUEilC82geyaHORfuwc9F+g0Qg
EUgkh9gu9rw4CI9IUXKgSLgVOCKYGRNyoEi4FTginabAEVEUODAzpsAR6Qo2DhQJa44jMjDCzkMY
Gxh4ZQMbdh7CgVeCOw4hhkfCgVeh4DiEA6DrPIRcVlMUkURXl/qlLnUuW9VLvyRwWcPCCi2sTqMW
iwXGRZwX5CJOAa1NokmHoTXasS7rJmIn1nC6OuuyJ6pIQbaTFUESnctMl1hpPVhPVdpKpWVwGYW0
8r2a1o5CWvlqGpFWvjVG4Wr6F9KarXLsYdGOImu8Lhc8FBrByb7KUmZIyuBcdoKY/pqZlCuEVWkZ
afArM50WA1lls3Icx2We1c4ByC1a81+uaf9Zmme1s69bzQdoaVb2Pfy2/9NoZLJH5mlpLcB/QK0P
+HLtEeDd+OJfrafJbgzy/ldAbWcOjZ96g5/IzBVpe47Jnx3FLYZlRuVa2cPNy7LvMxQ552N5hiJ5
fmLXRHIsO2mSZ1mOZ/nxsCRPs/fyLPtphpyXJGmOPUP2UeQj2XnvewzPHX5n332ToniWqkmKJi+3
aZKcFM3x62WWKU2zPEVyn2UZcpP8eqP3MpNRy/EcyVEUyVAcyz1+nNRKkRy7ae6Q7OP+TE7uHnYz
FHkXyexF7nAcyYwWhp0syXGfn8gzIy9Nbobid/bstUWt3GYn+9g/k2cDRCMpbvIc997aHndGK7ko
kqPZe5g5TZPcJcnHkYv7K8XspYmcn2XY+WeO2niKZbnPPY5hRqeaKPKTh1lxW6t857TK1JAcy7Cf
Yt+lyfk3aiLJTV52Xopc7B8vxzDLaCTnm5vjJ5IZTpZbHM9THLlofpxnL+3c3BRFvseRi+S3eadT
bTQQaQuFdp7WUMDppIYCTh5e6bf1ObEhT23omiL88vy6DJi4HpTFMp9qOwtApO0s1XZ24rIHqP7p
aWsLftIcGuUCymhEYL2m2s7ijLbgmiJLZbSt7VHb2jh2zexcO0v+/YA248brifMMDYDcoSQHCycY
0W4UWaYCxHIT4e6N8aXJc6kouOdLoeWlDjOiXVef3gIzoh3YSnhcRZAkptXmMgQHaFX+kId2B2Jm
tRcpyAs2JDCFY7U9hZaXI7gXCj4qMCzafR7C3bBQN1Bo+eJUAfdrgMu4bG9YcGcUIpn5LO6nrra3
2Hib5VN120HDbGwH50Bja9GgT/AMBkPEEDFMdC8gURIbabFYiEiLxULTFUw+lb2IR2LKQ7FshYLL
FFym4BixyxEZKRQKhaYDt6KA1bls159ISDs8UOSyVihBxeSekj8CENx5PQQ6l+xy2ZiiS70ruBiw
duESgXuzTCxX+A24y8lr0ROnCrg9CBfOSAS9RpBtoB/AOKnY51CaGAkziKmP2i0GGIH/ESp39UC6
PjIKRrQLOxELJxjRjlcaloSRaFI4FVq+UNkFg2BEuw2rQEAkYROWcwyX7YybulCqJVSiHYgZ0e7j
II9jOggKchUziiEIRcKB9XEIO4f3goha9IIeR13t0iZJdHn0QnA6n+ATlvo0ot2nqA==
	
			]]>
		<![CDATA[
	wa0QOX7/0Yh2DVg7exgjyOETWXibxRFTHBAsHGRpRLuxYwd2SZ8Q4YTToCqaQiNUPtAFoxKqRy4T
E2qVy9sa3AoJZ/k21SpRjfjIl4uDaVCncDP1VOi6Utzk2ggukQvcjY5LdMM2BW65X060m1IcIQXu
xSWT4luUAkFQapNqDQwwqdgaTvDiw0UjcLsXyscnJBUuU+MTlRmB+/V1BpRlGwQMaNeFCByQAeKA
+wATTcANB9x/U2i5mem0aKYgL+iiMCoccJ8YEg7vsOCOJdClviCJJp3hIdz9XViTypogLLi5zMQ3
KetxCMELWlLRDsJlpUWJlgwMMOm+jLUDtBIzjYbC0VlGtOtgidXCMqLdqfUb/BS74EJZLI/PHplz
OlUOXScoFHQSycLbQBUkhVQ+o8oBZR+Q/hoSD+TKZyBgMVH6xEgGCGYv5bKu2Y2NItJ4m8cR67Zv
hVpsrbflbQIutNu4rJMAGxvEEnr/K7Ibgx6Zp4GaucNuaufIzQwNQLpTYGUEN5eNpwo51+DmMgFJ
I7UmSJ9OqirAlErpo27SVygsvS0FEY4ID0QogjoiBEtc5i8xLpwg1MxKxUkZrA+edNTNAJUSDxLc
B6r3A9EC1YmddgY+dbmn0O47GNHukxyc+mgwot3I6ms/tYu1mxBiHQRTNioKvxxQusGIdh/EQume
gcuNLTqqI4w2z8FC4ZbKlEAEoeR/gDoB2gDyDX5G9BDaD4lpcXor54G/j4Nc9M+IdqHLowG7Ckc4
UG0sKr4LRrTrKqniBSN6aBTwOdUV9Axp4ZsAJBjRbjvmhuozsVzWEbSFDLsxI9qtIKzP5SCPe5gU
pzJQ8fY4hiUxrTZKQOAQJjxd6gnJmDB0jjFhSBRAkfBrtOhSA9aC23Mtp95wiWK/4TKFAYuqM2NU
E+YUH7mSBlyII7hfKie2gSIhKZ5av5Lb2iOqa2CTLkiiFyDOSZgmZFh+XiIqzopSL5iJHHyKfbFs
a39sFB5/IMQofZIZX/BCCiDCk2BFhFxGebEUvaRJpsJxCMHvsOgGwwHahVyiiQtiORgirfyhpvwO
ewztVJPqcQGVe7yAWhIJpQKjGEHOkag+PY6W3gt6n8hiOQoZXzARMXRYc4qnL8up8wQTywUcHL8Z
aaHlamxkOTWhzoTLWBllAGszmMchhEC8F+SsDETIgHAGtoXBSEPR65GuAPGN4PY6LOQSgXtU4HTP
CALueYs8ttDyMdP7RkXRnAiL3nDMLE9VwwuSm2vwbuKhJIFPiR+4igglBUH/t0Agie7ZLhgKglqQ
VljzLDAHFhNPWlecw/khCHdPPNAxs9wjAJWXg4cJFU4cvvKp45jptJgwwGpVLrMQkJb04DP99cAR
+VTeDvr/7ijLBvvX6B3V9XBEf6dqIKIlBDuX8Q2C4AeCHgiiLK9KgeY8wvhgIBmgimELtIHsHve8
TaRVKAok4ZcKP0LD8zou8xYe3yCXfd6CsVhAUJsAR+ocUgqE0eSvoLyJeKy7NmW4yTA1cmD8EsVl
JvdA5Y5U+BEYrU60QYiRPDRFoJM5IwpKKHwlC2YxMZwiBAItbtuZCb8txlGxz4qFlpfagt+UClhd
oD6FJ7rEZV9INOneZ2K5Rym0nCM8EGHjQVq5S4bArOJNOSIROBb85iqVAs2Q2QhaKISjU9Eta+Sg
di2yA1lfD7Gge6iQqgV5REjouENZPhSXcRmXtbiMy2IGYt215pJjPdEJr5EGP5gvlS219gkuH0C2
hBZOKwzYdaqkqYX4/3aqmBJAn5TLSIxOhLMiLenGHCipXPY1FiFZcHGZhcu4DLZNIW9zEAgstoon
oeVt36fqNowL7bZMAmxsnpXU2PqEsSCodG+bnAcEi42sN6zlMi57IbiMywpnxzXwkPBSfaoYCHwf
pRscZhZjg81G3OAygRXJpH7SE0UNHSTY6pAcDlwGjsrIpxKujAhljbkGihnikccmVfrrY/6sJFxG
gCItqUGrjVE2SPbSgbGLUCoEBapUsmcvJRhNDNa+v0mWXqgUlBWyYFc6phQSmZkRpgEA0xIAMCAk
HJEJJtPJtsoHFIACQkAqTkZGMDQek8rCsUAwDgfFwRiHYSAFURhJMeSYu5sAyMKbCrcum6GsJq/i
Lw/91RBxNxK97aPB7SiYJtrAGe2ajMbexWoi1sawJNiiyBsZtGlY7tvoFbeivUDlETpnHHZTjOAv
GOmO6QERXBmadDHgoHABnzqi3RfNZwcxpb1PdjsZbtfBzORqrqFN4B/Nxaf7a422bisolpTUyk74
xfFqs9t00N60xaZm7BtkXAfh89ze+ZEJtHp4YAcDiUFTtgaSnwSI8dJgqNZcniLreDqaMNPLzE4S
+dVuEhDNwIIpVwwOoefXEliqWC68OyHGZilHCQPR/n6rYeQ5C2uN/6l5fQYjdJeVfOQCZaOt202L
ZSW3shNOeOJ3oObzLVMtAUFh/dRWV0SdyVlpoO/coArqs6PFvUy0mNGgu6IfwtZeAyl8tVJ0vAKg
FQHYSm/vTpG1EqvGhC2uS4ww8lXMM88YZ2Z/VjN4+sn/iBVMkiF6RcxSXCxjroQDRpCKloRZCezZ
62VfPdFOFFj73t00iEB9pmtYL3t0Fujx7yLs7O7jt3RAvQdh6wYeafoX1BPbRtdEnh5ryJQ960Kl
Hq126bbVpdWVulH7diisA0M+h5ixrYm54Ns1+dSPta94O3qOz5yugCTtErb3S2hNXj4RvIZfXIcz
PQMwGB2XQK0tSuD+v++WmYf33DwiFNbhNuFPe4Fy/bgrtco6vealSNehDtR0eqzgZY9NWWfqitPF
Mkfn1/8OjNQfAAavypJcdV43VKdnre4cyMXkd6fSvd24uiRIC6LNuC4Rb4vajTxU+efOSwSqscsA
SJ2dyF1Of7M/D2Uxa3jq83Jb6AdUR82UApXogMoWtmlYmD8ncEKkgcR16C9+azyMaecHgkIP5H7i
hNTq1shGEhCOiHej6XgWHFafbPib/IgehXnK2lQbi4dVOORpapvACkxeTAb1ICHsSZvk7K/QeBX8
YEK+ibzUYyIa7qlRdSn7ipKu/yYE5dsgPjuYftsqhi3cfFs2Hq80MNCAs0O/DQlOTv02Sp5vW7pK
LfXKxcm32QhLheQQzm+zLbSogce37fltPEGUOXN826mp9lmLx1ZKt+mvXEWeeL4tRHco/bYrQL2B
fBtzdIE9UfV9fgM8goi1MJw1H1IOXNU6VuoMlTddJjB5eU6JdwbS5+Zbd+gbTygEIg+FyUay8pwu
WAbQEKKNqvkmEHDupL5PJZ+EyW5x4QvJc9FIKTGTyZkeg5EoPBjMylVdKZ3B2yz3dWaOhJBKtyog
4XnUloIXU5C4zcZSZ4NBmyrEj4FWJs/JaF1vMiVtG3F1jbzZ1EbjlLYm3ulG5CiYWXcF76HGMDcV
LWMpCO3GBTepKLPgAFdqNaUioDhTVArv/psUFoIApJuODuT7PG6DSHTcPHKiLKKK9oKlXghAR0jv
p/SUoKQOCGGMFTNfUorbAgQN6pEglFZkeNnEJgKoSPoTbEPDpVdyM9JEg3cYH89lQIIiyevisejh
kbtdwfX2pxcorx3htj4RKCHRYjSJcCvOniZbrjDMhrHqBrVi3gTrAE/rZeYVXoCK8P4vwtuFKuYi
lOH3py23GPGCQKQO1uQ6kAQdtVMb7pMm8OX/p3K9wAb2dKmSR6Lwgvta850Scl9DjRMwE12ku7FC
nYoZDQ1dunyS8YXGutbHhgHDO8QKJEMRcGIic01n4AlCHa/whWOBDcKl1+7h7Z9wIHu1I6gmKohx
Rvzv3h/R5hlPMIRHZ0IG3AB8daTtxE6KkhY+pIhl5e2t1rHkQZaUsMZvfLJauI572kYjuMiDVR+f
GngCcDE14+k2Fk2FL42SrPN1Se9rvaL8fcSspg4ipkAuRg4g3ZNeb1j1oIdjhPvwgAPTXJ0sxSND
4XoY6fyHmVjWg9zfaRp/mAKqmVqm1bEhXDK24Bd8TyoBIP2T2HSj3eRPLVV/IzXz04Zdjyec6N24
EHgUpa0XaXb5Qn8KrhkVsRcZrlgmhSd/06msrcifTToXwL9LjvGQQO1hMqeumPWGoMrRugxlmSA4
m9kPQX/IhtEKVzE4u0YNqPR8tYdtghYe8Hx1Vakz8w6ngu9ZPOCXzfOwn1gIXnEqFZZMhXWlnA4H
ujQKKBWDqIES1No7KwzH/Z8WJFTpc4tkVH1RzXTCvDocB3AId8Ag/Fju8PY/QkTueBU3iqBU5wpB
9R6vm10axHsOC65lxHHMMG+LENBKOeAYNBY0042ajmvZWAhMkbN0M2blNAu74mRcH3CGqkhRKPtH
Euf3yCFE7BpBQXMVsSfK0ErIQZcAP+goDqZLOdhNSzXhpU/2LEBDDtIkJtkzI+ygs7NI9+MlmGYY
dUGUYZayYnPSo5PM2af5bXSd6G0uXAGqbnfum1J8DOOZm5lj0J+UxTA33NORemgYn9al0jY78JgO
qQjsAJAOw6UQGGAaRXz4lTiz5Wl3IeU91vep0w8CazGBBnF+6dnn0sJ3yy5bleUzq+uvSCpSFxNl
F7b827y1jziVQOc2oeEhSB+W+yuvlQ8OjtMc1ths80XQiRPxj/Qot9WMo03iG7hlen/G6aTfC0Jr
XPjagFAbyuxRr9EFjTW/HFfn6yHWrjtRXpewtxmrRNpgCBP1uuWjYTh9tBSYv0Eice9rGJmr7P/K
cZSIBbJPYA5+66+9SfPLimBzGSHCzUHOCsoyToF8Mza5wlaIbkkgTrzTMTFz4pINgtnGdcqhcDmZ
DvqdSfRFz5BtNdPOjqEieBF8vamCNsl3tmWSXDXEt1uGWxOW9rxgQc8Lg6ZyjAsevMi16+a+QYeO
yzhEFBWM6wWibOp/pbya3R4Jwb351ewvj6pZfun8R3yi//xpus6y/9zB97iEYsL5Mul8Xa2JAqGi
xsPeggPhFHcQb/5ngujqQLZ0Bv2TLUDdq43JJaPLVKlPzHPXkr8OIFZxRPBlE16EtSPLWcJF5qlr
4T2jLL8dfU1Gm4DDxW0Kc08d40KDZuWHZq1ig7TwT14wv71kFf32DZzt8zuHDu0CFHSQM1fGbqal
x0e9+j4mf8JRv66qKVRxo1xA7gpXBoAubsND9jqT0tSEbPkbVEHrtv12jaxy0gk7GzFFIhEtHyzk
aajzObQz4eAN6RcXL+Ep6Thf4ILYykURXDCO5A8bDQnNPFTOr8OH+j/CMvtcK5P6pytv22ESVzWh
PgLVFLQzk3TAAJgsJQ3JWmBEeXV5GuDlFo4WA61Kmj4TIuEYuFE1mOF5DtQzAcz5KwtIJqB4fMaX
SIhrZSd2VbVEk+8oZ+tIAB2jZ3vFt1BKMGuYqynRMdH5uVj0oSFBRo8/iWRmIKfidSwuZLytckGc
R6aX1lXaF5ZvZVgOAQAvGlYKCbGyQrjvAcMPd5RNxVH4TUIn2xmW32OyOk3xKW06IQ==
	
			]]>
		<![CDATA[
	mHjKO6hpedYz0UOIVUy1mU3sKi0DpkSYLjgjSCfUtsfnCGDnmuEIGyaNKfqkujnqLooEFmj0awFE
GC3MgKzAE7m4Cxi3Bwz4oWkSMhkhAkvZubamzw8R4zcIss8mojSACQFvoFBpQpHIL2ODDBqpwSVX
b62aIzza56HGzstJxvBwLX2o4SqFy72QxQu4GrrxRf0n7BonTt7Pwv/nyLzlK0jHf+fJ4ZqfQ6/R
7ukByKODNrhAzIVHi+JJ3NlnY9c4zi15Ca7yDGNV2KjQfyiT9eZ0Syq5PvG7ke5tUUxzHUK7fk82
TPF+NjQlcUxVirj7fqGIWMyDVmMQTRSGiiP9mWkEkOuO4wADQOpVF66zjXIEgZsMxhpQObCSvSSF
5pAg2uNRyL8HNXn1/wVJXC3DjTYFCdjkc5snGuHNLyiXtOMRuGQ5IGnDUZmbDObwZ/heaQjqe8Vc
c8alfDkEBsPAHv6iSmv0OWIi1/KO1xZj51hrxn01WW5feu0SJfq3PPEL09EeFuCW25T2SZ1BRa0Y
WBHoTNQyRlDrhzXpZEkBBwl3keMOaN8dVn8N2Y6fIS54TYLm/dOHVDivHLqYdmTcwOEuDeKw1DGx
7sR9h991I7MYfUmQYhuZJ38+tfD2gOIyJauHfeMuBEfKVwjFE7AKIViJ1+POZ5fItA+/p98MXvJq
vX+PZk+aN0CHz8lHZ2OVC0K8/BADlnBaKYquH99Rx63A8hrGGf4OwwzZUdh2TM/63Y3faJT/eDoQ
I29RLKNsPBXB5IEUS8QaPfIkPlbFEghs/ua3EMV2omLMtUJQN6Y62K0l/9szX8COPpsESjZJ8Tdt
wBKPV/Di5GeO8dv/p8KcFoMDwlzc+WKx78NSfOIYDDjsq2OvuEjZaN2B43ZcPGOU9e3brdYJfuNv
AsgoqfXBj+5L6DTJWUa3znRsjcmmdOhXev25p2gBm2tcXIF+hn0AcpWFLtm3fjBkinIROu7kYq8E
CLEnhMbkkeIHOp4SZA/i4q0HULhaY5dlTXvx0PdM2LYruOtu3L3hW0qnVDV0DonvWFhRAGQ58x2g
8WQu39ZLgmU9cW/iOty58OpBGCFDuLrO3DrgEtjViTWerW+sB426O1mRa7SIz3nFTFtyJM3PiR4E
5SAryfHvDM7KjnyJR24LClt4NEjwxkHC+TFCZhCLm55+cWbHLIckCtFSYt9b+XcftOU+XZ/7MHzT
vK00fwGgCXQ9zsCTM/26Y0YDZFSnOoK35c5mcLLr/EtbyDjJx5avLaazqFYpNgsCnom11Q6h+3pE
KoNMXHqfDRuLcinowotu3iXQEwYyMjRlKlx8lHrBBWi2AAOVoJY82Rncf/x3++DaNaTZpqFXNUg8
Y+q3WUgNaVwdTXv9Yu4OHW6xk6sXTv+VW8q3SkmyfaOrEgctaz3TS0DqNPi+p36VCNRodq9BAt+p
WgCamZ5tJQPzQwXjh11MRVCK0aJ3wVD+tROVljD4mR/JH8CFT7yw8euf/NEHjvw58Asb63JcnkrF
1d+c67SDLakJX/+G7ehdSkU1gONAE/M/blYj8q46aEn7cziiDxwFrkX++MGBn/FhE6t8eP9u2cH6
ft7BA/flRgUa/ev9egcdkPtSZXexc2W+qlgFyNbpgptcr+gTfsBi6O87AmetpAM2FePuape8I+Kz
GUEIzWw+yJzJ+Rr/LT6sTwJwMwQOzmGc+/3hVe73sUBtNyXtpRTQTwAwPbrVXys/BCPniRhjtdne
ux3ale2zF3p0k9VfTeuO9DA/+WNSQMHtKFllxZf6tmJO0uNrxQ1wL7z6bKXA96T4NHrJ25IcKyhr
agTwDyNjmuXLmflSkycZGw+5MfIjXEzSLOeNJ2jOQHmv+Oxdmv0Qb+UfaT08t1hziC/g2ftO06lZ
oZc0SGcgJP7wOj3aqsra5yjMm5AI2TR32aGn53N3wkcNA3UQDThH2ufUu+HSQ76ib9N78qd9VnQ0
GZ3rS43TA1CAJQoYbmeFytxWdZ0iA2DIxbhHQMTUWXFY6lWCw5T1ZNZ8NfNHvwVbtZ2KWwI5vgjI
H+b7Rtxbz/yDa5R7MUhJdBwpm/tvRqpwRgyQTm9eKdv051GLAU1OV/aOttVtp6nemZDV05x/pwUr
ZtWxxAqG3uYDK+P1g0ROEUHI2N8M0Lq7/5PzZQrnR/21gN+uZKj/BbbnIBOaeTU8UiD8zys+VxKG
HwqBW+xawUcMSbjjImGkNwGWImZKviZp1k964FjbKiHXCEagR9rLJrZjILeF6UyNRqbTPOrgl+v0
sC0nt3pH1qVJjewYrE2/DbMFqPBF71y2R9U6t3AU4ICeQQfjEGwKGxfvEoV8MNUFma+Vcr4Nx/ms
xIt8z7AM8uZdFLK6SzGHYASs0Fo+ac1s57i2IaZpIPIWUcjF55b9egHEPecSij1ATRdaco6IYjvk
9vuUIcgbKJ0If66mme13EY6RwYfTyxhC9kufiEziGp7DPANUXoAIHYXFFh5WS2W/ifkDtP1eDFV0
YQdW32Od/ZabQ1XQ3LQrdYHc5O7U3MQiC5QZEuuc+7PNTQO6ZQTV1Ge/UXh2Tr3bLzZ3KV1yE41r
bhIdZGSokj3hIYGmF7kEmZtAr0dITkDgKSCXouz3rGRF+dsvmzK6gfgbw/Zb6PuKwXIcEbvuPQ10
+52X9hOMd1pFC6qhomcveJ07/1j0SISCOKju1s9sEbbfebuvXcl+v51gWdx+UZM6c/rjyxLbL53M
ItY9qGsD16rZbydD/JjOSpDofV5Go739yuvXSCxZCoQBAUO3357e1qBOWagMreEuITsIR+v61QqL
kflNXJfsvdvvbuSotc0CG/ElytsvLYopBsh+9st35oZAtt9RI8cZ7tFZvGH34FKvRq/sV9ZUdvt1
o4bmeWEZiRSzD/PBst9a26/5FDvjh88ZeoaS2e/7ajbYbvLoajL3cWLJ7MOhrJ1Y9zdu269Jn2EY
k5sBzg3U5SWGcvutIqVFVbUh7nqw/b7h/7POfmkzEwO238+S/4gyxIM+tth+5fV+j0z6OPzNRnZS
YPs91D67oKeo19DY9Ilz3RR4/vCSFNeLs6Hw0nkELGq8brJ2ampGsnVTiaIyU86LQglmOEQ6JJfn
t9+gbsIwzDJ25vFQzyG2lWf7TSET/D6b+TIF+WYz4YyPJSclN7grJl3ojReqou33HMmXCVmGG32A
7e58j2HdJLd+wBHQBVg3BVFC+xTKdRPelgINb9cvlyyM7FfTpxNzbL9u71N45ryzGzc1Ic7224mN
1nMyM2W/acxtlR0pfG4aNgy/bLN4st9Gq6tXaxcHNHanFT5o+1WOE7woxouFeJM5Yvid7d+197Zm
Vm62X8s/KjMZ2t9BFgFggyV1Gcizp2eT/eKgxe134uWmZ7/gwvYL1l+DbSwZzhtjewm33xAxmIm7
kq7sFxTQZXKS/91+udDwodB1u6x5+81lPudsZqWXNUSmd7ExZvvdR2LIlt2snP1KuGEVuP2aOCY9
Rx+2R02PouP9br9MQWKqAIOvdN+8mX6m0hKlq1qlWuKMDfOlThYcd5mbbAKYN7LOTsypob1uxjkH
PXmrVrRSpQJLQ3bSJQ6JEPpmWj3mS+ge+ywHBc+8Brp1kYtIwB0LXMIeV73X2Ngn5zzA5WK6e5rg
P15nUj8i+jLfUPXSMQinGS43hMZygMogr3r7meJpZfLVyPzq/S+ASd9e7dbth5v4BByiJcPffX/p
7Qd4yAk4p+u9OGVxzsD36pUaOWwOsORIqq0E3DhzBKnq5RHaZOMd/cbkIVVvU2gXRzSwDO9Fsxsr
+gnUy/RT7B+wlmuQe4Flc+N/x15c2VmlbhjbhXu4jUObUMzosf1BWIzxB0pXm20eGivQL1EE1RkQ
GdgnTEQtpJSdAQcbxkJPrLjeQMyhMHLML6v8ArUTgpjCQcvF8Mt4tagJ6/Iz0lEFxubfBWHdbiy5
IIgTwXhJvc32N10er9fPwFMpIq4C3n3IPKQhlQPct351yAAp/TbAc2OKGmn9eOEQJhmcvB95Av1D
QRt07I7+4ix4sz1uUJ/XPITIRGEzg75iWychSMiEgl12Nx/LauYx8OXI6H4ImWz2/kr71DXMNzP4
JVqdyqjhCJkc2O9LL1YAhUYnh+TRJVHDCkSmGME+rWf2f2R5dQkB2JJbCfxQqQWImSlKEXAiroCv
FrCN0HAMfI+WVMQOtRiYCtA8arfZm08tt0yOvC2c3PVyUGi66hdkbWXLXDNtcuOxW7Ea5wFkFHsJ
X/kpI8XYmq8wwNL7Zt5eeUvx0ySLteSghQ2rO0b5dq23bJGdr/xxNVCy0byLGJ5zp9gm6UUIU/j3
+2BVrUIhTE0LqsqDh+rLCcWf+psIzQTHtT4QGz/TEFqoocRnPkUT80jf5rY3McvMF+hAxhqDn7RI
RafnkK2QqnPnRVIyedLcuLWtneZFFbt7fiaybFMP8au9TY/ZXd197Sk/4Iq6e1yLiteafWssVD9x
rc1Mx34vygK7m5fPEdz45uJkK+1pV2iwE0ZLewPP6alSmxQxdV0Z6u5Y5dFWrbiVyLLmEAs9ZOX3
begILWsk7eKATQhesThNXzHr+6Go4HO827Me1wnFiXX5auQvP0qFbWmvXppDi1AjB6oiTqGm5T1L
y89wYNYAZfxPAgWHZWogRmhgtLkvCTy9rGVyA6i9TexkitueI16uEGKud9ABGRSCAQLMSv5SzhYw
VMj/+Fk6AKR4QkwjrOSNHJNhx1wGDtVAL2o7Fbzpk05UgdL8lmzCILkgtv+l4YRMP3neNKYiGErL
tBoelDg4sv3EIWdNt/PdJKFPquZCFlUc5k3NZIu27s94/4li3SxfyRougJs5lKgArlTfbbTYyfJR
AJdT2IrBdR2hJQAQAzacv9cf9/GnyNLYMa46H8a9HyIDid1iuleDqjwXP83vczxCdiMCNlqsMsAb
ILGbhzMKCTXZyqD3OX6eEzjjSyCRQyXrDU0dI8COzc5EfVEHP5Y5DXoCerTQSXXCVt/8+TpquYvE
weYAGsKtheuhDOhS5922UW+E4t1lYa7GTkswe7n7IGDslGnxVu7q+YqXy5y6c6OnNHJulru8MhzJ
xnM4dz0du363FA+RQvcAUJlX9kZxM8xYr9xNk2JYFcXGAminSF25W13Fz9Xh96s/c7a3KN2YgLIV
ONW8Apc+EacyXmUXtYrIoEmYJHxaQVvudQ7k2GM8P/D+T04V/kkBCF0Ra6sYFXG7gRKCERRYSmEk
92MWc1Gb0vexv2OGouo3sbYIzI4ftYgIsEK0tQlnv8Cf3MXyXSIh8GwDc4bFa2+ZSWGCO85qeOoU
Mhv21wcj3C6+sSnIj7Z4/oIi1yaGq1kiaIRtWP8CUGsJwo+npfwhU1knmSetmV+QWDchIlTe5Yye
lZikZm/q/jO7DAudnEHydFeCgYG7hI5ZDTu5uwOs07lNiGx1DhkOvgWqM9zGRG+CqA==
	
			]]>
		<![CDATA[
	JuvX2JIRxZ0rJUF5V5K6Fyex9pfzlzds2RVBg7A7lh/fCZsErGPw8eR2ovVZ28ilMK5FQn+CcpRp
kxBNSfbhT/4BTEbqLvxx0vOGTLKBDo9vLWn2IdOSKp5v0Cqc3mboMYuvucfvv1UiJQHsUPNUyepZ
4p7B4pj6pizI3Dcu5LNow3ESeequaoaIF9iQuReaSL4snKq7NJQmpBKW5WAW06jqbmeMZKjS48bu
ZivvdKa624ZUKddO75OXiLpb6DWx1EZAh8jYXfAzLaY//0JqqLvdaRJFyn6I2ZkwB4ylZXfpeFnv
qrvQDrji6hv8vezYfFH27NVVFH48DEGzyPYpSz7AraTxNinB4kABTPLKn/iw9D4tRpue6uqu7xcj
i1rLKuDV+xBsWyYQvGiNC7haqbhVywWk+21IDxqIK51lK2LWrSQMHVKSVj65pIUB5qx72RRYiVec
PQZ8MB0X4KfqKfo+hVLqOeOqNPZGUsJiCQRkVqWR0mgYMEwC69RP2AqDEJpqH4cc69qLvmxtLzjq
bafOBfi+xw7BmYVEvdE/XeX/BJ6oqwc6yF1ZHKISstuut4Qq90klhh/qlEjKZV7wgnRJAhfiwnf4
+w9t2P7/NekA3SY1J9010DXqgieNTjPTN2T6O+pumQHzp+tqRj15uuE26ub/qCrvtqbQYyXA3UMY
d0GlJFM1dfC/6dLdeNyx+3zJdY7ORV3iFMIKQweOKhKS5UDG+W8Fh7ZZqagrptGPaiK7IKR28dYF
u7pEXbAuF3svxHAvk1vp5f84vqMurrwiNFF3SomvdIuph2NFUXdlMYr9dPlZ1E38a1GfLsehulXU
hfLXwJ5Hl47DRt1kwUFouCZRdwD4Spw+DReP09PNaQCIuqITmivJKLB1URec59sFm+121B3iXOsO
U/KSLkGjLtoyBPeW4xK13zKe5Y6+0R5sK+rSYGd3JTzjE4TUj7roNyNlGo9k/+IG9B91TRIWadu/
uFemPHI4Pl3N2LM2+kxXFFZWnzKuMxd1gQiYhwYQl2TjV7D4QViemck2DVLtPjYeNAEkpi8mx9RI
C4JkeIAZsVS1y/n0jkFi5ekQYYV2BirXMYgGaiA8QKbhKBQ9OKFmQOQOm/Oe6CiJE5cvWDIoEyOi
hoTgF3ol6uFSCk1u2yqiikohNz2yvpVYvQLWAJfqdIf2+AwXAivnu8JVhFDmPXPNSLCanmxsw8Xt
DUOTUs8FbumS1v8cFXhH7VdR9rCF+irH4SxDRDszR4wpVDrRKMWqpXkQDXerQWQ7MY1NAwLW0EAn
eYx+llafkaRP3D9L0UONtq7Ze0M3lrdlt25BJQyN3yt6N6S395eYfehT6NuWLhIfJSVSmcX31J1n
dgqc0bjX833yhWC0dzedzOycZt/UPZl4amOwr5C/PhAXyy7/S2nSVcNbfZFE40Is0+DspoTyhd9+
c4+AD2k+M8mcxpFg+77LzRk5CIjtksaYddGuLVUVSjvGee7zH9CTs8w6fSmI86xFjanRgMWasgcl
FZFQ0MOcFzMUfhDGYPeFjIFcIhN7Vsl8QmNbcFGX1LNYPlZ4Sm1WDec5JJUjKThAZgdDKWGSL5fO
wjIOtOxF+dK6a4eLjIegOxJQw+j7X+Gh1zSswyWlET/UwkHscEeGuH60ofC6ebuFP+hwJ5ueO9w6
ilscW8wTIwVtULESpkZ2oGlNClqSiBGH8WIqaF1pqHffYiypZZNir9Sy0profYJUQY7KGzZmAFvf
KXrwgCc1UbKL1pkl2NbjCjBlVMPrQPYyEBRbH+WhyJTqa1hdwe1NlfeLeAnCRQtssWn6HgdxO8Gz
P86VBRZGjivvGUS2gefguV4sZ8kSKC5bCiz0h6iiuW5FTGaDfsUkY7CcvluvFcc3cgSIl5ZiifNl
7BuTCC1isWzFyNRbHqYOp3ejX3FH+Z6yUOnGNYh8SLFOuk7z7HvFYfGtzjtDMQdO8VZLzjCWiUTt
YHfenjvX5h/iaq5IfoBCCZpP4y3uTrIUx2+qmd25xCe+/1wwggvBI3EOCiuNFI4sq1rL0Bve1CEt
ZlUWUFz4DOnMcKgvEn5eLzbWq0sYnPlN8ERCCyuxGIbLWcyl3EtlWjvLHmGwgJrQCNnFtD7foN/G
e93MKiburFxj0v4Mm7hTkr7K0qdSac9I042888Ql4qaeIM3HZBkg19IWIaeoIp5Z9pHTTvKZwnBs
SXNGwYGNQapIdvfEV1y8LGi9/PnMihN3wHDTfCYpez4UVHHBA+iPE3eL9KQkO/Vm7o6JO1DPsJ/3
Tlx97LaGyuOuZzi8LqXZlresx8vB0wLaHN4vxjmBMa7Ugu2NB6H9Ggm4tVrmoitGnaUnb0QYWqK0
lB9FuF0oRdlckl25t3cNSxlO/6Mo76Q/snJO1nGHsCORqlQYQtJWAe+sAx+IToeja1NMkoWJHIMK
wGFWU/nrrMTIFzU2Hk52ncML9hLYqm6QNGp8WlfxYYAk1Pn4WJeC0EsyhyiA+hmw94AKVwgwtCoE
55pA9YOuOyyB4MqoqIi0FGyvDAn9hevR8NCoDCzVZaQDdagiJSsCNOXHniHfIqFWGbBSSp5eyWZ9
Qu2SSDszyF52WwI9c+l+YebFnUiuMqqxcAmz8cr9KbphWI0GYtbFg8woI/yoRI+1aYUC3iLeSJhE
LWUyhvk4G/f6jySHhIjDvH5SNY1F08MqKqOLmkl3GO0Rm4jcbcooy4ws+dEaCGhG1ZKSosindX45
iU2SKThAW+p7aKJ5L0be75JYUQUxGhsSdNpyJuN6BqEmiZ0C/L9pcjtzsuJhU0ea5dIqNQZY7kO1
UZ2E7ajNNwncL4MjMZH1kp4iQq5RJY78kh7gq8IdT2B8kxP+nEdxkEGlB/ig4XlkMCtIjDg4NTZ3
5aaY282eA/DX2xHRMTu6/hgU222IiNC4kzL860U1OgTv3zsNYLWooSJW0jvsBAVoWZbI6C+3YUr/
OG0P0qIekpoJkBD0F6B9s9Fiwk2G30nIclGRSSVxb1eRoQ9HK6bz7jj1WU1PQjy1YG/tBATDqHt9
GG3+Arej/uhTrmSg4MqAB+UF2G/5GqsI9IKXlrEvZcH2reTG6jCw+H5acPvNdIavTeVtsH/DMwxU
QoZ89oqe49rdGxJa43Ld88sho+lu/bsKRqSNPRIz3aV0Mb2+0y+bhAhPIowh7tvsQ8TSq0MXklfp
Bo2MxNbMqEgpNUipRw65vl+Tu8UpcRUVU1otdRBIZ9jUcoKcDCmC6SA0u1f8Ax5kA/v1XXYvpT6e
1DAUQAib9oqfNjOJIq5Q55RnhjzUkda3aYfEga/BYkxrQRVEChz1BoMGnOvijQd7t1eSK3jG0wf0
ndeQiVVPGh0fe8XfGEYNfSK6LTnLWKgsVqxLHNyAKzQxhxRfGfdFzxcLA3QlSDftb/bJfwXwDH6K
D6vDK9szy3hfaoJv0m57EdrEsZevBXzSYMTECzpb8qSv/uDaSIsTjLwPMyaKZIEndfFvjaC6LWGD
fe9InSSzFeCwdHRDqprUs3x6+XKiCVy5gXvS70c3bJmGi+7qZEE6umf/lr6im1JxXY/uGe2iq1nG
Rxe/vaJ7R7oeXbsYTEDRzbpH10fhnYoukC3r7hGOrk0MZrfoxpWja22XpRYT2KJbIji6HL9DR0U3
ax5dV6WttL4dF12IEx7dsQOpMCaLlkRoKmvEKxBuMBXFpqlgm8O0w9Cu4H3LNEVko0KE0b4NJx9H
zmgNVu3dFuNTxjIfeG6GSdaUJUJmXYUX24Etwcj6g2nwQJeUBGdyj9GU3gADVnuSC2CLVV8ohQ6B
IFri3GsA4xOFPCxI17QdJh5O7VONAE1REJOxgukIdZr2YkRcWwWcwddy20Y3ssnbLF6ld1Y0Yedt
bJpe2zXGYOu2O+Y1Bnmw1+Gg6Cbn3609m4VXd3IeVc2f1QHY+gXf6W/qRo3sfcP89wFUPgWGuxQx
9uXOHlbR9HeLuNjbN/oxyA8XGbgjdvDfY2T4qoUcuUQcsVet7J5M9pcPLzk+qk9EfBXfrYk8PpR5
G5HcBPWIi1S0AI2vucCd+YwKT/heCrjMdGmm1viM68txHj5XIl7FLBzEbchcsDC92tomAi9mD2J5
U10i6d/qUYvni2EdoEEQjfissa2riAFr+SFR2XK3LJy0CW63x8iM4en0iFOeoPW2NdP5b+MAgMSq
XwRpoYxyKwKHj4WmSZy9Pm43RMc1IoycUrzSHX07ljtBHTrq88RewtZBpVdzFuROxSQfDoChvemv
FB2InlTYc0o23JYzcW3wVtPcTtj49Zpqnrsan9YuKU1XRnk1/dcwAZzJUc1K/416KY4yJheUV2Pw
BcrChcc2A2MF/xXBxpXUlhHXhDfV8B36vxcA2OmVhQIVP7md0GDFsEYpaHUmTs4X4vgPGljsBh/z
jM5/anivEO+1sr3GvYEAV3pZGDbiR9hrFuLnfr0vaXEhD6Ncsl/mlpnwJBCegvvCAXSWZGsl309G
Tr3pjO8cXVfvZ9YK5ULFJOuyFZrk03BkbzFLIMGvyDE03s9SswLhX0jWd2FpshkReB0yeq+yPn/5
a1De6xGrigeHdi1fM4iZPAskuwgaszYTmpsmO96uCaBsZ+fkIdgrcL2+Vb+hk9E1bT2e7b4gGd61
2K5aDo87WEZowTaPwmbOWeFlKiy0CKNu2KUMhXcIO34XlLcFDWABRG6B4TjNHoLwCmrf+wVTTDU7
raoNCKZdOqI2/upLIxcso4aeMnQOgIeMOlLWdmBpmSXiKAZi21mozRZ+1ZdBwa38AR4KcsjdC9/y
JGTVPFriEHPkZQt+uvvT/mDxjOe9YpZ5stQWP/PsfcPLylh0Z3KDhLVumfYn4PFT5mlUSZwq4uto
hx73JfNHwzib7Qlh8+MAVZZbABJc8N+SdJcOVQQj+6BFkPUlR+0QxgZFyg4YFdMWC99o06z4YGAR
9Dy2zTdbORkt99Qla1qGmXisav45B3bCA4xnDidnDn8MMjSQ5fkrEwHFotkkC/n8OSmWjYBg6RgL
g33Bz3o5SoZWEpL3yHVqy+yz9/mMWbEraoYFiIFVuDPCLxfWe11ktJfGKPlmSb9VlfrSVGqMKft+
y8Ds7TIcXeY1vvwSxqyAM7e5pX+KUALhSz1h3xE7YJAFIaTzn56jPwZYHn5nJVeoVzL/Z9PB+8Ui
iW1izVzZ5a/bgmWx7UtzLRMYDtfBJtQmL4gmWc3YXo5tXhew8M8oyzyI63aRtULN18njmDCeKSiG
xwRudZlQzooKdAHL7bGq8hqAgI26/SjM0kq7hLGHuxb/UEbbikrN7eUAdZQxXArIuhAgAlhn1fhQ
S/1zMLCEvp0UxnTMOs5bJDgBq+E0KBetU2Ryt/z4E55qkqJ1Lrf7A/ATrKw0YPKyd40eXYKqtx9Z
7neGa9P88AZkP8bAcwEMN3IqFarjpZzESG7J5UMg594lmyJzpzNEt4QGkI4QqL97Dg==
	
			]]>
		<![CDATA[
	6SMUL+QoNSgcwKZIc6/CFNxt7s+JsPe1iqbe8mKN/XEvv4M6XFon0yyjUi1vRyGLgx+tOtLKEYYu
oKso2xoSFqqPWyagE6gogET8rjKsSlRonrxou7t/AWJPPQWQ7osSQY+Du/2ZCUDuJUXKakUAU15i
TNa7zDpmHmItqkc+M+TAzOUEZDmVX4eR8APKAAUDUrC/MiH8CKdNhBnjn0neq4RD7jvXz9LsFTeo
9XaZ/PdfC3j7nTmgaLslMJkCBH+E6TWlxJ2z+JE6DNH4TtPthsVJEvUbHh+gHa7a2DStbNiuJLwX
j52M2eHhsBLTD8XIH0ZOHpoWPlvw6xs6Nqoil17JCrgQpdpwITsdTJWhkrPMeCMU3Jv6oFfDIyL/
IDCCLbLLOWLAXTf2EHUOodBnYocNNEzcsx60yMzrHB8SvP3RrKzMsEAaawAVxz+q6m/7jnWQ9RR4
bWz6G2DhTnmZQcxSQefK04k7uaFF8DP9WL6t9k//CnIo+qErXO803PaxHSEzbmlqv2s8GSQb23/2
3sjLFLzbhNuz70sZSXqIqgj8TEbP9dX+JvDsLPG2zt2FL27k3Krk46H9qe4GlHaKJP+Enu14sHji
jqWedXVlDHKMOXV4W0ZrAP3LYzTWd7TrublLqYsvri7fX62O1k/t+u/N0hqLjN86XGBFhCJfGO2a
FB9ZGhleND1XhWzfOxxgyZLDVB+kIjV6QlIAXkIZRqtnvnZo9Ol8QKDSL3Nf/REJfB7dh8ibUhjC
TTS4qBURoElNk3DH/hGbuwe7/wxpy9mXu/2tmfRetQZ86u0fwNxyYPghGKK2UZOlFI3j5D3/hEqe
8Psnnhf7Gh2KgTxC1/Mbd8QfLlVka6mJ+1nF1eAb3p6pPAQdfZ3O4i5X5x/jEh3HlTPBKT6CqWoI
jsOCnDLO3miZpTKXd5PjYYUMbuNiE36PvzGh0/A0yzIxZ5DhujhH5dKa51LUc3IiWFRUAT8K1Bky
guzVIaBJCr5bmWSMUMt2jHHv70ybsx2huYHCjQf6/kNeWYESX1p6lKnjXAiMXZyibmqACD0LnVj0
tW6w+lwZ4c3FJ6XhDWXQPCIffVqPOqqDyjYvIQcTZy9ly0iB+gkojseCvx1/3h/Bwj/g/fvX3f5f
4pkNQ6AvJey3hwLmlL0RX6Y+ylF7W30tnJcaXVSgf+oH+WPKIxGXhbC09lah6GZMdC32X4qZ7XJZ
PGXptvYhuWMybUc3JDZqy+B8QapFzFF508oARVcThfQIwy3Ir/ECcPUbrqUlP8rzgJtArAXaAlQL
nzT7CAIhieIVi46IzoZ0Cvca2V60o18XCZf5cFLOl8Msqwh3l47luf2ouBvNYI7iKWSkorMRxpoU
JZVYE89xQVSxcpw+cALZp2Y1mMxSWqxOehujtlJNHkOkiw34O4nf5ZWJI1EhvfbAGGXJ+Hc7SGb7
E10OfJzMVREEmYb0ykxJrFuCd5ncRvHZcocKYlyLKW5JZm39XyIL25/YQN2987zfsb/67+NuwV7T
Y7qLLO6EMVt56002EfN2o77n7pjW6gL/OQVc/OEi3ul3qkBVCaAz2ml3qaPVRnB4NkR5cxKAYkFE
hajmsExA3HGB85r91/yA2pM/Zn3YJzZwNCr2eGwLJ8ZPlaGaoGQCrTh7D6rchd0e/pnd4zqRuC7T
BqB1OEymYiW8elrTvXCdhrYcX2MJrPhURSs7lMxIFxwSL1Y43ELUs3LvmvAbq5n6SjnOg26CnLNX
q0AnLHEomxvrYSquXfX973SVL0ZjIMw32KgXrcn1C41lJeekG801Ynu0mb8a8UKHPhWQvXYleQ6e
B8k2sxnIxhH+AEwAOfNJEkU7zh54S7B3kxkZSHn/ot8Bybx7SgqB3OjYh+FXPlwq+FJvMflspsWS
QuzTdrr3VrAacPQ+Kx03PECQ2dei0gDdQ5EDcULKxjCRsN247tqCt5NYuoBCz2jTA549nHAVgNPq
zQ55Bqv9g6Hhj7U774sLOKkFgBQRpt1nJgSf+gNB6RMWRVYeKPUZERgq4WbQcaG0whgtlOyDy/l2
iFfIj28IwYESqtEwGh3agQWOXUeTp+AXRgxSnMqwkS06RYUp/UEhFGse4N+xftyqN0d6m2UUysmc
YUE+fO2mzgOQBVLQqHEvWsh8BgPV4nMby39C0nPa7UGcvhWTDBPh6BIEOsXdHHG4AF5DawsMyApn
h8+kR+vMHLvrFReWmKnjLYx9bIGUZNXX9D61y/DH0eNwYjUMVfktkfuPOLC/AoL8PfIv2qMs2nHB
TsQGqNXwBjJ1cFAnF3h0SRgKMptrf+LHKq7IgkJMXcBesbDpNrSzor0hjK9Iyz2aT90u3UV2c8EQ
tWb8NbLJ1+p1MMwyUvqbohviRxr51SNeycMu0UKrJtNjXG1ZdYfXydhpS6ZvrCWjZT69sVFtOUAa
1YwEQIYW0Ad6MSdEBsJ8QBEEZbXUv0HaLdrj47yJwI+rMgsNRMCsJPojZoQxr6dGcZkaDWDxVFFl
yrKu/ZOOgbg5KGLaOmfNB4sknQxbEGcIruKIQ324vIZxSvMZH9GNkS8dRe/tYugICWwUKplTGBDE
MJ1ZquCkQzWpsuxtbfGiX/7T0AsrQ/Xt4k7vr0t25T/FVsV+GFMCwIS6OcHeoEa6tvuC2Gz5fBCC
dTgb8bdBJa9AMxH1h47WywjtyGdwOBUd7DwysR8dNSyzPROjhuRH/5wZRc0Iak7yLewBaJKfBmjf
tqeWoSAyBhiR54e5ZzuLKz8GnqhLDiAnSAo0p7CXpMqm1YYbkDRtrob0gUsA/Tt72zc+7mlTbpfJ
L41Cw5myeCQQJ7ARaD6BIZyTj/QM8000PUjrCG8kn139s2kWRQ8P0qDOppM/+DKBTmN53nvfmaMI
IOffTuQwBAB6HFaDllSIMc0KSBJ1twLbcWCnYVpcN0GcWwRJRFeQvysoxMJisYS8ihGTxpNNjAZ8
sCVZmTLSJHdhIRTnRp6Z0STuVOPhX1zRouEtROOsIuNSFb2ExVIFdQ+VriCatx5zks3tLbk9ozwW
HKQZEVmkA6HseKJIWTzv6cFSUVzpH0nj3ldhDJ3B0V5pCpk6RYBQdZRuwTQEsy20tNiR6+jAhVqG
wIMtYr8Xx8vOGj+X31hGantY1q3VXRXASzgN1r+ThD22dM8GFGBMgRBTC6IRAe5cXlwdIGpFprmk
efFi7QH5fmW3Vvj4T0G4iIv9CC3AHzfOVLyvEw6A0dwq5TsRJ60u/KEV8O1McIu+A9GwfPAVwZFO
zxVJblspSdLLWBEn6RFn9JYqyV5QOPba7KvvzoSrkxAE4h7nbm+9KdGMTPiN317fWZV++loy9ONz
dp4k3AjDF+lk3jnIO0krNnZni464vcf2L19oPDUH6AYKppGJU6bz1E5DobffVOJqUlK5Otj0VVui
0axjWodIE8Rpz0YRd5PfACV91Fsk/ecMRs9jNppak/lxOXh60+U+N2Bn1su2dMhv1PFVOeGBsNgk
3rGii/RVrHZ8urDWxOd/w6YtnC74DM3PkcMJUZOiw2kbm8CR8NGPKQ6ZfsgqAqFuwwZWnKOrSF/J
zV1RdCgY1WcC5XlSrZoumuVcDOP2PfhRHDVfbRnRnu1ocsrKD78BU/rUKkktpEMFs4+CZ6UJKfFh
HkVX2Op4l08J5nEXKmTjQfKVpQVHPrCcF3jhqe7XNGB6ebLYW78MTI2o8u7NdoPHwODQnUQ3KZtN
9wAes1Dk8wtj6s/6eqEVkIe6Bfv8iROeG0jRGwDBtkYCra/2ZlvvDSnzRFq9GGlrpgjRaR0xKiJy
0Yr2hPqhc5iDp0PIAbNhVjXdd6wD6zF+nNWWiE0Xzuw/phO7yh/JnfR+n2kGd1/IjTDXos7AeFMb
nOzovCjkhsl4Q+waVaUiPVdT5xMIXxRr4A6VJN9n6T+ICzgRdGpECDBgiIiqnjsoIkkn0e12umv9
crD6GI3+4LdFiQL5kI1Yxu/WaUOpjq3VytA+GT42uhteJyu1AfrDYHcMIAZJJ5CuCr11FNOACsxT
iIcEdQsSl/AzJmJsVR4AvDImZO2nurZ12zSKkcuIezUXrXfiKENQCGjWv435ihmJQic+tpE9GA6a
5g6h9HPUYp4I/U9Kt1ZR5HvCRAQaQEDuJC0jtvWZajlXL3rXEmE8BNt+FY7GF30BCNg/M2ySRqyr
w9DyW2CzwZQO0ViRBVrU8/MMPk26Aoc7FBNo9QNZAePEkZCgwk0YVPnLsEOCnsAKO9fVT7hUdsT/
z9f1XPpVMMdVlYuweJyuqM5fGrEIoLbh4tj5d2ROTSG5CUViVHENkZ9AYl7ZHxtepeSm9iQupQx/
F7iUmPgcEH7gFOIjkEPPp0+4IXgWsqbrLB7/Ytc/rXhHN74su2n9n4iVIa7NDWClMDyASmSNVsoP
gwNd4BEdnIOBIqyR3AUJgNxUhlhTGXEqqydbzrWItG9G0bsWnPDeP1GuGdJDNKMSCVhGiObmtSLx
h4iUP/9A9F2N8dks+rMaJL0=
	
			]]>
	</i:aipgf>
</g>
<g id="Layer_3">
	<g>
		<path class="st7" d="M4.6,51.9C5,50.8,5,49.7,5.2,48.6C6,44,7.9,39.8,10.8,36.2c2.9-3.6,6.4-6.5,10.6-8.5c2.6-1.2,5.4-2,8.2-2.5
			c0.7-0.1,1.5,0.1,2.2-0.3c1.5,0,3.1,0,4.6,0c1.1,0.2,2.3,0.4,3.4,0.6c4.7,0.9,8.9,2.8,12.6,5.8c3.5,2.8,6.3,6.2,8.2,10.3
			c1.2,2.6,2,5.3,2.5,8.1c0.3,2,0.5,4,0.3,6c-0.4,5.8-2.2,11.1-5.6,15.7c-4.2,5.6-9.6,9.4-16.5,11.1c-2.9,0.7-5.9,1.1-9,0.9
			c-5.9-0.4-11.4-2.3-16.2-6C10.6,73.1,7,67.6,5.4,60.8c-0.3-1.3-0.6-2.6-0.6-4c0-0.1,0-0.2-0.2-0.3C4.6,54.9,4.6,53.4,4.6,51.9z"/>
		<path class="st8" d="M34.1,25.5c15.2-0.3,29.6,12.8,28.7,30.3c-0.7,13.7-12.5,27.8-30.3,27.1C18.5,82.3,4.2,70.4,5.2,52.3
			C6,38.4,17.8,25.3,34.1,25.5z"/>
		<path class="st7" d="M14.6,69.2c-2.2,0.6-4-0.2-4.9-1.9c-1.3-2.6-0.9-4.4,1.2-6.3c-2.1-0.3-3.6-1.4-4.2-3.5
			c-0.3-1.2-0.3-2.6,0.5-3.6c0.7-0.8,1.3-2.1,2.9-1.9c-0.3-0.5-0.7-0.6-1-0.8c-0.4-0.2-0.8-0.4-0.7-1c0-0.1,0-0.2-0.1-0.3
			c-1.2-0.5-0.8-1.7-0.9-2.6c-0.1-1,1.3-3.4,2.2-3.8c0.2-0.1,0.5-0.1,0.7,0c0.3,0.2,0.4,0.1,0.5-0.1c0.4-0.7,1-0.6,1.7-0.3
			c0-0.4-0.3-0.7-0.5-0.9c-0.3-0.3-0.7-2.5-0.6-2.9c0.5-2.6,2.5-3.9,4.2-5.5c1.1-1,2.4-1.8,3.8-2.4c0.1,0,0.2,0,0.2-0.1
			c1-1.8,2.9-2.1,4.7-2.6c1.5-0.5,3-0.6,4.5-0.2c0.4,0.1,0.5-0.2,0.7-0.4c1.2-1.2,2.6-1.7,4.2-1.2c0.6,0.2,1.2-0.2,1.8-0.2
			c1,0,1.9,0.3,2.6,1c0.5,0.5,1,0.8,1.8,0.7c2.5-0.3,5.1,0.3,7.1,1.8c2.4,1.8,5.2,3.1,7.2,5.5c0.7,0.9,1.5,1.8,1.9,2.8
			c0.8,1.7,2.5,2.9,3,4.8c0.4,1.4,0.9,2.8,1.1,4.2c0.1,0.7,0.6,1.3,0.8,2c0.3,2.1-0.1,4.1,0,6.2c0.3,3.3-1,6-2.2,8.9
			c-0.7,1.7-1.2,3.5-2.3,5c-1.9,2.7-4,5.1-7.1,6.5c-0.2,0.1-0.4,0.3-0.6,0.3c-0.5,0-0.8,0.1-0.7,0.7c0,0.1,0,0.1-0.1,0.2
			c-1.2,0.8-2,2.4-3.7,2.5c-0.7,0-1.3,0.2-1.9,0.8C42,81,41,81,40.1,81.1c-1.2,0.2-2.5,0.5-3.8,0c-0.4-0.1-0.8,0.1-1.2,0.3
			c-0.7,0.4-1.5,0.4-2.2,0c-0.6-0.3-1.1-0.3-1.7-0.2c-2,0.2-4,0-5.7-0.8c-1-0.5-2-0.7-2.9-1.1c-0.6-0.2-1.5-0.2-1.4-1.2
			c-0.8-0.3-1.3-1-2.1-1.4c-1-0.4-2-0.9-2.9-1.5c-0.4-0.3-1.1-0.5-0.8-1.3c0,0-0.1-0.2-0.1-0.2c-0.8-0.5-0.9-1.3-1-2.2
			C14.3,70.7,14.2,70,14.6,69.2z"/>
		<path class="st9" d="M22.7,54.1c-0.1-6.5,5.2-11.2,11.4-11.2c6.5,0,11.3,5,11.3,11.3c0,6.3-5,11.3-11.3,11.2
			C27.7,65.4,22.5,60.6,22.7,54.1z"/>
		<path class="st8" d="M37,36.1c1.1,1.1,2.4,1.3,3.7,1.3c1.5,0.1,3,0,4.5,0c0.4,0,0.7,0.1,1,0.5c0.9,1,1.6,2.2,2.8,2.9
			c0.7,0.4,0.7,1.1,0.9,1.8c0.4,1.9,1.4,3.6,2.4,5.3c0.2,0.3,0.4,0.5,0.3,0.9c-0.5,2.3,0,4.6,0.5,6.9c0.1,0.3,0.1,0.6,0,0.9
			c-1.1,2-1.3,4.2-1.6,6.4c0,0.4-0.1,0.6-0.4,0.9c-1.5,1.2-2.5,2.7-3.5,4.4c-0.3-1.4-1.4-0.4-2.2-0.9c0.6-0.6,1.3-1.2,1.9-1.9
			c2.3-2.7,3.7-5.7,4.1-9.2c0.6-5.1-0.8-9.5-4.1-13.3c-2.3-2.8-5.3-4.6-8.8-5.5C37.6,37.3,37,37.1,37,36.1z"/>
		<path class="st8" d="M21.1,65.9c-1.5,0-1.5,0-1.4,2.5c-0.4-0.2-0.8-0.3-1.2-0.6c-0.4-0.2-0.8-0.3-1.2-0.5c1.1-1.6,1.1-3.3,0.2-4.8
			c-0.4-0.7-1.2-1.5-2-1.9c-0.5-0.2-1.1-0.4-1.8-0.5c1.7-1.1,2-2.7,2-4.5c0-0.7-0.4-0.8-0.9-1.2c-0.2-0.2,0.2-1-0.4-1.3
			c-0.5-0.3-1-0.5-1.3-1c3.2-1.1,4.4-4.3,2.3-7.7c1.2,0.5,2.1-0.3,2.9-0.6c0.7-0.3,1.7-1.1,1.7-2.3c0-0.1,0-0.2,0-0.3
			c1-0.7,0.3-1.7,0.3-2.5c0-0.6,0.1-0.8,0.6-0.9c0.6-0.2,1.2-0.4,1.8-0.4c1.9,0,3.8,0.1,5.8-0.2c0.9-0.1,1.6-0.5,2.4-1
			c0.1,0.8-0.3,1-0.9,1.2c-3.8,0.8-6.9,2.7-9.4,5.5c-2,2.2-3.3,4.9-3.8,7.8c-0.9,4.8,0,9.4,2.8,13.4C20.2,64.7,20.7,65.3,21.1,65.9z
			"/>
		<path class="st8" d="M29.5,78.5c-0.3-0.1-0.2-0.4-0.2-0.6c0-2.3,0-4.7,0-7.1c3.2,0.9,6.4,0.9,9.6,0c-0.1,2.6,0.1,5.1-0.1,7.7
			c-1.2,0.4-2.4,0.1-3.7,0.2c-0.2,0-0.3,0-0.5-0.1c-0.2-0.1-0.5-0.1-0.5-0.4c0-0.3,0.3-0.3,0.5-0.3c0.5,0,0.9-0.1,1.2-0.4
			c0.2-0.1,0.1-0.3,0-0.4c-0.2-0.1-0.5-0.2-0.6-0.5c0.2-0.3,0.6-0.4,0.8-0.7c-0.3-0.2-0.7-0.2-0.9-0.4c-0.1-0.1-0.1-0.1-0.1-0.2
			c0.2-0.4,0.7-0.4,1-0.7c-0.5-0.5-1.2,0.1-1.7-0.3c-0.2-0.4,0.2-0.7,0.2-1.1c0-0.4-0.1-0.9-0.5-0.9c-0.5,0-0.5,0.5-0.6,0.8
			c0,0.4,0.3,0.7,0.4,1c-0.1,0.5-0.4,0.3-0.7,0.2c-0.4-0.1-0.7-0.3-1.1,0c0.1,0.4,0.6,0.4,0.8,0.7c0,0.1,0,0.2,0,0.2
			c-0.3,0.2-0.6,0.2-0.9,0.4c0.1,0.3,0.5,0.4,0.5,0.7c0,0.3-0.3,0.4-0.4,0.6c0.2,0.7,0.8,0.7,1.4,0.7c0.2,0,0.5-0.1,0.5,0.2
			c0,0.3-0.3,0.4-0.5,0.5c-0.2,0.1-0.5,0.1-0.8,0.1C31.6,78.6,30.5,79,29.5,78.5z"/>
		<path class="st9" d="M31.3,37.6c0.3-1.1,0.5-1.9,0.9-2.6c0.2-0.5,0-0.8-0.3-1.1c-0.7-0.5-1.4-1-2.1-1.7c0.9,0,1.7,0,2.6,0
			c0.6,0,0.8-0.2,0.9-0.7c0.2-0.8,0.5-1.5,0.8-2.5c0.4,1.1,0.7,1.8,0.9,2.6c0.1,0.5,0.4,0.6,0.8,0.6c0.9,0,1.7,0,2.8,0
			c-0.6,0.7-1.3,1.1-1.9,1.5c-0.5,0.4-0.8,0.7-0.5,1.4c0.3,0.7,0.5,1.4,0.7,2.3c-0.9-0.3-1.5-0.9-2.1-1.4c-0.5-0.4-0.8-0.3-1.3,0
			C32.8,36.5,32.2,37,31.3,37.6z"/>
		<path class="st10" d="M15.4,35.1c4-4.3,10.4-5.7,15.2-1.3c-2.6-0.4-5.2-0.5-7.8-0.2C20.3,33.8,17.8,34.3,15.4,35.1z"/>
		<path class="st10" d="M52.8,35.2c-5.1-1.6-10-2.3-15.1-1.4C42.1,29.4,48.6,30.7,52.8,35.2z"/>
		<path class="st10" d="M57,64.7c0.2,0,0.1,0.2,0.2,0.3c1.1,0.8,0.5,1.7,0,2.5c-1.9,3.3-4.2,6.2-7.8,8c-0.2,0.1-0.4,0.3-0.7,0.2
			c0-1.6,1.3-2.4,2.2-3.4c2.1-2.3,3.9-4.7,5.7-7.2C56.8,64.9,56.9,64.8,57,64.7z"/>
		<path class="st10" d="M31.5,80.7c-1.8,0.1-3.5,0-5.2-0.5c-0.3-0.1-0.6-0.1-0.3-0.5c0.2-0.4-0.2-0.2-0.4-0.3
			c-1-0.2-1.9-0.3-2.9-0.6c-0.2-0.1-1,0.1-0.6-0.7c0.1-0.2-0.6-0.4-0.9-0.6c-0.5-0.3-0.5-0.3-0.6-1c0-0.2-0.3-0.3-0.4-0.5
			c-0.4-0.4-0.7-0.9-0.5-1.6c1.3,0.8,2.6,1.5,3.9,2.2c0,0.4-0.5,0.3-0.6,0.8c1.4-0.6,2.6,0,3.9,0.4c-0.1,0.4-0.5,0.3-0.7,0.6
			c0.6,0.2,1.2-0.1,1.7-0.2c0.3-0.1,0.7-0.2,0.8,0C29.2,79.5,30.6,79.8,31.5,80.7z"/>
		<path class="st10" d="M31.7,34.6c-0.8,1.4-2.1,2.1-3.7,2.2c-1.1,0.1-2.2,0-3.4,0c-1.2,0-2.5-0.1-3.8,0.5
			C23,33.9,26.8,33.3,31.7,34.6z"/>
		<path class="st10" d="M44.3,76.6c1.5-0.7,2.9-1.5,4.3-2.5c-0.1,0.7-0.4,1.2-0.6,1.7c-0.1,0.3-1.1,0.4-0.3,1
			c-0.2,0.1-0.4,0.3-0.5,0.4c-0.4,0.5-1.5,0.2-1.3,1.3c0,0-0.4,0.2-0.6,0.3c-1.1,0.3-2.2,0.5-3.4,0.6c0.4,0.5,0.2,0.6-0.3,0.8
			c-1.6,0.4-3.1,0.6-4.9,0.5c0.7-0.5,1.6-0.9,2-1.5c0.7-1,1.5-1.4,2.6-0.8c0.1,0.1,0.3,0,0.5,0c0-0.2-0.2-0.2-0.3-0.3
			C41.4,78,41.3,78,41,77.8c1.4-0.4,2.5-1,3.8-0.4C44.9,76.9,44.4,77,44.3,76.6z"/>
		<path class="st10" d="M47.1,37.2c-2.2-0.7-4.4-0.3-6.5-0.4c-1.8,0-3.1-0.7-4.1-2.2C41,33.3,45,33.9,47.1,37.2z"/>
		<path class="st10" d="M46.2,73.8c2.4-3.6,6.3-5.9,7.9-10.1c0.2,0.7,0.1,1.5,0.8,1.9c0.3,0.2,0,0.4-0.1,0.6c-1.7,2.8-3.7,5.3-6.6,7
			C47.7,73.5,46.9,73.6,46.2,73.8z"/>
		<path class="st10" d="M22,30.3c3.5-2,8.9-2.1,10.5,1.5c-1.6-0.2-3.1,0.2-4.7-0.5C26,30.5,24.1,30.1,22,30.3z"/>
		<path class="st10" d="M35.7,31.8c1.7-3.5,6.5-3.5,10.3-1.5c-1.4,0-2.6,0.1-3.7,0.4c-0.5,0.1-0.9,0.2-1.4,0.4
			C38.5,31.9,38.4,32,35.7,31.8z"/>
		<path class="st11" d="M20.4,55c0.2,0.5,0.5,1.1,0,1.6c-0.1,0.1-0.3,0.2-0.1,0.2c0.3,0.1,0.6,0.2,0.6,0.5c-0.1,0.4-0.5,0.5-0.8,0.7
			c-0.1,0-0.1,0.1-0.3,0.1c1.1,0.2,1.7,0.8,2.1,1.9c0.4,0.9,0.2,1.3-0.6,1.6c-0.3,0.1-0.5,0.4-0.3,0.7c0.1,0.2,0.5,0.2,0.7,0
			c0.9-0.9,1.5-0.5,2.1,0.4c0.4,0.6,0.9,1,1.4,1.5c0.1,0.2,0,0.2-0.1,0.3c-0.5-0.2-0.5,0.2-0.6,0.5c0,0-0.1,0-0.1,0
			c-0.4,0.1-0.5-0.7-0.9-0.3c-0.3,0.4,0.3,0.5,0.4,0.8c0,0.1,0,0.1,0,0.2c-1.2-0.4-1.3-0.8-0.5-1.6c0.1-0.1,0.2-0.2,0.3-0.3
			c0.2-0.2,0.1-0.3,0-0.5c-0.2-0.3-0.3-0.1-0.5,0c-0.3,0.3-0.6,0.5-0.9,0.8c-0.2,0.2-0.3,0.1-0.5-0.1c-0.1-0.2,0-0.3,0.1-0.4
			c0.3-0.3,0.6-0.5,0.8-0.8c0.1-0.1,0.4-0.2,0.1-0.4c-0.2-0.2-0.3-0.2-0.5,0c-0.1,0.1-0.2,0.1-0.3,0.1c-0.6,0.5-1.2,0.5-1.6-0.1
			c-0.4-0.5-0.1-0.9,0.7-1.6c-0.4-0.1-0.7-0.2-0.8-0.5c-0.1-0.4-0.4-0.2-0.6-0.2c-0.4,0.1-0.7,0-0.3-0.4c0-0.1,0.2-0.1,0.1-0.2
			c-0.1,0-0.2,0-0.3,0c-0.3-0.2-0.7-0.3,0-0.6c0.2-0.1,0.6,0,0.8-0.4c0,0.1,0-0.2,0.1-0.1c0.1,0.1,0.2,0,0.1,0
			c-0.2-0.1-0.5,0-0.7-0.1c-0.2-0.1-0.6,0.1-0.7-0.1c-0.2-0.5,0.6-0.4,0.7-0.8c-0.3-0.4-0.9,0.3-1-0.3c-0.1-0.5,0.7,0.1,0.6-0.6
			c-0.4-0.1-0.7-0.4-0.8-0.9c-0.2-0.6,0.4-0.9,0.6-1.3c0,0,0.1-0.1,0.1-0.1c0.4-0.2,0.9-0.1,1.3,0.1C20.3,54.8,20.4,54.9,20.4,55z"
			/>
		<path class="st10" d="M23.8,75.6c-0.4,0.1,0.3,0.8-0.4,0.4c-1.2-0.5-2.2-1.2-3.2-2c0.5,0.1,1,0.2,1.6,0.3c0.3,0,0.9,0.7,1-0.2
			c0,0,0.4-0.1,0.6,0c0.8,0.2,1.6,0.3,2.4,0.7c0.1,0.1,0.6,0.6,0.6-0.2c0-0.2,0.2-0.1,0.3-0.1c0.2,0,0.3,0.1,0.5,0.1
			c2,0.5,2,0.5,1.8,2.5c0,0.2,0.1,0.4-0.1,0.5c-0.3,0.1-0.4,0-0.6-0.2c-0.5-0.5-1.1-0.9-2-1.4c0.3,0.5,0.5,0.9,0.7,1.3
			C25.6,77.1,24.5,76.6,23.8,75.6z"/>
		<path class="st10" d="M44.2,75.6c-0.8,0.9-1.8,1.6-3.1,1.7c0.2-0.4,0.4-0.7,0.6-1.1c-0.7,0.1-1.1,0.7-1.5,1.1
			c-0.2,0.1-0.3,0.4-0.5,0.3c-0.3-0.1-0.1-0.4-0.2-0.6c0-0.2,0-0.3,0-0.5c0-1.6,0.5-2.4,1.9-2c1.3,0.4,2-0.6,3.1-0.5
			c0.3,0,0.8-0.4,0.9,0.4c0,0.3,0.4,0.1,0.6,0c0.7-0.2,1.4-0.4,2.1-0.6c-1,0.9-2.2,1.6-3.5,2.2C43.9,76.4,44.5,75.7,44.2,75.6z"/>
		<path class="st10" d="M46.7,68.4c-0.1,0.7-0.1,1.4-0.6,2c-0.1,0.2-0.5,0.5,0,0.8c0.2,0.1,0,0.3-0.1,0.3c-0.3,0.2-0.7,0.5-1,0.7
			c-0.2,0.1-0.9,0.1-0.3,0.6c0,0,0,0.2-0.1,0.2c-0.7,0.5-1.6,1.1-2.3,1c-0.8-0.1-1.4,0.1-2.1,0.2c-0.2,0-0.5,0.3-0.7,0
			c-0.2-0.3-0.2-0.7,0-1c0.1-0.3,0.4-0.4,0.7-0.3c0.6,0.2,1.1,0,1.9,0.1c-0.4-0.4-0.8-0.4-1.2-0.5c1.1-1,2.4-1.4,3.7-1.5
			c0-0.4-0.2-0.3-0.3-0.3c-0.1,0-0.2,0-0.5-0.1C44.9,69.9,45.8,69.2,46.7,68.4z"/>
		<path class="st12" d="M54,41.7c-1.3-0.7-2.3-1.5-3.1-2.6c-0.8-1.1-1.5-2.3-2.3-3.4c-0.3-0.3-0.4-0.7-0.2-1c0.2-0.4,0.6,0,0.8,0.1
			c1,0.1,1.5,1,2.1,1.7c1.1,1.3,2,2.7,2.7,4.4C54.1,41.1,54.1,41.1,54,41.7z"/>
		<path class="st13" d="M34.9,78.5c1.3,0,2.6,0,3.9,0c-1.2,1.1-2.6,1.9-4.1,2.6c-0.3,0.1-0.6,0.3-0.9,0.1c-1.6-0.7-3.1-1.5-4.3-2.8
			c1.2,0,2.3-0.2,3.5,0.1c-0.1,0.2-0.4,0.2-0.4,0.2c1.1,0.2,2.4,0.1,3.6,0C35.8,78.7,35.2,79.1,34.9,78.5z"/>
		<path class="st12" d="M53,49.1c0.6,0.3,1.1,1,1.8,0.2c0.5,2.5,0.3,4.9-0.2,7.3c0,0.2,0,0.5-0.3,0.5c-0.3,0-0.3-0.3-0.4-0.5
			C53.1,54.1,52.8,51.7,53,49.1z"/>
		<path class="st12" d="M59.1,56.9c0.4,0.7,0.8,1.2,1.5,0.3c0.1,2-1.5,6.4-2.7,7.7C57.3,63.6,57.9,59.1,59.1,56.9z"/>
		<path class="st12" d="M60,57.2c-1.1-2.6-1.6-5.3-1.3-8.2c1.1,0.9,1.2,0.9,1.8,0.1C60.8,51.9,60.9,54.5,60,57.2z"/>
		<path class="st12" d="M51.3,64.2c0.2,0.7,0.2,1.4,1.2,1.4c-1.5,2.2-3.2,4.2-5.5,5.5C47.7,68.3,49.3,66.2,51.3,64.2z"/>
		<path class="st12" d="M57.2,57.5c-1.3-2.9-1.5-5.6-1.3-8.4c0.5,0.2,0.9,1.2,1.6,0.3c0.1,0.1,0.2,0.2,0.2,0.3
			C58.1,52.2,58,54.7,57.2,57.5z"/>
		<path class="st12" d="M55,57.4c-0.3,2.8-1.2,5.3-2.8,7.5c-0.4-2.8,0.1-5.4,1.2-8.1C53.7,57.5,54.1,57.9,55,57.4z"/>
		<path class="st12" d="M51.9,41.4c1.3,2.4,2.3,5,2.2,8c-1.8-2.1-3-4.4-3.7-6.8c-0.1-0.3,0-0.7,0.4-0.5C51.7,42.5,51.8,42,51.9,41.4
			z"/>
		<path class="st12" d="M55,64.9c-0.3-2.8,0.1-5.4,1.2-8c0.4,0.5,0.7,1.3,1.6,0.4C57.5,60.2,56.6,62.6,55,64.9z"/>
		<path class="st12" d="M55.9,41.8c0.8,0.4,1.5,0.8,1.7-0.5c1.3,2.5,2.1,5,2.1,7.7C57.8,47.1,56.7,44.6,55.9,41.8z"/>
		<path class="st12" d="M56.9,49.3c-1.9-2.3-3.1-4.7-3.8-7.4c1.3,0.5,1.4,0.5,1.7-0.4C56,43.2,57.1,47,56.9,49.3z"/>
		<path class="st10" d="M17.4,68.4c0.8,0.9,1.6,1.7,2.4,2.5c-0.1,0-0.3,0.1-0.7,0.1c0.2,0.1,0.4,0.3,0.5,0.2c1.4-0.1,2,0.8,2.4,1.9
			c0.1,0.2,0.3,0.3,0.1,0.5c-0.1,0.2-0.3,0.1-0.5,0.1c-0.9-0.1-1.7-0.5-2.7-0.1c0.4-0.5,0.6-0.7-0.1-1c-0.7-0.2-1.5-0.9-1.4-1.5
			C17.7,70.2,17,69.4,17.4,68.4z"/>
		<path class="st12" d="M51.1,35.2c1.8,0.5,3.3,1,4.1,2.6c0.5,0.9,1.1,1.8,1.6,2.8c0.1,0.3,0.5,0.7,0.2,1c-0.3,0.2-0.6-0.2-0.9-0.4
			c-1.1-0.9-2.2-1.8-2.9-3.1C52.6,37.2,51.9,36.3,51.1,35.2z"/>
		<path class="st10" d="M28.9,74.1c-0.8,0-1.4-0.4-1.9-0.9c-0.3-0.2-0.3-0.2-0.5,0.1c-0.1,0.2-0.2,0.1-0.3,0
			c-1.3-0.6-2.6-1.2-3.9-2.2c0.7,0.1,1.2,0,1.7,0.1c0.4,0.1,0.9,0.7,1.3-0.2c0.2-0.4,3.3,0.2,3.5,0.7C29.1,72.4,28.8,73.2,28.9,74.1
			z"/>
		<path class="st10" d="M15.9,74.3c0.3-0.1,0.5-0.1,0.8-0.2c-1.7-0.9-1.8-2.6-1.9-4.4c1.1,1,1.8,2.1,2.8,2.8
			c-0.2,0.4-0.6,0.1-0.8,0.4c2.2,0.1,2.1,2,2.8,3.5C18.3,75.7,17.1,75.3,15.9,74.3z"/>
		<path class="st14" d="M45.5,34.7c0.6-0.5,1.1-0.1,1.5,0.2c2.1,1.8,3.5,4.1,4.4,6.8c-1.7-0.8-3-2.1-4.2-3.5c0.1,0,0.2-0.1,0.2-0.1
			c0.4,0,0.6,0.8,1,0.4c0.3-0.3-0.2-0.8-0.5-1.1C47.3,36.3,46.4,35.6,45.5,34.7z"/>
		<path class="st10" d="M46.1,68.1c-0.5,0.8-1.2,1.1-1.7,1.6c-0.4,0.4-0.7,0.4-0.8-0.7c-0.5,1.5-1.3,2.4-2.5,2.7
			c-0.2-0.4,0.3-0.6,0.2-1c-0.8,0.4-0.9,1.4-1.8,1.8c0-0.6,0-1.2,0-1.7c0-0.3,0.1-0.4,0.4-0.5c1.8-0.5,3.3-1.8,5.1-2.3
			C45.3,68.1,45.7,68,46.1,68.1z"/>
		<path class="st11" d="M16.9,35.2c2.2-0.8,4.5-1,6.8-1.2c-1.5,0.8-2.7,2-3.7,3.3c-0.1,0.2-0.2,0.3-0.4,0.3c-0.2,0-0.2-0.2-0.2-0.3
			c0.1-0.7-0.4-1-0.9-1.2C18,35.8,17.5,35.5,16.9,35.2z"/>
		<path class="st11" d="M20.2,47.8c0.4,0.1,0.8,0.3,1.1,0.5c0.2,0.1,0.5,0.1,0.3,0.5c-0.1,0.3-0.3,0.5-0.6,0.4
			c-0.3-0.1-0.6-0.2-1-0.1c0.2,0.2,0.4,0.5,0.7,0.6c0.9,0.4,0.1,0.9,0.2,1.4c0,0.3-0.5,0.1-0.8,0.1c-0.4-0.1-1.1-0.5-1.2,0.2
			c-0.1,0.5,0.6,0.6,1.1,0.6c0.3,0,0.5,0.1,0.7,0.3c-0.7,0.6-1.3,0.1-1.9-0.1c-0.4-0.1-0.5-0.6-0.4-1c0.1-0.7,0.7-0.8,1.3-0.8
			c-0.4-0.3-1.1-0.1-0.9-0.7c0.2-0.4,0.8,0.3,1.2,0.1c-0.2-0.4-1.1-0.5-0.8-1c0.2-0.4,0.9,0,1.4-0.2c-0.3-0.1-0.6-0.2-0.8-0.4
			c-0.1-0.1-0.4,0-0.3-0.3c0.1-0.2,0.3-0.3,0.5-0.2C20.1,47.6,20.2,47.8,20.2,47.8z"/>
		<path class="st10" d="M22.2,69.7c0.9,0.4,2-0.3,2.5,0.9c-1.1,0.1-2.2,0.1-3.2-0.4c-1.2-0.7-1-2.2-1.3-3.4c1,0.7,1.8,1.7,2.8,2.4
			C22.9,69.7,22.5,69.5,22.2,69.7z"/>
		<path class="st10" d="M28.9,71c-1.8-0.8-4,0-5.1-2.2c-0.1-0.2-0.4-0.7-0.8-0.2c0,0-0.3-0.1-0.4-0.2c-0.6-0.6-1.3-1.2-2-1.9
			c1.1-0.2,1.7,0.6,2.3,1.1c1.6,1.2,3.2,2.4,5.2,2.9c0.2,0.1,0.4,0.2,0.6,0.3C28.8,70.6,28.8,70.7,28.9,71z"/>
		<path class="st11" d="M42.2,66.5c0,1.4-0.5,1.8-1.8,1.4c-0.6,1.6-1.1-0.2-1.7,0.1c-0.2,0.3,0.6,0.8-0.1,1.2
			c-0.3-0.6-0.5-1.2-0.7-1.9c-0.1-0.1-0.1-0.2,0-0.4c0.7-0.2,1,0.4,1.5,0.7c0.2-0.2-0.2-0.4-0.1-0.6c0.1-0.2-0.3-0.4,0-0.6
			c0.4-0.2,0.3,0.1,0.4,0.3c0.1,0.2,0.1,0,0.2-0.1c0.3-0.9,1-1,1.7-0.9C42,65.9,42.3,66,42.2,66.5z"/>
		<path class="st11" d="M46.6,62.6c0.3,0.8,0,1.5-0.9,1.6c-0.5,0-0.6,0.2-0.6,0.7c0,0.8-0.6,1.1-1.4,1c-0.1,0-0.1-0.1-0.2-0.2
			c-0.5-0.3-0.9-0.7-0.7-1.4c0.2-0.7,0.8-0.9,1.6-0.7c-0.3-1,0.2-1.5,0.8-2c0.1,0.1,0.1,0.1,0.1,0.2c0,0.3-0.1,0.5-0.2,0.7
			c-0.1,0.4-0.1,0.7,0.4,0.8c-0.4-0.6-0.4-1,0.3-1.2C46.2,62.2,46.5,62.2,46.6,62.6z"/>
		<path class="st15" d="M48.3,56.3c0.3,0.4,0.1,1.2,0.9,1.2c0,0,0.1,0.2,0.1,0.3c-0.1,0.2-0.2,0.2-0.4,0.1c-0.3-0.2-0.6-0.1-1-0.1
			c0.1,0.1,0.2,0.2,0.2,0.2c0.3,0.2,0.9,0,0.9,0.5c0,0.6-0.6,0.4-1,0.4c-0.2,0-0.4,0.2-0.6,0.2c0.4,0.3,1.2,0.2,1.1,0.6
			c-0.1,0.6-0.8-0.2-1.2,0.1c-0.5,0.2-0.6-0.2-0.8-0.5c-0.4-0.4-0.1-0.6,0.2-0.7c0.4-0.1,0.8-0.3,1.3-0.2c-0.4-0.4-1.3-0.3-1.2-0.7
			c0.2-0.6-0.1-1.5,0.7-1.9c0.3-0.2,0.1,0.8,0.5,0.2C48.2,56.2,48.3,56.2,48.3,56.3z"/>
		<path class="st11" d="M19.1,40.9c-0.1,0-0.2,0-0.3,0c-0.4-0.2-1,0-1.2-0.5c-0.2-0.6,0.3-0.9,0.6-1.3c0,0,0.1-0.1,0.1-0.1
			c0.4-0.3,0.7-1.1,1.4-0.8c0.6,0.2,0.3,0.9,0.3,1.4C20.2,40.8,20.1,40.9,19.1,40.9z"/>
		<path class="st11" d="M13.3,61.2c0.2-0.3,0.2-0.9,0.9-0.5c0.2,0.1,0.5,0.2,0.7,0.2c1.2,0.4,1.4,0.7,0.6,1.8
			c-0.2,0.3-0.4,1-0.9,0.9c-0.5-0.1-0.8-0.6-0.9-1.2C13.7,62.1,13.5,61.7,13.3,61.2z"/>
		<path class="st11" d="M16,65.2c-0.3-0.1-0.7,0.2-0.9-0.2c-0.2-0.4,0-0.8,0.3-1.1c0.3-0.3,0.6-0.7,0.7-1.1c0.1-0.4,0.4-0.3,0.7-0.3
			c0.3,0,0.5,0.2,0.5,0.4c0,0.5,0.2,0.8,0.4,1.2c0.2,0.5-0.1,0.7-0.6,0.9C16.7,65.1,16.4,65.1,16,65.2z"/>
		<path class="st11" d="M12.5,52.4c0.7,0.5,1.3,0.9,1.9,1.3c0.1,0.1,0.1,0.3,0,0.4c-0.2,0.2-0.3,0.5-0.5,0.7
			c-0.4,0.4-0.8,0.9-1.3,0.8c-0.6-0.2-0.4-0.9-0.4-1.4c0-0.3-0.1-0.6-0.2-0.9C11.8,52.7,12.3,52.7,12.5,52.4z"/>
		<path class="st11" d="M14.3,47.8c-0.9,0.1-0.9-0.5-0.8-0.9c0.2-0.6,0.5-1.1,0.8-1.7c0.3-0.5,0.7-0.4,1,0c0.1,0.2,0.2,0.4,0.2,0.6
			c0.7,1.5,0.7,1.5-0.9,1.9C14.5,47.7,14.3,47.8,14.3,47.8z"/>
		<path class="st11" d="M17.5,39.2c-1.2-0.7-0.7-1.9-1.1-2.7c-0.1-0.2,0.3-0.6,0.5-0.5c0.7,0.1,1.4,0.5,1.9,1c0.4,0.4,0,0.9-0.3,1.3
			C18.1,38.5,17.8,38.9,17.5,39.2z"/>
		<path class="st11" d="M13.9,44.7c0,0.1,0,0.2,0,0.3c-0.2,0.5-0.3,1.3-0.9,1.4c-0.6,0.1-0.9-0.5-1.1-1.1c0-0.1-0.2-0.3-0.2-0.4
			c-0.1-0.3-0.6-0.6-0.3-1c0.3-0.4,0.7-0.3,1.1-0.1c0.2,0.1,0.4,0.1,0.6,0C13.8,43.7,14,44.1,13.9,44.7z"/>
		<path class="st8" d="M12.5,57.2c0.1-1.3,1.4-1.4,2-2.2c0.1-0.1,0.6,0,0.7,0.4c0,0.2,0,0.4,0,0.7c0,1.7-0.2,1.9-1.9,1.3
			C13.1,57.4,12.8,57.3,12.5,57.2z"/>
		<path class="st8" d="M11.6,54.1c-0.1,0.2,0.2,0.6-0.2,0.8c-0.3,0.1-0.6-0.1-0.8-0.3c-0.5-0.3-0.9-0.8-1.5-1
			c-0.2-0.1-0.4-0.2-0.3-0.4c0-0.2,0.1-0.3,0.4-0.4c0.2,0,0.3-0.1,0.5-0.2C11.2,52.1,11.6,52.4,11.6,54.1z"/>
		<path class="st11" d="M13.7,43.2c-0.2,0-0.3-0.1-0.4-0.3c-0.1-0.3-0.3-0.5-0.5-0.7c-0.7-0.8-0.6-1.2,0.4-1.7
			c0.2-0.1,0.4-0.1,0.5-0.2c0.3-0.1,0.7-0.4,0.9,0c0.2,0.3,0.1,0.7-0.1,1c-0.3,0.4-0.5,0.9-0.5,1.5C14.1,43.1,14,43.2,13.7,43.2z"/>
		<path class="st15" d="M11.8,60.1c-0.1,0.2,0,0.5-0.4,0.5c-0.6-0.1-1.2-0.2-1.7-0.4c-0.5-0.2-0.5-0.5-0.3-1
			c0.2-0.6,0.4-1.4,0.9-1.5c0.7-0.1,0.7,0.8,0.9,1.3C11.4,59.3,11.6,59.7,11.8,60.1z"/>
		<path class="st11" d="M15.8,44c-0.4-0.1-1,0.3-1.2-0.5c-0.2-0.8,0.2-1.5,0.5-2.1c0.2-0.3,0.7,0,0.9,0.3c0.3,0.5,0.5,0.9,0.8,1.4
			c0.1,0.2,0.5,0.3,0.3,0.6c-0.2,0.3-0.5,0.2-0.8,0.2C16.2,44,16,44,15.8,44z"/>
		<path class="st11" d="M10.6,47.3c0,0.3,0,0.5-0.3,0.6c-0.5,0.3-1.1,0.7-1.5,1.2c-0.4,0.4-0.6,0.2-0.7-0.2c-0.1-0.5,0-1.1-0.2-1.7
			c-0.1-0.3,0.3-0.4,0.6-0.5c0.7-0.2,1.3,0.1,1.9,0.2C10.6,47,10.7,47.1,10.6,47.3z"/>
		<path class="st11" d="M11.6,50.1c0.1-0.3-0.2-0.7,0.3-0.9c0.4-0.2,0.8,0.1,1.1,0.4c0.3,0.3,0.6,0.7,1.1,0.9
			c0.2,0.1,0.4,0.2,0.3,0.5c0,0.3-0.3,0.3-0.5,0.4c-0.1,0.1-0.4,0-0.6,0.1C11.8,51.8,11.5,51.6,11.6,50.1z"/>
		<path class="st11" d="M15,38.9c-0.6,1-1.9,0.9-2.8,1.4c-0.3,0.2-0.3-0.3-0.3-0.6c0.1-0.5,0.2-1,0.4-1.5c0.1-0.4,0.5-0.4,0.9-0.3
			C13.8,38.1,14.4,38.4,15,38.9z"/>
		<path class="st11" d="M8.7,59.4c-0.4,0-0.5-0.2-0.6-0.4c-0.1-0.2-0.2-0.4-0.4-0.6c-0.7-1.1-0.4-1.6,0.9-1.8c0.4-0.1,0.8-0.5,1.1,0
			c0.3,0.4-0.1,0.8-0.3,1.2c-0.3,0.4-0.5,0.8-0.6,1.4C8.8,59.2,8.8,59.4,8.7,59.4z"/>
		<path class="st11" d="M12.5,65.9c-0.3,0.7-0.4,1.5-0.4,2.2c0,0.4-0.3,0.4-0.6,0.1c-0.4-0.4-0.7-0.8-1.2-1
			c-0.3-0.1-0.2-0.4-0.1-0.6c0.4-0.8,1.1-1,1.8-1.3C12.2,65.2,12.5,65.6,12.5,65.9z"/>
		<path class="st8" d="M16.2,37.9c0,0.7-0.4,0.7-0.9,0.5c-0.6-0.3-1.1-0.8-1.8-1c-0.4-0.1-0.4-0.5,0-0.7c0.5-0.3,1-0.4,1.4-0.7
			c0.3-0.2,0.5,0.1,0.7,0.3C16,36.7,16.1,37.3,16.2,37.9z"/>
		<path class="st11" d="M12.1,60.9c0.7,0.4,1,1,1.2,1.7c0.2,0.6-0.1,1-0.7,0.8c-0.6-0.2-1.2-0.5-1.9-0.6c-0.6-0.2-0.6-0.5-0.1-0.8
			C11.2,61.7,11.5,61.1,12.1,60.9z"/>
		<path class="st11" d="M10.9,46.5c-0.6-0.1-1.2-0.3-1.8-0.4c-0.2,0-0.5,0.1-0.6-0.1c-0.1-0.3,0.1-0.5,0.3-0.6
			c0.2-0.2,0.3-0.3,0.5-0.5c0.3-0.3,0.5-1,1.1-0.6c0.7,0.4,1,1.2,1.3,1.9C11.7,46.2,11.2,46.7,10.9,46.5z"/>
		<path class="st11" d="M12.7,67.7c0-0.6-0.1-1.4,0.4-1.5c0.5-0.2,0.8,0.5,1.2,0.9c0.1,0.1,0.2,0.2,0.2,0.3c0.1,0.5,1.2,0.5,0.7,1
			c-0.5,0.5-1.4,0.5-2.1,0.4C12.5,68.6,12.8,68,12.7,67.7z"/>
		<path class="st11" d="M16.2,48.5c-0.3,0.5-0.5,1.2-0.8,1.7c-0.2,0.3-0.7,0.1-1.1-0.1c-0.5-0.3-1.2-0.7-1.2-1.3
			c0-0.6,0.9-0.3,1.3-0.5c0.4-0.2,0.8,0,1.2-0.3C15.8,47.9,16.1,48,16.2,48.5z"/>
		<path class="st11" d="M12.2,57.6c0.7,0.3,1.5,0.5,2.2,0.7c0.4,0.1,0.2,0.4,0,0.7c-0.4,0.3-0.8,0.7-1.2,1c-0.3,0.3-0.4,0.1-0.6,0
			c-0.6-0.5-0.9-1.1-1-1.8C11.4,57.6,11.9,57.8,12.2,57.6z"/>
		<path class="st11" d="M8.3,54c0.8-0.1,1.3,0.6,1.8,1c0.2,0.2-0.1,0.6-0.4,0.7C9,56,8.2,56,7.5,56.3c-0.3,0.2-0.5-0.1-0.4-0.4
			c0.2-0.6,0.4-1.1,0.6-1.7C7.8,53.9,8.1,54,8.3,54z"/>
		<path class="st11" d="M10.6,48.4c0.4,0.2,0.7,0.5,0.5,1c-0.2,0.6-0.2,1.1,0,1.7c0.1,0.2,0,0.4-0.2,0.6c-0.3,0.2-0.4-0.1-0.5-0.2
			c-0.2-0.1-0.4-0.3-0.6-0.4c-1-0.6-1-1.2-0.1-1.9C10,48.8,10.3,48.6,10.6,48.4z"/>
		<path class="st11" d="M10.4,63.2c0.6,0.1,1.2,0.2,1.7,0.6c0.4,0.3,0,0.7-0.2,0.8c-0.6,0.3-1.2,0.7-1.8,1.1
			c-0.4,0.3-0.7-0.2-0.6-0.4c0.2-0.6,0.1-1.1,0.1-1.7C9.7,63.3,10,63.3,10.4,63.2z"/>
		<path class="st11" d="M14.3,66.2c0.2-0.4,0.6-0.5,1.1-0.5c0.5,0,1,0.1,1.5-0.1c0.3-0.1,0.4-0.1,0.6,0.2c0.1,0.2,0.1,0.4-0.1,0.6
			c-0.2,0.2-0.3,0.3-0.4,0.5C16.3,68,15.7,68,14.9,67C14.7,66.7,14.5,66.5,14.3,66.2z"/>
		<path class="st11" d="M16.5,41.5c0.1-0.3,0.5-0.4,0.8-0.4c0.7,0.1,1.4,0.4,2.1,0.4c0.3,0,0.3,0.3,0.2,0.4c-0.4,0.5-0.9,1-1.4,1.5
			c-0.1,0.1-0.3,0-0.5,0C17.2,42.9,16.8,42.3,16.5,41.5z"/>
		<path class="st15" d="M36.4,69.5c-1.1,0.7-1.5,0.5-1.7-0.9c0-0.2,0.2-0.7-0.3-0.7c-0.6,0-0.2,0.5-0.3,0.7
			c-0.1,0.4,0.2,1.1-0.3,1.1c-0.6,0-0.3-0.7-0.3-1.1c0-0.5-0.1-0.9-0.7-1c1.1-0.2,2.3,0,3.3-0.3c0.1,0.1,0.2,0.3,0.1,0.5
			c0.1,0.2-0.5,0.1-0.2,0.4c0.1,0.1,0.1,0.2,0.1,0.3C36.1,68.9,36.1,69.2,36.4,69.5z"/>
		<path class="st11" d="M33.7,27.5c-1.2,0.4-2,1.1-2,2.4c-0.6-0.5-1.2-0.8-1.8-1.2C30.9,27.4,31.8,27.1,33.7,27.5z"/>
		<path class="st11" d="M34.5,27.5c1.6-0.6,2.8,0.1,3.8,1.2c-0.7,0.4-1.3,0.8-1.9,1.2C36.5,28.5,35.5,28,34.5,27.5z"/>
		<path class="st11" d="M47.6,52.4c-0.5-0.3-0.7-0.6,0-0.9c0.3-0.1,0.5-0.3,1-0.6c-0.6,0-0.9,0-1.3,0c-0.4,0-0.3-0.3-0.4-0.5
			c-0.2-0.4,0.3-0.3,0.3-0.4c0.5-0.2,0.9-0.3,1.4-0.4c0.2,0,0.4-0.1,0.4,0.2c0,0.2,0,0.4-0.3,0.4c-0.4,0-0.7,0.3-1.1,0.3
			c0.3,0,0.5,0,0.8,0c0.3,0.1,0.7-0.2,0.8,0.3c0.1,0.4-0.4,0.4-0.6,0.6c-0.1,0.1-0.2,0.1-0.3,0.2c1.1,0.1,1.1,0.1,1.3,0.4
			C48.9,52.1,48.2,52.1,47.6,52.4L47.6,52.4z"/>
		<path class="st16" d="M22,71.4c1.2,0.9,2.4,1.5,3.6,2.1c0.1,0.1,0.4,0.1,0.3,0.4c-0.1,0.3-0.3,0.2-0.5,0.1
			c-0.6-0.2-1.2-0.3-1.8-0.4C22.5,73.4,22.2,72.6,22,71.4z"/>
		<path class="st17" d="M28.5,67.9c-0.2,0.1-0.4,0.3-0.7,0.3c-0.7,0.1-1.3,0-1.7-0.5c-0.1-0.1,0.8-1.9,1-1.9
			c0.6-0.2,1.7,0.6,1.6,1.3C28.7,67.4,28.5,67.6,28.5,67.9C28.5,67.9,28.5,67.9,28.5,67.9z"/>
		<path class="st15" d="M27.1,40.5c0.1-0.2-0.2-0.6,0.3-0.6c0.3,0,0.5-0.2,0.8,0.1c0.3,0.4,0.7,0.7,1,1c0.1,0.1,0.4,0.3,0.2,0.5
			c-0.1,0.1-0.3,0.1-0.5,0c-0.4-0.4-0.7-0.2-0.7,0.3c0,0.4-0.2,0.5-0.5,0.5c-0.4,0-0.2-0.4-0.2-0.6C27.3,41.4,27.2,40.9,27.1,40.5z"
			/>
		<path class="st17" d="M31.9,68.7c0.1-0.5,0-1,0.4-1.4c0.3,0.4,0.2,1.9-0.1,2.2c-0.3,0.2-0.5,0.1-0.6-0.2c-0.1-0.5-0.3-0.9-0.5-1.4
			c-0.2,0.5,0.1,1.3-0.6,1.4c-0.2,0,0-0.9,0.1-1.4c0.1-0.3-0.3-0.8,0.3-0.8c0.6-0.1,0.5,0.5,0.6,0.9C31.7,68.2,31.9,68.4,31.9,68.7z
			"/>
		<path class="st18" d="M17,39.9c0,0.7-0.3,1-1,1c-0.6,0-0.9-0.5-0.9-1c0-0.5,0.3-1,1-0.9C16.7,39,17,39.3,17,39.9z"/>
		<path class="st15" d="M20.4,55c-0.1,0-0.2,0-0.3,0c-0.4-0.5-0.8-0.5-1.3-0.2c0,0,0,0,0,0c-0.2,0-0.5,0.1-0.5,0.1
			c-0.2-0.7,0.5-0.7,0.7-1c0-0.3-0.2-0.2-0.3-0.2c-0.2,0-0.4,0-0.4-0.3c0-0.3,0.2-0.2,0.4-0.2c0.4,0,0.9,0,1.3,0
			c0.2,0,0.6-0.2,0.6,0.3c0,0.4-0.4,0.2-0.6,0.3c-0.1,0-0.2,0-0.3,0C19.9,54.1,21,54.1,20.4,55z"/>
		<path class="st19" d="M25,64.6c0.1-0.1,0.1-0.1,0.2-0.2c0.4,0.2,0.7,0.4,1,0.7c0.3,0.4,0.3,0.8-0.1,0.9c-0.5,0.1-0.4,0.6-0.6,0.8
			c-0.1,0.1,0.1,0.5-0.2,0.3C25,67.1,24.8,67,25,66.7c0.1-0.2,0.4-0.4,0.1-0.6c-0.4-0.3-0.4,0.2-0.5,0.3c-0.2,0.2-0.3,0.1-0.5,0
			c-0.3-0.2,0-0.3,0.1-0.4c0.2-0.3,0.3-0.5,0.5-0.8C24.7,64.9,24.8,64.7,25,64.6z"/>
		<path class="st14" d="M12.3,48.6c-0.8,0-1.1-0.3-1.2-0.9c0-0.6,0.4-1,0.9-1c0.6,0,1,0.4,1,1C13.1,48.3,12.7,48.6,12.3,48.6z"/>
		<path class="st20" d="M48.3,56.3c-0.1,0-0.1,0-0.2,0c-0.4,0.1-0.4-0.2-0.6-0.4c-0.4-1-0.2-1.6,0.5-1.7c0.9-0.2,1.5,0.1,1.6,0.8
			C49.8,55.9,49.4,56.3,48.3,56.3z"/>
		<path class="st14" d="M11.1,57.3c-0.5,0.1-0.8-0.4-0.8-0.9c0-0.5,0.4-1,0.9-1c0.5,0,1,0.4,1,1C12.1,57,11.8,57.3,11.1,57.3z"/>
		<path class="st12" d="M13.6,63.8c0.7,0,1,0.5,1,0.9c0,0.5-0.4,1-1,1c-0.5,0-0.9-0.3-0.9-0.9C12.7,64.2,13,63.8,13.6,63.8z"/>
		<path class="st15" d="M47.6,52.4c0.6,0,1.2,0.3,1.7-0.2c0.1-0.1,0.3-0.1,0.4,0.1c0,0.2,0.1,0.4-0.2,0.4c-0.3,0-0.5,0.2-0.7,0.4
			c0.1,0.2,0.3,0.1,0.5,0.1c0.2,0,0.5,0,0.4,0.3c0,0.3-0.2,0.2-0.4,0.2c-0.3,0-0.5,0-0.8,0C47.3,54,47,53.6,47.6,52.4
			C47.6,52.4,47.6,52.4,47.6,52.4z"/>
		<path class="st17" d="M32.4,38.4c0.7,0.5,0.6,1,0.6,1.4c0,0.3,0,0.6,0.4,0.6c0.3,0,0.4-0.3,0.4-0.6c0-0.4,0-0.7,0-1.1
			c0-0.2,0.1-0.3,0.3-0.3c0.2,0,0.3,0.1,0.3,0.3c0,0.4,0,0.8,0,1.2c-0.1,0.6-0.4,0.9-1,0.9c-0.6,0-0.8-0.4-0.9-0.9
			C32.3,39.6,32.4,39.1,32.4,38.4z"/>
		<path class="st21" d="M30.3,39.9c0.1-0.2,0.1-0.4,0.2-0.5c0.1-0.2,0.1-0.7,0.5-0.6c0.5,0.1,0.1,0.5,0,0.7
			c-0.1,0.3-0.1,0.5,0.1,0.7c0.2,0.2,0.6,0.4,0.6,0.8c-0.7,0.3-0.8-0.5-1.4-0.6c0,0.2,0,0.3,0,0.5c0.1,0.2,0.2,0.3-0.1,0.5
			c-0.5,0.2-0.3-0.2-0.3-0.3c-0.1-0.4-0.3-0.8-0.4-1.3c0-0.2-0.2-0.6,0.2-0.6c0.3-0.1,0.3,0.3,0.4,0.5
			C30.3,39.7,30.3,39.8,30.3,39.9z"/>
		<path class="st22" d="M48.1,47.4c0.3,0.2,0.4,0.4,0.1,0.7c-0.5,0.5-0.2,0.7,0.3,0.8c0.2,0,0.4-0.2,0.4,0.2c0,0.2-0.2,0.2-0.3,0.2
			c-0.5,0.2-1.1,0.2-1.6,0.2c-0.3,0-0.5-0.1-0.5-0.3c-0.1-0.3,0-0.5,0.3-0.7C47.2,48.2,47.7,47.8,48.1,47.4L48.1,47.4z"/>
		<path class="st15" d="M36.2,67.9c0-0.2,0-0.4,0-0.6c0.6-0.2,0.4,0.5,0.7,0.7c0.2-0.5,0.3-1.1,1-1.1c0,0.1,0,0.2,0,0.4
			c-0.5,0.4-0.7,0.7-0.2,1.3c0.2,0.2,0.7,0.4,0.4,0.7c-0.5,0.5-0.6-0.2-0.8-0.4c-0.1-0.1-0.1-0.2-0.2-0.4c-0.5,0.4,0.1,0.9-0.3,1.1
			c-0.3,0.2-0.3-0.3-0.5-0.4c-0.3-0.2,0-0.7-0.3-0.9C36.1,68.1,36.1,68,36.2,67.9z"/>
		<path class="st17" d="M40,42.4c-0.2-0.9-0.3-1.6-1.2-0.8c-0.1,0.1-0.2,0-0.3-0.1c-0.1-0.1,0-0.3,0.1-0.3c0.4-0.5,0.8-0.9,1.2-1.4
			c0.3-0.3,0.7-0.2,0.7,0.2C40.4,40.7,40.6,41.5,40,42.4z"/>
		<path class="st17" d="M32.9,31.3c-1-1.4-0.8-2.4,0.8-3.1C33.7,29.3,33.1,30.2,32.9,31.3z"/>
		<path class="st11" d="M34.4,28.1c1.7,0.8,1.9,1.7,1,3.1C35,30.2,34.7,29.2,34.4,28.1z"/>
		<path class="st23" d="M28.5,67.9c0.4-0.2,0.5-0.7,0.9-1c0.2-0.2,0.3-0.3,0.6-0.1c0.2,0.1,0.3,0.3,0.3,0.5c-0.1,0.5-0.1,1-0.1,1.4
			c0,0.2,0.1,0.5-0.3,0.4c-0.3,0-0.2-0.2-0.2-0.4c0-0.6-0.4-0.4-0.6-0.3c-0.2,0.1-0.2,0.5-0.6,0.3c-0.4-0.3,0.2-0.4,0.2-0.7
			C28.5,68,28.5,67.9,28.5,67.9C28.5,67.9,28.5,67.9,28.5,67.9z"/>
		<path class="st24" d="M46.8,46.1c0.9,0,1.2,0.7,1.4,1.4c0,0,0,0,0,0c-0.2,0-0.5,0.2-0.6-0.1c-0.1-0.3-0.1-0.6-0.5-0.6
			c-0.3,0.1-0.2,0.4-0.1,0.7c0,0.4-0.2,0.7-0.5,0.8c-0.3,0.1-0.6-0.2-0.8-0.4c-0.1-0.2-0.2-0.5-0.2-0.7c0,0,0.1-0.1,0.1-0.1
			c0.9,0.3,0.6-0.6,1-0.9C46.6,46,46.7,46,46.8,46.1z"/>
		<path class="st17" d="M40.8,42.3c0.2-0.2,0.4-0.1,0.4,0.1c0.2,0.2,0.4,0.3,0.6,0.2c0.3-0.2,0-0.4-0.1-0.5c-0.2-0.4-0.3-0.7,0.1-1
			c0.3-0.3,0.7-0.1,1,0.1c0.2,0.1,0.5,0.3,0.3,0.6c-0.3,0.4-0.3-0.2-0.6-0.2c-0.1,0-0.2-0.2-0.4-0.1c0,0.6,1,1.4-0.2,1.7
			C41.5,43.3,41,42.9,40.8,42.3z"/>
		<path class="st24" d="M26.2,41c-0.1,0.1-0.3,0.2-0.4,0.3c-0.2,0.1-0.5,0.1-0.3,0.4c0.2,0.3,0.4,0.1,0.5,0c0.1-0.1,0.5-0.1,0.4,0
			c-0.5,0.5-0.2,1-0.3,1.5c0,0.3-0.3,0.1-0.4-0.1c-0.3-0.4-0.6-0.8-0.8-1.2c-0.1-0.2-0.4-0.4-0.2-0.7c0.3-0.2,0.6-0.4,1-0.6
			C25.9,40.7,26.1,40.9,26.2,41z"/>
		<path class="st25" d="M20.2,47.8c-0.1-0.1-0.1-0.1-0.2-0.2c-0.4-0.7,0.3-1,0.4-1.5c0.5,0.1,0.8,0.5,1.3,0.5c0.3-0.1,0.6,0,0.6,0.4
			c0.1,0.4,0.1,0.7-0.4,0.5c-0.2-0.1-0.4-0.2-0.6-0.3C20.5,46.7,20.4,46.8,20.2,47.8z"/>
		<path class="st16" d="M18.1,68.2c1,0.5,1.8,0.8,2.2,1.7c0.1,0.2,0.3,0.3,0.4,0.5c0.1,0.2,0.8,0.2,0.5,0.6
			c-0.2,0.3-0.6-0.2-0.7-0.4C19.7,69.9,19,69.1,18.1,68.2z"/>
		<path class="st22" d="M43.5,65.7c0.1,0.1,0.1,0.1,0.2,0.2c0.5,0.7-0.3,0.7-0.5,1c-0.5,0.6-0.6-0.3-1-0.4c-0.2-0.3-0.4-0.5-0.6-0.8
			c0.1-0.2-0.4-0.3,0-0.6c0.3-0.2,0.4,0,0.6,0.2c0.1,0.2,0.3,0.4,0.4,0.6C43.1,66.6,43.4,66.5,43.5,65.7z"/>
		<path class="st15" d="M36.8,38.8c0.9,0.1,1.4,0.2,2.2,0.6c-1.1,0-1.1,0.7-1.2,1.3c0,0.3-0.1,0.6-0.4,0.5c-0.3-0.1-0.2-0.4-0.1-0.6
			C37.5,40,37.6,39.4,36.8,38.8z"/>
		<path class="st11" d="M36.6,40.5c-0.4,0.7-1,0.4-1.4,0.3c-0.4,0-0.2-0.5-0.2-0.7c0-0.4,0.3-0.8,0.2-1.2c0-0.2,0.1-0.4,0.3-0.3
			c0.3,0,0.3,0.2,0.3,0.4c0,0.1,0,0.3-0.1,0.4C35.5,40.1,35.4,40.7,36.6,40.5z"/>
		<path class="st26" d="M46.6,62.6c-0.2-0.1-0.4-0.2-0.5-0.3c-0.3-0.1-0.6-0.1-0.8-0.4c0-0.1,0-0.2,0-0.2c0-0.4,0.1-0.7,0.6-0.3
			c0.3,0.3,0.7,0.4,1,0.7c0.2,0.1,0.6,0.1,0.4,0.6C47,63.1,46.8,62.4,46.6,62.6z"/>
		<path class="st27" d="M22.3,47.1c-0.2-0.1-0.4-0.3-0.6-0.4c-0.1-0.4-0.6-0.4-0.7-0.7c-0.1-0.1-0.4,0-0.3-0.3
			c0.1-0.2,0.3-0.3,0.5-0.2c0.5,0.3,1.1,0.6,1.5,1C23.1,46.9,22.7,47,22.3,47.1z"/>
		<path class="st28" d="M46.6,59.5c0.3,0.2,0.5,0.4,0.8,0.5c0,0.1,0,0.1,0.1,0.1c0.3,0.2,1,0.1,0.8,0.6c-0.2,0.5-0.7-0.1-1-0.2
			c-0.3-0.1-0.5-0.2-0.7-0.4C45.8,59.8,46.1,59.7,46.6,59.5z"/>
		<path class="st22" d="M46.8,46.1c-0.1,0-0.2,0-0.3,0c-0.2,0.5-0.7,0.7-1.1,0.9c0,0,0,0,0,0c-0.4-0.3-0.5-0.5,0-0.8
			c0.3-0.2,0.6-0.4,1-0.6c0.2-0.1,0.3-0.4,0.6-0.2C47.4,45.8,46.8,45.8,46.8,46.1z"/>
		<path class="st17" d="M55.5,57c-0.5-0.9,0-1.9,0-2.8C55.5,55.1,56.5,56,55.5,57z"/>
		<path class="st19" d="M58.4,56.8c-0.6-0.8-0.2-1.6,0-2.4C58.4,55.2,59.3,56,58.4,56.8z"/>
		<path class="st15" d="M16.8,68.2c-0.2,0.4,0,0.9-0.1,1.3c-0.3-0.3-1-0.2-1-0.7C15.7,68.2,16.5,68.6,16.8,68.2z"/>
		<path class="st29" d="M46.9,71.8c-0.5,0.6-1,1.1-1.6,1.8C45.4,72.5,46.1,72,46.9,71.8z"/>
		<path class="st30" d="M15.6,69.7c0.5,0.3,1.6,0.2,1.1,1.3C16.1,70.7,15.9,70.2,15.6,69.7z"/>
		<path class="st31" d="M24.6,43.6c0.2,0.3,0.2,0.6,0,0.9c-0.2,0.2-0.4,0.2-0.7,0c-0.2-0.3-0.2-0.5-0.1-0.8
			C24.1,43.4,24.3,43.1,24.6,43.6z"/>
		<path class="st29" d="M56.4,64.4c-0.1-0.7,0.2-1.1,0.5-1.6C57.3,63.6,57.3,63.7,56.4,64.4z"/>
		<path class="st32" d="M36.2,68.2c0.3,0.2,0.2,0.6,0.2,0.9c0,0.1,0,0.2,0,0.3c0,0-0.1,0-0.1,0c-0.5-0.2-0.5-0.5-0.2-0.9
			c0,0-0.1-0.2-0.1-0.2C36.1,68.2,36.1,68.2,36.2,68.2z"/>
		<path class="st33" d="M24.6,43.6c-0.3-0.2-0.5-0.1-0.6,0.2c-0.2,0.1-0.4-0.1-0.5-0.2c-0.1-0.2-0.1-0.4,0.1-0.5
			C24.3,42.8,24.6,42.9,24.6,43.6z"/>
		<path class="st34" d="M23.7,43c0,0.2,0,0.4,0,0.6c-0.1,0.1-0.1,0.1-0.2,0.1c-0.1,0-0.2,0-0.3,0c-0.3-0.1-0.6-0.3-0.5-0.7
			C23,42.4,23.4,42.7,23.7,43z"/>
		<path class="st35" d="M54.7,47.1c0.4,0.7,0.9,1.1,0.7,1.9C55,48.5,54.6,48,54.7,47.1z"/>
		<path class="st36" d="M24,44.3c0.1,0.3,0.4,0.2,0.6,0.2c-0.3,0.3-0.4,0.8-1,0.6c-0.2-0.2-0.3-0.4-0.3-0.6
			C23.5,44.2,23.8,44.2,24,44.3z"/>
		<path class="st37" d="M22.4,44.8c0-0.3,0-0.5,0-0.8c0.2-0.2,0.4-0.4,0.7-0.3c0.1,0.1,0.2,0.2,0.2,0.4c0,0.1,0,0.2,0,0.3
			c0,0.1-0.1,0.2-0.2,0.3C22.8,44.8,22.6,44.9,22.4,44.8z"/>
		<path class="st31" d="M43.7,44.9c-0.3-0.2-0.4-0.6-0.4-1c0.2-0.1,0.4,0.1,0.6-0.1c0.3,0,0.4,0.3,0.4,0.5
			C44.2,44.7,44.1,45,43.7,44.9z"/>
		<path class="st38" d="M25,64.6c-0.1,0.2-0.1,0.4-0.3,0.6c-0.1,0-0.1,0-0.2,0c0-0.1,0-0.1,0-0.2c0-0.3-0.7-0.5-0.2-0.8
			C24.6,63.9,24.7,64.5,25,64.6z"/>
		<path class="st39" d="M57.4,47.5c0.5,0.4,1.2,0.6,0.7,1.5C57.9,48.5,57.6,48,57.4,47.5z"/>
		<path class="st40" d="M43.7,44c-0.1,0.3-0.3,0-0.4,0c0-0.3,0.1-0.6,0.4-0.8c0.5-0.2,0.6,0,0.6,0.5C44.2,44,43.9,43.8,43.7,44z"/>
		<path class="st41" d="M43.7,44.9c0.3-0.1,0.4-0.3,0.4-0.6c0.1-0.1,0.3-0.1,0.4-0.1c0.1,0,0.2,0.1,0.2,0.2c0.1,0.2,0.1,0.4,0,0.6
			c-0.3,0.3-0.6,0.2-0.9,0.1C43.8,45.1,43.8,45,43.7,44.9z"/>
		<path class="st42" d="M22.9,44.6c0.1-0.1,0.2-0.2,0.2-0.2c0.2,0,0.3,0.1,0.4,0.2c0.1,0.2,0.1,0.4,0.2,0.6c-0.3,0.1-0.5,0.4-0.8,0
			C22.8,44.9,22.8,44.8,22.9,44.6z"/>
		<path class="st24" d="M33.4,36.8c0.6-0.5,0.6-0.5,1.5,0C34.3,36.8,33.9,36.8,33.4,36.8z"/>
		<path class="st34" d="M44.3,43.8c0-0.4-0.2-0.5-0.6-0.6c0.1-0.4,0.4-0.4,0.8-0.4c0.3,0.2,0.4,0.4,0.3,0.7
			c-0.1,0.1-0.2,0.2-0.3,0.3C44.4,43.8,44.3,43.8,44.3,43.8z"/>
		<path class="st43" d="M23.1,43.8c-0.2,0.1-0.5,0.1-0.7,0.2c0-0.4,0.1-0.7,0.4-1c0.1,0.3,0.3,0.5,0.6,0.6
			C23.3,43.8,23.3,43.9,23.1,43.8z"/>
		<path class="st44" d="M47.6,55.9c0.2,0.1,0.4,0.2,0.6,0.4c0,0.2,0,0.3,0,0.5c0,0.2,0,0.4-0.3,0.3c-0.3,0-0.3-0.2-0.3-0.4
			c0-0.2,0-0.4,0-0.6C47.6,56,47.6,56,47.6,55.9z"/>
		<path class="st45" d="M44.7,45c0-0.2,0-0.5,0-0.7c0.1-0.2,0.2-0.1,0.3-0.1c0.1,0,0.2,0.1,0.2,0.1c0.3,0.2,0.4,0.4,0,0.6
			c0,0.3-0.1,0.4-0.4,0.4C44.7,45.2,44.8,45.1,44.7,45z"/>
		<path class="st36" d="M45.8,43.7c0,0.2,0.1,0.5-0.2,0.6c-0.2,0.1-0.4,0.1-0.6,0l0,0c-0.1-0.1-0.1-0.2-0.1-0.4c0-0.1,0-0.2,0.1-0.2
			C45.3,43.5,45.5,43.4,45.8,43.7z"/>
		<path class="st46" d="M45.1,43.8c0,0.1,0,0.1,0,0.2c-0.3,0.1-0.3-0.2-0.3-0.4c0-0.3-0.1-0.5,0.1-0.8c0.2,0,0.3,0.1,0.4,0.2
			C45.7,43.4,45.3,43.6,45.1,43.8z"/>
		<path class="st47" d="M45.1,43.8c0.1-0.2,0.5-0.4,0.2-0.7c0.6-0.1,0.4,0.5,0.5,0.7C45.6,43.5,45.3,43.9,45.1,43.8z"/>
		<path class="st48" d="M45.1,44.3c0.2,0,0.4,0,0.6,0c0,0.3,0.2,0.6-0.4,0.6C45.7,44.6,45,44.6,45.1,44.3z"/>
		<path class="st49" d="M44.5,34c0.3,0,0.6,0,0.6,0.3c-0.1,0.3-0.3,0.1-0.4,0C44.6,34.2,44.6,34.1,44.5,34z"/>
		<path class="st50" d="M44.7,45c0.3,0,0.2,0.2,0.2,0.4c-0.3-0.1-0.7,0.2-1-0.2C44.2,45.1,44.5,45.3,44.7,45z"/>
		<path class="st51" d="M19.4,59.8c0.2-0.3,0.5-0.1,0.8-0.4c0,0.5-0.4,0.4-0.6,0.6C19.6,59.9,19.5,59.8,19.4,59.8z"/>
		<path class="st52" d="M19.6,58.6c0.3,0,0.7,0,1,0c-0.1,0.2-0.3,0.1-0.5,0.2C20,58.8,19.8,58.8,19.6,58.6z"/>
		<path class="st53" d="M22.9,44.6c0,0.2,0,0.4,0,0.6c-0.2-0.1-0.4-0.2-0.6-0.4C22.6,44.8,22.7,44.7,22.9,44.6z"/>
		<path class="st54" d="M44.9,42.8c0,0.2,0,0.5,0,0.7c0,0.1-0.1,0.1-0.1,0c-0.1-0.3-0.1-0.5-0.2-0.8C44.6,42.8,44.7,42.8,44.9,42.8z
			"/>
		<path class="st55" d="M37.5,54c0.4,1.1-0.4,1.8-0.8,2.4c-0.5,0.8-1.6,1.2-2.5,1.2c-2-0.1-3.7-2-3.5-3.8c0.1-1.2,2.3-3.3,3.2-3
			c0.9,0.3,2,0.1,2.5,0.9C36.8,52.4,37.5,53,37.5,54z"/>
		<path class="st7" d="M27.3,60c-1.1,0.2-1.7-0.5-2.1-1.4c-0.4-0.9-0.7-1.9-1-2.9c-0.1-0.2-0.3-0.6,0.2-0.7c0.4-0.1,0.6,0.1,0.7,0.5
			c0.3,0.9,0.5,1.8,0.8,2.7c0.2,0.6,0.5,1,1.2,1.1c0.9,0.1,1.3-0.3,1-1.1c-0.3-0.9-0.6-1.7-1-2.6C27,55.3,26.8,55,27.2,55
			c0.3,0,0.7-0.2,0.9,0.3c0.3,1.1,0.7,2.2,0.9,3.3C29.2,59.5,28.6,60,27.3,60z"/>
		<path class="st56" d="M40.8,60c-1.4,0-1.9-0.5-1.5-1.8c0.2-0.9,0.6-1.9,0.8-2.8c0.1-0.5,0.4-0.4,0.7-0.4c0.6,0.1,0.2,0.4,0.1,0.6
			c-0.2,0.8-0.4,1.6-0.7,2.4c-0.2,0.5-0.3,0.9,0.2,1.2c0.5,0.3,1,0.1,1.4-0.4c0.6-0.7,0.5-1.6,0.9-2.4c0.3-0.5-0.1-1.7,0.9-1.4
			c0.7,0.2,0,1-0.2,1.5c-0.2,0.9-0.4,1.9-1.1,2.7C42,59.7,41.4,60.1,40.8,60z"/>
		<path class="st56" d="M33.9,49.2c-0.2,0-0.4,0-0.6-0.1c-0.3-0.1-0.9,0-0.7-0.6c0.2-0.5,0.5-0.2,0.9-0.1c0.5,0.1,1.1,0.1,1.3-0.5
			c0.2-0.6-0.3-0.8-0.7-1c-0.5-0.2-0.9-0.3-1.2-0.7c-0.4-0.6-0.3-1.2,0.2-1.7c0.5-0.5,1.9-0.6,2.3-0.2c0.2,0.1,0.1,0.3,0.1,0.4
			c-0.1,0.2-0.3,0.4-0.5,0.2c-0.2-0.2-0.5-0.2-0.7-0.1c-0.3,0.1-0.6,0.2-0.6,0.5c-0.1,0.3,0.1,0.5,0.4,0.7c0.2,0.1,0.4,0.2,0.6,0.3
			c0.9,0.3,1.3,0.9,1.1,1.8C35.4,49,34.6,49,33.9,49.2z"/>
		<path class="st57" d="M31.2,46.8c0,0.3-0.3,0.4-0.5,0.5c-2.3,1.3-4,3-4.4,5.7c0,0.2,0,0.8-0.4,0.7c-0.4-0.1-0.1-0.5-0.1-0.8
			c0.4-3,2.3-4.8,4.8-6.2C31.1,46.4,31.2,46.5,31.2,46.8z"/>
		<path class="st57" d="M42.1,53.7c-0.2-0.1-0.3-0.2-0.3-0.5c-0.5-2.8-1.9-4.9-4.5-6.1c-0.3-0.1-0.5-0.3-0.3-0.6
			c0.2-0.3,0.4,0,0.6,0.1c2.7,1.3,4.2,3.5,4.8,6.3C42.4,53.3,42.4,53.6,42.1,53.7z"/>
		<path class="st57" d="M34.1,62.5c-1.3,0-2.4-0.3-3.6-0.8c-0.2-0.1-0.6-0.1-0.4-0.5c0.1-0.4,0.4-0.2,0.6-0.1c2.3,1.1,4.6,1.1,6.8,0
			c0.2-0.1,0.5-0.3,0.7,0c0.2,0.4-0.3,0.4-0.5,0.5C36.6,62.2,35.4,62.5,34.1,62.5z"/>
		<path class="st58" d="M34.9,78.5c0.5,0.3,1.1,0,1.9,0.3c-1.8,0.6-3.4,0.6-5.1,0c0.2,0,0.4,0,0.6-0.1c0.2,0,0.4,0,0.7,0
			c0.3-0.1,0.6-0.2,1-0.2c-0.8,0-1.5-0.3-2.1-0.7c-0.4-0.2-0.3-0.4,0-0.6c0.5-0.1,1-0.2,1.6,0c-0.3-0.1-0.7,0-1-0.3
			c-0.3-0.2-0.6-0.5-0.9-0.7c0.5-0.3,1-0.3,1.5-0.4c0.1,0.1,0.2,0.1,0.4,0.1c0.1,0,0.1,0,0.2,0c-0.1,0-0.1,0-0.2,0
			c-0.1,0-0.3,0-0.4-0.1c0-0.4-0.4-0.2-0.6-0.3c-0.2-0.3-0.9-0.3-0.7-0.7c0.1-0.3,0.7-0.3,1.1-0.3c0.4,0,0.7,0.5,1.2,0.3
			c0.1-0.3,0.4-0.1,0.6-0.1c0.7-0.1,1.5-0.4,2.2,0.2c-0.3,0.6-1,0.6-1.4,1c-0.1,0.1-0.3,0.1-0.4,0.1c0.1,0,0.3,0,0.4-0.1
			c0.5,0.1,1,0.2,1.6,0.3c-0.5,0.5-0.9,0.7-1.4,0.9c-0.2,0.3-0.5,0.2-1,0.3c0.6-0.1,1.1-0.2,1.5,0c0.3,0.1,0.6,0,0.7,0.4
			c-0.8,0.4-1.4,1.1-2.5,0.7C34.4,78.6,34.7,78.4,34.9,78.5z"/>
		<path class="st59" d="M34.5,74.4c-0.2,0.2-0.4,0.1-0.6,0.1c-0.7-0.4-0.8-1.1-0.5-1.8c0.1-0.3,0.3-0.6,0.7-0.6
			c0.4,0,0.5,0.3,0.7,0.6C35.1,73.3,34.9,73.9,34.5,74.4z"/>
		<path class="st11" d="M32.4,76.7c0.5,0,0.8,0.3,1.4,0.2c0.3-0.1,0.1,0.3,0.1,0.6c-0.6-0.6-1.4-0.3-2.1-0.4
			C32,76.9,32.2,76.8,32.4,76.7z"/>
		<path class="st60" d="M36,77.1c-0.6,0-1.2-0.1-1.6,0.4c-0.2-0.5-0.2-0.8,0.4-0.6c0.2,0.1,0.4-0.1,0.6-0.1
			C35.6,76.9,35.8,77,36,77.1z"/>
		<path class="st57" d="M19.5,55.3c0.3,0,0.7,0,0.7,0.4c0,0.5-0.4,0.6-0.8,0.7c-0.3,0-0.8-0.2-0.7-0.6
			C18.8,55.6,19.1,55.3,19.5,55.3z"/>
		<path class="st36" d="M18.9,54.8c0.7-0.7,1-0.7,1.3,0.2C19.8,54.6,19.3,54.8,18.9,54.8z"/>
		<path class="st61" d="M21.5,60.1c-0.1,0.2-0.3,0.2-0.4,0.3c-0.1,0-0.3-0.1-0.3-0.3c0-0.2,0.2-0.3,0.4-0.3
			C21.4,59.8,21.5,59.9,21.5,60.1z"/>
		<path class="st62" d="M41.6,67c0,0.3-0.1,0.6-0.4,0.6c-0.4-0.1-0.7-0.4-0.7-1c0-0.3,0.2-0.6,0.5-0.5C41.4,66.2,41.6,66.6,41.6,67z
			"/>
		<path class="st63" d="M45.3,61.9c0.3-0.1,0.6,0,0.8,0.4c-0.6,0.5-0.6,0.5,0,0.7c0.3,0.1,0.3,0.3,0.1,0.4c-0.2,0.2-0.4,0.4-0.8,0.2
			c-0.4-0.2-0.4-0.5-0.4-0.8C44.8,62.4,45.4,62.3,45.3,61.9z"/>
		<path class="st64" d="M43.8,64c0.4,0.2,0.8,0.4,0.8,0.9c0,0.3-0.3,0.5-0.6,0.4c-0.5-0.1-0.7-0.3-0.7-0.8
			C43.3,64.2,43.5,64,43.8,64z"/>
		<path class="st65" d="M36.2,68.2c-0.1,0-0.1,0-0.2,0c-0.2-0.1-0.7,0.1-0.7-0.1c0.1-0.5,0.6-0.1,0.9-0.2
			C36.2,68,36.2,68.1,36.2,68.2z"/>
		<path class="st64" d="M27.1,67.8c-0.1,0-0.5-0.1-0.3-0.3c0.2-0.4,0.2-1.1,0.8-1.1c0.4,0,0.4,0.2,0.5,0.6
			C28.2,67.5,27.8,67.7,27.1,67.8z"/>
		<path class="st44" d="M25.5,65c0.2,0.1,0.3,0.3,0.3,0.5c0,0.2-0.1,0.3-0.3,0.3c-0.2,0-0.3-0.2-0.3-0.4
			C25.3,65.2,25.4,65.1,25.5,65z"/>
		<path class="st64" d="M48.6,55.7c-0.4,0-0.8,0-0.9-0.5c0-0.5,0.4-0.6,0.7-0.6c0.3,0,0.8,0,0.8,0.6C49.3,55.7,48.9,55.7,48.6,55.7z
			"/>
		<path class="st7" d="M48.3,53.3c-0.1,0.2-0.3,0.3-0.4,0.3c-0.2,0-0.1-0.2-0.1-0.3c0-0.2,0.1-0.4,0.3-0.4
			C48.2,52.9,48.3,53.1,48.3,53.3z"/>
		<path class="st7" d="M47.2,48.9c0.1-0.2,0.3-0.4,0.4-0.3c0.2,0.2,0.1,0.3-0.2,0.3C47.4,49,47.3,49,47.2,48.9z"/>
		<path class="st66" d="M40,40.7c-0.1,0.1-0.2,0.2-0.3,0.3c0,0-0.2-0.1-0.2-0.2c0-0.2,0.1-0.3,0.3-0.3C39.9,40.5,40,40.5,40,40.7z"
			/>
		<path class="st67" d="M29.6,67.3c0.1,0.3,0.3,0.5-0.1,0.7c-0.1,0-0.3,0-0.3-0.1C29.2,67.7,29.5,67.6,29.6,67.3z"/>
		<path class="st68" d="M45.4,47.1c0.2-0.5,0.8-0.6,1.1-0.9c0,0.5-0.1,1-0.1,1.5C46,47.6,46,46.8,45.4,47.1z"/>
		<path class="st69" d="M23.5,44.5c-0.1-0.1-0.2-0.1-0.4-0.2c0,0,0-0.1,0-0.1c0.2-0.2,0.3-0.3,0.4-0.6c0,0,0.1,0,0.1,0
			c0.1,0.1,0.3,0.1,0.4,0.2c0,0.2-0.3,0.3,0,0.5C23.9,44.4,23.6,44.3,23.5,44.5z"/>
		<path class="st70" d="M23.6,43.6c0.4,0.6-0.1,0.5-0.4,0.6c0-0.1,0-0.3,0-0.4c0.1-0.1,0.2-0.1,0.3-0.2
			C23.4,43.6,23.5,43.6,23.6,43.6z"/>
		<path class="st27" d="M44.4,44.3c-0.1,0-0.2,0-0.3,0c0-0.3-0.1-0.4-0.4-0.3c0.1-0.3,0.4-0.2,0.6-0.2l0,0
			C44.5,43.9,44.6,44.1,44.4,44.3z"/>
		<path class="st71" d="M44.4,44.3c-0.1-0.2-0.2-0.3-0.2-0.5c0.1-0.1,0.3-0.1,0.4-0.2c0,0,0.1,0,0.1,0c0,0.2,0,0.3,0.2,0.4
			c0,0.1,0,0.3,0,0.4c-0.1,0-0.2-0.2-0.4-0.1C44.6,44.3,44.5,44.3,44.4,44.3z"/>
		<path class="st15" d="M35.1,53.7c-0.5-0.5-0.5-1.2-0.5-1.8c0-0.5,0.2-0.7,0.7-0.4C36.8,52.3,36.8,52.6,35.1,53.7z"/>
		<path class="st11" d="M36.4,55.1c-0.5,0-1-0.1-1.3-0.5c-0.1-0.2,1.2-1.4,1.5-1.4c0.3,0,0.6,0.3,0.5,0.4
			C36.6,54,37.8,55.2,36.4,55.1z"/>
		<path class="st15" d="M33.1,54.6c-0.4,0.5-0.4,1.5-1,1.6c-0.6,0.1-0.8-0.8-0.8-1.2c0-0.7,0.8-0.7,1.3-0.8
			C32.8,54.1,33.1,54.2,33.1,54.6z"/>
		<path class="st15" d="M33.5,53.3c-0.5,0.8-1.5,0.4-2.1,0.8c0,0-0.3-0.2-0.3-0.2c0.1-0.5,0.2-0.9,0.5-1.3c0.2-0.4,0.6-0.2,0.9,0
			C32.8,52.8,33.1,53.1,33.5,53.3z"/>
		<path class="st11" d="M32.7,56.2c0-0.1,0.1-0.3,0.2-0.4c0.1-0.3,0.3-0.7,0.6-0.7c0.4,0,0.3,0.5,0.6,0.8c0.1,0.1,0.1,0.2,0.1,0.4
			c0,0.4,0.7,0.6,0.3,0.9c-0.4,0.3-1,0-1.5-0.1C32.7,56.9,32.7,56.6,32.7,56.2z"/>
		<path class="st11" d="M35.3,56.9c-0.7-0.3-0.8-0.9-1-1.4c-0.1-0.3,0.3-0.4,0.5-0.3c0.6,0.3,1.5,0,1.7,0.7
			C36.6,56.2,35.8,56.7,35.3,56.9z"/>
		<path class="st11" d="M34.3,52.4c-0.1,0.2,0.3,0.8-0.4,0.6c-0.6-0.1-1.4-0.6-1.5-1.2c-0.1-0.5,0.8-0.6,1.3-0.7
			C34.2,51.1,34.3,51.8,34.3,52.4z"/>
		<path class="st72" d="M34.1,53.4c0.4,0.2,0.7,0.3,0.7,0.8c0,0.5-0.4,0.7-0.8,0.7c-0.3,0-0.6-0.3-0.6-0.7
			C33.5,53.7,33.7,53.5,34.1,53.4z"/>
		<path class="st73" d="M32.9,75.6c0.3,0.2,1-0.7,1,0.5C33.5,75.9,33.2,75.7,32.9,75.6C32.9,75.6,32.9,75.6,32.9,75.6z"/>
		<path class="st74" d="M35.2,75.6c-0.3,0.2-0.6,0.3-0.9,0.5C34.3,75.5,34.3,75.5,35.2,75.6C35.3,75.6,35.2,75.6,35.2,75.6z"/>
	</g>
</g>
</svg>
