<?xml version="1.0" encoding="utf-8"?>
<!-- Generator: Adobe Illustrator 23.0.0, SVG Export Plug-In . SVG Version: 6.00 Build 0)  -->
<svg version="1.1" id="Layer_1" xmlns="http://www.w3.org/2000/svg" xmlns:xlink="http://www.w3.org/1999/xlink" x="0px" y="0px"
	 viewBox="0 0 54 64" style="enable-background:new 0 0 54 64;" xml:space="preserve">
<style type="text/css">
	.st0{fill:#0D0015;}
	.st1{fill:#FEFEFE;}
	.st2{fill:#E7C21E;}
	.st3{fill:#347F3D;}
	.st4{fill:#FDFDFD;}
	.st5{fill:#FEF24F;}
	.st6{fill:#EB1C24;}
	.st7{fill:#FDF14F;}
	.st8{fill:#FCFCFC;}
	.st9{fill:#347E3D;}
	.st10{fill:#FBFBFB;}
	.st11{fill:#FCF14F;}
	.st12{fill:#FAFAFA;}
	.st13{fill:#FDFCFD;}
	.st14{fill:#FBFAFB;}
	.st15{fill:#F8F8F8;}
	.st16{fill:#F8F8F9;}
	.st17{fill:#F9F9F9;}
	.st18{fill:#F7F7F7;}
	.st19{fill:#F8F7F8;}
	.st20{fill:#F5F5F5;}
	.st21{fill:#F9F8F9;}
	.st22{fill:#EFEFF0;}
	.st23{fill:#34783C;}
	.st24{fill:#0E0117;}
	.st25{fill:#1A0E23;}
	.st26{fill:#1B0F23;}
	.st27{fill:#12051B;}
	.st28{fill:#F6F6F6;}
	.st29{fill:#11041A;}
	.st30{fill:#1D1125;}
	.st31{fill:#11051A;}
	.st32{fill:#FDFDFC;}
	.st33{fill:#22162A;}
	.st34{fill:#170B20;}
	.st35{fill:#100419;}
	.st36{fill:#15081D;}
	.st37{fill:#160A1F;}
	.st38{fill:#1E1226;}
	.st39{fill:#0D0016;}
	.st40{fill:#CAC8CC;}
	.st41{fill:#D5D3D7;}
	.st42{fill:#C6C5CA;}
	.st43{fill:#E8E7E9;}
	.st44{fill:#211629;}
	.st45{fill:#817F84;}
	.st46{fill:#C8C5CA;}
	.st47{fill:#BAB6BC;}
	.st48{fill:#0D0116;}
	.st49{fill:#0D0115;}
	.st50{fill:#0E0116;}
	.st51{fill:#34803D;}
	.st52{fill:#EA1E25;}
	.st53{fill:#F7F9F7;}
	.st54{fill:#1F1427;}
	.st55{fill:#100318;}
	.st56{fill:#12061B;}
	.st57{fill:#0F0218;}
	.st58{fill:#0F0318;}
	.st59{fill:#221629;}
	.st60{fill:#1C1124;}
	.st61{fill:#1D1126;}
	.st62{fill:#D8D6DA;}
	.st63{fill:#413747;}
	.st64{fill:#514858;}
	.st65{fill:#FCF050;}
	.st66{fill:#F7F8F5;}
	.st67{fill:#F9FAF8;}
</style>
<title>logo</title>
<g>
	<path class="st0" d="M-0.2,29.8c0.4-1,0.3-2,0.5-3c0.8-4.3,2.6-8.1,5.2-11.5c2.6-3.4,5.9-6,9.8-7.9c2.4-1.1,5-1.9,7.6-2.3
		c0.7-0.1,1.4,0.1,2-0.3c1.4,0,2.9,0,4.3,0c1,0.2,2.1,0.3,3.1,0.5C36.7,6.2,40.6,8,44,10.8c3.2,2.6,5.8,5.8,7.6,9.6
		c1.1,2.4,1.9,4.9,2.3,7.5c0.3,1.8,0.4,3.7,0.3,5.5c-0.4,5.3-2,10.3-5.2,14.6c-3.9,5.2-8.9,8.7-15.3,10.3c-2.7,0.7-5.5,1-8.3,0.8
		c-5.5-0.4-10.6-2.1-15-5.5c-5.1-4-8.5-9.1-10-15.4c-0.3-1.2-0.6-2.4-0.5-3.7c0-0.1,0-0.2-0.2-0.3C-0.2,32.7-0.2,31.3-0.2,29.8z"/>
	<path class="st1" d="M27.1,5.4c14.1-0.3,27.4,11.8,26.6,28.1c-0.6,12.7-11.6,25.8-28.1,25.1C12.7,58.1-0.6,47,0.3,30.3
		C1,17.4,12,5.2,27.1,5.4z"/>
	<path class="st0" d="M9,45.9c-2,0.5-3.7-0.2-4.5-1.7c-1.2-2.4-0.9-4.1,1.1-5.9C3.7,38,2.2,37,1.8,35.1c-0.3-1.1-0.3-2.4,0.5-3.3
		C2.9,31,3.4,29.9,4.9,30c-0.3-0.5-0.6-0.6-0.9-0.7c-0.3-0.2-0.8-0.4-0.6-0.9c0-0.1,0-0.2-0.1-0.2c-1.1-0.5-0.8-1.5-0.9-2.4
		c-0.1-0.9,1.2-3.1,2-3.5c0.2-0.1,0.5-0.1,0.7,0c0.2,0.2,0.4,0.1,0.5-0.1c0.4-0.6,1-0.6,1.6-0.3c0-0.4-0.3-0.6-0.5-0.8
		c-0.3-0.3-0.7-2.3-0.6-2.7c0.4-2.4,2.3-3.7,3.9-5.1c1-1,2.2-1.7,3.6-2.2c0.1,0,0.1,0,0.2,0c0.9-1.7,2.7-1.9,4.3-2.4
		c1.4-0.4,2.7-0.6,4.2-0.2c0.3,0.1,0.5-0.2,0.7-0.4c1.1-1.1,2.4-1.5,3.9-1.1c0.6,0.2,1.1-0.2,1.7-0.2c0.9,0,1.7,0.3,2.4,0.9
		c0.5,0.5,0.9,0.7,1.7,0.6c2.4-0.3,4.7,0.2,6.6,1.6c2.2,1.7,4.9,2.9,6.7,5.1c0.7,0.8,1.4,1.6,1.8,2.6c0.8,1.6,2.3,2.7,2.8,4.5
		c0.3,1.3,0.9,2.6,1,3.9c0.1,0.6,0.6,1.2,0.7,1.9c0.3,1.9-0.1,3.8,0,5.7c0.3,3-0.9,5.5-2,8.2c-0.7,1.6-1.1,3.2-2.1,4.6
		c-1.8,2.5-3.8,4.7-6.6,6c-0.2,0.1-0.4,0.2-0.6,0.2c-0.5,0-0.7,0.1-0.6,0.6c0,0,0,0.1-0.1,0.2c-1.2,0.8-1.8,2.2-3.4,2.3
		c-0.6,0-1.2,0.2-1.7,0.7c-0.6,0.5-1.5,0.6-2.3,0.7c-1.2,0.2-2.3,0.4-3.5,0c-0.4-0.1-0.7,0.1-1.1,0.3c-0.7,0.4-1.4,0.4-2,0
		c-0.5-0.3-1-0.3-1.6-0.2c-1.8,0.2-3.7,0-5.3-0.8c-0.9-0.5-1.8-0.6-2.7-1c-0.5-0.2-1.4-0.2-1.3-1.1c-0.8-0.2-1.2-1-1.9-1.3
		c-0.9-0.4-1.9-0.8-2.7-1.4c-0.4-0.3-1-0.5-0.7-1.2c0,0-0.1-0.2-0.1-0.2C9,49.6,8.9,48.9,8.8,48C8.7,47.3,8.7,46.7,9,45.9z"/>
	<path class="st2" d="M16.5,31.9c-0.1-6.1,4.8-10.4,10.5-10.4c6,0,10.5,4.6,10.5,10.5c0,5.9-4.6,10.5-10.5,10.4
		C21.2,42.4,16.4,37.9,16.5,31.9z"/>
	<path class="st1" d="M29.8,15.2c1,1,2.2,1.2,3.5,1.2c1.4,0.1,2.8,0,4.2,0c0.4,0,0.6,0.1,0.9,0.5c0.8,0.9,1.5,2,2.6,2.7
		c0.6,0.4,0.6,1,0.8,1.7c0.4,1.8,1.3,3.4,2.2,4.9c0.2,0.3,0.3,0.5,0.3,0.9c-0.5,2.2,0,4.3,0.4,6.4c0.1,0.3,0.1,0.5,0,0.8
		c-1,1.8-1.2,3.9-1.5,5.9c0,0.4-0.1,0.6-0.4,0.9c-1.4,1.1-2.3,2.5-3.3,4.1c-0.3-1.3-1.3-0.4-2-0.8c0.6-0.5,1.2-1.1,1.7-1.7
		c2.1-2.5,3.4-5.3,3.8-8.6c0.6-4.7-0.7-8.8-3.8-12.4C37,19,34.3,17.2,31,16.5C30.4,16.3,29.8,16.1,29.8,15.2z"/>
	<path class="st1" d="M15.1,42.9c-1.4,0-1.4,0-1.3,2.3c-0.4-0.2-0.8-0.3-1.1-0.5c-0.3-0.2-0.7-0.3-1.1-0.5c1-1.4,1-3,0.2-4.4
		c-0.4-0.7-1.1-1.4-1.9-1.8c-0.5-0.2-1-0.4-1.6-0.5c1.6-1,1.9-2.5,1.8-4.1c0-0.6-0.4-0.8-0.8-1.1c-0.2-0.1,0.2-1-0.3-1.2
		c-0.5-0.3-0.9-0.5-1.2-0.9c3-1,4.1-3.9,2.1-7.1c1.1,0.5,1.9-0.3,2.7-0.6c0.7-0.3,1.6-1,1.6-2.1c0-0.1,0-0.2,0-0.3
		c0.9-0.7,0.3-1.6,0.3-2.4c0-0.5,0.1-0.7,0.5-0.9c0.6-0.2,1.1-0.3,1.7-0.3c1.8,0,3.6,0.1,5.3-0.1c0.8-0.1,1.5-0.5,2.2-1
		c0.1,0.7-0.3,1-0.9,1.1c-3.5,0.7-6.4,2.5-8.7,5.1c-1.8,2.1-3,4.5-3.6,7.2c-0.9,4.5,0,8.7,2.6,12.4C14.2,41.7,14.6,42.3,15.1,42.9z"
		/>
	<path class="st1" d="M22.8,54.5c-0.3-0.1-0.2-0.4-0.2-0.5c0-2.2,0-4.3,0-6.6c3,0.8,5.9,0.9,8.9,0c-0.1,2.4,0.1,4.8-0.1,7.1
		c-1.1,0.4-2.3,0.1-3.4,0.2c-0.1,0-0.3,0-0.4,0c-0.2-0.1-0.4-0.1-0.4-0.4c0-0.3,0.3-0.2,0.5-0.3c0.4,0,0.8-0.1,1.2-0.4
		c0.2-0.1,0.1-0.2,0-0.3c-0.2-0.1-0.5-0.2-0.5-0.5c0.1-0.3,0.5-0.4,0.8-0.6c-0.3-0.2-0.6-0.2-0.9-0.4c-0.1-0.1-0.1-0.1-0.1-0.2
		c0.2-0.4,0.7-0.3,0.9-0.7c-0.5-0.5-1.1,0.1-1.6-0.2c-0.2-0.4,0.2-0.7,0.2-1c0-0.4-0.1-0.8-0.5-0.8c-0.4,0-0.5,0.4-0.5,0.8
		c0,0.4,0.2,0.6,0.4,1c-0.1,0.4-0.4,0.3-0.6,0.2c-0.3-0.1-0.7-0.2-1.1,0c0.1,0.4,0.6,0.4,0.7,0.7c0,0.1,0,0.2,0,0.2
		c-0.2,0.2-0.6,0.2-0.9,0.4c0.1,0.3,0.4,0.3,0.4,0.6c0,0.3-0.3,0.3-0.4,0.5c0.2,0.6,0.8,0.6,1.3,0.7c0.2,0,0.5-0.1,0.5,0.2
		c0,0.3-0.2,0.4-0.5,0.4c-0.2,0.1-0.5,0.1-0.7,0C24.8,54.6,23.8,55,22.8,54.5z"/>
	<path class="st2" d="M24.5,16.6c0.3-1,0.5-1.7,0.8-2.4c0.2-0.5,0-0.8-0.3-1c-0.6-0.5-1.3-0.9-1.9-1.6c0.8,0,1.6,0,2.4,0
		c0.5,0,0.7-0.2,0.9-0.6c0.2-0.7,0.4-1.4,0.7-2.4c0.3,1,0.6,1.7,0.8,2.4c0.1,0.5,0.3,0.5,0.7,0.5c0.8,0,1.6,0,2.6,0
		c-0.5,0.7-1.2,1-1.8,1.4c-0.5,0.3-0.7,0.7-0.4,1.3c0.3,0.6,0.4,1.3,0.7,2.1c-0.8-0.3-1.4-0.9-1.9-1.3c-0.4-0.3-0.8-0.3-1.2,0
		C25.9,15.6,25.3,16,24.5,16.6z"/>
	<path class="st3" d="M9.7,14.3c3.7-4,9.7-5.3,14.1-1.2c-2.4-0.3-4.8-0.5-7.2-0.2C14.3,13.1,12,13.5,9.7,14.3z"/>
	<path class="st3" d="M44.4,14.4c-4.7-1.5-9.3-2.1-14-1.3C34.5,9,40.5,10.2,44.4,14.4z"/>
	<path class="st3" d="M48.3,41.7c0.2,0,0.1,0.2,0.2,0.3c1,0.8,0.5,1.6,0,2.3c-1.8,3.1-3.9,5.8-7.2,7.4c-0.2,0.1-0.4,0.3-0.6,0.2
		c0-1.5,1.2-2.2,2-3.1c1.9-2.1,3.6-4.4,5.3-6.7C48.1,42,48.2,41.8,48.3,41.7z"/>
	<path class="st3" d="M24.7,56.6c-1.7,0.1-3.3,0-4.8-0.5c-0.3-0.1-0.5-0.1-0.3-0.5c0.2-0.4-0.2-0.2-0.3-0.2
		c-0.9-0.2-1.8-0.3-2.7-0.5c-0.2-0.1-0.9,0.1-0.5-0.7c0.1-0.2-0.5-0.4-0.8-0.5c-0.5-0.3-0.5-0.3-0.6-0.9c0-0.2-0.3-0.3-0.4-0.5
		c-0.4-0.4-0.7-0.8-0.5-1.5c1.2,0.8,2.4,1.4,3.6,2c0,0.4-0.4,0.3-0.6,0.7c1.3-0.5,2.4,0,3.6,0.3c-0.1,0.4-0.5,0.3-0.6,0.6
		c0.6,0.2,1.1-0.1,1.6-0.2c0.3-0.1,0.6-0.2,0.7,0C22.5,55.5,23.8,55.7,24.7,56.6z"/>
	<path class="st3" d="M24.9,13.9c-0.8,1.3-2,1.9-3.4,2c-1,0.1-2.1,0-3.1,0c-1.1,0-2.3-0.1-3.5,0.5C16.8,13.2,20.3,12.7,24.9,13.9z"
		/>
	<path class="st3" d="M36.6,52.8c1.4-0.7,2.7-1.4,4-2.3c0,0.7-0.4,1.1-0.6,1.6c-0.1,0.3-1,0.4-0.3,0.9c-0.2,0.1-0.3,0.3-0.5,0.4
		c-0.4,0.4-1.4,0.1-1.2,1.2c0,0-0.3,0.2-0.5,0.2c-1,0.3-2.1,0.4-3.2,0.6c0.4,0.5,0.2,0.6-0.3,0.7c-1.4,0.4-2.9,0.6-4.5,0.4
		c0.7-0.5,1.4-0.8,1.9-1.4c0.7-0.9,1.4-1.3,2.4-0.7c0.1,0.1,0.3,0,0.4,0c0-0.2-0.2-0.2-0.3-0.3c-0.1-0.1-0.2-0.1-0.5-0.3
		c1.3-0.4,2.3-0.9,3.6-0.4C37.1,53.1,36.7,53.1,36.6,52.8z"/>
	<path class="st3" d="M39.2,16.3c-2-0.6-4-0.3-6-0.4c-1.6,0-2.9-0.7-3.8-2C33.4,12.7,37.2,13.1,39.2,16.3z"/>
	<path class="st3" d="M38.3,50.2c2.2-3.3,5.8-5.5,7.3-9.4c0.2,0.7,0.1,1.4,0.7,1.7c0.3,0.2,0,0.4-0.1,0.5c-1.5,2.6-3.5,4.9-6.1,6.4
		C39.7,49.9,39,50,38.3,50.2z"/>
	<path class="st3" d="M15.8,9.9c3.2-1.9,8.2-2,9.7,1.4c-1.5-0.1-2.9,0.2-4.3-0.5C19.6,10.1,17.8,9.7,15.8,9.9z"/>
	<path class="st3" d="M28.6,11.2c1.6-3.2,6-3.3,9.5-1.4c-1.3,0-2.4,0.1-3.5,0.4c-0.4,0.1-0.9,0.2-1.3,0.4
		C31.2,11.4,31.1,11.4,28.6,11.2z"/>
	<path class="st4" d="M14.4,32.7c0.2,0.5,0.5,1,0,1.5c-0.1,0-0.3,0.2,0,0.2c0.3,0,0.6,0.2,0.5,0.4c-0.1,0.4-0.5,0.4-0.8,0.6
		c-0.1,0-0.1,0.1-0.2,0.1c1.1,0.1,1.6,0.7,2,1.8c0.3,0.8,0.2,1.2-0.6,1.5c-0.3,0.1-0.4,0.4-0.3,0.6c0.1,0.2,0.5,0.2,0.6,0
		c0.9-0.8,1.4-0.4,1.9,0.4c0.3,0.5,0.9,1,1.3,1.4c0.1,0.2,0,0.2-0.1,0.3c-0.5-0.2-0.5,0.2-0.6,0.5c0,0-0.1,0-0.1,0
		c-0.3,0.1-0.5-0.6-0.8-0.2c-0.3,0.4,0.3,0.4,0.3,0.7c0,0.1,0,0.1,0,0.2c-1.1-0.3-1.2-0.7-0.4-1.5c0.1-0.1,0.2-0.2,0.3-0.3
		c0.2-0.2,0.1-0.3,0-0.4c-0.2-0.3-0.3-0.1-0.4,0c-0.3,0.2-0.6,0.5-0.9,0.8c-0.2,0.2-0.3,0.1-0.4,0c-0.1-0.2,0-0.2,0.1-0.3
		c0.3-0.2,0.5-0.5,0.8-0.7c0.1-0.1,0.3-0.2,0.1-0.4c-0.1-0.2-0.3-0.2-0.4,0c-0.1,0.1-0.2,0.1-0.2,0.1c-0.5,0.5-1.1,0.5-1.5-0.1
		c-0.3-0.5-0.1-0.9,0.7-1.4c-0.3-0.1-0.7-0.1-0.8-0.4c-0.1-0.4-0.3-0.2-0.6-0.2c-0.4,0.1-0.6,0-0.3-0.4c0-0.1,0.2-0.1,0.1-0.2
		c-0.1,0-0.2,0-0.2,0c-0.2-0.2-0.6-0.3,0-0.6c0.2-0.1,0.6,0,0.7-0.3c0,0.1,0-0.2,0.1-0.1c0.1,0.1,0.2,0,0.1,0
		c-0.2-0.1-0.4,0-0.6-0.1c-0.2,0-0.6,0.1-0.7-0.1c-0.1-0.5,0.5-0.4,0.6-0.7c-0.3-0.3-0.8,0.3-0.9-0.2c-0.1-0.5,0.6,0.1,0.5-0.5
		c-0.4,0-0.7-0.4-0.8-0.8c-0.1-0.6,0.3-0.8,0.6-1.2c0,0,0.1-0.1,0.1-0.1c0.4-0.2,0.8-0.1,1.2,0.1C14.3,32.6,14.4,32.6,14.4,32.7z"/>
	<path class="st3" d="M17.6,51.8c-0.3,0.1,0.3,0.7-0.4,0.4c-1.1-0.5-2.1-1.1-3-1.9c0.5,0.1,1,0.2,1.4,0.3c0.3,0,0.8,0.7,0.9-0.2
		c0,0,0.4-0.1,0.6,0c0.7,0.2,1.5,0.3,2.2,0.7c0.1,0.1,0.6,0.6,0.5-0.2c0-0.2,0.2-0.1,0.3-0.1c0.1,0,0.3,0.1,0.4,0.1
		c1.8,0.4,1.8,0.4,1.7,2.3c0,0.2,0.1,0.4-0.1,0.5c-0.2,0.1-0.4,0-0.5-0.2c-0.5-0.5-1-0.9-1.8-1.3c0.3,0.5,0.5,0.8,0.7,1.2
		C19.2,53.2,18.2,52.7,17.6,51.8z"/>
	<path class="st3" d="M36.5,51.8c-0.7,0.8-1.6,1.4-2.9,1.6c0.2-0.3,0.4-0.7,0.6-1c-0.7,0.1-1,0.6-1.4,1c-0.1,0.1-0.3,0.4-0.5,0.3
		c-0.3-0.1-0.1-0.4-0.2-0.5c0-0.1,0-0.3,0-0.4c0-1.5,0.5-2.2,1.8-1.8c1.2,0.3,1.9-0.6,2.8-0.5c0.3,0,0.8-0.4,0.8,0.3
		c0,0.3,0.3,0.1,0.5,0c0.6-0.2,1.3-0.4,2-0.5c-1,0.9-2.1,1.5-3.2,2C36.2,52.5,36.7,52,36.5,51.8z"/>
	<path class="st3" d="M38.8,45.1c-0.1,0.7-0.1,1.3-0.5,1.9c-0.1,0.2-0.5,0.5,0,0.7c0.2,0.1,0,0.2-0.1,0.3c-0.3,0.2-0.6,0.4-0.9,0.7
		c-0.2,0.1-0.8,0.1-0.2,0.6c0,0,0,0.2-0.1,0.2c-0.7,0.4-1.5,1-2.2,0.9c-0.7-0.1-1.3,0.1-1.9,0.2c-0.2,0-0.5,0.3-0.6,0
		c-0.2-0.3-0.1-0.7,0-0.9c0.1-0.3,0.4-0.4,0.7-0.3c0.5,0.2,1.1,0,1.7,0.1c-0.4-0.3-0.7-0.4-1.1-0.5c1-0.9,2.2-1.3,3.5-1.4
		c0-0.3-0.2-0.3-0.3-0.3c-0.1,0-0.2,0-0.4-0.1C37.1,46.5,38,45.9,38.8,45.1z"/>
	<path class="st5" d="M45.6,20.4c-1.2-0.6-2.2-1.4-2.9-2.4c-0.7-1-1.4-2.1-2.2-3.1c-0.2-0.3-0.4-0.7-0.2-1c0.2-0.4,0.5,0,0.8,0.1
		c1,0.1,1.4,0.9,1.9,1.6c1,1.2,1.9,2.5,2.5,4C45.6,19.9,45.6,19.9,45.6,20.4z"/>
	<path class="st6" d="M27.8,54.5c1.2,0,2.4,0,3.6,0c-1.1,1-2.4,1.8-3.8,2.4c-0.3,0.1-0.5,0.3-0.8,0.1c-1.5-0.7-2.9-1.4-4-2.6
		c1.1,0,2.2-0.2,3.2,0.1c-0.1,0.2-0.3,0.2-0.4,0.2c1,0.2,2.2,0.1,3.3,0C28.6,54.7,28.1,55.1,27.8,54.5z"/>
	<path class="st5" d="M44.6,27.3c0.6,0.2,1,0.9,1.6,0.1c0.5,2.3,0.3,4.5-0.2,6.7c0,0.2,0,0.5-0.3,0.5c-0.3,0-0.3-0.3-0.4-0.5
		C44.7,31.9,44.5,29.7,44.6,27.3z"/>
	<path class="st5" d="M50.3,34.5c0.4,0.6,0.8,1.1,1.4,0.3c0.1,1.8-1.4,6-2.5,7.1C48.6,40.7,49.2,36.5,50.3,34.5z"/>
	<path class="st5" d="M51.1,34.8c-1-2.4-1.5-4.9-1.2-7.6c1,0.8,1.1,0.8,1.6,0.1C51.8,29.8,51.9,32.3,51.1,34.8z"/>
	<path class="st5" d="M43,41.2c0.2,0.6,0.2,1.3,1.1,1.3c-1.4,2.1-3,3.9-5.1,5.1C39.7,45.1,41.2,43.1,43,41.2z"/>
	<path class="st5" d="M48.5,35c-1.2-2.7-1.4-5.2-1.2-7.8c0.5,0.2,0.9,1.1,1.5,0.2c0.1,0.1,0.2,0.2,0.2,0.3
		C49.3,30.1,49.2,32.5,48.5,35z"/>
	<path class="st5" d="M46.4,35c-0.3,2.6-1.1,4.9-2.6,6.9c-0.3-2.6,0.1-5,1.1-7.5C45.3,35,45.7,35.5,46.4,35z"/>
	<path class="st5" d="M43.6,20.1c1.2,2.3,2.1,4.6,2.1,7.4c-1.7-2-2.7-4.1-3.4-6.3c-0.1-0.3,0-0.6,0.4-0.4
		C43.4,21.1,43.5,20.7,43.6,20.1z"/>
	<path class="st5" d="M46.5,41.9c-0.3-2.6,0-5,1.1-7.4c0.4,0.5,0.7,1.2,1.5,0.4C48.8,37.5,48,39.8,46.5,41.9z"/>
	<path class="st5" d="M47.3,20.5c0.8,0.3,1.4,0.8,1.6-0.5c1.2,2.3,1.9,4.6,2,7.2C49.1,25.4,48.1,23.1,47.3,20.5z"/>
	<path class="st5" d="M48.2,27.4c-1.8-2.1-2.9-4.3-3.5-6.9c1.2,0.5,1.3,0.5,1.5-0.4C47.4,21.8,48.4,25.3,48.2,27.4z"/>
	<path class="st3" d="M11.6,45.1c0.7,0.8,1.5,1.6,2.2,2.3c-0.1,0-0.3,0.1-0.6,0.1c0.2,0.1,0.3,0.2,0.5,0.2c1.3-0.1,1.9,0.7,2.3,1.8
		c0.1,0.2,0.3,0.3,0.1,0.5c-0.1,0.2-0.3,0.1-0.5,0.1C14.7,50,14,49.6,13,50c0.4-0.4,0.5-0.7-0.1-0.9c-0.6-0.2-1.4-0.9-1.3-1.4
		C11.9,46.8,11.3,46,11.6,45.1z"/>
	<path class="st5" d="M42.9,14.4c1.6,0.5,3,0.9,3.8,2.4c0.5,0.9,1,1.7,1.4,2.6c0.1,0.3,0.4,0.7,0.2,0.9c-0.2,0.2-0.6-0.1-0.8-0.3
		c-1.1-0.8-2-1.7-2.7-2.9C44.2,16.2,43.6,15.4,42.9,14.4z"/>
	<path class="st3" d="M22.3,50.4c-0.8,0-1.3-0.4-1.8-0.8c-0.2-0.2-0.3-0.2-0.5,0.1c-0.1,0.2-0.2,0.1-0.3,0c-1.2-0.6-2.4-1.1-3.6-2.1
		c0.6,0.1,1.1,0,1.5,0.1c0.3,0.1,0.9,0.7,1.2-0.2c0.2-0.4,3,0.2,3.2,0.7C22.4,48.9,22.2,49.6,22.3,50.4z"/>
	<path class="st3" d="M10.2,50.7c0.3-0.1,0.5-0.1,0.7-0.2c-1.6-0.9-1.6-2.4-1.8-4.1c1,1,1.6,2,2.6,2.6c-0.1,0.3-0.5,0-0.7,0.4
		c2,0.1,1.9,1.8,2.6,3.3C12.5,52,11.3,51.6,10.2,50.7z"/>
	<path class="st7" d="M37.6,13.9c0.6-0.4,1-0.1,1.4,0.2c1.9,1.7,3.3,3.8,4.1,6.3c-1.6-0.7-2.8-1.9-3.9-3.2c0.1,0,0.1-0.1,0.2-0.1
		c0.4,0,0.6,0.8,0.9,0.3c0.3-0.3-0.2-0.7-0.4-1C39.3,15.4,38.5,14.7,37.6,13.9z"/>
	<path class="st3" d="M38.3,44.9c-0.4,0.7-1.1,1-1.6,1.5c-0.4,0.4-0.7,0.4-0.7-0.6c-0.5,1.4-1.2,2.2-2.3,2.5
		c-0.2-0.4,0.3-0.6,0.2-0.9c-0.7,0.4-0.9,1.3-1.7,1.7c0-0.6,0-1.1,0-1.6c0-0.2,0.1-0.4,0.3-0.5c1.7-0.5,3.1-1.7,4.8-2.1
		C37.5,44.9,37.8,44.8,38.3,44.9z"/>
	<path class="st4" d="M11.2,14.4c2.1-0.7,4.2-0.9,6.3-1.1c-1.4,0.7-2.5,1.8-3.4,3.1c-0.1,0.2-0.2,0.3-0.4,0.2
		c-0.2,0-0.2-0.2-0.1-0.3c0.1-0.7-0.4-0.9-0.9-1.1C12.2,15,11.7,14.7,11.2,14.4z"/>
	<path class="st4" d="M14.2,26.1c0.3,0.1,0.7,0.2,1,0.4c0.2,0.1,0.5,0.1,0.3,0.5c-0.1,0.3-0.3,0.4-0.6,0.3c-0.3-0.1-0.6-0.2-0.9-0.1
		c0.2,0.2,0.4,0.4,0.6,0.5c0.8,0.3,0.1,0.9,0.1,1.3c0,0.3-0.5,0.1-0.7,0.1c-0.4-0.1-1-0.4-1.1,0.2c-0.1,0.5,0.6,0.6,1,0.6
		c0.3,0,0.4,0.1,0.7,0.3c-0.6,0.5-1.2,0.1-1.8-0.1c-0.4-0.1-0.4-0.5-0.4-0.9c0.1-0.6,0.6-0.8,1.2-0.8c-0.3-0.2-1.1-0.1-0.8-0.6
		c0.2-0.4,0.7,0.3,1.2,0.1c-0.2-0.4-1-0.4-0.8-0.9c0.1-0.3,0.8,0,1.3-0.2c-0.3-0.1-0.6-0.2-0.8-0.4c-0.1-0.1-0.4,0-0.3-0.3
		c0.1-0.2,0.2-0.2,0.4-0.2C14.1,25.9,14.2,26,14.2,26.1z"/>
	<path class="st3" d="M16.1,46.4c0.8,0.4,1.8-0.3,2.3,0.9c-1,0.1-2.1,0.1-2.9-0.4c-1.1-0.7-1-2-1.2-3.1c1,0.7,1.7,1.6,2.6,2.2
		C16.7,46.3,16.3,46.2,16.1,46.4z"/>
	<path class="st3" d="M22.3,47.6c-1.7-0.8-3.7,0-4.8-2c-0.1-0.2-0.3-0.6-0.7-0.2c0,0-0.3-0.1-0.4-0.2c-0.6-0.6-1.2-1.1-1.8-1.8
		c1.1-0.1,1.5,0.5,2.2,1c1.5,1.1,3,2.2,4.8,2.7c0.2,0,0.4,0.1,0.6,0.2C22.2,47.2,22.2,47.3,22.3,47.6z"/>
	<path class="st4" d="M34.6,43.4c0,1.3-0.5,1.6-1.6,1.3c-0.5,1.5-1.1-0.2-1.6,0.1c-0.2,0.3,0.6,0.8-0.1,1.1
		c-0.3-0.6-0.5-1.1-0.6-1.8c-0.1-0.1-0.1-0.2,0-0.3c0.6-0.2,0.9,0.4,1.4,0.6c0.2-0.2-0.1-0.4-0.1-0.5c0-0.2-0.3-0.4,0-0.6
		c0.4-0.2,0.3,0.1,0.3,0.3c0.1,0.2,0.1,0,0.2-0.1c0.3-0.8,0.9-0.9,1.6-0.8C34.4,42.8,34.7,43,34.6,43.4z"/>
	<path class="st4" d="M38.6,39.8c0.3,0.7,0,1.4-0.8,1.5c-0.5,0-0.6,0.2-0.6,0.6c0,0.7-0.5,1.1-1.3,1c-0.1,0-0.1-0.1-0.2-0.2
		c-0.5-0.3-0.8-0.7-0.6-1.3c0.2-0.6,0.8-0.8,1.5-0.7c-0.3-0.9,0.2-1.4,0.8-1.8c0.1,0.1,0.1,0.1,0.1,0.2c0,0.3-0.1,0.5-0.2,0.7
		c-0.1,0.3-0.1,0.6,0.4,0.8c-0.4-0.5-0.4-0.9,0.3-1.2C38.3,39.4,38.6,39.4,38.6,39.8z"/>
	<path class="st8" d="M40.3,33.9c0.2,0.4,0.1,1.1,0.8,1.1c0,0,0.1,0.2,0.1,0.3c-0.1,0.2-0.2,0.2-0.3,0.1c-0.3-0.2-0.6-0.1-0.9-0.1
		c0.1,0.1,0.2,0.1,0.2,0.2c0.3,0.2,0.9,0,0.8,0.5c0,0.6-0.6,0.3-0.9,0.4c-0.2,0-0.4,0.1-0.6,0.2c0.3,0.3,1.1,0.2,1.1,0.6
		c-0.1,0.6-0.7-0.2-1.1,0.1c-0.4,0.2-0.5-0.2-0.8-0.4c-0.3-0.3-0.1-0.6,0.2-0.6c0.4-0.1,0.8-0.3,1.2-0.2c-0.4-0.4-1.2-0.2-1.1-0.6
		c0.2-0.6-0.1-1.4,0.6-1.7c0.3-0.2,0,0.8,0.5,0.2C40.1,33.9,40.2,33.9,40.3,33.9z"/>
	<path class="st4" d="M13.1,19.7c-0.1,0-0.2,0-0.3,0c-0.4-0.2-0.9,0-1.1-0.4c-0.2-0.5,0.3-0.8,0.6-1.2c0,0,0.1-0.1,0.1-0.1
		c0.4-0.3,0.6-1,1.3-0.8c0.6,0.2,0.2,0.8,0.3,1.3C14.2,19.6,14.1,19.7,13.1,19.7z"/>
	<path class="st4" d="M7.8,38.5C8,38.3,8,37.7,8.6,38c0.2,0.1,0.4,0.1,0.6,0.2c1.1,0.4,1.3,0.7,0.6,1.7c-0.2,0.3-0.3,1-0.8,0.9
		c-0.4-0.1-0.7-0.6-0.8-1.1C8.2,39.3,8,38.9,7.8,38.5z"/>
	<path class="st4" d="M10.3,42.2C10,42.1,9.6,42.4,9.4,42c-0.2-0.3,0-0.7,0.3-1c0.3-0.3,0.5-0.6,0.7-1c0.1-0.4,0.4-0.3,0.6-0.3
		c0.3,0,0.5,0.2,0.5,0.4c0,0.4,0.2,0.8,0.4,1.2c0.2,0.4-0.1,0.7-0.5,0.8C11,42.1,10.7,42.1,10.3,42.2z"/>
	<path class="st4" d="M7.1,30.3c0.6,0.4,1.2,0.8,1.7,1.2c0.1,0.1,0.1,0.3,0,0.4c-0.1,0.2-0.3,0.4-0.4,0.6c-0.3,0.4-0.8,0.9-1.2,0.7
		c-0.6-0.2-0.4-0.8-0.4-1.3c0-0.3,0-0.6-0.1-0.9C6.4,30.6,6.9,30.6,7.1,30.3z"/>
	<path class="st4" d="M8.7,26.1c-0.9,0.1-0.8-0.4-0.7-0.9c0.2-0.5,0.5-1.1,0.7-1.6c0.3-0.4,0.6-0.4,0.9,0c0.1,0.1,0.1,0.4,0.2,0.6
		c0.6,1.4,0.6,1.4-0.8,1.8C8.9,26,8.8,26.1,8.7,26.1z"/>
	<path class="st4" d="M11.8,18.1c-1.1-0.6-0.7-1.7-1-2.5c-0.1-0.2,0.3-0.5,0.4-0.5c0.7,0.1,1.3,0.5,1.7,0.9c0.4,0.4,0,0.9-0.3,1.2
		C12.3,17.5,12,17.8,11.8,18.1z"/>
	<path class="st4" d="M8.3,23.2c0,0.1,0,0.2,0,0.3c-0.2,0.5-0.2,1.2-0.8,1.3c-0.6,0.1-0.8-0.5-1-1c0-0.1-0.2-0.2-0.2-0.4
		c-0.1-0.3-0.6-0.6-0.2-1c0.3-0.4,0.6-0.3,1-0.1c0.1,0.1,0.3,0,0.5,0C8.2,22.3,8.4,22.6,8.3,23.2z"/>
	<path class="st1" d="M7.1,34.8c0.1-1.2,1.3-1.3,1.9-2c0.1-0.1,0.6,0,0.6,0.4c0,0.2,0,0.4,0,0.6c0,1.6-0.2,1.7-1.7,1.2
		C7.6,34.9,7.4,34.9,7.1,34.8z"/>
	<path class="st1" d="M6.2,31.9c-0.1,0.2,0.2,0.6-0.2,0.7c-0.3,0.1-0.5-0.1-0.8-0.3c-0.5-0.3-0.8-0.8-1.4-0.9
		c-0.2-0.1-0.3-0.2-0.3-0.4c0-0.2,0.1-0.3,0.3-0.4c0.2,0,0.3-0.1,0.5-0.2C5.9,30.1,6.2,30.3,6.2,31.9z"/>
	<path class="st4" d="M8.2,21.8c-0.2,0-0.3-0.1-0.4-0.3c-0.1-0.2-0.3-0.5-0.4-0.7c-0.6-0.8-0.6-1.1,0.4-1.6c0.2-0.1,0.3-0.1,0.5-0.2
		c0.3-0.1,0.6-0.4,0.9,0c0.2,0.3,0.1,0.6-0.1,1c-0.2,0.4-0.5,0.9-0.4,1.4C8.5,21.7,8.4,21.8,8.2,21.8z"/>
	<path class="st8" d="M6.4,37.4c-0.1,0.2,0,0.5-0.4,0.4c-0.5-0.1-1.1-0.2-1.6-0.3C4,37.4,4,37,4.2,36.6C4.4,36,4.5,35.3,5,35.2
		c0.6-0.1,0.6,0.7,0.9,1.2C6.1,36.8,6.3,37.1,6.4,37.4z"/>
	<path class="st4" d="M10.1,22.5c-0.4-0.1-0.9,0.2-1.1-0.5c-0.2-0.7,0.1-1.4,0.5-1.9c0.2-0.3,0.6,0,0.8,0.3c0.2,0.4,0.5,0.9,0.7,1.3
		c0.1,0.2,0.4,0.3,0.3,0.6c-0.1,0.3-0.5,0.2-0.7,0.2C10.5,22.5,10.3,22.5,10.1,22.5z"/>
	<path class="st4" d="M5.3,25.6c0,0.2,0,0.4-0.3,0.6c-0.5,0.3-1,0.6-1.4,1.1c-0.3,0.4-0.6,0.2-0.7-0.2c-0.1-0.5,0-1-0.2-1.6
		c-0.1-0.3,0.3-0.4,0.5-0.5c0.6-0.2,1.2,0.1,1.8,0.2C5.3,25.3,5.4,25.4,5.3,25.6z"/>
	<path class="st4" d="M6.2,28.2c0.1-0.3-0.2-0.7,0.2-0.8c0.4-0.2,0.7,0.1,1,0.4c0.3,0.3,0.6,0.7,1,0.9c0.2,0.1,0.3,0.2,0.3,0.5
		c0,0.3-0.3,0.2-0.5,0.3c-0.1,0.1-0.3,0-0.5,0.1C6.4,29.8,6.2,29.6,6.2,28.2z"/>
	<path class="st4" d="M9.4,17.8c-0.6,1-1.7,0.8-2.6,1.3c-0.3,0.1-0.3-0.3-0.3-0.5c0.1-0.5,0.2-1,0.4-1.4c0.1-0.4,0.5-0.4,0.8-0.3
		C8.3,17,8.9,17.4,9.4,17.8z"/>
	<path class="st4" d="M3.6,36.8c-0.4,0-0.5-0.2-0.6-0.4c-0.1-0.2-0.2-0.4-0.3-0.6c-0.6-1-0.4-1.5,0.8-1.7c0.3,0,0.8-0.5,1,0
		c0.3,0.4-0.1,0.8-0.3,1.1C4,35.6,3.7,36,3.7,36.5C3.7,36.7,3.7,36.8,3.6,36.8z"/>
	<path class="st4" d="M7.1,42.9c-0.2,0.7-0.3,1.4-0.4,2.1c0,0.4-0.3,0.3-0.6,0.1c-0.4-0.3-0.7-0.7-1.1-1c-0.2-0.1-0.2-0.3-0.1-0.6
		c0.3-0.7,1-0.9,1.6-1.2C6.7,42.2,7.1,42.6,7.1,42.9z"/>
	<path class="st1" d="M10.5,16.9c0,0.6-0.4,0.7-0.8,0.5c-0.6-0.3-1-0.7-1.7-0.9c-0.4-0.1-0.3-0.5,0-0.7c0.4-0.2,0.9-0.4,1.3-0.7
		c0.3-0.2,0.5,0.1,0.7,0.3C10.3,15.8,10.4,16.4,10.5,16.9z"/>
	<path class="st4" d="M6.7,38.2c0.7,0.3,0.9,1,1.1,1.6c0.2,0.5-0.1,0.9-0.6,0.7c-0.6-0.2-1.1-0.4-1.7-0.6c-0.5-0.1-0.6-0.5-0.1-0.7
		C5.9,38.9,6.1,38.4,6.7,38.2z"/>
	<path class="st4" d="M5.6,24.9c-0.6-0.1-1.1-0.3-1.7-0.4c-0.2,0-0.4,0.1-0.6-0.1c-0.1-0.3,0.1-0.4,0.3-0.6c0.1-0.1,0.3-0.3,0.4-0.4
		c0.3-0.2,0.5-0.9,1-0.5c0.6,0.4,0.9,1.1,1.2,1.8C6.3,24.6,5.9,25,5.6,24.9z"/>
	<path class="st4" d="M7.3,44.5c0-0.6-0.1-1.3,0.4-1.4c0.5-0.2,0.8,0.5,1.1,0.8c0.1,0.1,0.2,0.2,0.2,0.3c0.1,0.5,1.2,0.5,0.7,0.9
		c-0.4,0.4-1.3,0.5-2,0.3C7.1,45.4,7.3,44.8,7.3,44.5z"/>
	<path class="st4" d="M10.5,26.7c-0.3,0.5-0.4,1.1-0.8,1.6c-0.2,0.3-0.7,0.1-1-0.1c-0.5-0.3-1.1-0.7-1.1-1.2c0-0.6,0.8-0.3,1.2-0.5
		c0.3-0.2,0.7,0,1.1-0.2C10.2,26.2,10.4,26.3,10.5,26.7z"/>
	<path class="st4" d="M6.8,35.2c0.7,0.3,1.4,0.5,2.1,0.6c0.4,0.1,0.2,0.4,0,0.6c-0.4,0.3-0.8,0.6-1.1,1c-0.3,0.3-0.4,0.1-0.6,0
		c-0.5-0.4-0.8-1-0.9-1.7C6.1,35.2,6.5,35.3,6.8,35.2z"/>
	<path class="st4" d="M3.1,31.8c0.8-0.1,1.2,0.6,1.7,1c0.2,0.2-0.1,0.5-0.4,0.6c-0.7,0.2-1.4,0.3-2,0.5c-0.3,0.1-0.4-0.1-0.4-0.4
		c0.2-0.5,0.4-1,0.5-1.6C2.7,31.7,3,31.8,3.1,31.8z"/>
	<path class="st4" d="M5.3,26.6c0.3,0.2,0.6,0.5,0.5,0.9c-0.2,0.5-0.2,1,0,1.5c0.1,0.2,0,0.4-0.2,0.5c-0.3,0.2-0.4-0.1-0.5-0.2
		c-0.2-0.1-0.4-0.3-0.6-0.4c-0.9-0.6-1-1.1-0.1-1.8C4.7,27,5,26.8,5.3,26.6z"/>
	<path class="st4" d="M5.1,40.4c0.6,0.1,1.1,0.2,1.6,0.6c0.4,0.3,0,0.6-0.2,0.8c-0.6,0.3-1.1,0.6-1.7,1c-0.3,0.2-0.6-0.1-0.5-0.3
		c0.2-0.5,0.1-1.1,0.1-1.6C4.5,40.4,4.8,40.4,5.1,40.4z"/>
	<path class="st4" d="M8.7,43.1c0.2-0.4,0.6-0.5,1-0.5c0.5,0,0.9,0.1,1.4-0.1c0.2-0.1,0.4,0,0.5,0.1c0.1,0.2,0.1,0.4-0.1,0.6
		c-0.1,0.1-0.3,0.3-0.4,0.5c-0.6,1-1.2,1.1-1.9,0.1C9.1,43.6,8.9,43.4,8.7,43.1z"/>
	<path class="st4" d="M10.8,20.2c0.1-0.3,0.4-0.4,0.7-0.3c0.7,0.1,1.3,0.4,2,0.3c0.3,0,0.3,0.3,0.2,0.4c-0.4,0.5-0.8,1-1.3,1.4
		c-0.1,0.1-0.3,0-0.4,0C11.4,21.5,11,20.9,10.8,20.2z"/>
	<path class="st8" d="M29.2,46.1c-1.1,0.6-1.4,0.4-1.6-0.8c0-0.2,0.2-0.6-0.3-0.6c-0.5,0-0.2,0.4-0.3,0.7c-0.1,0.4,0.2,1-0.2,1
		c-0.6,0-0.3-0.6-0.3-1c0-0.5-0.1-0.8-0.6-1c1.1-0.2,2.1,0,3.1-0.3c0.1,0.1,0.1,0.3,0.1,0.5c0.1,0.2-0.5,0.1-0.2,0.4
		c0.1,0.1,0.1,0.2,0.1,0.2C28.9,45.7,28.9,45.9,29.2,46.1z"/>
	<path class="st4" d="M26.8,7.3c-1.1,0.4-1.8,1-1.8,2.3c-0.5-0.5-1.1-0.8-1.7-1.1C24.1,7.2,25,6.9,26.8,7.3z"/>
	<path class="st4" d="M27.5,7.3C29,6.7,30,7.3,31,8.4c-0.6,0.4-1.2,0.7-1.8,1.1C29.3,8.1,28.4,7.7,27.5,7.3z"/>
	<path class="st4" d="M39.6,30.3c-0.5-0.3-0.6-0.6,0-0.9c0.3-0.1,0.5-0.3,0.9-0.5c-0.5,0-0.9,0-1.2,0c-0.4,0-0.3-0.3-0.4-0.5
		c-0.2-0.4,0.2-0.3,0.3-0.3c0.4-0.2,0.9-0.3,1.3-0.4c0.2,0,0.4-0.1,0.4,0.2c0,0.2,0,0.4-0.3,0.3c-0.4,0-0.6,0.3-1,0.3
		c0.2,0,0.5,0,0.7,0c0.3,0.1,0.6-0.2,0.7,0.2c0.1,0.4-0.3,0.4-0.5,0.6c-0.1,0.1-0.2,0.1-0.3,0.2c1,0.1,1,0.1,1.2,0.4
		C40.8,30.1,40.2,30.1,39.6,30.3L39.6,30.3z"/>
	<path class="st9" d="M15.9,48c1.1,0.8,2.2,1.4,3.3,2c0.1,0.1,0.4,0.1,0.3,0.3c-0.1,0.3-0.3,0.2-0.5,0.1c-0.6-0.2-1.1-0.3-1.7-0.4
		C16.4,49.8,16,49,15.9,48z"/>
	<path class="st10" d="M21.9,44.7c-0.2,0.1-0.4,0.3-0.6,0.3c-0.6,0.1-1.2,0-1.6-0.5c-0.1-0.1,0.7-1.7,0.9-1.8
		c0.6-0.2,1.5,0.6,1.5,1.2C22,44.2,21.9,44.4,21.9,44.7C21.9,44.7,21.9,44.7,21.9,44.7z"/>
	<path class="st8" d="M20.6,19.3c0.1-0.2-0.1-0.5,0.3-0.6c0.3,0,0.5-0.2,0.7,0.1c0.2,0.4,0.6,0.6,0.9,1c0.1,0.1,0.4,0.3,0.2,0.5
		c-0.1,0.1-0.3,0.1-0.5,0c-0.4-0.3-0.7-0.2-0.7,0.3c0,0.3-0.2,0.5-0.5,0.5c-0.4,0-0.2-0.4-0.2-0.6C20.8,20.1,20.7,19.7,20.6,19.3z"
		/>
	<path class="st10" d="M25,45.5c0.1-0.5,0-0.9,0.4-1.3c0.3,0.4,0.2,1.8-0.1,2c-0.2,0.2-0.4,0.1-0.5-0.2c-0.1-0.4-0.3-0.9-0.5-1.3
		c-0.2,0.5,0.1,1.2-0.5,1.3c-0.2,0,0-0.8,0.1-1.3c0.1-0.3-0.2-0.7,0.3-0.8c0.6-0.1,0.5,0.5,0.6,0.8C24.9,45,25.1,45.2,25,45.5z"/>
	<path class="st11" d="M11.2,18.7c0,0.7-0.3,0.9-0.9,0.9c-0.6,0-0.9-0.5-0.8-0.9c0-0.4,0.3-0.9,0.9-0.9C11,17.9,11.2,18.2,11.2,18.7
		z"/>
	<path class="st8" d="M14.4,32.7c-0.1,0-0.2,0-0.2,0c-0.4-0.5-0.8-0.4-1.2-0.1c0,0,0,0,0,0c-0.2,0-0.5,0.1-0.5,0.1
		c-0.2-0.6,0.4-0.6,0.7-0.9c0-0.3-0.2-0.2-0.3-0.2c-0.2,0-0.4,0-0.4-0.3c0-0.3,0.2-0.2,0.4-0.2c0.4,0,0.8,0,1.2,0
		c0.2,0,0.5-0.1,0.5,0.3c0,0.4-0.3,0.2-0.5,0.3c-0.1,0-0.2,0-0.3,0C13.9,31.9,15,31.9,14.4,32.7z"/>
	<path class="st12" d="M18.7,41.6c0.1-0.1,0.1-0.1,0.2-0.2c0.3,0.2,0.7,0.4,0.9,0.7c0.3,0.3,0.3,0.8-0.1,0.9
		c-0.5,0.1-0.4,0.5-0.6,0.7c-0.1,0.1,0.1,0.4-0.2,0.3c-0.2-0.1-0.4-0.1-0.2-0.4c0.1-0.2,0.3-0.4,0.1-0.6c-0.4-0.3-0.3,0.2-0.5,0.3
		c-0.2,0.2-0.3,0.1-0.4,0c-0.3-0.2,0-0.3,0.1-0.4c0.1-0.2,0.3-0.5,0.5-0.7C18.3,41.9,18.4,41.7,18.7,41.6z"/>
	<path class="st7" d="M6.9,26.8c-0.7,0-1.1-0.2-1.1-0.8c0-0.6,0.3-0.9,0.8-1c0.5,0,1,0.4,1,0.9C7.6,26.5,7.3,26.8,6.9,26.8z"/>
	<path class="st13" d="M40.3,33.9c-0.1,0-0.1,0-0.2,0c-0.3,0.1-0.4-0.2-0.5-0.3c-0.4-0.9-0.2-1.5,0.5-1.6c0.9-0.2,1.4,0.1,1.5,0.8
		C41.6,33.6,41.3,33.9,40.3,33.9z"/>
	<path class="st7" d="M5.7,34.9C5.3,34.9,5,34.5,5,34c0-0.5,0.4-0.9,0.9-0.9c0.5,0,0.9,0.3,0.9,1C6.7,34.6,6.4,34.8,5.7,34.9z"/>
	<path class="st5" d="M8.1,40.9c0.6,0,0.9,0.4,0.9,0.9c0,0.5-0.3,0.9-0.9,0.9c-0.5,0-0.9-0.2-0.9-0.9C7.3,41.2,7.5,40.9,8.1,40.9z"
		/>
	<path class="st8" d="M39.6,30.4c0.5,0,1.1,0.3,1.6-0.2c0.1-0.1,0.3-0.1,0.4,0.1c0,0.2,0.1,0.4-0.2,0.4c-0.3,0-0.5,0.2-0.6,0.4
		c0.1,0.2,0.3,0.1,0.5,0.1c0.2,0,0.4,0,0.4,0.3c0,0.3-0.2,0.2-0.4,0.2c-0.2,0-0.5,0-0.7,0C39.3,31.8,39.1,31.5,39.6,30.4
		C39.6,30.3,39.6,30.4,39.6,30.4z"/>
	<path class="st10" d="M25.5,17.4c0.6,0.4,0.5,0.9,0.5,1.3c0,0.3,0,0.6,0.4,0.6c0.3,0,0.4-0.3,0.3-0.6c0-0.3,0-0.6,0-1
		c0-0.2,0.1-0.3,0.3-0.3c0.2,0,0.2,0.1,0.3,0.3c0,0.4,0,0.8,0,1.2c-0.1,0.5-0.4,0.8-0.9,0.8c-0.6,0-0.8-0.4-0.8-0.8
		C25.4,18.4,25.5,18,25.5,17.4z"/>
	<path class="st14" d="M23.6,18.7c0.1-0.2,0.1-0.4,0.2-0.5c0.1-0.2,0.1-0.6,0.4-0.5c0.4,0.1,0.1,0.4,0,0.6c-0.1,0.3-0.1,0.4,0.1,0.7
		c0.2,0.2,0.5,0.4,0.6,0.8c-0.7,0.3-0.8-0.5-1.3-0.6c0,0.2,0,0.3,0,0.4c0.1,0.2,0.2,0.3-0.1,0.4c-0.4,0.2-0.3-0.1-0.3-0.3
		c-0.1-0.4-0.3-0.8-0.3-1.2c0-0.2-0.2-0.5,0.2-0.6c0.3-0.1,0.3,0.3,0.4,0.4C23.5,18.5,23.6,18.6,23.6,18.7z"/>
	<path class="st15" d="M40.1,25.7c0.2,0.2,0.4,0.3,0.1,0.6c-0.5,0.4-0.2,0.7,0.3,0.8c0.1,0,0.4-0.1,0.3,0.2c0,0.2-0.2,0.2-0.3,0.2
		c-0.5,0.2-1,0.2-1.5,0.2c-0.2,0-0.4-0.1-0.5-0.3c-0.1-0.3,0-0.4,0.2-0.6C39.2,26.4,39.7,26.1,40.1,25.7L40.1,25.7z"/>
	<path class="st8" d="M29,44.7c0-0.2,0-0.3,0-0.5c0.6-0.1,0.4,0.5,0.7,0.6c0.1-0.5,0.3-1,0.9-1c0,0.1,0,0.2,0,0.3
		c-0.5,0.3-0.7,0.7-0.2,1.2c0.2,0.2,0.7,0.3,0.4,0.6c-0.5,0.4-0.5-0.2-0.7-0.4C30,45.4,30,45.3,30,45.2c-0.4,0.4,0.1,0.8-0.3,1.1
		c-0.3,0.2-0.3-0.3-0.5-0.4c-0.3-0.2,0-0.6-0.2-0.8C28.9,44.9,28.9,44.8,29,44.7z"/>
	<path class="st10" d="M32.5,21.1c-0.2-0.8-0.3-1.5-1.1-0.7c-0.1,0.1-0.2,0-0.3-0.1c-0.1-0.1,0-0.2,0.1-0.3c0.4-0.4,0.7-0.9,1.1-1.3
		c0.2-0.2,0.7-0.2,0.7,0.1C33,19.5,33.2,20.3,32.5,21.1z"/>
	<path class="st10" d="M26,10.7c-0.9-1.3-0.7-2.3,0.7-2.9C26.7,8.9,26.1,9.7,26,10.7z"/>
	<path class="st4" d="M27.4,7.8c1.5,0.7,1.8,1.6,0.9,2.8C27.9,9.7,27.6,8.8,27.4,7.8z"/>
	<path class="st16" d="M21.9,44.7c0.4-0.2,0.5-0.7,0.8-0.9c0.2-0.1,0.3-0.2,0.5-0.1c0.2,0.1,0.3,0.2,0.2,0.5
		c-0.1,0.4-0.1,0.9-0.1,1.3c0,0.2,0.1,0.4-0.3,0.4c-0.3,0-0.2-0.2-0.2-0.4c0-0.5-0.4-0.4-0.6-0.3c-0.2,0-0.2,0.5-0.5,0.2
		c-0.4-0.3,0.2-0.4,0.2-0.6C21.9,44.8,21.9,44.7,21.9,44.7C21.9,44.7,21.9,44.7,21.9,44.7z"/>
	<path class="st17" d="M38.9,24.5c0.9,0,1.1,0.6,1.3,1.3c0,0,0,0,0,0c-0.2,0-0.5,0.1-0.5-0.1c-0.1-0.3-0.1-0.6-0.4-0.5
		c-0.3,0.1-0.1,0.4-0.1,0.6c0,0.4-0.2,0.7-0.5,0.7c-0.3,0.1-0.6-0.1-0.7-0.4c-0.1-0.2-0.1-0.4-0.2-0.6c0,0,0.1-0.1,0.1-0.1
		c0.8,0.3,0.6-0.6,0.9-0.8C38.7,24.4,38.8,24.4,38.9,24.5z"/>
	<path class="st10" d="M33.3,21c0.2-0.2,0.3-0.1,0.4,0.1c0.1,0.2,0.4,0.3,0.5,0.2c0.3-0.2,0-0.3-0.1-0.5c-0.2-0.3-0.3-0.7,0.1-1
		c0.3-0.2,0.6-0.1,0.9,0.1c0.2,0.1,0.5,0.2,0.3,0.5c-0.2,0.4-0.3-0.2-0.5-0.2c-0.1,0-0.2-0.2-0.3,0c0,0.5,0.9,1.3-0.2,1.6
		C33.9,21.9,33.5,21.5,33.3,21z"/>
	<path class="st17" d="M19.8,19.8c-0.1,0.1-0.2,0.2-0.4,0.3c-0.1,0.1-0.4,0.1-0.2,0.4c0.2,0.2,0.3,0.1,0.5,0c0.1-0.1,0.5-0.1,0.4,0
		c-0.5,0.4-0.2,0.9-0.3,1.4c0,0.2-0.3,0.1-0.4-0.1c-0.2-0.4-0.5-0.7-0.7-1.1c-0.1-0.2-0.4-0.4-0.1-0.6c0.3-0.2,0.6-0.4,0.9-0.5
		C19.5,19.5,19.6,19.7,19.8,19.8z"/>
	<path class="st18" d="M14.2,26.1C14.2,26,14.1,26,14,25.9c-0.4-0.6,0.3-0.9,0.4-1.4c0.5,0.1,0.8,0.5,1.3,0.5c0.3-0.1,0.6,0,0.5,0.4
		c0.1,0.3,0.1,0.6-0.4,0.4c-0.2-0.1-0.4-0.2-0.5-0.3C14.5,25.1,14.4,25.1,14.2,26.1z"/>
	<path class="st9" d="M12.2,44.9c0.9,0.4,1.7,0.7,2,1.6c0.1,0.2,0.3,0.3,0.4,0.5c0.1,0.2,0.7,0.2,0.4,0.6c-0.2,0.2-0.5-0.2-0.7-0.3
		C13.7,46.5,13.1,45.8,12.2,44.9z"/>
	<path class="st15" d="M35.8,42.7c0.1,0.1,0.1,0.1,0.2,0.2c0.5,0.6-0.3,0.7-0.5,0.9c-0.5,0.6-0.6-0.3-0.9-0.3
		c-0.2-0.3-0.4-0.5-0.6-0.8c0.1-0.2-0.3-0.3,0-0.5c0.3-0.2,0.4,0,0.5,0.2c0.1,0.2,0.3,0.4,0.4,0.6C35.4,43.5,35.7,43.4,35.8,42.7z"
		/>
	<path class="st8" d="M29.6,17.7c0.8,0.1,1.3,0.2,2,0.6c-1,0-1,0.7-1.1,1.2c0,0.3-0.1,0.5-0.4,0.5c-0.3-0.1-0.2-0.4-0.1-0.6
		C30.3,18.8,30.3,18.3,29.6,17.7z"/>
	<path class="st4" d="M29.4,19.3c-0.4,0.7-0.9,0.3-1.3,0.3c-0.3,0-0.1-0.4-0.2-0.7c0-0.4,0.2-0.7,0.2-1.1c0-0.2,0.1-0.3,0.3-0.3
		c0.3,0,0.2,0.2,0.2,0.4c0,0.1,0,0.2-0.1,0.3C28.4,18.9,28.3,19.5,29.4,19.3z"/>
	<path class="st19" d="M38.6,39.8c-0.2-0.1-0.3-0.2-0.5-0.3c-0.2-0.1-0.5-0.1-0.7-0.3c0-0.1,0-0.1,0-0.2c0-0.4,0.1-0.6,0.6-0.3
		c0.3,0.2,0.6,0.4,0.9,0.6c0.2,0.1,0.6,0.1,0.4,0.5C39.1,40.2,38.9,39.6,38.6,39.8z"/>
	<path class="st20" d="M16.2,25.4c-0.2-0.1-0.4-0.2-0.5-0.4c-0.1-0.4-0.5-0.3-0.7-0.6c-0.1-0.1-0.4,0-0.2-0.3
		c0.1-0.2,0.3-0.2,0.4-0.1c0.5,0.3,1,0.5,1.4,0.9C16.9,25.2,16.5,25.3,16.2,25.4z"/>
	<path class="st21" d="M38.7,36.9c0.2,0.2,0.5,0.4,0.8,0.4c0,0,0,0.1,0.1,0.1c0.3,0.2,1,0.1,0.7,0.6c-0.2,0.4-0.6-0.1-0.9-0.2
		c-0.2-0.1-0.5-0.2-0.7-0.3C37.9,37.2,38.2,37.1,38.7,36.9z"/>
	<path class="st15" d="M38.9,24.5c-0.1,0-0.2,0-0.2,0c-0.2,0.5-0.6,0.6-1,0.9c0,0,0,0,0,0c-0.4-0.3-0.4-0.5,0-0.8
		c0.3-0.2,0.6-0.4,0.9-0.6c0.2-0.1,0.3-0.4,0.6-0.2C39.4,24.2,38.8,24.2,38.9,24.5z"/>
	<path class="st10" d="M47,34.6c-0.5-0.9,0-1.7,0-2.6C46.9,32.8,47.8,33.7,47,34.6z"/>
	<path class="st12" d="M49.6,34.4c-0.5-0.7-0.2-1.5,0-2.2C49.6,33,50.5,33.7,49.6,34.4z"/>
	<path class="st8" d="M11.1,45c-0.1,0.4,0,0.8-0.1,1.2c-0.3-0.3-0.9-0.1-1-0.7C10,44.9,10.8,45.3,11.1,45z"/>
	<path class="st22" d="M39,48.3c-0.5,0.5-0.9,1.1-1.4,1.7C37.6,48.9,38.2,48.5,39,48.3z"/>
	<path class="st23" d="M9.9,46.4c0.5,0.3,1.4,0.2,1,1.2C10.4,47.3,10.2,46.8,9.9,46.4z"/>
	<path class="st24" d="M18.3,22.2c0.2,0.3,0.2,0.6,0,0.9c-0.2,0.2-0.4,0.2-0.6,0c-0.2-0.2-0.2-0.5-0.1-0.8
		C17.8,22,18,21.7,18.3,22.2z"/>
	<path class="st22" d="M47.8,41.5c-0.1-0.6,0.2-1,0.5-1.5C48.6,40.7,48.6,40.8,47.8,41.5z"/>
	<path class="st25" d="M29,45c0.3,0.2,0.1,0.6,0.2,0.9c0,0.1,0,0.2,0,0.3c0,0,0,0-0.1,0c-0.4-0.2-0.5-0.4-0.2-0.8
		c0,0-0.1-0.1-0.1-0.2C28.9,45,29,45,29,45z"/>
	<path class="st26" d="M18.3,22.2c-0.2-0.1-0.4-0.1-0.5,0.2c-0.2,0.1-0.3,0-0.4-0.2c-0.1-0.2,0-0.4,0.1-0.5
		C18,21.4,18.3,21.5,18.3,22.2z"/>
	<path class="st27" d="M17.4,21.6c0,0.2,0,0.4,0,0.5c-0.1,0.1-0.1,0.1-0.2,0.1c-0.1,0-0.2,0-0.2,0c-0.3-0.1-0.5-0.3-0.4-0.6
		C16.8,21.1,17.1,21.4,17.4,21.6z"/>
	<path class="st28" d="M46.2,25.5c0.3,0.6,0.9,1,0.6,1.8C46.5,26.7,46.1,26.2,46.2,25.5z"/>
	<path class="st29" d="M17.8,22.8c0.1,0.2,0.3,0.2,0.6,0.2c-0.2,0.3-0.3,0.8-0.9,0.5c-0.2-0.2-0.3-0.3-0.3-0.6
		C17.3,22.7,17.5,22.7,17.8,22.8z"/>
	<path class="st30" d="M16.2,23.3c0-0.2,0-0.5,0-0.7c0.2-0.2,0.4-0.4,0.7-0.2c0.1,0.1,0.2,0.2,0.2,0.3c0,0.1,0,0.2,0,0.3
		c0,0.1-0.1,0.2-0.2,0.3C16.6,23.3,16.4,23.4,16.2,23.3z"/>
	<path class="st24" d="M36,23.4c-0.3-0.2-0.4-0.5-0.4-0.9c0.2-0.1,0.4,0,0.5-0.1c0.3,0,0.3,0.2,0.4,0.5C36.5,23.2,36.4,23.5,36,23.4
		z"/>
	<path class="st31" d="M18.7,41.6c-0.1,0.2-0.1,0.4-0.3,0.5c-0.1,0-0.1,0-0.2,0c0-0.1,0-0.1,0-0.2c0-0.3-0.7-0.4-0.2-0.7
		C18.3,41,18.4,41.6,18.7,41.6z"/>
	<path class="st32" d="M48.7,25.8c0.4,0.3,1.1,0.6,0.6,1.4C49.1,26.7,48.9,26.2,48.7,25.8z"/>
	<path class="st33" d="M36,22.5c-0.1,0.2-0.2,0-0.4,0c0-0.3,0.1-0.5,0.4-0.7c0.5-0.2,0.6,0,0.6,0.5C36.5,22.5,36.2,22.3,36,22.5z"/>
	<path class="st34" d="M36,23.4c0.2-0.1,0.4-0.3,0.4-0.6c0.1-0.1,0.3-0.1,0.4-0.1c0.1,0,0.2,0.1,0.2,0.2c0.1,0.2,0.1,0.4,0,0.6
		c-0.2,0.3-0.5,0.2-0.8,0.1C36.1,23.5,36.1,23.5,36,23.4z"/>
	<path class="st35" d="M16.7,23.1c0.1-0.1,0.1-0.2,0.2-0.2c0.2,0,0.3,0.1,0.3,0.2c0.1,0.2,0.1,0.4,0.2,0.6c-0.2,0.1-0.5,0.3-0.7,0
		C16.6,23.4,16.6,23.2,16.7,23.1z"/>
	<path class="st17" d="M26.5,15.8c0.6-0.5,0.6-0.5,1.3,0C27.3,15.8,26.9,15.8,26.5,15.8z"/>
	<path class="st27" d="M36.5,22.3c0-0.3-0.2-0.5-0.5-0.5c0.1-0.3,0.4-0.4,0.7-0.4c0.3,0.2,0.4,0.4,0.3,0.7c-0.1,0.1-0.2,0.2-0.3,0.2
		C36.6,22.4,36.6,22.3,36.5,22.3z"/>
	<path class="st36" d="M16.9,22.3c-0.2,0.1-0.5,0.1-0.7,0.2c0-0.4,0.1-0.7,0.3-0.9c0.1,0.3,0.3,0.4,0.6,0.6
		C17.1,22.3,17,22.4,16.9,22.3z"/>
	<path class="st37" d="M39.6,33.6c0.2,0.1,0.4,0.2,0.5,0.3c0,0.1,0,0.3,0,0.4c0,0.2,0,0.3-0.3,0.3c-0.2,0-0.3-0.2-0.3-0.4
		c0-0.2,0-0.4,0-0.6C39.6,33.7,39.6,33.6,39.6,33.6z"/>
	<path class="st38" d="M36.9,23.4c0-0.2,0-0.4,0-0.6c0.1-0.1,0.2-0.1,0.3-0.1c0.1,0,0.2,0.1,0.2,0.1c0.2,0.2,0.3,0.4,0,0.6
		c0,0.2-0.1,0.4-0.4,0.4C36.9,23.7,37,23.5,36.9,23.4z"/>
	<path class="st29" d="M37.9,22.3c0,0.2,0.1,0.4-0.2,0.6c-0.2,0.1-0.4,0.1-0.5,0l0,0c-0.1-0.1-0.1-0.2-0.1-0.3c0-0.1,0-0.2,0.1-0.2
		C37.4,22.1,37.7,22,37.9,22.3z"/>
	<path class="st39" d="M37.3,22.3c0,0.1,0,0.1,0,0.2c-0.3,0.1-0.3-0.2-0.3-0.4c0-0.2-0.1-0.5,0.1-0.7c0.2,0,0.3,0.1,0.4,0.2
		C37.9,22,37.5,22.1,37.3,22.3z"/>
	<path class="st40" d="M37.3,22.3c0.1-0.2,0.5-0.3,0.2-0.7c0.6-0.1,0.3,0.4,0.5,0.6C37.7,22.1,37.5,22.4,37.3,22.3z"/>
	<path class="st41" d="M37.2,22.9c0.2,0,0.4,0,0.5,0c0,0.2,0.2,0.6-0.3,0.5C37.8,23.1,37.2,23.1,37.2,22.9z"/>
	<path class="st42" d="M36.7,13.3c0.3,0,0.6,0,0.5,0.3c-0.1,0.3-0.3,0.1-0.4,0C36.8,13.5,36.8,13.4,36.7,13.3z"/>
	<path class="st43" d="M36.9,23.4c0.2,0,0.2,0.2,0.2,0.3c-0.3-0.1-0.6,0.2-0.9-0.2C36.4,23.5,36.7,23.7,36.9,23.4z"/>
	<path class="st44" d="M13.5,37.2c0.2-0.3,0.5-0.1,0.7-0.4c0,0.5-0.4,0.4-0.6,0.5C13.6,37.3,13.6,37.2,13.5,37.2z"/>
	<path class="st45" d="M13.7,36.1c0.3,0,0.6,0,0.9,0c-0.1,0.2-0.3,0.1-0.4,0.2C14,36.3,13.8,36.3,13.7,36.1z"/>
	<path class="st46" d="M16.7,23.1c0,0.2,0,0.3,0,0.5c-0.2-0.1-0.3-0.2-0.5-0.3C16.4,23.3,16.5,23.2,16.7,23.1z"/>
	<path class="st47" d="M37.1,21.4c0,0.2,0,0.5,0,0.7c0,0.1-0.1,0.1-0.1,0c-0.1-0.2-0.1-0.5-0.2-0.7C36.8,21.5,37,21.4,37.1,21.4z"/>
	<path class="st48" d="M30.2,31.8c0.3,1-0.3,1.7-0.8,2.3c-0.5,0.7-1.4,1.1-2.3,1.1c-1.9-0.1-3.4-1.9-3.3-3.5c0.1-1.1,2.1-3.1,3-2.8
		c0.8,0.2,1.8,0.1,2.3,0.9C29.6,30.3,30.3,30.9,30.2,31.8z"/>
	<path class="st0" d="M20.8,37.3c-1,0.1-1.6-0.5-2-1.3c-0.4-0.9-0.6-1.8-0.9-2.7c-0.1-0.2-0.3-0.5,0.2-0.6c0.3-0.1,0.6,0.1,0.7,0.4
		c0.2,0.8,0.5,1.7,0.7,2.5c0.2,0.5,0.5,0.9,1.1,1c0.8,0.1,1.2-0.3,1-1c-0.3-0.8-0.6-1.6-0.9-2.4c-0.1-0.2-0.3-0.5,0.1-0.5
		c0.3,0,0.7-0.2,0.8,0.3c0.3,1,0.6,2,0.9,3C22.6,36.9,22,37.3,20.8,37.3z"/>
	<path class="st49" d="M33.3,37.3c-1.3,0-1.7-0.5-1.4-1.6c0.2-0.9,0.5-1.7,0.7-2.6c0.1-0.5,0.4-0.4,0.6-0.4c0.5,0.1,0.2,0.4,0.1,0.6
		c-0.2,0.7-0.4,1.5-0.6,2.2c-0.1,0.4-0.3,0.9,0.2,1.1c0.5,0.3,1,0.1,1.3-0.4c0.5-0.6,0.5-1.5,0.9-2.2c0.3-0.5-0.1-1.6,0.9-1.3
		c0.6,0.2,0,0.9-0.1,1.4c-0.2,0.9-0.4,1.8-1,2.5C34.4,37.1,33.9,37.5,33.3,37.3z"/>
	<path class="st49" d="M26.9,27.4c-0.2,0-0.4,0-0.6-0.1c-0.3-0.1-0.8,0-0.6-0.6c0.2-0.4,0.5-0.1,0.8-0.1c0.5,0.1,1,0.1,1.2-0.5
		c0.2-0.6-0.3-0.8-0.7-0.9c-0.4-0.2-0.8-0.3-1.1-0.7c-0.4-0.6-0.3-1.1,0.2-1.6c0.5-0.5,1.8-0.6,2.2-0.2c0.1,0.1,0.1,0.3,0.1,0.4
		c-0.1,0.2-0.2,0.4-0.5,0.2c-0.2-0.1-0.5-0.1-0.7-0.1c-0.3,0.1-0.5,0.2-0.6,0.5c-0.1,0.3,0.1,0.5,0.4,0.6c0.2,0.1,0.4,0.2,0.6,0.3
		c0.9,0.3,1.2,0.9,1,1.7C28.3,27.2,27.5,27.2,26.9,27.4z"/>
	<path class="st50" d="M24.4,25.1c0,0.3-0.3,0.3-0.5,0.5c-2.1,1.2-3.7,2.8-4.1,5.3c0,0.2,0,0.7-0.4,0.7c-0.4-0.1-0.1-0.5-0.1-0.7
		c0.3-2.8,2.2-4.5,4.5-5.8C24.3,24.8,24.4,24.8,24.4,25.1z"/>
	<path class="st50" d="M34.5,31.6c-0.2-0.1-0.2-0.2-0.3-0.4c-0.4-2.6-1.8-4.5-4.1-5.7c-0.2-0.1-0.4-0.3-0.3-0.5
		c0.2-0.3,0.4,0,0.5,0.1c2.5,1.2,3.9,3.2,4.4,5.9C34.8,31.2,34.8,31.4,34.5,31.6z"/>
	<path class="st50" d="M27.1,39.7c-1.2,0-2.3-0.3-3.3-0.8c-0.2-0.1-0.5-0.1-0.4-0.5c0.1-0.4,0.4-0.2,0.6-0.1c2.1,1,4.2,1,6.3,0
		c0.2-0.1,0.5-0.3,0.6,0c0.2,0.4-0.3,0.4-0.4,0.5C29.4,39.4,28.3,39.7,27.1,39.7z"/>
	<path class="st51" d="M27.8,54.5c0.5,0.3,1,0,1.8,0.2c-1.7,0.6-3.2,0.6-4.7,0c0.2,0,0.4,0,0.5-0.1c0.2,0,0.4,0,0.6,0
		c0.3-0.1,0.6-0.2,0.9-0.2c-0.8,0-1.4-0.3-2-0.7c-0.4-0.2-0.3-0.4,0-0.5c0.5-0.1,1-0.2,1.5,0c-0.3-0.1-0.7,0-0.9-0.3
		c-0.3-0.2-0.5-0.4-0.9-0.7c0.5-0.3,0.9-0.3,1.4-0.4c0.1,0.1,0.2,0.1,0.3,0.1c0.1,0,0.1,0,0.2,0c-0.1,0-0.1,0-0.2,0
		c-0.1,0-0.2,0-0.3-0.1c0-0.4-0.4-0.2-0.5-0.3c-0.2-0.2-0.8-0.3-0.6-0.7c0.1-0.2,0.6-0.3,1-0.3c0.4,0,0.7,0.5,1.1,0.3
		c0.1-0.3,0.3-0.1,0.5-0.1c0.7-0.1,1.4-0.4,2,0.2c-0.2,0.6-1,0.5-1.3,1c-0.1,0.1-0.3,0.1-0.4,0.1c0.1,0,0.3,0,0.4-0.1
		c0.4,0.1,0.9,0.2,1.5,0.3c-0.5,0.4-0.8,0.7-1.3,0.8c-0.2,0.2-0.5,0.2-0.9,0.3c0.6-0.1,1-0.2,1.4,0c0.2,0.1,0.5,0,0.7,0.3
		c-0.7,0.4-1.3,1-2.3,0.7C27.3,54.6,27.7,54.4,27.8,54.5z"/>
	<path class="st52" d="M27.5,50.7c-0.1,0.2-0.3,0.1-0.5,0.1c-0.7-0.4-0.7-1-0.5-1.7c0.1-0.2,0.3-0.5,0.6-0.5c0.4,0,0.5,0.3,0.6,0.5
		C28,49.7,27.8,50.2,27.5,50.7z"/>
	<path class="st4" d="M25.5,52.8c0.4,0,0.8,0.3,1.3,0.1c0.3-0.1,0.1,0.3,0.1,0.6c-0.6-0.6-1.3-0.3-1.9-0.4
		C25.1,53.1,25.3,53,25.5,52.8z"/>
	<path class="st53" d="M28.9,53.2c-0.5,0-1.1-0.1-1.5,0.4c-0.2-0.5-0.2-0.7,0.4-0.6c0.2,0,0.4-0.1,0.6-0.1
		C28.5,53,28.7,53.1,28.9,53.2z"/>
	<path class="st50" d="M13.6,33.1c0.3,0,0.6,0,0.7,0.4c0,0.5-0.4,0.6-0.7,0.6c-0.3,0-0.7-0.1-0.7-0.5C12.9,33.3,13.2,33,13.6,33.1z"
		/>
	<path class="st29" d="M13,32.5c0.6-0.7,0.9-0.6,1.2,0.1C13.8,32.4,13.4,32.6,13,32.5z"/>
	<path class="st54" d="M15.5,37.5c0,0.2-0.3,0.2-0.4,0.2c-0.1,0-0.3-0.1-0.3-0.2c0-0.2,0.2-0.3,0.3-0.3
		C15.3,37.2,15.4,37.3,15.5,37.5z"/>
	<path class="st55" d="M34,43.9c0,0.3-0.1,0.6-0.4,0.5c-0.4-0.1-0.7-0.4-0.7-0.9c0-0.3,0.2-0.5,0.5-0.5C33.9,43.1,34.1,43.4,34,43.9
		z"/>
	<path class="st56" d="M37.4,39.1c0.3-0.1,0.6,0,0.7,0.3c-0.6,0.5-0.6,0.5,0,0.7c0.2,0.1,0.2,0.2,0.1,0.4c-0.2,0.2-0.4,0.4-0.8,0.2
		c-0.4-0.2-0.4-0.4-0.4-0.8C37,39.6,37.5,39.5,37.4,39.1z"/>
	<path class="st57" d="M36.1,41.1c0.4,0.2,0.7,0.4,0.8,0.9c0,0.3-0.2,0.4-0.5,0.4c-0.4-0.1-0.7-0.3-0.7-0.7
		C35.6,41.3,35.8,41.1,36.1,41.1z"/>
	<path class="st58" d="M29,45c-0.1,0-0.1,0-0.2,0c-0.2-0.1-0.7,0.1-0.6-0.1c0.1-0.5,0.5-0.1,0.8-0.2C29,44.8,29,44.9,29,45z"/>
	<path class="st57" d="M20.6,44.6c-0.1,0-0.4-0.1-0.3-0.3c0.2-0.4,0.2-1,0.8-1c0.3,0,0.4,0.2,0.4,0.5C21.6,44.4,21.3,44.5,20.6,44.6
		z"/>
	<path class="st37" d="M19.1,42c0.2,0.1,0.3,0.2,0.3,0.5c0,0.2-0.1,0.3-0.3,0.2c-0.2,0-0.3-0.2-0.3-0.4C18.9,42.2,19,42.1,19.1,42z"
		/>
	<path class="st57" d="M40.6,33.4c-0.4,0-0.8,0-0.8-0.4c0-0.4,0.4-0.5,0.6-0.5c0.3,0,0.8,0,0.8,0.5C41.2,33.4,40.8,33.4,40.6,33.4z"
		/>
	<path class="st0" d="M40.3,31.1c-0.1,0.2-0.3,0.2-0.4,0.3c-0.1,0-0.1-0.2-0.1-0.3c0-0.2,0.1-0.4,0.3-0.3
		C40.2,30.8,40.3,30.9,40.3,31.1z"/>
	<path class="st0" d="M39.2,27.1c0.1-0.2,0.2-0.4,0.4-0.3c0.2,0.1,0.1,0.3-0.1,0.3C39.4,27.2,39.3,27.1,39.2,27.1z"/>
	<path class="st59" d="M32.6,19.5c-0.1,0.1-0.2,0.2-0.3,0.3c0,0-0.2-0.1-0.2-0.2c0-0.2,0.1-0.2,0.3-0.3
		C32.5,19.3,32.6,19.3,32.6,19.5z"/>
	<path class="st60" d="M22.9,44.2c0.1,0.2,0.2,0.5-0.1,0.6c-0.1,0-0.2,0-0.2,0C22.5,44.5,22.9,44.4,22.9,44.2z"/>
	<path class="st61" d="M37.6,25.4c0.2-0.5,0.7-0.5,1-0.9c0,0.4-0.1,0.9-0.1,1.4C38.1,25.9,38.1,25.1,37.6,25.4z"/>
	<path class="st62" d="M17.3,23c-0.1-0.1-0.2-0.1-0.3-0.2c0,0,0-0.1,0-0.1c0.2-0.2,0.3-0.3,0.4-0.5c0,0,0.1,0,0.1,0
		c0.1,0.1,0.2,0.1,0.4,0.2c0,0.2-0.3,0.3,0,0.5C17.6,22.9,17.4,22.8,17.3,23z"/>
	<path class="st63" d="M17.3,22.2c0.3,0.5-0.1,0.5-0.4,0.5c0-0.1,0-0.3,0-0.4c0.1,0,0.2-0.1,0.2-0.1C17.2,22.2,17.3,22.2,17.3,22.2z
		"/>
	<path class="st20" d="M36.7,22.9c-0.1,0-0.2,0-0.3,0c0-0.3-0.1-0.4-0.4-0.3c0.1-0.3,0.3-0.2,0.5-0.2l0,0
		C36.7,22.5,36.8,22.6,36.7,22.9z"/>
	<path class="st64" d="M36.7,22.9c-0.1-0.2-0.2-0.3-0.2-0.5c0.1-0.1,0.3-0.1,0.4-0.2c0,0,0.1,0,0.1,0c0,0.1,0,0.3,0.2,0.4
		c0,0.1,0,0.2,0,0.4c-0.1,0-0.2-0.2-0.4-0.1C36.8,22.8,36.7,22.8,36.7,22.9z"/>
	<path class="st8" d="M28,31.6c-0.5-0.5-0.4-1.1-0.4-1.7c0-0.5,0.2-0.7,0.7-0.4C29.6,30.2,29.6,30.5,28,31.6z"/>
	<path class="st4" d="M29.2,32.9c-0.5,0-0.9-0.1-1.2-0.5c-0.1-0.2,1.1-1.3,1.4-1.3c0.3,0,0.6,0.3,0.5,0.4
		C29.4,31.8,30.6,33,29.2,32.9z"/>
	<path class="st8" d="M26.2,32.4c-0.4,0.4-0.4,1.4-0.9,1.5c-0.5,0.1-0.8-0.7-0.8-1.1c0-0.6,0.7-0.6,1.2-0.8
		C25.9,31.9,26.1,32,26.2,32.4z"/>
	<path class="st8" d="M26.5,31.2c-0.5,0.7-1.4,0.4-1.9,0.8c0,0-0.3-0.1-0.3-0.2c0.1-0.4,0.2-0.9,0.4-1.2c0.2-0.3,0.6-0.2,0.8,0
		C25.9,30.7,26.2,31,26.5,31.2z"/>
	<path class="st4" d="M25.8,33.9c0-0.1,0.1-0.3,0.2-0.4c0.1-0.3,0.2-0.6,0.5-0.7c0.4,0,0.3,0.5,0.5,0.7c0.1,0.1,0.1,0.2,0.1,0.3
		c0,0.3,0.6,0.6,0.3,0.8c-0.4,0.3-0.9,0-1.4-0.1C25.8,34.5,25.8,34.2,25.8,33.9z"/>
	<path class="st4" d="M28.2,34.5c-0.6-0.2-0.8-0.8-0.9-1.3c-0.1-0.3,0.3-0.4,0.5-0.3c0.5,0.3,1.4,0,1.5,0.7
		C29.4,33.9,28.7,34.3,28.2,34.5z"/>
	<path class="st4" d="M27.2,30.3c-0.1,0.2,0.2,0.7-0.3,0.6c-0.6-0.1-1.3-0.5-1.4-1.1c-0.1-0.5,0.8-0.6,1.2-0.6
		C27.2,29.1,27.3,29.7,27.2,30.3z"/>
	<path class="st65" d="M27.1,31.3c0.3,0.2,0.7,0.3,0.7,0.7c0,0.4-0.4,0.7-0.7,0.7c-0.3,0-0.5-0.3-0.5-0.7
		C26.5,31.6,26.8,31.4,27.1,31.3z"/>
	<path class="st66" d="M26,51.8c0.2,0.2,1-0.7,0.9,0.4C26.6,52.1,26.3,52,26,51.8C26,51.8,26,51.8,26,51.8z"/>
	<path class="st67" d="M28.1,51.8c-0.3,0.2-0.5,0.3-0.8,0.4C27.3,51.7,27.3,51.7,28.1,51.8C28.2,51.8,28.1,51.8,28.1,51.8z"/>
</g>
</svg>
